<?xml version="1.0" encoding="UTF-8"?>
<svg width="81px" height="41px" viewBox="0 0 81 41" version="1.1" xmlns="http://www.w3.org/2000/svg" xmlns:xlink="http://www.w3.org/1999/xlink">
    <!-- Generator: Sketch 48.2 (47327) - http://www.bohemiancoding.com/sketch -->
    <title>Group 3</title>
    <desc>Created with Sketch.</desc>
    <defs></defs>
    <g id="Artboard-2" stroke="none" stroke-width="1" fill="none" fill-rule="evenodd" transform="translate(-163.000000, -179.000000)">
        <g id="Group-3" transform="translate(163.000000, 179.000000)">
            <g id="Group-2" transform="translate(2.000000, 0.000000)">
                <path d="M9.2358582,22.3941583 C10.9018582,24.4721583 14.5488582,25.9421583 16.6458582,27.6611583 C18.2888582,29.0091583 19.8088582,30.4781583 21.3358582,31.9531583 C21.9518582,32.5481583 23.8398582,33.7511583 24.0978582,34.6101583 C25.3608582,38.8211583 21.9708582,38.5211583 19.8928582,37.8361583 C20.0898582,37.6901583 20.2868582,37.5441583 20.4838582,37.3981583 C20.9718582,37.0371583 21.2178582,36.4231583 20.8878582,35.8591583 C20.6058582,35.3781583 19.8398582,35.0921583 19.3488582,35.4551583 C18.9078582,35.7811583 18.4678582,36.1071583 18.0278582,36.4321583 C17.8678582,36.5501583 17.7488582,36.7011583 17.6528582,36.8621583 C17.1828582,36.6251583 16.7158582,36.3711583 16.2518582,36.0991583 C16.4168582,35.9811583 16.5808582,35.8631583 16.7588582,35.7561583 C17.9988582,35.0121583 16.8698582,33.0661583 15.6228582,33.8141583 C15.1348582,34.1061583 14.6828582,34.4531583 14.2528582,34.8261583 C13.6948582,34.4461583 13.1428582,34.0571583 12.5978582,33.6571583 C12.9118582,33.4911583 13.2248582,33.3251583 13.5378582,33.1591583 C14.8178582,32.4811583 13.6818582,30.5381583 12.4018582,31.2161583 C11.8068582,31.5321583 11.2108582,31.8481583 10.6158582,32.1641583 C10.2568582,31.8871583 9.9008582,31.6111583 9.5518582,31.3411583 C9.7328582,31.2171583 9.9168582,31.0961583 10.1128582,30.9861583 C11.3758582,30.2781583 10.2428582,28.3341583 8.9768582,29.0441583 C8.5248582,29.2971583 8.1058582,29.6021583 7.7038582,29.9261583 C7.1928582,29.5411583 6.6378582,29.1221583 6.0638582,28.6721583 C6.3498582,28.4441583 6.6488582,28.2421583 6.9948582,28.0791583 C7.5438582,27.8191583 7.6858582,27.0311583 7.3978582,26.5391583 C7.0698582,25.9771583 6.4108582,25.8751583 5.8588582,26.1361583 C5.2858582,26.4071583 4.7728582,26.7861583 4.3078582,27.2171583 C3.8918582,26.8491583 3.4838582,26.4671583 3.0968582,26.0741583 C3.4568582,25.8361583 3.8178582,25.5971583 4.1778582,25.3591583 C5.3798582,24.5621583 4.2538582,22.6131583 3.0418582,23.4161583 C2.5708582,23.7281583 2.0998582,24.0401583 1.6278582,24.3521583 C1.1048582,23.6231583 0.699858201,22.8661583 0.469858201,22.0931583 C0.825858201,22.0931583 1.1818582,22.0931583 1.5388582,22.0931583 C2.9858582,22.0931583 2.9888582,19.8431583 1.5388582,19.8431583 C1.1428582,19.8431583 0.747858201,19.8431583 0.351858201,19.8431583 C0.495858201,19.1501583 0.818858201,18.4511583 1.3608582,17.7521583 C1.7768582,18.1941583 2.2008582,18.6281583 2.6968582,18.9831583 C3.1908582,19.3371583 3.9488582,19.0691583 4.2358582,18.5801583 C4.5668582,18.0141583 4.3278582,17.3951583 3.8318582,17.0401583 C4.0128582,17.1701583 3.6498582,16.8731583 3.6158582,16.8401583 C3.4728582,16.7051583 3.3358582,16.5631583 3.1998582,16.4211583 C3.1208582,16.3391583 3.0428582,16.2561583 2.9658582,16.1731583 C3.3438582,15.8621583 3.7188582,15.5491583 4.0878582,15.2311583 C4.5258582,15.6501583 4.9388582,16.0901583 5.3168582,16.5651583 C5.6958582,17.0411583 6.5128582,16.9611583 6.9078582,16.5651583 C7.3778582,16.0951583 7.2878582,15.4511583 6.9078582,14.9741583 C6.5588582,14.5351583 6.1778582,14.1281583 5.7778582,13.7371583 C6.3138582,13.2551583 6.8478582,12.7711583 7.3798582,12.2861583 C7.8048582,12.6681583 8.2408582,13.0381583 8.6458582,13.4391583 C9.6758582,14.4591583 11.2678582,12.8691583 10.2368582,11.8481583 C9.8598582,11.4741583 9.4558582,11.1281583 9.0588582,10.7741583 C9.6728582,10.2291583 10.2958582,9.69215831 10.9278582,9.16515831 C11.3288582,9.63315831 11.7608582,10.0651583 12.1738582,10.5271583 C13.1428582,11.6081583 14.7298582,10.0121583 13.7658582,8.93615831 C13.4138582,8.54415831 12.9958582,8.19615831 12.6638582,7.78715831 C12.9468582,7.57215831 13.2258582,7.35415831 13.5158582,7.14615831 C13.9308582,6.84815831 14.3328582,6.53415831 14.7318582,6.21815831 C14.9388582,6.50115831 15.1458582,6.78415831 15.3528582,7.06815831 C15.7108582,7.55815831 16.3298582,7.80015831 16.8918582,7.47115831 C17.3758582,7.18915831 17.6558582,6.42515831 17.2958582,5.93215831 C17.0308582,5.56915831 16.7658582,5.20715831 16.5008582,4.84415831 C17.0058582,4.46515831 17.5318582,4.11615831 18.0778582,3.79615831 C18.1088582,3.83615831 18.1378582,3.87615831 18.1768582,3.91415831 C18.5098582,4.23915831 18.8428582,4.56415831 19.1748582,4.88915831 C20.2118582,5.90215831 21.8038582,4.31315831 20.7668582,3.29815831 C20.5758582,3.11215831 20.3848582,2.92515831 20.1938582,2.73915831 C21.5918582,2.20315831 22.7918582,2.20515831 23.7148582,3.92815831 C24.8818582,6.11015831 23.6578582,6.61915831 22.1698582,8.13415831 C18.4518582,11.9211583 13.6948582,14.5351583 9.9378582,18.2071583 C8.5278582,19.5871583 7.9498582,20.7901583 9.2358582,22.3941583 Z" id="Fill-58" fill="#E2F0D0"></path>
                <path d="M73.7498582,24.0961583 C69.9428582,27.1571583 66.6638582,30.6971583 62.6908582,33.5471583 C60.9528582,34.7941583 59.4218582,36.3011583 57.4978582,37.2691583 C55.4578582,38.2961583 53.7258582,39.0711583 52.4918582,36.7641583 C51.9858582,35.8191583 51.9458582,35.1941583 52.1648582,34.6581583 C52.7088582,35.0921583 53.2468582,35.5351583 53.8118582,35.9431583 C54.3048582,36.2981583 55.0658582,36.0271583 55.3508582,35.5391583 C55.6828582,34.9711583 55.4418582,34.3571583 54.9478582,34.0001583 C54.4928582,33.6711583 54.0538582,33.3191583 53.6168582,32.9661583 C53.7528582,32.8361583 53.8918582,32.7051583 54.0368582,32.5581583 C54.3668582,32.2221583 54.7128582,31.9051583 55.0568582,31.5871583 C55.5148582,32.0731583 55.9668582,32.5641583 56.4738582,32.9991583 C56.9348582,33.3951583 57.6128582,33.4521583 58.0648582,32.9991583 C58.4698582,32.5941583 58.5278582,31.8051583 58.0648582,31.4081583 C57.5958582,31.0061583 57.1738582,30.5551583 56.7508582,30.1051583 C57.2918582,29.6591583 57.8408582,29.2231583 58.3968582,28.7961583 C58.8598582,29.3901583 59.3188582,29.9891583 59.8438582,30.5301583 C60.8558582,31.5701583 62.4458582,29.9781583 61.4348582,28.9391583 C60.9818582,28.4721583 60.5788582,27.9611583 60.1788582,27.4481583 C60.6378582,27.1061583 61.0958582,26.7631583 61.5528582,26.4191583 C61.9818582,26.8191583 62.3388582,27.2671583 62.7228582,27.7151583 C63.1188582,28.1771583 63.9078582,28.1211583 64.3138582,27.7151583 C64.7718582,27.2571583 64.7098582,26.5871583 64.3138582,26.1241583 C63.9938582,25.7501583 63.6848582,25.3811583 63.3468582,25.0321583 C63.9398582,24.5611583 64.5158582,24.0731583 65.0818582,23.5731583 C65.3678582,23.7841583 65.6338582,24.0121583 65.8818582,24.2741583 C66.8808582,25.3261583 68.4698582,23.7341583 67.4728582,22.6831583 C67.2408582,22.4391583 66.9918582,22.2131583 66.7308582,22.0021583 C67.1428582,21.5391583 67.4318582,21.0881583 67.5768582,20.6271583 C68.0418582,20.6551583 68.5078582,20.6841583 68.9738582,20.7131583 C69.5808582,20.7511583 70.0988582,20.1691583 70.0988582,19.5881583 C70.0988582,18.9481583 69.5828582,18.5011583 68.9738582,18.4631583 C68.3158582,18.4231583 67.6578582,18.3821583 66.9988582,18.3411583 C66.9878582,18.3261583 66.9818582,18.3131583 66.9698582,18.2981583 C66.6858582,17.9441583 66.3298582,17.6121583 65.9478582,17.2891583 C66.3078582,17.1191583 66.6678582,16.9491583 67.0288582,16.7791583 C67.5788582,16.5211583 67.7188582,15.7321583 67.4318582,15.2401583 C67.1028582,14.6771583 66.4448582,14.5771583 65.8928582,14.8371583 C65.2118582,15.1571583 64.5328582,15.4781583 63.8518582,15.7981583 C63.4948582,15.5751583 63.1358582,15.3551583 62.7728582,15.1381583 C63.0788582,14.9901583 63.3828582,14.8421583 63.6878582,14.6941583 C64.2348582,14.4281583 64.3808582,13.6501583 64.0908582,13.1541583 C63.7648582,12.5961583 63.1008582,12.4851583 62.5518582,12.7511583 C61.9358582,13.0501583 61.3198582,13.3491583 60.7028582,13.6491583 C60.6468582,13.6761583 60.6128582,13.7281583 60.5648582,13.7651583 C60.2058582,13.5241583 59.8648582,13.2811583 59.5598582,13.0311583 C59.4228582,12.9191583 59.2968582,12.7961583 59.1618582,12.6811583 C59.5848582,12.4461583 60.0158582,12.2261583 60.4558582,12.0211583 C61.0058582,11.7641583 61.1458582,10.9721583 60.8598582,10.4821583 C60.5298582,9.91715831 59.8728582,9.82015831 59.3208582,10.0781583 C58.6548582,10.3891583 58.0148582,10.7441583 57.3868582,11.1231583 C56.9548582,10.7241583 56.5268582,10.3191583 56.1008582,9.91315831 C56.3488582,9.76115831 56.6058582,9.62115831 56.8648582,9.51315831 C57.4248582,9.28015831 57.8258582,8.76815831 57.6498582,8.12915831 C57.5038582,7.60015831 56.8308582,7.10915831 56.2658582,7.34315831 C55.5968582,7.62215831 55.0108582,7.96615831 54.4348582,8.37015831 C54.1208582,8.11815831 53.7338582,7.82415831 53.3578582,7.51215831 C53.6348582,7.26915831 53.9268582,7.05615831 54.2618582,6.87715831 C55.5388582,6.19415831 54.4048582,4.25215831 53.1258582,4.93415831 C52.7298582,5.14615831 52.3628582,5.41315831 52.0148582,5.70215831 C51.0198582,1.67115831 54.7218582,2.24715831 56.6728582,2.98415831 C60.7028582,4.50315831 64.5948582,7.79715831 67.9818582,10.3721583 C71.8848582,13.3411583 79.7928582,18.8081583 73.7498582,24.0961583 Z" id="Fill-59" fill="#CFE4E4"></path>
                <path d="M40.9428582,20.9361583 C40.3848582,23.3901583 39.7838582,25.8341583 39.1428582,28.2681583 C38.3298582,31.3581583 37.6838582,37.5581583 33.8268582,37.4461583 C31.7098582,37.3841583 31.6008582,37.1881583 31.6808582,35.8241583 C31.9518582,35.8701583 32.2218582,35.9531583 32.4788582,36.0411583 C33.0538582,36.2381583 33.7088582,35.8151583 33.8628582,35.2561583 C34.0328582,34.6381583 33.6538582,34.0691583 33.0778582,33.8711583 C32.6658582,33.7301583 32.2508582,33.6531583 31.8258582,33.5911583 C31.8668582,33.1871583 31.9178582,32.7821583 31.9768582,32.3771583 C32.4748582,32.4711583 32.9768582,32.5381583 33.4838582,32.5491583 C34.9328582,32.5821583 34.9318582,30.3321583 33.4838582,30.2991583 C33.0878582,30.2911583 32.7128582,30.2401583 32.3328582,30.1611583 C32.3708582,29.9341583 32.4098582,29.7051583 32.4438582,29.4801583 C32.4628582,29.3611583 32.4858582,29.2431583 32.5048582,29.1251583 C32.9958582,29.1841583 33.4808582,29.2651583 33.9648582,29.3861583 C35.3698582,29.7371583 35.9688582,27.5681583 34.5628582,27.2171583 C34.0088582,27.0781583 33.4458582,26.9861583 32.8798582,26.9141583 C32.9928582,26.2561583 33.0928582,25.5971583 33.2148582,24.9411583 C33.8588582,25.0211583 34.4888582,25.1801583 35.0978582,25.4061583 C35.6678582,25.6181583 36.3308582,25.1711583 36.4818582,24.6211583 C36.6548582,23.9911583 36.2678582,23.4491583 35.6958582,23.2371583 C35.0328582,22.9901583 34.3508582,22.8501583 33.6578582,22.7511583 C33.7558582,22.2641583 33.8508582,21.7761583 33.9538582,21.2911583 C34.4658582,21.4081583 34.9768582,21.5251583 35.4898582,21.6421583 C36.8988582,21.9651583 37.5008582,19.7961583 36.0878582,19.4721583 C35.5238582,19.3431583 34.9608582,19.2141583 34.3968582,19.0861583 C34.4898582,18.6111583 34.5958582,18.0651583 34.7148582,17.4611583 C35.0688582,17.5541583 35.4228582,17.6471583 35.7768582,17.7401583 C37.1788582,18.1091583 37.7758582,15.9391583 36.3748582,15.5701583 C35.9728582,15.4641583 35.5698582,15.3591583 35.1678582,15.2531583 C35.2268582,14.9731583 35.2888582,14.6891583 35.3518582,14.4011583 C35.9868582,14.5361583 36.6208582,14.6721583 37.2548582,14.8071583 C37.8488582,14.9341583 38.4718582,14.6311583 38.6398582,14.0221583 C38.7928582,13.4611583 38.4508582,12.7651583 37.8538582,12.6371583 C37.1888582,12.4961583 36.5258582,12.3541583 35.8618582,12.2121583 C35.9708582,11.7671583 36.0838582,11.3201583 36.2018582,10.8751583 C36.6368582,10.9701583 37.0768582,11.0341583 37.5078582,11.1501583 C38.9088582,11.5231583 39.5058582,9.35415831 38.1058582,8.98015831 C37.6828582,8.86715831 37.2488582,8.80215831 36.8218582,8.71015831 C36.9098582,8.42615831 36.9998582,8.14515831 37.0918582,7.87015831 C37.5058582,7.93115831 37.8988582,8.02815831 38.2928582,8.17615831 C38.8618582,8.39015831 39.5258582,7.93915831 39.6758582,7.39015831 C39.8498582,6.75915831 39.4618582,6.22115831 38.8908582,6.00615831 C38.5628582,5.88415831 38.2338582,5.80115831 37.8948582,5.74015831 C38.0378582,5.40815831 38.1848582,5.09615831 38.3338582,4.80015831 C38.6818582,4.95915831 39.0478582,5.07615831 39.4248582,5.13215831 C40.0258582,5.22115831 40.6338582,4.98315831 40.8088582,4.34715831 C40.9548582,3.81715831 40.6278582,3.05215831 40.0238582,2.96315831 C39.8888582,2.94315831 39.7768582,2.90115831 39.6558582,2.86715831 C40.0808582,2.46215831 40.5268582,2.23915831 40.9928582,2.25215831 C46.3498582,2.39415831 41.5288582,18.3581583 40.9428582,20.9361583 Z M40.9928582,0.0021583118 C37.6958582,-0.0908416882 36.7288582,2.83815831 35.8178582,5.58915831 C33.7908582,11.7101583 32.2288582,18.0021583 31.0498582,24.3381583 C30.4338582,27.6531583 26.2888582,41.8741583 33.8468582,40.9851583 C36.8208582,40.6351583 38.6838582,37.5061583 39.6118582,35.0071583 C41.5728582,29.7261583 42.6408582,23.8661583 43.8098582,18.3601583 C44.3798582,15.6721583 44.8838582,12.9711583 45.4008582,10.2721583 C45.7508582,8.44215831 46.7148582,6.06515831 46.4738582,4.17015831 C46.0898582,1.14515831 43.7938582,0.0761583118 40.9928582,0.0021583118 Z" id="Fill-60" fill="#464644"></path>
            </g>
            <g id="Group-2" fill="#464644">
                <path d="M11.2358582,22.3941583 C12.9018582,24.4721583 16.5488582,25.9421583 18.6458582,27.6611583 C20.2888582,29.0091583 21.8088582,30.4781583 23.3358582,31.9531583 C23.9518582,32.5481583 25.8398582,33.7511583 26.0978582,34.6101583 C27.3608582,38.8211583 23.9708582,38.5211583 21.8928582,37.8361583 C22.0898582,37.6901583 22.2868582,37.5441583 22.4838582,37.3981583 C22.9718582,37.0371583 23.2178582,36.4231583 22.8878582,35.8591583 C22.6058582,35.3781583 21.8398582,35.0921583 21.3488582,35.4551583 C20.9078582,35.7811583 20.4678582,36.1071583 20.0278582,36.4321583 C19.8678582,36.5501583 19.7488582,36.7011583 19.6528582,36.8621583 C19.1828582,36.6251583 18.7158582,36.3711583 18.2518582,36.0991583 C18.4168582,35.9811583 18.5808582,35.8631583 18.7588582,35.7561583 C19.9988582,35.0121583 18.8698582,33.0661583 17.6228582,33.8141583 C17.1348582,34.1061583 16.6828582,34.4531583 16.2528582,34.8261583 C15.6948582,34.4461583 15.1428582,34.0571583 14.5978582,33.6571583 C14.9118582,33.4911583 15.2248582,33.3251583 15.5378582,33.1591583 C16.8178582,32.4811583 15.6818582,30.5381583 14.4018582,31.2161583 C13.8068582,31.5321583 13.2108582,31.8481583 12.6158582,32.1641583 C12.2568582,31.8871583 11.9008582,31.6111583 11.5518582,31.3411583 C11.7328582,31.2171583 11.9168582,31.0961583 12.1128582,30.9861583 C13.3758582,30.2781583 12.2428582,28.3341583 10.9768582,29.0441583 C10.5248582,29.2971583 10.1058582,29.6021583 9.7038582,29.9261583 C9.1928582,29.5411583 8.6378582,29.1221583 8.0638582,28.6721583 C8.3498582,28.4441583 8.6488582,28.2421583 8.9948582,28.0791583 C9.5438582,27.8191583 9.6858582,27.0311583 9.3978582,26.5391583 C9.0698582,25.9771583 8.4108582,25.8751583 7.8588582,26.1361583 C7.2858582,26.4071583 6.7728582,26.7861583 6.3078582,27.2171583 C5.8918582,26.8491583 5.4838582,26.4671583 5.0968582,26.0741583 C5.4568582,25.8361583 5.8178582,25.5971583 6.1778582,25.3591583 C7.3798582,24.5621583 6.2538582,22.6131583 5.0418582,23.4161583 C4.5708582,23.7281583 4.0998582,24.0401583 3.6278582,24.3521583 C3.1048582,23.6231583 2.6998582,22.8661583 2.4698582,22.0931583 C2.8258582,22.0931583 3.1818582,22.0931583 3.5388582,22.0931583 C4.9858582,22.0931583 4.9888582,19.8431583 3.5388582,19.8431583 C3.1428582,19.8431583 2.7478582,19.8431583 2.3518582,19.8431583 C2.4958582,19.1501583 2.8188582,18.4511583 3.3608582,17.7521583 C3.7768582,18.1941583 4.2008582,18.6281583 4.6968582,18.9831583 C5.1908582,19.3371583 5.9488582,19.0691583 6.2358582,18.5801583 C6.5668582,18.0141583 6.3278582,17.3951583 5.8318582,17.0401583 C6.0128582,17.1701583 5.6498582,16.8731583 5.6158582,16.8401583 C5.4728582,16.7051583 5.3358582,16.5631583 5.1998582,16.4211583 C5.1208582,16.3391583 5.0428582,16.2561583 4.9658582,16.1731583 C5.3438582,15.8621583 5.7188582,15.5491583 6.0878582,15.2311583 C6.5258582,15.6501583 6.9388582,16.0901583 7.3168582,16.5651583 C7.6958582,17.0411583 8.5128582,16.9611583 8.9078582,16.5651583 C9.3778582,16.0951583 9.2878582,15.4511583 8.9078582,14.9741583 C8.5588582,14.5351583 8.1778582,14.1281583 7.7778582,13.7371583 C8.3138582,13.2551583 8.8478582,12.7711583 9.3798582,12.2861583 C9.8048582,12.6681583 10.2408582,13.0381583 10.6458582,13.4391583 C11.6758582,14.4591583 13.2678582,12.8691583 12.2368582,11.8481583 C11.8598582,11.4741583 11.4558582,11.1281583 11.0588582,10.7741583 C11.6728582,10.2291583 12.2958582,9.69215831 12.9278582,9.16515831 C13.3288582,9.63315831 13.7608582,10.0651583 14.1738582,10.5271583 C15.1428582,11.6081583 16.7298582,10.0121583 15.7658582,8.93615831 C15.4138582,8.54415831 14.9958582,8.19615831 14.6638582,7.78715831 C14.9468582,7.57215831 15.2258582,7.35415831 15.5158582,7.14615831 C15.9308582,6.84815831 16.3328582,6.53415831 16.7318582,6.21815831 C16.9388582,6.50115831 17.1458582,6.78415831 17.3528582,7.06815831 C17.7108582,7.55815831 18.3298582,7.80015831 18.8918582,7.47115831 C19.3758582,7.18915831 19.6558582,6.42515831 19.2958582,5.93215831 C19.0308582,5.56915831 18.7658582,5.20715831 18.5008582,4.84415831 C19.0058582,4.46515831 19.5318582,4.11615831 20.0778582,3.79615831 C20.1088582,3.83615831 20.1378582,3.87615831 20.1768582,3.91415831 C20.5098582,4.23915831 20.8428582,4.56415831 21.1748582,4.88915831 C22.2118582,5.90215831 23.8038582,4.31315831 22.7668582,3.29815831 C22.5758582,3.11215831 22.3848582,2.92515831 22.1938582,2.73915831 C23.5918582,2.20315831 24.7918582,2.20515831 25.7148582,3.92815831 C26.8818582,6.11015831 25.6578582,6.61915831 24.1698582,8.13415831 C20.4518582,11.9211583 15.6948582,14.5351583 11.9378582,18.2071583 C10.5278582,19.5871583 9.9498582,20.7901583 11.2358582,22.3941583 Z M27.6668582,1.26915831 C24.5398582,-1.27384169 20.1638582,0.876158312 17.3778582,2.80915831 C12.1308582,6.45115831 7.8238582,11.0191583 2.8648582,15.0061583 C-4.6691418,21.5981583 4.4508582,28.7891583 9.6768582,32.7031583 C13.2138582,35.3511583 17.4588582,38.9911583 21.7808582,40.2721583 C24.6398582,41.1181583 29.0458582,40.0021583 29.2518582,36.4101583 C29.4558582,32.8551583 23.9698582,29.3041583 21.5838582,27.2131583 C20.1238582,25.9321583 18.5928582,24.7261583 17.0018582,23.6131583 C16.3068582,23.1271583 15.5888582,22.6731583 14.8868582,22.1981583 C13.3478582,21.1571583 12.7368582,21.3801583 13.6808582,19.8851583 C16.0608582,16.1141583 34.8608582,7.11715831 27.6668582,1.26915831 Z" id="Fill-58"></path>
                <path d="M75.7498582,24.0961583 C71.9428582,27.1571583 68.6638582,30.6971583 64.6908582,33.5471583 C62.9528582,34.7941583 61.4218582,36.3011583 59.4978582,37.2691583 C57.4578582,38.2961583 55.7258582,39.0711583 54.4918582,36.7641583 C53.9858582,35.8191583 53.9458582,35.1941583 54.1648582,34.6581583 C54.7088582,35.0921583 55.2468582,35.5351583 55.8118582,35.9431583 C56.3048582,36.2981583 57.0658582,36.0271583 57.3508582,35.5391583 C57.6828582,34.9711583 57.4418582,34.3571583 56.9478582,34.0001583 C56.4928582,33.6711583 56.0538582,33.3191583 55.6168582,32.9661583 C55.7528582,32.8361583 55.8918582,32.7051583 56.0368582,32.5581583 C56.3668582,32.2221583 56.7128582,31.9051583 57.0568582,31.5871583 C57.5148582,32.0731583 57.9668582,32.5641583 58.4738582,32.9991583 C58.9348582,33.3951583 59.6128582,33.4521583 60.0648582,32.9991583 C60.4698582,32.5941583 60.5278582,31.8051583 60.0648582,31.4081583 C59.5958582,31.0061583 59.1738582,30.5551583 58.7508582,30.1051583 C59.2918582,29.6591583 59.8408582,29.2231583 60.3968582,28.7961583 C60.8598582,29.3901583 61.3188582,29.9891583 61.8438582,30.5301583 C62.8558582,31.5701583 64.4458582,29.9781583 63.4348582,28.9391583 C62.9818582,28.4721583 62.5788582,27.9611583 62.1788582,27.4481583 C62.6378582,27.1061583 63.0958582,26.7631583 63.5528582,26.4191583 C63.9818582,26.8191583 64.3388582,27.2671583 64.7228582,27.7151583 C65.1188582,28.1771583 65.9078582,28.1211583 66.3138582,27.7151583 C66.7718582,27.2571583 66.7098582,26.5871583 66.3138582,26.1241583 C65.9938582,25.7501583 65.6848582,25.3811583 65.3468582,25.0321583 C65.9398582,24.5611583 66.5158582,24.0731583 67.0818582,23.5731583 C67.3678582,23.7841583 67.6338582,24.0121583 67.8818582,24.2741583 C68.8808582,25.3261583 70.4698582,23.7341583 69.4728582,22.6831583 C69.2408582,22.4391583 68.9918582,22.2131583 68.7308582,22.0021583 C69.1428582,21.5391583 69.4318582,21.0881583 69.5768582,20.6271583 C70.0418582,20.6551583 70.5078582,20.6841583 70.9738582,20.7131583 C71.5808582,20.7511583 72.0988582,20.1691583 72.0988582,19.5881583 C72.0988582,18.9481583 71.5828582,18.5011583 70.9738582,18.4631583 C70.3158582,18.4231583 69.6578582,18.3821583 68.9988582,18.3411583 C68.9878582,18.3261583 68.9818582,18.3131583 68.9698582,18.2981583 C68.6858582,17.9441583 68.3298582,17.6121583 67.9478582,17.2891583 C68.3078582,17.1191583 68.6678582,16.9491583 69.0288582,16.7791583 C69.5788582,16.5211583 69.7188582,15.7321583 69.4318582,15.2401583 C69.1028582,14.6771583 68.4448582,14.5771583 67.8928582,14.8371583 C67.2118582,15.1571583 66.5328582,15.4781583 65.8518582,15.7981583 C65.4948582,15.5751583 65.1358582,15.3551583 64.7728582,15.1381583 C65.0788582,14.9901583 65.3828582,14.8421583 65.6878582,14.6941583 C66.2348582,14.4281583 66.3808582,13.6501583 66.0908582,13.1541583 C65.7648582,12.5961583 65.1008582,12.4851583 64.5518582,12.7511583 C63.9358582,13.0501583 63.3198582,13.3491583 62.7028582,13.6491583 C62.6468582,13.6761583 62.6128582,13.7281583 62.5648582,13.7651583 C62.2058582,13.5241583 61.8648582,13.2811583 61.5598582,13.0311583 C61.4228582,12.9191583 61.2968582,12.7961583 61.1618582,12.6811583 C61.5848582,12.4461583 62.0158582,12.2261583 62.4558582,12.0211583 C63.0058582,11.7641583 63.1458582,10.9721583 62.8598582,10.4821583 C62.5298582,9.91715831 61.8728582,9.82015831 61.3208582,10.0781583 C60.6548582,10.3891583 60.0148582,10.7441583 59.3868582,11.1231583 C58.9548582,10.7241583 58.5268582,10.3191583 58.1008582,9.91315831 C58.3488582,9.76115831 58.6058582,9.62115831 58.8648582,9.51315831 C59.4248582,9.28015831 59.8258582,8.76815831 59.6498582,8.12915831 C59.5038582,7.60015831 58.8308582,7.10915831 58.2658582,7.34315831 C57.5968582,7.62215831 57.0108582,7.96615831 56.4348582,8.37015831 C56.1208582,8.11815831 55.7338582,7.82415831 55.3578582,7.51215831 C55.6348582,7.26915831 55.9268582,7.05615831 56.2618582,6.87715831 C57.5388582,6.19415831 56.4048582,4.25215831 55.1258582,4.93415831 C54.7298582,5.14615831 54.3628582,5.41315831 54.0148582,5.70215831 C53.0198582,1.67115831 56.7218582,2.24715831 58.6728582,2.98415831 C62.7028582,4.50315831 66.5948582,7.79715831 69.9818582,10.3721583 C73.8848582,13.3411583 81.7928582,18.8081583 75.7498582,24.0961583 Z M70.5288582,7.98915831 C66.9928582,5.34115831 62.7468582,1.70215831 58.4248582,0.421158312 C55.5668582,-0.425841688 51.1608582,0.691158312 50.9548582,4.28315831 C50.7498582,7.83815831 56.2358582,11.3881583 58.6218582,13.4801583 C60.0818582,14.7601583 61.6138582,15.9671583 63.2048582,17.0801583 C63.8988582,17.5661583 64.6178582,18.0201583 65.3198582,18.4951583 C66.8578582,19.5351583 67.4688582,19.3131583 66.5248582,20.8081583 C64.1448582,24.5781583 45.3448582,33.5751583 52.5388582,39.4241583 C55.6658582,41.9671583 60.0418582,39.8171583 62.8278582,37.8831583 C68.0758582,34.2421583 72.3818582,29.6731583 77.3408582,25.6871583 C84.8748582,19.0941583 75.7558582,11.9031583 70.5288582,7.98915831 Z" id="Fill-59"></path>
                <path d="M42.9428582,20.9361583 C42.3848582,23.3901583 41.7838582,25.8341583 41.1428582,28.2681583 C40.3298582,31.3581583 39.6838582,37.5581583 35.8268582,37.4461583 C33.7098582,37.3841583 33.6008582,37.1881583 33.6808582,35.8241583 C33.9518582,35.8701583 34.2218582,35.9531583 34.4788582,36.0411583 C35.0538582,36.2381583 35.7088582,35.8151583 35.8628582,35.2561583 C36.0328582,34.6381583 35.6538582,34.0691583 35.0778582,33.8711583 C34.6658582,33.7301583 34.2508582,33.6531583 33.8258582,33.5911583 C33.8668582,33.1871583 33.9178582,32.7821583 33.9768582,32.3771583 C34.4748582,32.4711583 34.9768582,32.5381583 35.4838582,32.5491583 C36.9328582,32.5821583 36.9318582,30.3321583 35.4838582,30.2991583 C35.0878582,30.2911583 34.7128582,30.2401583 34.3328582,30.1611583 C34.3708582,29.9341583 34.4098582,29.7051583 34.4438582,29.4801583 C34.4628582,29.3611583 34.4858582,29.2431583 34.5048582,29.1251583 C34.9958582,29.1841583 35.4808582,29.2651583 35.9648582,29.3861583 C37.3698582,29.7371583 37.9688582,27.5681583 36.5628582,27.2171583 C36.0088582,27.0781583 35.4458582,26.9861583 34.8798582,26.9141583 C34.9928582,26.2561583 35.0928582,25.5971583 35.2148582,24.9411583 C35.8588582,25.0211583 36.4888582,25.1801583 37.0978582,25.4061583 C37.6678582,25.6181583 38.3308582,25.1711583 38.4818582,24.6211583 C38.6548582,23.9911583 38.2678582,23.4491583 37.6958582,23.2371583 C37.0328582,22.9901583 36.3508582,22.8501583 35.6578582,22.7511583 C35.7558582,22.2641583 35.8508582,21.7761583 35.9538582,21.2911583 C36.4658582,21.4081583 36.9768582,21.5251583 37.4898582,21.6421583 C38.8988582,21.9651583 39.5008582,19.7961583 38.0878582,19.4721583 C37.5238582,19.3431583 36.9608582,19.2141583 36.3968582,19.0861583 C36.4898582,18.6111583 36.5958582,18.0651583 36.7148582,17.4611583 C37.0688582,17.5541583 37.4228582,17.6471583 37.7768582,17.7401583 C39.1788582,18.1091583 39.7758582,15.9391583 38.3748582,15.5701583 C37.9728582,15.4641583 37.5698582,15.3591583 37.1678582,15.2531583 C37.2268582,14.9731583 37.2888582,14.6891583 37.3518582,14.4011583 C37.9868582,14.5361583 38.6208582,14.6721583 39.2548582,14.8071583 C39.8488582,14.9341583 40.4718582,14.6311583 40.6398582,14.0221583 C40.7928582,13.4611583 40.4508582,12.7651583 39.8538582,12.6371583 C39.1888582,12.4961583 38.5258582,12.3541583 37.8618582,12.2121583 C37.9708582,11.7671583 38.0838582,11.3201583 38.2018582,10.8751583 C38.6368582,10.9701583 39.0768582,11.0341583 39.5078582,11.1501583 C40.9088582,11.5231583 41.5058582,9.35415831 40.1058582,8.98015831 C39.6828582,8.86715831 39.2488582,8.80215831 38.8218582,8.71015831 C38.9098582,8.42615831 38.9998582,8.14515831 39.0918582,7.87015831 C39.5058582,7.93115831 39.8988582,8.02815831 40.2928582,8.17615831 C40.8618582,8.39015831 41.5258582,7.93915831 41.6758582,7.39015831 C41.8498582,6.75915831 41.4618582,6.22115831 40.8908582,6.00615831 C40.5628582,5.88415831 40.2338582,5.80115831 39.8948582,5.74015831 C40.0378582,5.40815831 40.1848582,5.09615831 40.3338582,4.80015831 C40.6818582,4.95915831 41.0478582,5.07615831 41.4248582,5.13215831 C42.0258582,5.22115831 42.6338582,4.98315831 42.8088582,4.34715831 C42.9548582,3.81715831 42.6278582,3.05215831 42.0238582,2.96315831 C41.8888582,2.94315831 41.7768582,2.90115831 41.6558582,2.86715831 C42.0808582,2.46215831 42.5268582,2.23915831 42.9928582,2.25215831 C48.3498582,2.39415831 43.5288582,18.3581583 42.9428582,20.9361583 Z M42.9928582,0.0021583118 C39.6958582,-0.0908416882 38.7288582,2.83815831 37.8178582,5.58915831 C35.7908582,11.7101583 34.2288582,18.0021583 33.0498582,24.3381583 C32.4338582,27.6531583 28.2888582,41.8741583 35.8468582,40.9851583 C38.8208582,40.6351583 40.6838582,37.5061583 41.6118582,35.0071583 C43.5728582,29.7261583 44.6408582,23.8661583 45.8098582,18.3601583 C46.3798582,15.6721583 46.8838582,12.9711583 47.4008582,10.2721583 C47.7508582,8.44215831 48.7148582,6.06515831 48.4738582,4.17015831 C48.0898582,1.14515831 45.7938582,0.0761583118 42.9928582,0.0021583118 Z" id="Fill-60"></path>
            </g>
        </g>
    </g>
</svg>