<?xml version="1.0" encoding="UTF-8"?>
<svg width="258px" height="255px" viewBox="0 0 258 255" version="1.1" xmlns="http://www.w3.org/2000/svg" xmlns:xlink="http://www.w3.org/1999/xlink">
    <!-- Generator: Sketch 48.2 (47327) - http://www.bohemiancoding.com/sketch -->
    <title>setting</title>
    <desc>Created with Sketch.</desc>
    <defs>
        <rect id="path-1" x="57" y="26" width="138" height="27"></rect>
        <rect id="path-2" x="57" y="19" width="138" height="27"></rect>
        <rect id="path-3" x="9" y="0" width="25" height="18"></rect>
        <rect id="path-4" x="0" y="13" width="43" height="93" rx="14"></rect>
        <rect id="path-5" x="9" y="0" width="25" height="18"></rect>
        <rect id="path-6" x="0" y="13" width="43" height="93" rx="14"></rect>
        <rect id="path-7" x="8" y="39" width="13" height="99"></rect>
        <rect id="path-8" x="8" y="39" width="13" height="99"></rect>
        <path d="M61.5633803,97.4580692 C61.8098661,97.5338077 62.0542592,97.6143262 62.2964514,97.6995164 L66.5479967,90.335624 L74.4520033,94.8990042 L69.95826,102.682396 C70.073421,102.804272 70.1870189,102.92764 70.2990218,103.052469 L78.1009958,98.5479967 L82.664376,106.452003 L74.6271933,111.092273 C74.6570186,111.206647 74.685826,111.321433 74.7136053,111.43662 L84,111.43662 L84,120.56338 L74.7136053,120.56338 C74.685826,120.678567 74.6570186,120.793353 74.6271933,120.907727 L82.664376,125.547997 L78.1009958,133.452003 L70.2990218,128.947531 C70.1870189,129.07236 70.073421,129.195728 69.95826,129.317604 L74.4520033,137.100996 L66.5479967,141.664376 L62.2964514,134.300484 C62.0542592,134.385674 61.8098661,134.466192 61.5633803,134.541931 L61.5633803,143 L52.4366197,143 L52.4366197,135.093336 C52.078602,135.02959 51.7239835,134.956022 51.3730529,134.872919 L47.4520033,141.664376 L39.5479967,137.100996 L43.2316322,130.720752 C42.8867398,130.424628 42.5523723,130.116591 42.2291678,129.797282 L35.8990042,133.452003 L31.335624,125.547997 L37.4218465,122.034115 C37.2641332,121.551915 37.1248096,121.061394 37.0047045,120.56338 L30,120.56338 L30,111.43662 L37.0047045,111.43662 C37.1248096,110.938606 37.2641332,110.448085 37.4218465,109.965885 L31.335624,106.452003 L35.8990042,98.5479967 L42.2291678,102.202718 C42.5523723,101.883409 42.8867398,101.575372 43.2316322,101.279248 L39.5479967,94.8990042 L47.4520033,90.335624 L51.3730529,97.1270811 C51.7239835,97.0439781 52.078602,96.9704097 52.4366197,96.9066644 L52.4366197,89 L61.5633803,89 L61.5633803,97.4580692 Z M56,120 C58.209139,120 60,118.209139 60,116 C60,113.790861 58.209139,112 56,112 C53.790861,112 52,113.790861 52,116 C52,118.209139 53.790861,120 56,120 Z" id="path-9"></path>
        <path d="M83,21.0495671 C83.661587,21.2295569 84.31743,21.4234871 84.9671942,21.6310229 L95.5,3.38766803 L114.552559,14.387668 L103.798783,33.0137538 C104.164444,33.3732441 104.52431,33.7386096 104.878229,34.1096972 L123.449328,23.387668 L134.449328,42.4402269 L115.970726,53.1088528 C116.198267,53.8607485 116.407669,54.6205233 116.598422,55.387668 L137,55.387668 L137,77.387668 L116.83554,77.387668 C116.747174,77.7792833 116.653972,78.1690656 116.555997,78.5569488 L134.449328,88.887668 L123.449328,107.940227 L106.339655,98.0619528 C105.817316,98.6619535 105.280158,99.2487128 104.72875,99.8216606 L114.552559,116.836996 L95.5,127.836996 L86.2013477,111.731258 C85.1506033,112.099138 84.0829975,112.431131 83,112.725769 L83,131 L61,131 L61,113.437496 C59.9221366,113.218701 58.8575268,112.963409 57.8075165,112.672964 L49.0525589,127.836996 L30,116.836996 L38.5465586,102.033922 C37.6104003,101.182308 36.7084012,100.293801 35.8428587,99.3706984 L21,107.940227 L10,88.887668 L24.9133653,80.2774326 C24.6344274,79.3262186 24.3844524,78.3626238 24.1644601,77.387668 L6,77.387668 L6,55.387668 L24.4015776,55.387668 C24.7354023,54.0451408 25.1263395,52.725185 25.5716605,51.4305293 L10,42.4402269 L21,23.387668 L37.3762842,32.8425201 C38.0709691,32.1665212 38.786271,31.5116021 39.5211571,30.8787958 L30,14.387668 L49.0525589,3.38766803 L59.0869346,20.7677166 C59.7197239,20.6116464 60.3575074,20.4682592 61,20.3378401 L61,0 L83,0 L83,21.0495671 Z M73,82 C81.836556,82 89,74.836556 89,66 C89,57.163444 81.836556,50 73,50 C64.163444,50 57,57.163444 57,66 C57,74.836556 64.163444,82 73,82 Z" id="path-10"></path>
        <path d="M77,20.661899 C77.627966,20.832742 78.250757,21.0161446 78.8680866,21.2118202 L89.2237206,3.27533605 L108.276279,14.2753361 L97.7238874,32.5526152 C98.1352818,32.9552958 98.5393865,33.3653943 98.9359854,33.782694 L117.224664,23.2237206 L128.224664,42.2762794 L109.994878,52.8012511 C110.163845,53.3631872 110.322685,53.9295075 110.471187,54.5 L131.5,54.5 L131.5,76.5 L110.945516,76.5 C110.80317,77.1643171 110.646933,77.823481 110.477123,78.477173 L128.224664,88.7237206 L117.224664,107.776279 L100.133991,97.9089749 C99.5901571,98.5254882 99.0305737,99.1277785 98.4558702,99.7152162 L108.276279,116.724664 L89.2237206,127.724664 L79.8384932,111.468973 C78.9050661,111.787268 77.958562,112.077317 77,112.338101 L77,131 L55,131 L55,113.049828 C53.8875277,112.824008 52.7891737,112.559309 51.706418,112.25721 L42.7762794,127.724664 L23.7237206,116.724664 L32.4696999,101.576183 C31.5815901,100.764739 30.7244034,99.9200152 29.9001131,99.0439853 L14.7753361,107.776279 L3.77533605,88.7237206 L18.9370081,79.9701251 C18.6006673,78.8306646 18.3059072,77.6733706 18.0544845,76.5 L0.5,76.5 L0.5,54.5 L18.528813,54.5 C18.8070857,53.4309711 19.1216616,52.3765924 19.4711452,51.3382591 L3.77533605,42.2762794 L14.7753361,23.2237206 L31.1492816,32.6772225 C31.8237853,32.0120744 32.5180886,31.3669525 33.2312273,30.7428209 L23.7237206,14.2753361 L42.7762794,3.27533605 L52.7067898,20.4754845 C53.4640767,20.2820176 54.2286446,20.106749 55,19.9501721 L55,0 L77,0 L77,20.661899 Z M66,82 C74.836556,82 82,74.836556 82,66 C82,57.163444 74.836556,50 66,50 C57.163444,50 50,57.163444 50,66 C50,74.836556 57.163444,82 66,82 Z" id="path-11"></path>
    </defs>
    <g id="Page-1" stroke="none" stroke-width="1" fill="none" fill-rule="evenodd">
        <g id="setting" transform="translate(2.000000, 2.000000)">
            <path d="M20.0905659,98.2720087 C18.8075426,77.5587842 23.64267,63.9820351 34.5959483,57.5417612 C51.0258656,47.8813505 82.9767554,39.987968 94.2565319,35.1528405 C105.536308,30.317713 133.024508,11.2823724 155.797352,25.6351702 C178.570195,39.987968 192.573525,94.2178519 209.252828,102.490235 C225.932131,110.762618 257.494176,129.112148 255.336662,146.954704 C253.179149,164.797259 236.775482,208.305203 186.032075,218.502121 C135.288667,228.699039 133.793994,213.714574 108.671676,193.771929 C83.5493579,173.829284 74.2170861,170.290305 56.264604,165.102428 C38.3121219,159.914552 20.0905659,155.189351 20.0905659,128.839793 C20.0905659,111.273421 20.0905659,101.08416 20.0905659,98.2720087 Z" id="Path-7" fill="#A5C1A3"></path>
            <g id="Spanner" transform="translate(0.000000, 159.000000)">
                <g id="Rectangle-5">
                    <use fill="#408385" fill-rule="evenodd" xlink:href="#path-1"></use>
                    <rect stroke="#39455A" stroke-width="4" x="59" y="28" width="134" height="23"></rect>
                </g>
                <g id="Rectangle-5">
                    <use fill="#FFFFFF" fill-rule="evenodd" xlink:href="#path-2"></use>
                    <rect stroke="#39455A" stroke-width="4" x="59" y="21" width="134" height="23"></rect>
                </g>
                <rect id="Rectangle-6" fill="#39455A" x="78" y="30" width="100" height="5" rx="2.5"></rect>
                <g id="Group-10" transform="translate(215.500000, 36.500000) scale(-1, 1) translate(-215.500000, -36.500000) translate(181.000000, 0.000000)" stroke="#39455A" stroke-width="4">
                    <path d="M0.794207035,49.1921112 L36.2012719,49.1921112 L44.0706542,36.711074 L34.2178973,22.6653997 L2.48957839,22.6653997 C8.15310499,11.0213199 20.0656611,3 33.8448235,3 C53.1038739,3 68.7164189,18.6700338 68.7164189,38 C68.7164189,57.3299662 53.1038739,73 33.8448235,73 C18.4854076,73 5.44528948,63.0333411 0.794207035,49.1921112 Z" id="Combined-Shape" fill="#408385"></path>
                    <path d="M8.71627077,50.257796 L37.1836479,50.257796 L48.0058757,32.0431893 L37.1836479,14.3801491 L8.28358109,14.3801491 C14.009425,5.7157098 23.8372247,0 35,0 C52.673112,0 67,14.326888 67,32 C67,49.673112 52.673112,64 35,64 C24.1135346,64 14.4967739,58.5637477 8.71627077,50.257796 Z" id="Combined-Shape" fill="#FFFFFF"></path>
                </g>
                <g id="Group-10" stroke="#39455A" stroke-width="4">
                    <path d="M0.794207035,49.1921112 L36.2012719,49.1921112 L44.0706542,36.711074 L34.2178973,22.6653997 L2.48957839,22.6653997 C8.15310499,11.0213199 20.0656611,3 33.8448235,3 C53.1038739,3 68.7164189,18.6700338 68.7164189,38 C68.7164189,57.3299662 53.1038739,73 33.8448235,73 C18.4854076,73 5.44528948,63.0333411 0.794207035,49.1921112 Z" id="Combined-Shape" fill="#408385"></path>
                    <path d="M8.71627077,50.257796 L37.1836479,50.257796 L48.0058757,32.0431893 L37.1836479,14.3801491 L8.28358109,14.3801491 C14.009425,5.7157098 23.8372247,0 35,0 C52.673112,0 67,14.326888 67,32 C67,49.673112 52.673112,64 35,64 C24.1135346,64 14.4967739,58.5637477 8.71627077,50.257796 Z" id="Combined-Shape" fill="#FFFFFF"></path>
                </g>
            </g>
            <g id="screwdriver" transform="translate(73.000000, 0.000000)">
                <g id="Handle" transform="translate(0.000000, 134.000000)">
                    <g id="Handle-back" transform="translate(11.000000, 0.000000)">
                        <g id="Rectangle-9">
                            <use fill="#FBB03B" fill-rule="evenodd" xlink:href="#path-3"></use>
                            <rect stroke="#39455A" stroke-width="4" x="11" y="2" width="21" height="14"></rect>
                        </g>
                        <g id="Rectangle-7">
                            <use fill="#FBB03B" fill-rule="evenodd" xlink:href="#path-4"></use>
                            <rect stroke="#39455A" stroke-width="4" x="2" y="15" width="39" height="89" rx="14"></rect>
                        </g>
                        <rect id="Rectangle-8" fill="#39455A" x="13" y="25" width="4" height="69" rx="2"></rect>
                        <rect id="Rectangle-8" fill="#39455A" x="26" y="25" width="4" height="69" rx="2"></rect>
                    </g>
                    <g id="Handle-front">
                        <g id="Rectangle-9">
                            <use fill="#F9D016" fill-rule="evenodd" xlink:href="#path-5"></use>
                            <rect stroke="#39455A" stroke-width="4" x="11" y="2" width="21" height="14"></rect>
                        </g>
                        <g id="Rectangle-7">
                            <use fill="#F9D016" fill-rule="evenodd" xlink:href="#path-6"></use>
                            <rect stroke="#39455A" stroke-width="4" x="2" y="15" width="39" height="89" rx="14"></rect>
                        </g>
                        <path d="M43,35.2155491 L43,92 C43,99.7319865 36.7319865,106 29,106 L14,106 C6.2680135,106 2.60423019e-15,99.7319865 -1.77635684e-15,92 L7.10542736e-15,77.0695003 L43,35.2155491 Z" id="Rectangle-7" fill="#FBB03B"></path>
                        <rect id="Rectangle-7" stroke="#39455A" stroke-width="4" x="2" y="15" width="39" height="89" rx="14"></rect>
                        <rect id="Rectangle-8" fill="#39455A" x="13" y="25" width="4" height="69" rx="2"></rect>
                        <rect id="Rectangle-8" fill="#39455A" x="26" y="25" width="4" height="69" rx="2"></rect>
                    </g>
                </g>
                <g id="head-back" transform="translate(15.000000, 0.000000)">
                    <g id="Rectangle-10">
                        <use fill="#408385" fill-rule="evenodd" xlink:href="#path-7"></use>
                        <rect stroke="#39455A" stroke-width="4" x="10" y="41" width="9" height="95"></rect>
                    </g>
                    <polygon id="Path-6" stroke="#39455A" stroke-width="4" fill="#408385" points="5.82849829 0 21.0870052 0 27 27.3772883 22.4624902 41.6467249 4.72092413 41.6467249 0 27.3772883"></polygon>
                </g>
                <g id="head-front" transform="translate(9.000000, 0.000000)">
                    <g id="Rectangle-10">
                        <use fill="#FFFFFF" fill-rule="evenodd" xlink:href="#path-8"></use>
                        <rect stroke="#39455A" stroke-width="4" x="10" y="41" width="9" height="95"></rect>
                    </g>
                    <polygon id="Path-6" stroke="#39455A" stroke-width="4" fill="#FFFFFF" points="5.82849829 0 21.0870052 0 27 27.3772883 22.4624902 41.6467249 4.72092413 41.6467249 0 27.3772883"></polygon>
                </g>
            </g>
            <g id="Combined-Shape">
                <use fill="#FFFFFF" fill-rule="evenodd" xlink:href="#path-9"></use>
                <path stroke="#39455A" stroke-width="2" d="M60.5633803,90 L53.4366197,90 L53.4366197,97.7443411 L52.6119135,97.8911806 C52.2733699,97.9514585 51.93713,98.0211599 51.6034873,98.100169 L50.8791912,98.2716877 L47.0859778,91.7016494 L40.9140222,95.2650296 L44.5124019,101.497606 L43.8830603,102.037958 C43.5559436,102.318821 43.2387067,102.611063 42.9319756,102.914098 L42.3895321,103.450005 L36.2650296,99.9140222 L32.7016494,106.085978 L38.6245352,109.505558 L38.3723003,110.276751 C38.2222524,110.735514 38.0903013,111.200574 37.9768335,111.671066 L37.7922064,112.43662 L31,112.43662 L31,119.56338 L37.0047045,119.56338 L37.7922064,119.56338 L37.9768335,120.328934 C38.0903013,120.799426 38.2222524,121.264486 38.3723003,121.723249 L38.6245352,122.494442 L32.7016494,125.914022 L36.2650296,132.085978 L42.3895321,128.549995 L42.9319756,129.085902 C43.2387067,129.388937 43.5559436,129.681179 43.8830603,129.962042 L44.5124019,130.502394 L40.9140222,136.73497 L47.0859778,140.298351 L50.8791912,133.728312 L51.6034873,133.899831 C51.93713,133.97884 52.2733699,134.048542 52.6119135,134.108819 L53.4366197,134.255659 L53.4366197,142 L60.5633803,142 L60.5633803,133.80306 L61.2696601,133.586039 C61.5029467,133.514357 61.7346427,133.438039 61.9646338,133.35714 L62.7475226,133.081762 L66.9140222,140.298351 L73.0859778,136.73497 L68.7196995,129.172354 L69.2314142,128.630803 C69.3406852,128.515161 69.4484609,128.398115 69.5547116,128.279697 L70.0964775,127.675892 L77.7349704,132.085978 L81.2983506,125.914022 L73.4672742,121.392748 L73.6595521,120.655397 C73.6878524,120.54687 73.715162,120.438046 73.7414763,120.328934 L73.9261034,119.56338 L83,119.56338 L83,112.43662 L73.9261034,112.43662 L73.7414763,111.671066 C73.715162,111.561954 73.6878524,111.45313 73.6595521,111.344603 L73.4672742,110.607252 L81.2983506,106.085978 L77.7349704,99.9140222 L70.0964775,104.324108 L69.5547116,103.720303 C69.4484609,103.601885 69.3406852,103.484839 69.2314142,103.369197 L68.7196995,102.827646 L73.0859778,95.2650296 L66.9140222,91.7016494 L62.7475226,98.9182382 L61.9646338,98.64286 C61.7346427,98.5619615 61.5029467,98.4856434 61.2696601,98.4139606 L60.5633803,98.1969395 L60.5633803,90 Z M56,121 C53.2385763,121 51,118.761424 51,116 C51,113.238576 53.2385763,111 56,111 C58.7614237,111 61,113.238576 61,116 C61,118.761424 58.7614237,121 56,121 Z"></path>
            </g>
            <g id="big-wheel" transform="translate(113.000000, 25.000000)">
                <g id="Combined-Shape">
                    <use fill="#408385" fill-rule="evenodd" xlink:href="#path-10"></use>
                    <path stroke="#39455A" stroke-width="4" d="M81,2 L63,2 L63,21.9726503 L61.3978644,22.2978666 C60.7837999,22.4225151 60.1730332,22.5597755 59.56586,22.7095278 L58.1064535,23.0694736 L48.3205081,6.11971883 L32.7320508,15.1197188 L42.0814863,31.3134162 L40.8261889,32.3943459 C40.1222587,33.0004962 39.4368839,33.6279936 38.7710887,34.2758799 L37.6866744,35.3311251 L21.7320508,26.1197188 L12.7320508,41.7081761 L27.9989863,50.5225454 L27.4629065,52.0810587 C27.034841,53.3255486 26.6609253,54.5895863 26.3424758,55.87028 L25.9651712,57.387668 L8,57.387668 L8,75.387668 L25.7634563,75.387668 L26.1154105,76.9474491 C26.325468,77.8783762 26.5646674,78.8011309 26.8325495,79.7146432 L27.2749716,81.2233596 L12.7320508,89.6197188 L21.7320508,105.208176 L36.2167285,96.8454435 L37.3018276,98.0027036 C38.1312017,98.8872325 38.9954628,99.7385579 39.8923896,100.554483 L41.084176,101.63864 L32.7320508,116.104945 L48.3205081,125.104945 L56.8492185,110.332785 L58.3407157,110.74535 C59.3494973,111.02439 60.3690146,111.268624 61.3978644,111.477469 L63,111.802686 L63,129 L81,129 L81,111.19719 L82.4749681,110.795914 C83.5088725,110.514632 84.5312228,110.196954 85.5404557,109.843608 L87.1047167,109.295939 L96.2320508,125.104945 L111.820508,116.104945 L102.244479,99.5187765 L103.287708,98.4347948 C103.816158,97.8857011 104.330829,97.3234936 104.83119,96.7487379 L105.91292,95.5061758 L122.717277,105.208176 L131.717277,89.6197188 L114.246636,79.5330393 L114.616898,78.0671575 C114.710831,77.6952766 114.800071,77.3220174 114.88459,76.9474491 L115.236544,75.387668 L135,75.387668 L135,57.387668 L115.034829,57.387668 L114.657524,55.87028 C114.475272,55.1373229 114.274838,54.4097686 114.056461,53.6881538 L113.597008,52.1699186 L131.717277,41.7081761 L122.717277,26.1197188 L104.516302,36.6280566 L103.430931,35.4900342 C103.09183,35.1344833 102.747022,34.7844055 102.396653,34.4399486 L101.292624,33.3545484 L111.820508,15.1197188 L96.2320508,6.11971883 L85.8935913,24.026456 L84.3586768,23.5362018 C83.7353023,23.3370949 83.1072811,23.151448 82.4749681,22.9794224 L81,22.578146 L81,2 Z M73,84 C63.0588745,84 55,75.9411255 55,66 C55,56.0588745 63.0588745,48 73,48 C82.9411255,48 91,56.0588745 91,66 C91,75.9411255 82.9411255,84 73,84 Z"></path>
                </g>
                <g id="Combined-Shape">
                    <use fill="#FFFFFF" fill-rule="evenodd" xlink:href="#path-11"></use>
                    <path stroke="#39455A" stroke-width="4" d="M75,2 L57,2 L57,21.5849822 L55.3978644,21.9101986 C54.6609235,22.0597897 53.9287437,22.2275426 53.2018374,22.4132481 L51.7328321,22.7885403 L42.0442286,6.00738686 L26.4557714,15.0073869 L35.7848032,31.165744 L34.5483982,32.2478328 C33.8652615,32.845707 33.2000065,33.4638219 32.5535847,34.1012776 L31.4687478,35.1710674 L15.5073869,25.9557714 L6.50738686,41.5442286 L21.8888698,50.424732 L21.3666567,51.976253 C21.0309791,52.9735679 20.7299731,53.9832498 20.4643145,55.0038193 L20.0748523,56.5 L2.5,56.5 L2.5,74.5 L19.6713347,74.5 L20.010094,76.0809639 C20.2500232,77.2006952 20.5319828,78.3089624 20.8551889,79.4039252 L21.3011069,80.9146131 L6.50738686,89.4557714 L15.5073869,105.044229 L30.2715158,96.5201548 L31.3566861,97.6734397 C32.1465284,98.5128594 32.9678515,99.3222342 33.8187477,100.099677 L35.0055244,101.184007 L26.4557714,115.992613 L42.0442286,124.992613 L50.749901,109.913946 L52.2439071,110.330787 C53.2842516,110.621053 54.3360852,110.874272 55.3978644,111.089801 L57,111.415018 L57,129 L75,129 L75,110.809522 L76.4749681,110.408246 C77.3903784,110.159201 78.2967494,109.88162 79.1929986,109.576003 L80.7487086,109.045513 L89.9557714,124.992613 L105.544229,115.992613 L95.9651604,99.4011803 L97.0262461,98.316583 C97.5770065,97.7536189 98.1131658,97.176529 98.6341364,96.5859346 L99.7167256,95.3586654 L116.492613,105.044229 L125.492613,89.4557714 L108.158564,79.4479535 L108.54137,77.974322 C108.704309,77.3470758 108.853867,76.7158458 108.989906,76.0809639 L109.328665,74.5 L129.5,74.5 L129.5,56.5 L108.925148,56.5 L108.535686,55.0038193 C108.393721,54.4584397 108.241655,53.9161434 108.079588,53.377154 L107.623662,51.8608724 L125.492613,41.5442286 L116.492613,25.9557714 L98.5716011,36.3024725 L97.4862712,35.1604925 C97.106278,34.7606652 96.7190825,34.367726 96.3248914,33.9818842 L95.2159718,32.8964524 L105.544229,15.0073869 L89.9557714,6.00738686 L79.7963019,23.6041042 L78.2637756,23.1183375 C77.6715739,22.9306267 77.0752036,22.755053 76.4749681,22.5917544 L75,22.190478 L75,2 Z M66,84 C56.0588745,84 48,75.9411255 48,66 C48,56.0588745 56.0588745,48 66,48 C75.9411255,48 84,56.0588745 84,66 C84,75.9411255 75.9411255,84 66,84 Z"></path>
                </g>
                <circle id="Oval-9" stroke="#C5E2A1" stroke-width="8" cx="66" cy="66" r="24"></circle>
            </g>
            <ellipse id="Oval-10" fill="#408385" cx="100" cy="250.5" rx="27" ry="2.5"></ellipse>
        </g>
    </g>
</svg>