<?xml version="1.0" encoding="UTF-8"?>
<svg width="45px" height="42px" viewBox="0 0 45 42" version="1.1" xmlns="http://www.w3.org/2000/svg" xmlns:xlink="http://www.w3.org/1999/xlink">
    <!-- Generator: Sketch 48.2 (47327) - http://www.bohemiancoding.com/sketch -->
    <title>commet</title>
    <desc>Created with Sketch.</desc>
    <defs></defs>
    <g id="Artboard-2" stroke="none" stroke-width="1" fill="none" fill-rule="evenodd" transform="translate(-70.000000, -200.000000)">
        <g id="commet" transform="translate(70.000000, 200.000000)">
            <path d="M41.7980769,14.2557692 C41.7011538,14.4253846 31.605,18.4638462 25.8138462,22.1630769 C20.0226923,25.8623077 16.2911538,29.3353846 16.1215385,29.1657692 C15.9519231,28.9961538 15.9196154,28.4953846 15.3138462,28.3580769 C14.7080769,28.2207692 13.1976923,28.4953846 13.0926923,28.2207692 C12.9876923,27.9461538 12.9230769,27.0415385 12.1880769,27.0092308 C11.4530769,26.9769231 10.1042308,27.9219231 9.25615385,27.9219231 C8.40807692,27.9219231 7.81038462,27.4211538 7.94769231,26.7103846 C10.3590875,22.888 13.2680415,19.4032306 16.5980769,16.3476923 C20.4801214,12.7163442 24.6537566,9.40985269 29.0769231,6.46153846 C31.9684615,4.64423077 36.2088462,2.59269231 36.8146154,2.28576923 C37.4203846,1.97884615 37.9615385,1.97884615 37.8,2.07576923 C37.6384615,2.17269231 33.0588462,4.79769231 32.6146154,5.30653846 C32.1703846,5.81538462 32.3076923,6.42115385 33.1153846,6.38076923 C33.9230769,6.34038462 37.8646154,5.80730769 38.3330769,5.775 C38.8015385,5.74269231 39.5769231,5.60538462 39.3426923,5.775 C39.1084615,5.94461538 32.5823077,8.83615385 30.6276923,10.6211538 C28.6730769,12.4061538 28.4065385,13.1492308 29.2465385,13.2461538 C30.0865385,13.3430769 32.3076923,11.9053846 34.7307692,10.9280769 C37.1538462,9.95076923 40.4896154,8.84423077 40.4492308,9.04615385 C40.4088462,9.24807692 34.2946154,12.1073077 33.5838462,12.7857692 C33.3202219,12.9951857 33.2303395,13.3556823 33.3647901,13.6643505 C33.4992407,13.9730187 33.8244239,14.1527199 34.1573077,14.1023077 C34.6984615,14.1023077 38.2603846,13.7307692 39.8757692,13.8357692 C41.4911538,13.9407692 41.9030769,14.0942308 41.8061538,14.2557692 L41.7980769,14.2557692 Z" id="Shape" fill-opacity="0.340070199" fill="#FEFF9B" fill-rule="nonzero"></path>
            <path d="M11.1784615,37.1538462 C10.9765385,37.2184615 8.55346154,36.5157692 8.18192308,36.8146154 C7.81038462,37.1134615 6.13038462,39.375 6.02538462,39.0357692 C5.92038462,38.6965385 5.82346154,36.6126923 5.72653846,36.5157692 C5.62961538,36.4188462 3.30346154,35.1669231 3.44076923,34.9003846 C3.57807692,34.6338462 5.65384615,34.2461538 5.65384615,34.0119231 C5.65384615,33.7776923 4.95115385,31.7584615 5.08038462,31.4919231 C5.20961538,31.2253846 7.40653846,33.4465385 7.97192308,33.4142308 C8.53730769,33.3819231 10.8634615,32.3723077 11.0330769,32.6065385 C11.2026923,32.8407692 10.2253846,34.6257692 10.2253846,34.9326923 C10.2253846,35.2396154 11.3803846,37.1134615 11.1784615,37.1538462 Z" id="Path" fill="#FEFF9B"></path>
            <path d="M17.0665385,18.3346154 C18.4259722,16.9878584 19.9261126,15.7909955 21.5411538,14.7646154 C21.5411538,14.7646154 21.5411538,14.0215385 21.3715385,13.9569231 C21.2019231,13.8923077 19.1180769,15.1038462 17.4703846,16.8161538 C16.1412082,18.134643 14.8924214,19.5317738 13.7307692,21 C13.7307692,21.0646154 14.1669231,21.2342308 14.3365385,21.2019231 C14.5061538,21.1696154 15.1523077,20.3134615 17.0665385,18.3346154 Z M22.6153846,16.9615385 C22.785,16.8646154 22.6153846,16.4607692 22.4457692,16.4203846 C22.2761538,16.38 20.9353846,17.2280769 18.2376923,19.6511538 C15.54,22.0742308 13.6015385,24.6588462 13.5046154,25.0384615 C13.7506151,25.1741284 14.0352963,25.2225241 14.3123077,25.1757692 C14.6515385,25.0384615 15.6288462,23.73 16.9696154,21.8480769 C18.3103846,19.9661538 22.4861538,17.0826923 22.6153846,16.9615385 Z M24.3680769,18.7465385 C24.1338462,18.7465385 23.2615385,19.2876923 21.1373077,21.1696154 C19.0130769,23.0515385 16.7757692,24.8284615 16.695,25.0384615 C16.695,25.1434615 17.2684615,25.5069231 17.5026923,25.5069231 C17.7369231,25.5069231 18.48,24.4003846 19.6915385,23.2211538 C20.9030769,22.0419231 24.3680769,19.5865385 24.5376923,19.3846154 C24.7073077,19.1826923 24.6426923,18.7384615 24.4084615,18.7707692 L24.3680769,18.7465385 Z M30.3934615,15.1119231 C29.2316465,15.717482 28.1069597,16.3917546 27.0253846,17.1311538 C27.0253846,17.1311538 27.3323077,17.5673077 27.5665385,17.64 C27.8007692,17.7126923 30.5307692,15.7257692 30.7003846,15.5561538 C30.87,15.3865385 30.6923077,15.1361538 30.4257692,15.1361538 L30.3934615,15.1119231 Z M29.6907692,7.84269231 C29.4242308,7.84269231 24.0369231,11.5984615 24.1419231,11.8165385 C24.2469231,12.0346154 24.3761538,12.285 24.5134615,12.2526923 C24.6507692,12.2203846 29.9653846,8.55346154 30.0703846,8.41615385 C30.1753846,8.27884615 29.9896154,7.83461538 29.7230769,7.83461538 L29.6907692,7.84269231 Z M43.3488462,13.2461538 C41.4346154,12.2365385 35.6757692,12.6403846 35.6757692,12.6403846 C35.6757692,12.6403846 36.4834615,12.1719231 38.535,11.025 C40.5865385,9.87807692 44.1888462,8.70692308 44.4957692,7.99615385 C44.8026923,7.28538462 43.2842308,7.18846154 40.4573077,7.99615385 C37.6303846,8.80384615 33.3576923,10.2576923 33.3576923,10.2576923 C35.0399188,9.15292359 36.7817947,8.14177274 38.5753846,7.22884615 C40.6592308,6.25153846 43.9626923,5.78307692 44.2292308,5.41153846 C44.4957692,5.04 44.2292308,4.33730769 42.1776923,4.33730769 C40.1261538,4.33730769 34.5369231,5.145 34.5369231,5.145 C34.8993057,4.86272504 35.2954308,4.62667789 35.7161538,4.44230769 C36.3542308,4.17576923 39.7546154,1.75269231 40.0211538,1.51038462 C40.2876923,1.26807692 40.1907692,0.84 39.48,0.605769231 C38.7692308,0.371538462 36.855,0.969230769 33.1153846,2.71384615 C29.3757692,4.45846154 22.1873077,9.24807692 16.695,14.4980769 C11.2026923,19.7480769 7.26923077,24.6265385 6.80076923,25.7330769 C6.47751276,26.5199331 6.52799824,27.4108533 6.93807692,28.1561538 C7.0792637,28.7822754 7.68696977,29.1874128 8.31923077,29.0769231 C9.29653846,29.0769231 10.7423077,28.2692308 11.2834615,28.2692308 C11.8246154,28.2692308 11.655,29.0769231 12.5273077,29.3434615 C13.3996154,29.61 14.4819231,29.2465385 14.8534615,29.3434615 C15.225,29.4403846 14.8534615,29.9169231 14.6838462,30.2561538 C14.5142308,30.5953846 15.225,30.9992308 15.7257692,30.9265385 C16.2265385,30.8538462 19.7642308,27.8976923 26.5973077,23.0838462 C33.4303846,18.27 44.2292308,14.7323077 44.2292308,14.7323077 C44.2292308,14.7323077 45.2307692,14.2557692 43.3488462,13.2461538 Z M41.7980769,14.2557692 C41.7011538,14.4253846 31.605,18.4638462 25.8138462,22.1630769 C20.0226923,25.8623077 16.2911538,29.3353846 16.1215385,29.1657692 C15.9519231,28.9961538 15.9196154,28.4953846 15.3138462,28.3580769 C14.7080769,28.2207692 13.1976923,28.4953846 13.0926923,28.2207692 C12.9876923,27.9461538 12.9230769,27.0415385 12.1880769,27.0092308 C11.4530769,26.9769231 10.1042308,27.9219231 9.25615385,27.9219231 C8.40807692,27.9219231 7.81038462,27.4211538 7.94769231,26.7103846 C10.3590875,22.888 13.2680415,19.4032306 16.5980769,16.3476923 C20.4801214,12.7163442 24.6537566,9.40985269 29.0769231,6.46153846 C31.9684615,4.64423077 36.2088462,2.59269231 36.8146154,2.28576923 C37.4203846,1.97884615 37.9615385,1.97884615 37.8,2.07576923 C37.6384615,2.17269231 33.0588462,4.79769231 32.6146154,5.30653846 C32.1703846,5.81538462 32.3076923,6.42115385 33.1153846,6.38076923 C33.9230769,6.34038462 37.8646154,5.80730769 38.3330769,5.775 C38.8015385,5.74269231 39.5769231,5.60538462 39.3426923,5.775 C39.1084615,5.94461538 32.5823077,8.83615385 30.6276923,10.6211538 C28.6730769,12.4061538 28.4065385,13.1492308 29.2465385,13.2461538 C30.0865385,13.3430769 32.3076923,11.9053846 34.7307692,10.9280769 C37.1538462,9.95076923 40.4896154,8.84423077 40.4492308,9.04615385 C40.4088462,9.24807692 34.2946154,12.1073077 33.5838462,12.7857692 C33.3202219,12.9951857 33.2303395,13.3556823 33.3647901,13.6643505 C33.4992407,13.9730187 33.8244239,14.1527199 34.1573077,14.1023077 C34.6984615,14.1023077 38.2603846,13.7307692 39.8757692,13.8357692 C41.4911538,13.9407692 41.9030769,14.0942308 41.8061538,14.2557692 L41.7980769,14.2557692 Z M13.3996154,31.0153846 C13.0280769,30.5469231 8.82,31.7261538 8.55346154,31.7584615 C8.28692308,31.7907692 3.70730769,28.9880769 3.36807692,29.2384615 C3.02884615,29.4888462 3.675,33.3415385 3.63461538,33.5111538 C2.76204329,33.8819045 1.8630055,34.1869834 0.945,34.4238462 C0.476538462,34.5934615 0.743076923,34.965 0.807692308,35.4657692 C0.872307692,35.9665385 4.10307692,37.2184615 4.24038462,37.4203846 C4.37769231,37.6223077 4.67653846,40.8207692 4.67653846,40.8207692 C4.67653846,40.8207692 5.68615385,41.4911538 5.95269231,41.4588462 C6.21923077,41.4265385 9.01384615,38.5673077 9.24807692,38.3653846 C9.48230769,38.1634615 13.0523077,38.8742308 13.5934615,38.6319231 C14.1346154,38.3896154 12.1153846,35.6030769 11.9780769,35.2315385 C11.8407692,34.86 13.7307692,31.5 13.3996154,31.0153846 Z M11.1784615,37.1538462 C10.9765385,37.2184615 8.55346154,36.5157692 8.18192308,36.8146154 C7.81038462,37.1134615 6.13038462,39.375 6.02538462,39.0357692 C5.92038462,38.6965385 5.82346154,36.6126923 5.72653846,36.5157692 C5.62961538,36.4188462 3.30346154,35.1669231 3.44076923,34.9003846 C3.57807692,34.6338462 5.65384615,34.2461538 5.65384615,34.0119231 C5.65384615,33.7776923 4.95115385,31.7584615 5.08038462,31.4919231 C5.20961538,31.2253846 7.40653846,33.4465385 7.97192308,33.4142308 C8.53730769,33.3819231 10.8634615,32.3723077 11.0330769,32.6065385 C11.2026923,32.8407692 10.2253846,34.6257692 10.2253846,34.9326923 C10.2253846,35.2396154 11.3803846,37.1134615 11.1784615,37.1538462 Z" id="Shape" fill="#1D1D1B" fill-rule="nonzero"></path>
        </g>
    </g>
</svg>