<?xml version="1.0" encoding="UTF-8"?>
<svg width="36px" height="59px" viewBox="0 0 36 59" version="1.1" xmlns="http://www.w3.org/2000/svg" xmlns:xlink="http://www.w3.org/1999/xlink">
    <!-- Generator: Sketch 48.2 (47327) - http://www.bohemiancoding.com/sketch -->
    <title>facebook_1_</title>
    <desc>Created with Sketch.</desc>
    <defs></defs>
    <g id="Artboard-2" stroke="none" stroke-width="1" fill="none" fill-rule="evenodd" transform="translate(-233.000000, -78.000000)">
        <g id="facebook_1_" transform="translate(233.000000, 78.000000)" fill-rule="nonzero">
            <path d="M34.821,3.264 C34.522,0.749 28.533,0.45 25.12,0.45 C21.707,0.45 18.114,0.809 13.503,3.264 C8.892,5.719 7.275,10.031 6.676,12.666 C6.077,15.301 6.796,22.966 6.796,23.145 C6.796,23.324 3.203,23.325 1.826,23.385 C0.449,23.445 0.149,24.044 0.03,24.403 C-0.089,24.762 0.629,34.763 0.629,34.763 L1.048,38.356 C1.826,38.775 5.659,38.596 6.318,38.715 C6.977,38.835 7.216,39.733 7.276,42.248 C7.336,44.763 7.695,54.404 7.755,56.38 C7.815,58.356 8.713,58.356 10.869,58.416 C13.025,58.476 21.348,58.715 21.828,58.715 C22.307,58.715 22.786,58.116 22.786,56.26 C22.786,54.404 23.385,38.774 23.445,38.415 C23.505,38.056 24.762,38.415 25.84,38.415 C26.918,38.415 32.068,38.056 32.966,37.936 C33.864,37.816 34.224,28.475 34.224,25.42 C34.224,22.366 32.248,22.246 30.99,22.186 C29.732,22.126 23.744,22.366 23.385,22.126 C23.026,21.886 24.523,17.216 26.499,16.257 C28.475,15.299 33.326,15.838 33.924,15.958 C34.523,16.078 34.942,14.7 35.002,13.623 C35.061,12.546 35.12,5.78 34.821,3.264 Z" id="facebook" fill="#CFDCE4"></path>
            <path d="M34.821,3.264 C34.522,0.749 28.533,0.45 25.12,0.45 C21.707,0.45 18.114,0.809 13.503,3.264 C8.892,5.719 7.275,10.031 6.676,12.666 C6.077,15.301 6.796,22.966 6.796,23.145 C6.796,23.324 3.203,23.325 1.826,23.385 C0.449,23.445 0.149,24.044 0.03,24.403 C-0.089,24.762 0.629,34.763 0.629,34.763 L1.048,38.356 C1.826,38.775 5.659,38.596 6.318,38.715 C6.977,38.835 7.216,39.733 7.276,42.248 C7.336,44.763 7.695,54.404 7.755,56.38 C7.815,58.356 8.713,58.356 10.869,58.416 C13.025,58.476 21.348,58.715 21.828,58.715 C22.307,58.715 22.786,58.116 22.786,56.26 C22.786,54.404 23.385,38.774 23.445,38.415 C23.505,38.056 24.762,38.415 25.84,38.415 C26.918,38.415 32.068,38.056 32.966,37.936 C33.864,37.816 34.224,28.475 34.224,25.42 C34.224,22.366 32.248,22.246 30.99,22.186 C29.732,22.126 23.744,22.366 23.385,22.126 C23.026,21.886 24.523,17.216 26.499,16.257 C28.475,15.299 33.326,15.838 33.924,15.958 C34.523,16.078 34.942,14.7 35.002,13.623 C35.061,12.546 35.12,5.78 34.821,3.264 Z M30.539,23.295 C30.719,23.295 31.587,24.253 31.826,24.642 C32.066,25.031 31.706,25.72 31.616,25.78 C31.526,25.84 30.538,24.163 30.388,23.924 C30.24,23.684 30.42,23.295 30.539,23.295 Z M33.623,12.007 C33.084,12.067 27.754,11.528 24.76,12.606 C21.766,13.684 20.089,16.738 19.909,18.415 C19.729,20.092 19.669,23.206 20.149,23.206 C20.629,23.206 24.88,23.296 26.497,23.356 C28.114,23.416 28.982,23.326 29.132,23.536 C29.282,23.746 31.557,26.949 31.527,27.159 C31.497,27.369 31.287,28.446 31.168,28.297 C31.048,28.147 28.922,24.464 28.773,24.614 C28.623,24.764 28.234,25.333 28.504,25.722 C28.773,26.111 31.049,29.525 31.019,29.674 C30.989,29.824 30.72,30.632 30.57,30.423 C30.42,30.213 27.845,25.812 27.696,25.872 C27.546,25.932 27.127,26.501 27.337,26.86 C27.547,27.219 30.331,31.082 30.361,31.291 C30.391,31.501 30.331,33.088 30.151,33.028 C29.971,32.968 27.456,28.267 27.037,28.267 C26.618,28.267 26.468,29.075 26.708,29.375 C26.948,29.674 29.912,34.016 29.912,34.106 C29.912,34.196 29.223,34.615 28.984,34.435 C28.744,34.255 26.319,29.644 26.08,29.644 C25.841,29.644 25.182,29.943 25.391,30.273 C25.601,30.602 27.936,34.345 27.816,34.375 C27.696,34.405 27.247,34.555 26.918,34.195 C26.589,33.836 24.702,30.542 24.463,30.602 C24.223,30.662 23.774,31.171 24.014,31.47 C24.254,31.769 26.349,34.374 26.11,34.434 C25.87,34.494 24.673,34.464 24.583,34.344 C24.493,34.224 23.296,31.889 23.026,31.889 C22.757,31.889 22.397,32.308 22.547,32.578 C22.697,32.848 23.625,34.315 23.535,34.315 C23.445,34.315 20.75,34.165 20.661,34.495 C20.571,34.824 20.811,37.04 20.661,36.95 C20.511,36.86 19.314,34.465 19.134,34.465 C18.954,34.465 18.625,35.154 18.745,35.453 C18.865,35.752 20.721,37.998 20.781,38.238 C20.841,38.478 20.841,40.244 20.721,40.005 C20.601,39.765 18.805,36.622 18.685,36.682 C18.565,36.742 18.266,37.55 18.326,37.73 C18.386,37.91 20.781,41.263 20.841,41.503 C20.901,41.743 20.931,44.018 20.811,43.838 C20.691,43.658 18.116,38.808 17.907,38.838 C17.697,38.868 17.518,39.886 17.638,40.215 C17.758,40.544 20.692,45.006 20.722,45.245 C20.752,45.485 20.782,46.682 20.662,46.592 C20.542,46.502 17.398,40.753 17.249,40.843 C17.099,40.933 16.98,41.771 17.069,42.13 C17.159,42.489 20.662,47.879 20.692,47.998 C20.722,48.118 20.662,50.513 20.542,50.393 C20.422,50.273 16.889,44.105 16.68,44.135 C16.47,44.165 16.321,45.243 16.47,45.512 C16.62,45.782 20.602,51.41 20.632,51.71 C20.662,52.009 20.782,53.477 20.632,53.417 C20.482,53.357 16.291,46.381 16.141,46.411 C15.991,46.441 15.782,47.369 15.842,47.579 C15.902,47.788 20.573,54.795 20.573,55.034 C20.573,55.273 20.543,55.483 20.274,55.483 C20.005,55.483 19.705,55.513 19.436,55.243 C19.167,54.974 15.304,48.626 15.035,48.686 C14.766,48.746 14.706,49.764 14.795,50.093 C14.885,50.422 18.987,55.512 18.837,55.572 C18.687,55.632 13.268,55.243 12.849,55.243 C12.43,55.243 12.071,55.123 12.071,55.123 C12.071,55.123 12.251,54.883 11.742,54.345 C11.233,53.806 10.484,52.938 10.155,53.147 C9.826,53.357 9.945,53.716 10.155,53.925 C10.365,54.135 11.203,54.763 11.053,54.883 C10.903,55.003 8.748,54.853 8.658,54.643 C8.568,54.433 8.538,45.84 8.478,42.846 C8.418,39.852 8.268,35.57 7.61,35.121 C6.951,34.672 2.041,34.552 1.771,34.283 C1.559,34.071 0.933,24.522 1.292,24.462 C1.651,24.402 6.262,24.582 7.041,24.103 C7.819,23.624 7.999,22.786 7.879,21.708 C7.759,20.63 7.041,13.145 8.418,10.27 C9.795,7.396 12.55,4.641 16.802,2.964 C21.054,1.287 26.323,1.407 29.976,1.886 C33.629,2.365 33.988,3.024 34.048,4.76 C34.102,6.498 34.162,11.947 33.623,12.007 Z M8.982,24.283 C8.772,24.313 8.802,25.181 8.802,25.511 C8.802,25.841 6.856,25.631 6.377,25.601 C5.898,25.571 5.432,25.698 5.509,26.08 C5.539,26.23 5.509,26.589 5.689,26.679 C5.869,26.769 9.581,26.799 9.941,26.799 C10.3,26.799 10.21,24.943 10.151,24.523 C10.089,24.104 9.191,24.253 8.982,24.283 Z M14.551,6.738 C13.593,7.217 11.796,8.654 10.689,10.481 C9.581,12.307 9.282,13.685 9.252,14.882 C9.222,16.08 9.425,16.87 9.641,16.978 C9.881,17.098 10.21,16.948 10.479,16.948 C10.748,16.948 10.449,13.505 12.036,10.78 C13.623,8.055 15.898,7.397 16.288,7.367 C16.677,7.337 16.617,6.768 16.528,6.349 C16.437,5.929 15.509,6.259 14.551,6.738 Z M21.707,12.546 C21.467,12.486 20.42,12.816 19.881,13.354 C19.342,13.893 18.324,15.63 18.144,16.198 C17.964,16.767 18.048,17.573 18.354,17.695 C18.653,17.815 18.983,17.695 19.192,17.545 C19.402,17.395 19.402,16.198 19.881,15.18 C20.36,14.162 21.827,13.503 21.977,13.383 C22.126,13.265 21.946,12.606 21.707,12.546 Z M28.683,3.025 C28.15,2.924 27.905,3.953 28.174,4.073 C28.443,4.193 30.27,4.462 30.779,4.522 C31.288,4.582 31.617,4.552 31.737,4.881 C31.857,5.21 31.707,8.205 31.917,8.354 C32.127,8.504 33.025,8.803 33.025,8.025 C33.025,7.247 33.145,4.043 32.785,3.743 C32.425,3.443 29.312,3.145 28.683,3.025 Z M11.557,51.171 C11.194,51.268 11.078,51.5 11.407,52.129 C11.736,52.758 13.712,54.943 14.012,54.943 C14.312,54.943 14.761,54.584 14.461,54.194 C14.161,53.806 12.006,51.051 11.557,51.171 Z M13.622,50.183 C13.502,50.093 12.963,50.692 13.083,50.902 C13.083,50.902 15.568,54.136 15.898,54.585 C16.227,55.034 16.557,55.124 16.886,54.944 C17.215,54.764 16.766,54.225 16.527,53.746 C16.287,53.267 13.742,50.272 13.622,50.183 Z" id="facebook" fill="#000000"></path>
        </g>
    </g>
</svg>