<?xml version="1.0" encoding="UTF-8"?>
<svg width="55px" height="56px" viewBox="0 0 55 56" version="1.1" xmlns="http://www.w3.org/2000/svg" xmlns:xlink="http://www.w3.org/1999/xlink">
    <!-- Generator: Sketch 48.2 (47327) - http://www.bohemiancoding.com/sketch -->
    <title>Group 13</title>
    <desc>Created with Sketch.</desc>
    <defs></defs>
    <g id="Page-1" stroke="none" stroke-width="1" fill="none" fill-rule="evenodd">
        <g id="Group-13">
            <path d="M5,0 C2.2425,0 0,2.28327273 0,5.09090909 L0,50.9090909 C0,53.7167273 2.2425,56 5,56 L26.25,56 C26.94,56 27.5,55.4298182 27.5,54.7272727 L27.5,34.3636364 C27.5,33.6610909 26.94,33.0909091 26.25,33.0909091 L22.5525,33.0909091 L22.5525,28 L26.25,28 C26.94,28 27.5,27.4298182 27.5,26.7272727 L27.5,21.6363636 C27.5,16.7236364 31.425,12.7272727 36.25,12.7272727 L42.5,12.7272727 L42.5,17.8181818 L36.25,17.8181818 C34.1825,17.8181818 32.5,19.5312727 32.5,21.6363636 L32.5,26.7272727 C32.5,27.4298182 33.06,28 33.75,28 L42.275,28 L41.4425,33.0909091 L33.75,33.0909091 C33.06,33.0909091 32.5,33.6610909 32.5,34.3636364 L32.5,54.7272727 C32.5,55.4298182 33.06,56 33.75,56 L50,56 C52.7575,56 55,53.7167273 55,50.9090909 L55,5.09090909 C55,2.28327273 52.7575,0 50,0 L5,0 Z" id="Path" fill="#FFFFFF"></path>
            <path d="M51.5,50.0099544 C51.5,51.3574249 50.4224,52.4554544 49.1,52.4554544 L34.7,52.4554544 L34.7,35.3369544 L41.9,35.3369544 C42.488,35.3369544 42.9872,34.9041009 43.0832,34.3147354 L44.2832,26.9782355 C44.3432,26.623638 44.2448,26.261704 44.0144,25.987808 C43.7888,25.7114665 43.4528,25.5549545 43.1,25.5549545 L34.7,25.5549545 L34.7,21.8867045 C34.7,21.2117465 35.2376,20.6639545 35.9,20.6639545 L43.1,20.6639545 C43.7624,20.6639545 44.3,20.1161625 44.3,19.4412045 L44.3,12.1047045 C44.3,11.4297465 43.7624,10.8819545 43.1,10.8819545 L35.9,10.8819545 C29.9456,10.8819545 25.1,15.819419 25.1,21.8867045 L25.1,25.5549545 L21.5504,25.5549545 C20.888,25.5549545 20.3504,26.1027465 20.3504,26.7777045 L20.3504,34.1142045 C20.3504,34.7891624 20.888,35.3369544 21.5504,35.3369544 L25.1,35.3369544 L25.1,52.4554544 L5.9,52.4554544 C4.5776,52.4554544 3.5,51.3574249 3.5,50.0099544 L3.5,5.99095454 C3.5,4.64348404 4.5776,3.54545455 5.9,3.54545455 L49.1,3.54545455 C50.4224,3.54545455 51.5,4.64348404 51.5,5.99095454 L51.5,50.0099544 Z" id="Fill-67" fill="#4267B2"></path>
        </g>
    </g>
</svg>