<?xml version="1.0" encoding="UTF-8"?>
<svg width="95px" height="96px" viewBox="0 0 95 96" version="1.1" xmlns="http://www.w3.org/2000/svg" xmlns:xlink="http://www.w3.org/1999/xlink">
    <!-- Generator: Sketch 48.2 (47327) - http://www.bohemiancoding.com/sketch -->
    <title>Mountains</title>
    <desc>Created with Sketch.</desc>
    <defs>
        <rect id="path-1" x="50" y="0" width="28" height="20" rx="4"></rect>
        <path d="M18.3575799,31.9609255 L84.6229583,15.9149832 C86.7700466,15.3950729 88.9320763,16.7141613 89.4519866,18.8612496 C89.6062218,19.4981992 89.6015931,20.1632887 89.4385076,20.7980299 L72.6130649,86.2839079 C72.063321,88.4235519 69.8831414,89.7124207 67.7434973,89.1626769 C67.0498932,88.9844675 66.4168513,88.6233175 65.9104694,88.1169357 L16.4705338,38.677 C14.9084366,37.1149028 14.9084366,34.5822429 16.4705338,33.0201457 C16.9902812,32.5003982 17.6431917,32.1339123 18.3575799,31.9609255 Z" id="path-2"></path>
        <path d="M64.1657972,71.1442433 L102.131176,62.0077876 C104.278996,61.4909096 106.439161,62.8130497 106.956039,64.9608701 C107.109401,65.5981474 107.103805,66.2633482 106.939741,66.8979547 L97.2999515,104.18519 C96.7470071,106.324009 94.5649016,107.609615 92.4260824,107.05667 C91.7387786,106.878983 91.1111449,106.521584 90.6076179,106.021164 L62.2820286,77.8703844 C60.7151038,76.3131298 60.7072646,73.780482 62.2645192,72.2135572 C62.786973,71.6878591 63.4452105,71.3176542 64.1657972,71.1442433 Z" id="path-3"></path>
    </defs>
    <g id="Page-1" stroke="none" stroke-width="1" fill="none" fill-rule="evenodd">
        <g id="Mountains" transform="translate(-13.000000, 0.000000)">
            <path d="M52.5,32.5 L52.5,5.5" id="Line-2" stroke="#454968" stroke-width="5" stroke-linecap="square"></path>
            <g id="Rectangle-36">
                <use fill="#C5E2A1" fill-rule="evenodd" xlink:href="#path-1"></use>
                <rect stroke="#454968" stroke-width="5" x="52.5" y="2.5" width="23" height="15" rx="4"></rect>
            </g>
            <g id="Group-14" transform="translate(0.000000, 27.000000)">
                <g id="Rectangle-35" transform="translate(52.431650, 52.545591) rotate(-45.000000) translate(-52.431650, -52.545591) ">
                    <use fill="#C5E2A1" fill-rule="evenodd" xlink:href="#path-2"></use>
                    <path stroke="#454968" stroke-width="5" d="M18.945943,34.3907051 C18.6780474,34.4555751 18.433206,34.5930074 18.2383007,34.7879127 C17.6525143,35.3736991 17.6525143,36.3234466 18.2383007,36.909233 L67.6782364,86.3491687 C67.8681296,86.5390619 68.1055203,86.6744932 68.3656218,86.7413217 C69.1679884,86.9474756 69.9855558,86.4641498 70.1917097,85.6617833 L87.0171524,20.1759053 C87.0783095,19.9378774 87.0800452,19.6884688 87.022207,19.4496127 C86.8272406,18.6444546 86.0164795,18.1497964 85.2113214,18.3447628 L18.945943,34.3907051 Z"></path>
                </g>
                <path d="M37.4198008,29.1228877 L45.7230647,37.4261516 L51.9102524,31.2389639 L58.5223667,37.8510783 L67.6396834,28.7337616 L53.67475,7.06373485 C53.0764091,6.13526192 51.838682,5.867637 50.910209,6.46597787 C50.645892,6.63631314 50.4254629,6.86657213 50.266814,7.13806457 L37.4198008,29.1228877 Z" id="Path-10" stroke="#454968" stroke-width="5" fill="#FFFFFF"></path>
            </g>
            <g id="Group-14" transform="translate(51.000000, 52.000000)"></g>
            <g id="Rectangle-35" transform="translate(84.084377, 84.540404) rotate(-45.000000) translate(-84.084377, -84.540404) ">
                <use fill="#FFFFFF" fill-rule="evenodd" xlink:href="#path-3"></use>
                <path stroke="#454968" stroke-width="5" d="M64.7507286,73.5748513 C64.4805086,73.6398804 64.2336695,73.7787072 64.0377493,73.975844 C63.4537789,74.5634408 63.4567186,75.5131837 64.0443154,76.0971542 L92.3699047,104.247934 C92.5587273,104.435591 92.7940899,104.569616 93.0518288,104.636249 C93.853886,104.843603 94.6721756,104.361501 94.8795298,103.559444 L104.519319,66.2722082 C104.580843,66.0342308 104.582942,65.7847805 104.525431,65.5458015 C104.331602,64.7403689 103.52154,64.2445663 102.716108,64.4383956 L64.7507286,73.5748513 Z"></path>
            </g>
            <path d="M76,70.5892661 L80.6709475,75.7365817 L84.15151,71.9010529 L87.8711123,76 L93,70.3480411 L85.9634037,58.3154539 C85.4058037,57.3619572 84.1808177,57.0410196 83.227321,57.5986196 C82.9064141,57.7862843 82.6441627,58.0596758 82.4700025,58.3881077 L76,70.5892661 Z" id="Path-10" stroke="#454968" stroke-width="5" fill="#FFFFFF"></path>
        </g>
    </g>
</svg>