<?xml version="1.0" encoding="UTF-8"?>
<svg width="849px" height="707px" viewBox="0 0 849 707" version="1.1" xmlns="http://www.w3.org/2000/svg" xmlns:xlink="http://www.w3.org/1999/xlink">
    <!-- Generator: Sketch 48.2 (47327) - http://www.bohemiancoding.com/sketch -->
    <title>Floor</title>
    <desc>Created with Sketch.</desc>
    <defs></defs>
    <g id="Artboard" stroke="none" stroke-width="1" fill="none" fill-rule="evenodd" transform="translate(-151.000000, -2710.000000)">
        <g id="Section3" transform="translate(151.000000, 2534.000000)" fill="#E2F0D0">
            <g id="Build" transform="translate(0.000000, 176.560182)">
                <g id="Floor">
                    <g id="Stairs" opacity="0.5" transform="translate(470.672807, 232.359141)">
                        <polygon id="Rectangle-4" points="0 38.3701238 71.513753 0 86.2881051 6.11455842 16.2749091 44.6301001"></polygon>
                        <polygon id="Rectangle-4" points="15.9719298 63.6036957 87.4856829 25.2335719 102.260035 31.3481303 32.2468389 69.863672"></polygon>
                        <polygon id="Rectangle-4" points="34.9385965 85.6830711 106.45235 47.3129473 121.226702 53.4275057 51.2135055 91.9430474"></polygon>
                        <polygon id="Rectangle-4" points="256.549123 420.027899 328.062876 381.657775 342.837228 387.772333 272.824032 426.287875"></polygon>
                        <polygon id="Rectangle-4" points="272.521053 445.261471 344.034806 406.891347 358.809158 413.005905 288.795962 451.521447"></polygon>
                        <polygon id="Rectangle-4" points="291.487719 467.340846 363.001472 428.970722 377.775824 435.085281 307.762628 473.600822"></polygon>
                        <polygon id="Rectangle-4" points="50.9105263 110.916643 122.424279 72.5465192 137.198631 78.6610776 67.1854354 117.176619"></polygon>
                        <polygon id="Rectangle-4" points="64.3868421 132.996018 135.900595 94.6258946 150.674947 100.740453 80.6617512 139.255995"></polygon>
                        <polygon id="Rectangle-4" points="80.3587719 158.22959 151.872525 119.859466 166.646877 125.974025 96.633681 164.489567"></polygon>
                        <polygon id="Rectangle-4" points="99.3254386 180.308966 170.839192 141.938842 185.613544 148.0534 115.600348 186.568942"></polygon>
                        <polygon id="Rectangle-4" points="115.297368 205.542538 186.811121 167.172414 201.585473 173.286972 131.572277 211.802514"></polygon>
                        <polygon id="Rectangle-4" points="126.27807 230.77611 197.791823 192.405986 212.566175 198.520544 142.552979 237.036086"></polygon>
                        <polygon id="Rectangle-4" points="142.25 256.009681 213.763753 217.639558 228.538105 223.754116 158.524909 262.269658"></polygon>
                        <polygon id="Rectangle-4" points="161.216667 278.089057 232.73042 239.718933 247.504772 245.833491 177.491576 284.349033"></polygon>
                        <polygon id="Rectangle-4" points="177.188596 303.322629 248.70235 264.952505 263.476702 271.067063 193.463506 309.582605"></polygon>
                        <polygon id="Rectangle-4" points="190.664912 325.402004 262.178665 287.03188 276.953017 293.146439 206.939821 331.66198"></polygon>
                        <polygon id="Rectangle-4" points="206.636842 350.635576 278.150595 312.265452 292.924947 318.380011 222.911751 356.895552"></polygon>
                        <polygon id="Rectangle-4" points="225.603509 372.714951 297.117262 334.344828 311.891614 340.459386 241.878418 378.974928"></polygon>
                        <polygon id="Rectangle-4" points="241.575439 397.948523 313.089192 359.578399 327.863544 365.692958 257.850348 404.2085"></polygon>
                    </g>
                    <g opacity="0.421761775" id="Rectangle-3">
                        <polygon points="0.109148738 167.172414 313.622711 0.0787092168 603.150857 108.407146 284.000877 275.993831"></polygon>
                        <polygon points="339.902632 226.941075 476.703915 154.029928 603.039189 201.298918 463.778462 274.425175"></polygon>
                    </g>
                </g>
            </g>
        </g>
    </g>
</svg>