<?xml version="1.0" encoding="UTF-8"?>
<svg width="268px" height="245px" viewBox="0 0 268 245" version="1.1" xmlns="http://www.w3.org/2000/svg" xmlns:xlink="http://www.w3.org/1999/xlink">
    <!-- Generator: Sketch 48.2 (47327) - http://www.bohemiancoding.com/sketch -->
    <title>idea</title>
    <desc>Created with Sketch.</desc>
    <defs>
        <rect id="path-1" x="53" y="114" width="37" height="58" rx="16"></rect>
    </defs>
    <g id="Page-1" stroke="none" stroke-width="1" fill="none" fill-rule="evenodd">
        <g id="idea" transform="translate(1.000000, 0.000000)">
            <path d="M44.9909188,168.809917 C51.4965216,199.32968 62.336836,224.972598 94.5301417,229.854157 C126.723447,234.735716 160.175446,229.528877 178.400562,194.422193 C190.55064,171.017736 197.722517,146.926578 199.916194,122.148716 C224.521201,128.248898 241.11206,127.345342 249.68877,119.438048 C262.553835,107.577109 268.776586,90.3914745 265.198504,74.3891057 C261.620423,58.3867369 234.431246,45.8469517 221.804248,47.0702879 C213.386249,47.8858454 179.117122,56.992118 118.996866,74.3891057 C107.87923,59.3460777 94.4743884,51.8245636 78.78234,51.8245636 C55.2442675,51.8245636 38.4853159,138.290154 44.9909188,168.809917 Z" id="Path-5" fill="#A5C1A3"></path>
            <g id="lightbulb" transform="translate(135.000000, 0.000000)">
                <g id="screw">
                    <use fill="#408385" fill-rule="evenodd" xlink:href="#path-1"></use>
                    <rect stroke="#39455A" stroke-width="4" x="55" y="116" width="33" height="54" rx="16"></rect>
                </g>
                <g transform="translate(44.000000, 28.000000)" id="Path-2">
                    <path d="M15.6109829,113.475152 C12.3849765,113.475152 5.93570191,114.908263 4.7572321,94.635516 C3.97158556,81.1203511 2.40978449,61.2210779 0.0718288923,34.9376963 C-0.318073759,27.7989731 0.879380077,22.7678416 3.6641904,19.8443018 C7.84140588,15.4589922 12.4583571,10.6087566 15.6109829,8.32355467 C18.7636087,6.03835276 21.2530714,5.78699698 22.8931816,2.5292289 C24.5332917,-0.728539185 30.1666184,-0.661730022 31.3790404,1.71601901 C32.5914624,4.09376805 35.1417105,6.14075697 38.5599301,8.32355467 C41.9781497,10.5063524 47.6358294,15.8137519 50.3961041,19.1663531 C52.197761,21.354627 53.6651773,23.9192376 54.1587742,25.7404842 C54.8409582,28.2575689 55.1631021,31.887613 55.1631021,32.9345167 C55.1631021,34.1374467 53.1080815,56.9535057 48.9980402,101.382694 C48.119299,109.332984 46.1599286,113.363804 43.1199292,113.475152 C38.5599301,113.642175 18.8369892,113.475152 15.6109829,113.475152 Z" stroke="#4C30AB" stroke-width="4" fill="#F9D117"></path>
                    <path d="M15.4239516,113.80944 C12.1979452,113.80944 5.74867062,115.242551 4.57020081,94.9698038 C4.39156237,91.8967578 4.17279629,88.4936497 3.91390257,84.7604795 C25.0837766,68.0124055 45.4904817,51.6922374 54.0860974,44 C53.4405837,51.2862739 51.6822208,70.5252678 48.811009,101.716982 C47.9322677,109.667272 45.9728973,113.698091 42.9328979,113.80944 C38.3728988,113.976463 18.6499579,113.80944 15.4239516,113.80944 Z" fill="#F6BA0A"></path>
                    <path d="M15.6109829,113.475152 C12.3849765,113.475152 5.93570191,114.908263 4.7572321,94.635516 C3.97158556,81.1203511 2.40978449,61.2210779 0.0718288923,34.9376963 C-0.318073759,27.7989731 0.879380077,22.7678416 3.6641904,19.8443018 C7.84140588,15.4589922 12.4583571,10.6087566 15.6109829,8.32355467 C18.7636087,6.03835276 21.2530714,5.78699698 22.8931816,2.5292289 C24.5332917,-0.728539185 30.1666184,-0.661730022 31.3790404,1.71601901 C32.5914624,4.09376805 35.1417105,6.14075697 38.5599301,8.32355467 C41.9781497,10.5063524 47.6358294,15.8137519 50.3961041,19.1663531 C52.197761,21.354627 53.6651773,23.9192376 54.1587742,25.7404842 C54.8409582,28.2575689 55.1631021,31.887613 55.1631021,32.9345167 C55.1631021,34.1374467 53.1080815,56.9535057 48.9980402,101.382694 C48.119299,109.332984 46.1599286,113.363804 43.1199292,113.475152 C38.5599301,113.642175 18.8369892,113.475152 15.6109829,113.475152 Z" stroke="#39455A" stroke-width="4"></path>
                </g>
                <g id="electric" transform="translate(57.000000, 80.000000)" fill="#39455A">
                    <rect id="Rectangle-2" transform="translate(9.500000, 32.000000) rotate(-4.000000) translate(-9.500000, -32.000000) " x="7" y="3" width="5" height="58"></rect>
                    <rect id="Rectangle-2" transform="translate(18.542115, 31.897722) scale(-1, 1) rotate(-4.000000) translate(-18.542115, -31.897722) " x="16.0421154" y="2.79397342" width="5" height="58.2074973"></rect>
                    <rect id="Rectangle-3" x="0" y="0" width="28" height="4" rx="2"></rect>
                </g>
                <g id="four-sticks" transform="translate(57.000000, 64.000000)" fill="#39455A">
                    <rect id="Rectangle-3" transform="translate(10.000000, 7.152458) rotate(-90.000000) translate(-10.000000, -7.152458) " x="2.84754219" y="5.15245781" width="14.3049156" height="4" rx="2"></rect>
                    <rect id="Rectangle-3" transform="translate(18.000000, 7.152458) rotate(-90.000000) translate(-18.000000, -7.152458) " x="10.8475422" y="5.15245781" width="14.3049156" height="4" rx="2"></rect>
                    <rect id="Rectangle-3" transform="translate(26.000000, 7.152458) rotate(-90.000000) translate(-26.000000, -7.152458) " x="18.8475422" y="5.15245781" width="14.3049156" height="4" rx="2"></rect>
                    <rect id="Rectangle-3" transform="translate(2.000000, 7.152458) rotate(-90.000000) translate(-2.000000, -7.152458) " x="-5.15245781" y="5.15245781" width="14.3049156" height="4" rx="2"></rect>
                </g>
                <g id="light" transform="translate(26.000000, 0.000000)" fill="#39455A">
                    <rect id="Rectangle" transform="translate(8.807691, 36.373798) rotate(-60.000000) translate(-8.807691, -36.373798) " x="6.30769053" y="28.7912659" width="5" height="15.1650635" rx="2.5"></rect>
                    <rect id="Rectangle" transform="translate(81.816665, 35.956329) scale(-1, 1) rotate(-60.000000) translate(-81.816665, -35.956329) " x="79.3166651" y="28.3737976" width="5" height="15.1650635" rx="2.5"></rect>
                    <rect id="Rectangle" x="43" y="0.719060171" width="5" height="17.4460033" rx="2.5"></rect>
                    <rect id="Rectangle" transform="translate(21.034375, 14.337711) rotate(-35.000000) translate(-21.034375, -14.337711) " x="18.5343749" y="5.43941122" width="5" height="17.7965999" rx="2.5"></rect>
                    <rect id="Rectangle" transform="translate(69.151735, 14.723002) scale(-1, 1) rotate(-35.000000) translate(-69.151735, -14.723002) " x="66.6517353" y="5.82470174" width="5" height="17.7965999" rx="2.5"></rect>
                </g>
                <path d="M73.1990002,170.622497 L72.6818993,194.184269 C68.4307361,215.471012 56.433039,226.114383 36.6888078,226.114383 C7.07246102,226.114383 0.726776221,201.177686 0.726776221,194.184269 C0.726776221,189.521991 0.726776221,174.937923 0.726776221,150.432065" id="cable" stroke="#39455A" stroke-width="5"></path>
                <ellipse id="shadow" fill="#39455A" cx="67" cy="239.5" rx="33" ry="5.5"></ellipse>
            </g>
            <path d="M18.7737726,31.0649222 C23.2412573,27.4741074 26.5005096,25.2469337 28.5515293,24.3834011 C32.2274654,22.8357365 36.2260972,24.0053722 38.3206494,22.5999348 C40.6525221,21.0352562 42.0837045,16.9424968 45.5098244,15.1684898 C46.9944488,14.3997677 49.9351411,14.0102711 54.3319014,14 L65.7301078,17.7450633 L73,28.7837695 L73,147.371322 L65.7301078,163.124554 L52.0993298,166.411876 L38.3206494,157.226809 L23.3749429,153.231283 L16.2885793,134.617163 L4.21887407,118.870408 L8.27809514,104.589723 L0.995247974,89.0405312 L8.27809514,76.0758541 L4.21887407,59.496743 C7.24870298,54.6896278 9.43773688,51.6169059 10.7859758,50.2785772 C14.4183566,46.6728959 17.3850578,46.3778576 16.2885793,46.0538119 C14.5816271,45.5493511 15.4100249,40.5530545 18.7737726,31.0649222 Z" id="Path-3" fill="#C5E2A1"></path>
            <g id="Group-6" transform="translate(1.000000, 13.000000)">
                <rect id="Rectangle-4" fill="#39455A" x="48" y="74" width="17" height="5" rx="2.5"></rect>
                <g id="Group">
                    <path d="M42.9984314,49.8238513 C43.0693847,45.7390244 41.8621729,42.5979813 39.2758314,39.0381876 C33.544819,31.1501258 23.0069321,28.8203756 14.5979163,33.1474512 C13.7187617,33.5998427 12.8628769,34.1249968 12.0381876,34.7241686 C3.32543649,41.0543528 1.39398441,53.2490613 7.72416861,61.9618124 C3.40692855,64.9187252 0,70.3114972 0,76.5 C0,82.5317195 3.23648889,87.8075166 7.46181242,90.8221739 C1.13162822,99.534925 3.0630803,111.729634 11.7758314,118.059818 C12.6005207,118.65899 13.4564056,119.184144 14.3355601,119.636535 C22.7445759,123.963611 33.2824628,121.633861 39.0134752,113.745799 C39.79936,112.664121 39.9701932,112.002901 40.5042386,110.960324" id="Oval" stroke="#39455A" stroke-width="4"></path>
                    <path d="M43.8462625,37.2826683 C41.6622152,40.1722599 41.7564072,40.0426158 44.1288383,36.893736 C46.5872418,33.6307469 47.4568457,30.3800084 47.4568457,25.9798614 C47.4568457,16.2296808 40.3009089,8.15085875 30.954481,6.70884094 C29.9773209,6.55807937 28.9762177,6.47986139 27.9568457,6.47986139 C24.7939708,6.47986139 21.8069726,7.23287912 19.1653498,8.56941591" id="Oval" stroke="#39455A" stroke-width="4" transform="translate(33.311098, 22.918333) rotate(-75.000000) translate(-33.311098, -22.918333) "></path>
                    <path d="M44.0746977,143.282668 C41.8906504,146.17226 41.9848424,146.042616 44.3572735,142.893736 C46.815677,139.630747 47.6852809,136.380008 47.6852809,131.979861 C47.6852809,122.229681 40.5293441,114.150859 31.1829162,112.708841 C30.2057561,112.558079 29.2046529,112.479861 28.1852809,112.479861 C25.022406,112.479861 22.0354078,113.232879 19.393785,114.569416" id="Oval" stroke="#39455A" stroke-width="4" transform="translate(33.539533, 128.918333) scale(1, -1) rotate(-75.000000) translate(-33.539533, -128.918333) "></path>
                    <path d="M38,8.85529763 C41.1323552,3.55498471 46.9046781,0 53.5073122,0 C63.4484377,0 71.5073122,8.0588745 71.5073122,18 C71.5073122,24.627417 71.5073122,27.1267469 71.5073122,25.4979898 C71.5073122,89.8654085 71.5073122,127.372583 71.5073122,134 C71.5073122,143.941125 63.4484377,152 53.5073122,152 C46.9046781,152 41.1323552,148.445015 38,143.144702" id="Oval-3" stroke="#39455A" stroke-width="4"></path>
                    <circle id="Oval-2" fill="#39455A" cx="40.5" cy="111" r="2"></circle>
                    <circle id="Oval-2" fill="#39455A" cx="43" cy="50" r="2"></circle>
                </g>
                <g id="Group-3" transform="translate(36.000000, 84.000000)">
                    <circle id="Oval-2" fill="#39455A" cx="2.5" cy="14.5" r="2.5"></circle>
                    <path d="M35.2113983,0.787743493 L13.0523481,0.787743493 C6.00106007,0.787743493 2.47541604,5.47425158 2.47541604,14.8472677" id="Path-4" stroke="#39455A" stroke-width="5"></path>
                </g>
                <g id="Group-2" transform="translate(24.000000, 53.000000)">
                    <path d="M45.9475546,2 L13.5769321,2 C6.52564402,3.23414969 3,7.58732444 3,15.0595242" id="Path-4" stroke="#39455A" stroke-width="5" transform="translate(24.473777, 8.529762) scale(1, -1) translate(-24.473777, -8.529762) "></path>
                    <circle id="Oval-2" fill="#39455A" cx="3" cy="2.5" r="2.5"></circle>
                </g>
                <rect id="Rectangle-4" fill="#39455A" x="55" y="114" width="17" height="5" rx="2.5"></rect>
                <g id="Group-4" transform="translate(41.000000, 117.000000)">
                    <path d="M10,2 C5.581722,2 2,5.581722 2,10" id="Oval-4" stroke="#39455A" stroke-width="4"></path>
                    <circle id="Oval-2" fill="#39455A" cx="2" cy="10" r="2"></circle>
                    <circle id="Oval-2" fill="#39455A" cx="10" cy="2" r="2"></circle>
                </g>
                <g id="Group-4" transform="translate(46.089650, 24.382543) rotate(-105.000000) translate(-46.089650, -24.382543) translate(40.089650, 18.382543)">
                    <path d="M10,2 C5.581722,2 2,5.581722 2,10" id="Oval-4" stroke="#39455A" stroke-width="4"></path>
                    <circle id="Oval-2" fill="#39455A" cx="2" cy="10" r="2"></circle>
                    <circle id="Oval-2" fill="#39455A" cx="10" cy="2" r="2"></circle>
                </g>
                <g id="Group-5" transform="translate(20.000000, 69.000000)">
                    <path d="M1.5,17 C5.64213562,17 9,13.6421356 9,9.5 C9,5.35786438 5.64213562,2 1.5,2" id="Oval-5" stroke="#39455A" stroke-width="4"></path>
                    <circle id="Oval-2" fill="#39455A" cx="2" cy="2" r="2"></circle>
                    <circle id="Oval-2" fill="#39455A" cx="2" cy="17" r="2"></circle>
                </g>
                <g id="Group-5" transform="translate(63.000000, 40.000000)">
                    <path d="M1.5,17 C5.64213562,17 8,13.6421356 8,9.5 C8,5.35786438 5.64213562,2 1.5,2" id="Oval-5" stroke="#39455A" stroke-width="4"></path>
                    <circle id="Oval-2" fill="#39455A" cx="2" cy="2" r="2"></circle>
                    <circle id="Oval-2" fill="#39455A" cx="2" cy="17" r="2"></circle>
                </g>
            </g>
            <g id="Group-7" transform="translate(91.000000, 13.000000)">
                <path d="M18.7785246,18.0649222 C23.2460093,14.4741074 26.5052616,12.2469337 28.5562813,11.3834011 C32.2322174,9.83573654 36.2308492,11.0053722 38.3254014,9.59993485 C42.1729634,7.018234 47.5100474,4.15158905 54.3366534,1 L65.7348598,4.74506327 L73.004752,15.7837695 L73.004752,134.371322 L65.7348598,150.124554 L52.1040818,153.411876 L38.3254014,144.226809 L23.3796949,140.231283 L16.2933313,121.617163 L4.22362609,105.870408 L8.28284716,91.589723 L1,76.0405312 L8.28284716,63.0758541 L4.22362609,46.496743 C13.9770484,38.0392497 18.0002834,33.5582727 16.2933313,33.0538119 C14.5863792,32.5493511 15.4147769,27.5530545 18.7785246,18.0649222 Z" id="Path-3" fill="#408385" transform="translate(37.002376, 77.205938) scale(-1, 1) translate(-37.002376, -77.205938) "></path>
                <g id="Group-6" transform="translate(36.000000, 76.000000) scale(-1, 1) translate(-36.000000, -76.000000) ">
                    <rect id="Rectangle-4" fill="#39455A" x="48" y="74" width="17" height="5" rx="2.5"></rect>
                    <g id="Group">
                        <path d="M42.9984314,49.8238513 C43.0693847,45.7390244 41.8621729,42.5979813 39.2758314,39.0381876 C33.544819,31.1501258 23.0069321,28.8203756 14.5979163,33.1474512 C13.7187617,33.5998427 12.8628769,34.1249968 12.0381876,34.7241686 C3.32543649,41.0543528 1.39398441,53.2490613 7.72416861,61.9618124 C3.40692855,64.9187252 0,70.3114972 0,76.5 C0,82.5317195 3.23648889,87.8075166 7.46181242,90.8221739 C1.13162822,99.534925 3.0630803,111.729634 11.7758314,118.059818 C12.6005207,118.65899 13.4564056,119.184144 14.3355601,119.636535 C22.7445759,123.963611 33.2824628,121.633861 39.0134752,113.745799 C39.79936,112.664121 39.9701932,112.002901 40.5042386,110.960324" id="Oval" stroke="#39455A" stroke-width="4"></path>
                        <path d="M43.8462625,37.2826683 C41.6622152,40.1722599 41.7564072,40.0426158 44.1288383,36.893736 C46.5872418,33.6307469 47.4568457,30.3800084 47.4568457,25.9798614 C47.4568457,16.2296808 40.3009089,8.15085875 30.954481,6.70884094 C29.9773209,6.55807937 28.9762177,6.47986139 27.9568457,6.47986139 C24.7939708,6.47986139 21.8069726,7.23287912 19.1653498,8.56941591" id="Oval" stroke="#39455A" stroke-width="4" transform="translate(33.311098, 22.918333) rotate(-75.000000) translate(-33.311098, -22.918333) "></path>
                        <path d="M44.0746977,143.282668 C41.8906504,146.17226 41.9848424,146.042616 44.3572735,142.893736 C46.815677,139.630747 47.6852809,136.380008 47.6852809,131.979861 C47.6852809,122.229681 40.5293441,114.150859 31.1829162,112.708841 C30.2057561,112.558079 29.2046529,112.479861 28.1852809,112.479861 C25.022406,112.479861 22.0354078,113.232879 19.393785,114.569416" id="Oval" stroke="#39455A" stroke-width="4" transform="translate(33.539533, 128.918333) scale(1, -1) rotate(-75.000000) translate(-33.539533, -128.918333) "></path>
                        <path d="M38,8.85529763 C41.1323552,3.55498471 46.9046781,0 53.5073122,0 C63.4484377,0 71.5073122,8.0588745 71.5073122,18 C71.5073122,24.627417 71.5073122,27.1267469 71.5073122,25.4979898 C71.5073122,89.8654085 71.5073122,127.372583 71.5073122,134 C71.5073122,143.941125 63.4484377,152 53.5073122,152 C46.9046781,152 41.1323552,148.445015 38,143.144702" id="Oval-3" stroke="#39455A" stroke-width="4"></path>
                        <circle id="Oval-2" fill="#39455A" cx="40.5" cy="111" r="2"></circle>
                        <circle id="Oval-2" fill="#39455A" cx="43" cy="50" r="2"></circle>
                    </g>
                    <g id="Group-3" transform="translate(36.000000, 84.000000)">
                        <circle id="Oval-2" fill="#39455A" cx="2.5" cy="14.5" r="2.5"></circle>
                        <path d="M35.2113983,0.787743493 L13.0523481,0.787743493 C6.00106007,0.787743493 2.47541604,5.47425158 2.47541604,14.8472677" id="Path-4" stroke="#39455A" stroke-width="5"></path>
                    </g>
                    <g id="Group-2" transform="translate(24.000000, 53.000000)">
                        <path d="M45.9475546,2 L13.5769321,2 C6.52564402,3.23414969 3,7.58732444 3,15.0595242" id="Path-4" stroke="#39455A" stroke-width="5" transform="translate(24.473777, 8.529762) scale(1, -1) translate(-24.473777, -8.529762) "></path>
                        <circle id="Oval-2" fill="#39455A" cx="3" cy="2.5" r="2.5"></circle>
                    </g>
                    <rect id="Rectangle-4" fill="#39455A" x="55" y="114" width="17" height="5" rx="2.5"></rect>
                    <g id="Group-4" transform="translate(41.000000, 117.000000)">
                        <path d="M10,2 C5.581722,2 2,5.581722 2,10" id="Oval-4" stroke="#39455A" stroke-width="4"></path>
                        <circle id="Oval-2" fill="#39455A" cx="2" cy="10" r="2"></circle>
                        <circle id="Oval-2" fill="#39455A" cx="10" cy="2" r="2"></circle>
                    </g>
                    <g id="Group-4" transform="translate(46.089650, 24.382543) rotate(-105.000000) translate(-46.089650, -24.382543) translate(40.089650, 18.382543)">
                        <path d="M10,2 C5.581722,2 2,5.581722 2,10" id="Oval-4" stroke="#39455A" stroke-width="4"></path>
                        <circle id="Oval-2" fill="#39455A" cx="2" cy="10" r="2"></circle>
                        <circle id="Oval-2" fill="#39455A" cx="10" cy="2" r="2"></circle>
                    </g>
                    <g id="Group-5" transform="translate(20.000000, 69.000000)">
                        <path d="M1.5,17 C5.64213562,17 9,13.6421356 9,9.5 C9,5.35786438 5.64213562,2 1.5,2" id="Oval-5" stroke="#39455A" stroke-width="4"></path>
                        <circle id="Oval-2" fill="#39455A" cx="2" cy="2" r="2"></circle>
                        <circle id="Oval-2" fill="#39455A" cx="2" cy="17" r="2"></circle>
                    </g>
                    <g id="Group-5" transform="translate(63.000000, 88.000000)">
                        <path d="M2,17 C6.46076144,17 8.39327546,13.6421356 8.39327546,9.5 C8.39327546,5.35786438 6.46076144,2 2,2" id="Oval-5" stroke="#39455A" stroke-width="4"></path>
                        <circle id="Oval-2" fill="#39455A" cx="2" cy="2" r="2"></circle>
                        <circle id="Oval-2" fill="#39455A" cx="2" cy="17" r="2"></circle>
                    </g>
                </g>
            </g>
            <g id="Group-8" transform="translate(84.000000, 13.000000)">
                <path d="M17.7785246,17.0649222 C22.2460093,13.4741074 25.5052616,11.2469337 27.5562813,10.3834011 C31.2322174,8.83573654 35.2308492,10.0053722 37.3254014,8.59993485 C41.1729634,6.018234 46.5100474,3.15158905 53.3366534,0 L64.7348598,3.74506327 L72.004752,14.7837695 L72.004752,133.371322 L64.7348598,149.124554 L51.1040818,152.411876 L37.3254014,143.226809 L22.3796949,139.231283 L15.2933313,120.617163 L3.22362609,104.870408 L7.28284716,90.589723 L0,75.0405312 L7.28284716,62.0758541 L3.22362609,45.496743 C12.9770484,37.0392497 17.0002834,32.5582727 15.2933313,32.0538119 C13.5863792,31.5493511 14.4147769,26.5530545 17.7785246,17.0649222 Z" id="Path-3" fill="#FFFFFF" transform="translate(36.002376, 76.205938) scale(-1, 1) translate(-36.002376, -76.205938) "></path>
                <g id="Group-6" transform="translate(36.000000, 76.000000) scale(-1, 1) translate(-36.000000, -76.000000) ">
                    <rect id="Rectangle-4" fill="#39455A" x="48" y="74" width="17" height="5" rx="2.5"></rect>
                    <g id="Group">
                        <path d="M42.9984314,49.8238513 C43.0693847,45.7390244 41.8621729,42.5979813 39.2758314,39.0381876 C33.544819,31.1501258 23.0069321,28.8203756 14.5979163,33.1474512 C13.7187617,33.5998427 12.8628769,34.1249968 12.0381876,34.7241686 C3.32543649,41.0543528 1.39398441,53.2490613 7.72416861,61.9618124 C3.40692855,64.9187252 0,70.3114972 0,76.5 C0,82.5317195 3.23648889,87.8075166 7.46181242,90.8221739 C1.13162822,99.534925 3.0630803,111.729634 11.7758314,118.059818 C12.6005207,118.65899 13.4564056,119.184144 14.3355601,119.636535 C22.7445759,123.963611 33.2824628,121.633861 39.0134752,113.745799 C39.79936,112.664121 39.9701932,112.002901 40.5042386,110.960324" id="Oval" stroke="#39455A" stroke-width="4"></path>
                        <path d="M43.8462625,37.2826683 C41.6622152,40.1722599 41.7564072,40.0426158 44.1288383,36.893736 C46.5872418,33.6307469 47.4568457,30.3800084 47.4568457,25.9798614 C47.4568457,16.2296808 40.3009089,8.15085875 30.954481,6.70884094 C29.9773209,6.55807937 28.9762177,6.47986139 27.9568457,6.47986139 C24.7939708,6.47986139 21.8069726,7.23287912 19.1653498,8.56941591" id="Oval" stroke="#39455A" stroke-width="4" transform="translate(33.311098, 22.918333) rotate(-75.000000) translate(-33.311098, -22.918333) "></path>
                        <path d="M44.0746977,143.282668 C41.8906504,146.17226 41.9848424,146.042616 44.3572735,142.893736 C46.815677,139.630747 47.6852809,136.380008 47.6852809,131.979861 C47.6852809,122.229681 40.5293441,114.150859 31.1829162,112.708841 C30.2057561,112.558079 29.2046529,112.479861 28.1852809,112.479861 C25.022406,112.479861 22.0354078,113.232879 19.393785,114.569416" id="Oval" stroke="#39455A" stroke-width="4" transform="translate(33.539533, 128.918333) scale(1, -1) rotate(-75.000000) translate(-33.539533, -128.918333) "></path>
                        <path d="M38,8.85529763 C41.1323552,3.55498471 46.9046781,0 53.5073122,0 C63.4484377,0 71.5073122,8.0588745 71.5073122,18 C71.5073122,24.627417 71.5073122,27.1267469 71.5073122,25.4979898 C71.5073122,89.8654085 71.5073122,127.372583 71.5073122,134 C71.5073122,143.941125 63.4484377,152 53.5073122,152 C46.9046781,152 41.1323552,148.445015 38,143.144702" id="Oval-3" stroke="#39455A" stroke-width="4"></path>
                        <circle id="Oval-2" fill="#39455A" cx="40.5" cy="111" r="2"></circle>
                        <circle id="Oval-2" fill="#39455A" cx="43" cy="50" r="2"></circle>
                    </g>
                    <g id="Group-3" transform="translate(36.000000, 84.000000)">
                        <circle id="Oval-2" fill="#39455A" cx="2.5" cy="14.5" r="2.5"></circle>
                        <path d="M35.2113983,0.787743493 L13.0523481,0.787743493 C6.00106007,0.787743493 2.47541604,5.47425158 2.47541604,14.8472677" id="Path-4" stroke="#39455A" stroke-width="5"></path>
                    </g>
                    <g id="Group-2" transform="translate(24.000000, 53.000000)">
                        <path d="M45.9475546,2 L13.5769321,2 C6.52564402,3.23414969 3,7.58732444 3,15.0595242" id="Path-4" stroke="#39455A" stroke-width="5" transform="translate(24.473777, 8.529762) scale(1, -1) translate(-24.473777, -8.529762) "></path>
                        <circle id="Oval-2" fill="#39455A" cx="3" cy="2.5" r="2.5"></circle>
                    </g>
                    <rect id="Rectangle-4" fill="#39455A" x="55" y="114" width="17" height="5" rx="2.5"></rect>
                    <g id="Group-4" transform="translate(41.000000, 117.000000)">
                        <path d="M10,2 C5.581722,2 2,5.581722 2,10" id="Oval-4" stroke="#39455A" stroke-width="4"></path>
                        <circle id="Oval-2" fill="#39455A" cx="2" cy="10" r="2"></circle>
                        <circle id="Oval-2" fill="#39455A" cx="10" cy="2" r="2"></circle>
                    </g>
                    <g id="Group-4" transform="translate(46.089650, 24.382543) rotate(-105.000000) translate(-46.089650, -24.382543) translate(40.089650, 18.382543)">
                        <path d="M10,2 C5.581722,2 2,5.581722 2,10" id="Oval-4" stroke="#39455A" stroke-width="4"></path>
                        <circle id="Oval-2" fill="#39455A" cx="2" cy="10" r="2"></circle>
                        <circle id="Oval-2" fill="#39455A" cx="10" cy="2" r="2"></circle>
                    </g>
                    <g id="Group-5" transform="translate(20.000000, 69.000000)">
                        <path d="M1.5,17 C5.64213562,17 9,13.6421356 9,9.5 C9,5.35786438 5.64213562,2 1.5,2" id="Oval-5" stroke="#39455A" stroke-width="4"></path>
                        <circle id="Oval-2" fill="#39455A" cx="2" cy="2" r="2"></circle>
                        <circle id="Oval-2" fill="#39455A" cx="2" cy="17" r="2"></circle>
                    </g>
                    <g id="Group-5" transform="translate(63.000000, 88.000000)">
                        <path d="M2,17 C6.46076144,17 8.39327546,13.6421356 8.39327546,9.5 C8.39327546,5.35786438 6.46076144,2 2,2" id="Oval-5" stroke="#39455A" stroke-width="4"></path>
                        <circle id="Oval-2" fill="#39455A" cx="2" cy="2" r="2"></circle>
                        <circle id="Oval-2" fill="#39455A" cx="2" cy="17" r="2"></circle>
                    </g>
                </g>
            </g>
        </g>
    </g>
</svg>