<?xml version="1.0" encoding="UTF-8"?>
<svg width="61px" height="63px" viewBox="0 0 61 63" version="1.1" xmlns="http://www.w3.org/2000/svg" xmlns:xlink="http://www.w3.org/1999/xlink">
    <!-- Generator: Sketch 48.2 (47327) - http://www.bohemiancoding.com/sketch -->
    <title>instagram_3_</title>
    <desc>Created with Sketch.</desc>
    <defs></defs>
    <g id="Artboard-2" stroke="none" stroke-width="1" fill="none" fill-rule="evenodd" transform="translate(-330.000000, -239.000000)">
        <g id="instagram_3_" transform="translate(330.000000, 239.000000)" fill="#000000" fill-rule="nonzero">
            <path d="M59.003,10.608 C58.103,3.576 55.628,0.763 47.639,0.482 C39.651,0.201 21.874,-0.193 11.129,0.426 C0.384,1.045 1.509,7.739 1.509,9.765 C1.509,9.765 0.778,34.462 0.778,38.962 C0.778,43.462 0.497,46.107 1.959,51.17 C3.422,56.233 6.122,61.465 12.479,61.802 C18.836,62.14 45.502,62.308 51.915,61.633 C58.328,60.958 59.003,55.782 60.072,50.55 C61.141,45.318 59.903,17.64 59.003,10.608 Z M57.54,28.272 C57.652,28.61 57.596,30.072 57.596,30.072 C57.596,30.072 54.671,27.146 54.277,27.54 C53.883,27.934 54.052,28.721 54.052,28.721 C54.052,28.721 57.54,31.027 57.54,31.309 C57.54,31.59 57.427,32.884 57.427,32.884 C57.427,32.884 54.67,30.578 54.502,30.634 C54.333,30.69 54.108,31.422 54.164,31.647 C54.22,31.872 57.596,33.841 57.596,34.178 C57.596,34.515 57.596,37.272 57.596,37.272 C57.596,37.272 54.727,34.403 54.502,34.347 C54.277,34.291 54.164,35.528 54.164,35.528 C54.164,35.528 57.314,38.285 57.427,38.622 C57.54,38.96 57.54,40.816 57.54,40.816 C57.54,40.816 54.615,38.003 54.446,38.003 C54.277,38.003 54.108,39.353 54.108,39.353 C54.108,39.353 57.146,41.941 57.315,42.335 C57.484,42.729 57.427,44.81 57.427,44.81 C57.427,44.81 54.445,42.391 54.277,42.447 C54.108,42.503 54.165,43.91 54.333,44.079 C54.502,44.248 57.483,46.273 57.54,46.554 C57.596,46.835 57.427,49.029 57.427,49.029 C57.427,49.029 54.727,46.61 54.502,46.61 C54.277,46.61 54.164,47.623 54.164,47.623 C54.164,47.623 57.427,50.436 57.427,50.604 C57.427,50.773 56.808,52.179 56.808,52.179 C56.808,52.179 53.826,49.197 53.601,49.141 C53.376,49.085 52.87,49.647 52.87,49.816 C52.87,49.985 55.964,52.854 55.795,53.135 C55.626,53.416 55.457,54.035 55.232,54.035 C55.007,54.035 52.307,51.447 52.138,51.447 C51.969,51.447 51.35,52.403 51.35,52.403 C51.35,52.403 54.163,54.934 53.994,55.047 C53.825,55.159 52.588,55.722 52.588,55.722 C52.588,55.722 50.113,53.528 49.888,53.528 C49.663,53.528 49.157,54.259 49.157,54.259 L51.239,56.284 C51.239,56.284 49.833,56.734 49.608,56.678 C49.383,56.622 47.414,54.99 47.02,54.822 C46.626,54.653 45.557,55.16 45.557,55.16 C45.557,55.16 47.582,56.848 47.301,57.017 C47.02,57.186 34.925,57.58 27.724,57.467 C20.523,57.355 10.622,57.129 8.091,55.892 C5.559,54.654 2.859,51.504 2.578,45.091 C2.297,38.678 2.972,13.25 2.972,13.25 C2.916,11.281 2.86,6.049 4.716,4.305 C6.572,2.561 10.342,1.774 17.317,1.717 C24.293,1.661 42.182,1.998 47.47,2.167 C52.758,2.336 55.684,4.136 56.302,7.061 C56.921,9.986 57.596,22.25 57.427,22.194 C57.258,22.138 54.614,20.056 54.389,20.056 C54.164,20.056 53.826,21.237 54.051,21.35 C54.276,21.463 57.314,23.657 57.483,24.05 C57.652,24.444 57.652,26.581 57.652,26.581 C57.652,26.581 54.727,23.6 54.502,23.712 C54.277,23.825 54.277,25.231 54.277,25.231 C54.277,25.231 57.428,27.935 57.54,28.272 Z M52.533,18.259 C52.589,14.096 52.139,10.383 49.608,8.414 C47.076,6.445 28.906,7.064 23.28,7.176 C17.654,7.289 12.19,7.337 10.51,8.808 C10.06,9.202 9.104,9.933 8.935,12.127 C8.766,14.321 7.754,42.449 8.204,46.837 C8.654,51.225 10.398,51.957 14.223,52.069 C18.049,52.182 41.957,52.688 45.895,52.463 C49.833,52.238 50.846,50.775 51.858,48.019 C52.871,45.262 52.477,22.422 52.533,18.259 Z M50.283,47.343 C49.608,49.031 48.764,50.381 45.445,50.662 C42.126,50.943 22.38,50.662 17.598,50.493 C12.816,50.324 11.579,49.368 11.579,49.368 C11.579,49.368 11.748,27.709 11.917,22.084 C12.086,16.458 11.692,11.958 12.48,11.508 C13.361,11.005 19.062,10.551 30.088,10.439 C41.114,10.327 47.64,10.664 48.596,11.058 C49.552,11.452 50.846,13.027 50.846,20.172 C50.846,27.316 50.958,45.656 50.283,47.343 Z M44.376,11.789 C39.2,12.577 40.494,17.584 42.294,18.765 C44.094,19.946 48.482,20.115 48.932,16.571 C49.383,13.027 47.221,11.357 44.376,11.789 Z M47.245,15.221 C46.964,17.134 45.22,17.359 44.095,17.19 C42.97,17.021 40.551,13.927 44.658,12.858 C45.651,12.6 47.527,13.308 47.245,15.221 Z M27.443,15.446 C9.103,18.653 13.266,36.88 16.867,41.774 C20.467,46.668 31.044,46.444 36.838,43.968 C42.632,41.493 46.57,35.923 43.926,25.628 C41.282,15.333 31.747,14.694 27.443,15.446 Z M39.144,40.368 C33.743,44.25 25.811,44.587 22.042,42.731 C18.273,40.875 14.56,36.711 15.404,29.848 C16.248,22.985 20.692,17.753 27.555,17.022 C31.418,16.61 38.694,17.022 41.169,23.154 C43.645,29.285 44.545,36.486 39.144,40.368 Z M27.443,20.791 C18.723,22.985 18.498,28.273 19.23,33.899 C19.961,39.525 29.75,40.762 34.926,38.512 C40.102,36.262 41.846,32.661 40.439,27.317 C39.032,21.973 32.538,19.509 27.443,20.791 Z M31.55,37.78 C26.487,38.343 22.886,37.33 21.649,34.405 C20.411,31.479 22.099,26.36 28.4,24.785 C32.268,23.818 37.57,25.291 38.864,29.285 C40.157,33.279 36.613,37.217 31.55,37.78 Z" id="instagram_2_"></path>
        </g>
    </g>
</svg>