<?xml version="1.0" encoding="UTF-8"?>
<svg width="55px" height="56px" viewBox="0 0 55 56" version="1.1" xmlns="http://www.w3.org/2000/svg" xmlns:xlink="http://www.w3.org/1999/xlink">
    <!-- Generator: Sketch 48.2 (47327) - http://www.bohemiancoding.com/sketch -->
    <title>Group</title>
    <desc>Created with Sketch.</desc>
    <defs></defs>
    <g id="Page-1" stroke="none" stroke-width="1" fill="none" fill-rule="evenodd">
        <g id="Group" fill="#454968">
            <path d="M51.5,40.2817554 C51.5,46.9946529 46.1408,52.4554544 39.5528,52.4554544 L15.4472,52.4554544 C8.8592,52.4554544 3.5,46.9946529 3.5,40.2817554 L3.5,15.7191535 C3.5,9.00625603 8.8592,3.54545455 15.4472,3.54545455 L39.5528,3.54545455 C46.1408,3.54545455 51.5,9.00625603 51.5,15.7191535 L51.5,40.2817554 Z M40.055,-1.13686838e-13 L14.945,-1.13686838e-13 C6.705,-1.13686838e-13 0,6.82690909 0,15.2167273 L0,40.7832727 C0,49.1730909 6.705,56 14.945,56 L40.055,56 C48.295,56 55,49.1730909 55,40.7832727 L55,15.2167273 C55,6.82690909 48.295,-1.13686838e-13 40.055,-1.13686838e-13 Z" id="Fill-28"></path>
            <path d="M27.5,40.7272727 C20.6075,40.7272727 15,35.0178182 15,28 C15,20.9821818 20.6075,15.2727273 27.5,15.2727273 C34.3925,15.2727273 40,20.9821818 40,28 C40,35.0178182 34.3925,40.7272727 27.5,40.7272727 M27.5,12.7272727 C19.2275,12.7272727 12.5,19.5770909 12.5,28 C12.5,36.4229091 19.2275,43.2727273 27.5,43.2727273 C35.7725,43.2727273 42.5,36.4229091 42.5,28 C42.5,19.5770909 35.7725,12.7272727 27.5,12.7272727" id="Fill-30"></path>
            <path d="M42.5,7.63636364 C41.1225,7.63636364 40,8.77927273 40,10.1818182 C40,11.5843636 41.1225,12.7272727 42.5,12.7272727 C43.8775,12.7272727 45,11.5843636 45,10.1818182 C45,8.77927273 43.8775,7.63636364 42.5,7.63636364" id="Fill-32"></path>
        </g>
    </g>
</svg>