<?xml version="1.0" encoding="UTF-8"?>
<svg width="81px" height="93px" viewBox="0 0 81 93" version="1.1" xmlns="http://www.w3.org/2000/svg" xmlns:xlink="http://www.w3.org/1999/xlink">
    <!-- Generator: Sketch 48.2 (47327) - http://www.bohemiancoding.com/sketch -->
    <title>PLANE</title>
    <desc>Created with Sketch.</desc>
    <defs>
        <path d="M17.192009,41.6977727 L93.3224992,15.8211928 L69.2552405,93.7610042 L29.1290461,81.9425486 C28.4631388,81.7464175 27.9465616,81.2190109 27.7642862,80.5491784 L17.192009,41.6977727 Z" id="path-1"></path>
        <path d="M57.0543086,2.77395352 L52.1733547,74.1364744 C52.1015964,75.1856241 51.2296173,76 50.1780164,76 L17.3201111,76 C16.2155416,76 15.3201111,75.1045695 15.3201111,74 C15.3201111,73.6740937 15.3997551,73.3531248 15.5521124,73.0650238 L53.2909716,1.702503 C53.8073446,0.726064254 55.0175077,0.353107338 55.9939465,0.869480414 C56.6926829,1.23899532 57.108245,1.98536953 57.0543086,2.77395352 Z" id="path-2"></path>
        <path d="M95.7341974,3.13687517 L90.8532435,74.499396 C90.7814852,75.5485458 89.9095062,76.3629217 88.8579053,76.3629217 L56,76.3629217 C54.8954305,76.3629217 54,75.4674912 54,74.3629217 C54,74.0370153 54.0796439,73.7160465 54.2320013,73.4279455 L91.9708604,2.06542466 C92.4872335,1.08898591 93.6973966,0.716028993 94.6738353,1.23240207 C95.3725718,1.60191698 95.7881339,2.34829119 95.7341974,3.13687517 Z" id="path-3"></path>
    </defs>
    <g id="Page-1" stroke="none" stroke-width="1" fill="none" fill-rule="evenodd">
        <g id="PLANE" transform="translate(-15.000000, 0.000000)">
            <g id="Rectangle-32" transform="translate(55.257254, 54.791098) rotate(-45.000000) translate(-55.257254, -54.791098) ">
                <use fill="#408385" fill-rule="evenodd" xlink:href="#path-1"></use>
                <path stroke="#454968" stroke-width="5" d="M20.2212592,43.3086043 L30.1032446,79.6232998 L67.59457,90.6657017 L89.4882263,19.7649203 L20.2212592,43.3086043 Z"></path>
            </g>
            <path d="M55.5,87.5 L43.5,62.5" id="Line" stroke="#454968" stroke-width="5" stroke-linecap="square"></path>
            <path d="M68.5,87.5 L56.5,62.5" id="Line" stroke="#454968" stroke-width="5" stroke-linecap="square" transform="translate(62.500000, 75.000000) scale(-1, 1) translate(-62.500000, -75.000000) "></path>
            <g id="Rectangle-31">
                <use fill="#FFFFFF" fill-rule="evenodd" xlink:href="#path-2"></use>
                <path stroke="#454968" stroke-width="5" d="M54.3993349,4.95436662 L18.1501389,73.5 L49.7110465,73.5 L54.3993349,4.95436662 Z"></path>
            </g>
            <g id="Rectangle-31" transform="translate(74.869440, 38.681461) scale(-1, 1) translate(-74.869440, -38.681461) ">
                <use fill="#FFFFFF" fill-rule="evenodd" xlink:href="#path-3"></use>
                <path stroke="#454968" stroke-width="5" d="M93.0792238,5.31728827 L56.8300278,73.8629217 L88.3909354,73.8629217 L93.0792238,5.31728827 Z"></path>
            </g>
        </g>
    </g>
</svg>