<?xml version="1.0" encoding="UTF-8"?>
<svg width="56px" height="42px" viewBox="0 0 56 42" version="1.1" xmlns="http://www.w3.org/2000/svg" xmlns:xlink="http://www.w3.org/1999/xlink">
    <!-- Generator: Sketch 48.2 (47327) - http://www.bohemiancoding.com/sketch -->
    <title>laser-gun</title>
    <desc>Created with Sketch.</desc>
    <defs></defs>
    <g id="Artboard-2" stroke="none" stroke-width="1" fill="none" fill-rule="evenodd" transform="translate(-73.000000, -36.000000)">
        <g id="laser-gun" transform="translate(73.000000, 36.000000)" fill-rule="nonzero">
            <path d="M52,2.24 C50.7729176,2.31272394 49.7807704,3.26671163 49.66,4.49 L47.79,4.62 C47.6688883,4.26637763 47.585099,3.90105647 47.54,3.53 C47.45,2.84 47.45,2.16 47.42,1.81 C47.39,1.46 44.11,1.12 43.86,1.22 C43.61,1.32 44.24,5.22 44.2,5.31 C43.6115791,5.40836772 43.0165308,5.46185521 42.42,5.47 C42.2701428,3.99130595 41.9890348,2.528875 41.58,1.1 C41.2224399,0.587140254 40.5206556,0.453890073 40,0.8 C39.59,1.02 35.81,3.8 35.81,3.8 C35.81,3.8 33,1.05 26.76,1.08 C20.52,1.11 18.32,3.33 18.32,3.33 C17.846559,3.07483489 17.3552764,2.85425904 16.85,2.67 C16.26,2.48 14.04,2.2 8.94,3.61 C5.94407519,4.42984111 3.19638303,5.97541795 0.94,8.11 C0.66,8.3 0.72,8.77 0.82,8.95 C1.63269429,9.41961421 2.5237531,9.73809151 3.45,9.89 C4.65518273,10.3162835 5.7537103,10.9985987 6.67,11.89 C3,15.86 2.42,20.08 5.45,22.21 C7.90792082,23.7068477 10.5879673,24.803844 13.39,25.46 C13.39,25.46 9.83,36.24 9.51,38 C9.19,39.76 11.26,40.88 13.01,41.09 C14.76,41.3 20.76,41.59 22.54,40.87 C24.32,40.15 23.76,38.62 23.54,36.4 C23.4305956,34.6421518 23.4105698,32.8798804 23.48,31.12 C23.48,31.12 26.61,31.12 27.82,30.34 C29.03,29.56 29.54,24.72 29.54,24.72 C31.7368633,24.5624067 33.8762504,23.9457999 35.82,22.91 C39.51,21.1 40.07,18.6 40.07,18.6 C40.07,18.6 40.98,18.66 42.07,18.6 C43.16,18.54 47.51,18.54 47.76,18.26 C48.01,17.98 47.64,17.76 46.57,15.89 C45.8655921,14.6047511 45.2604949,13.2675196 44.76,11.89 L46.1,10.64 C46.1,10.64 46.48,11.39 47.04,12.39 C47.5907488,13.4358411 48.2952529,14.3931577 49.13,15.23 C49.47,15.36 51.44,12.01 51.51,11.73 C51.58,11.45 51.26,11.36 50.85,10.86 C50.44,10.36 49.64,9 49.64,9 L51.23,7.47 C51.4620568,7.67773566 51.739423,7.82840376 52.04,7.91 C52.57,8.07 54.88,8.29 55.23,6.07 C55.58,3.85 54.17,2 52,2.24 Z" id="Shape" fill="#E2F0D0"></path>
            <path d="M52,2.24 C50.7729176,2.31272394 49.7807704,3.26671163 49.66,4.49 L47.79,4.62 C47.6688883,4.26637763 47.585099,3.90105647 47.54,3.53 C47.45,2.84 47.45,2.16 47.42,1.81 C47.39,1.46 44.11,1.12 43.86,1.22 C43.61,1.32 44.24,5.22 44.2,5.31 C43.6115791,5.40836772 43.0165308,5.46185521 42.42,5.47 C42.2701428,3.99130595 41.9890348,2.528875 41.58,1.1 C41.2224399,0.587140254 40.5206556,0.453890073 40,0.8 C39.59,1.02 35.81,3.8 35.81,3.8 C35.81,3.8 33,1.05 26.76,1.08 C20.52,1.11 18.32,3.33 18.32,3.33 C17.846559,3.07483489 17.3552764,2.85425904 16.85,2.67 C16.26,2.48 14.04,2.2 8.94,3.61 C5.94407519,4.42984111 3.19638303,5.97541795 0.94,8.11 C0.66,8.3 0.72,8.77 0.82,8.95 C1.63269429,9.41961421 2.5237531,9.73809151 3.45,9.89 C4.65518273,10.3162835 5.7537103,10.9985987 6.67,11.89 C3,15.86 2.42,20.08 5.45,22.21 C7.90792082,23.7068477 10.5879673,24.803844 13.39,25.46 C13.39,25.46 9.83,36.24 9.51,38 C9.19,39.76 11.26,40.88 13.01,41.09 C14.76,41.3 20.76,41.59 22.54,40.87 C24.32,40.15 23.76,38.62 23.54,36.4 C23.4305956,34.6421518 23.4105698,32.8798804 23.48,31.12 C23.48,31.12 26.61,31.12 27.82,30.34 C29.03,29.56 29.54,24.72 29.54,24.72 C31.7368633,24.5624067 33.8762504,23.9457999 35.82,22.91 C39.51,21.1 40.07,18.6 40.07,18.6 C40.07,18.6 40.98,18.66 42.07,18.6 C43.16,18.54 47.51,18.54 47.76,18.26 C48.01,17.98 47.64,17.76 46.57,15.89 C45.8655921,14.6047511 45.2604949,13.2675196 44.76,11.89 L46.1,10.64 C46.1,10.64 46.48,11.39 47.04,12.39 C47.5907488,13.4358411 48.2952529,14.3931577 49.13,15.23 C49.47,15.36 51.44,12.01 51.51,11.73 C51.58,11.45 51.26,11.36 50.85,10.86 C50.44,10.36 49.64,9 49.64,9 L51.23,7.47 C51.4620568,7.67773566 51.739423,7.82840376 52.04,7.91 C52.57,8.07 54.88,8.29 55.23,6.07 C55.58,3.85 54.17,2 52,2.24 Z M5.7,8.93 C4.7,8.74 4.14,8.34 4.17,8.15 C4.2,7.96 7.48,6 10.42,5 C13.36,4 15.36,4.22 15.2,4.41 C13.4076087,5.55555898 11.7149519,6.85014037 10.14,8.28 C8.45,10.06 7.92,10.81 7.83,10.69 C7.74,10.57 6.7,9.11 5.7,8.93 Z M21.7,28.93 C21.54,30.46 21.42,31.27 21.42,31.27 C20.6709859,30.3639543 19.8625348,29.5087332 19,28.71 C18.81,28.71 18.53,29.43 18.59,29.55 C18.65,29.67 21.34,32.3 21.37,32.46 C21.4,32.62 21.43,34.65 21.53,35.27 C21.63,35.89 21.72,36.77 21.72,36.77 C21.72,36.77 18.2,33.15 18,33.15 C17.8,33.15 17.56,33.96 17.56,33.96 C17.56,33.96 21.84,38.12 21.84,38.37 C21.84,38.62 22,39.62 21.78,39.62 C21.5948614,39.6537786 21.4051386,39.6537786 21.22,39.62 C21.1,39.56 16.91,35.25 16.72,35.21 C16.53,35.17 16.13,35.71 16.19,35.9 C16.25,36.09 20.07,39.59 19.88,39.65 C19.4638471,39.6792635 19.0461529,39.6792635 18.63,39.65 C17.5743826,38.5875503 16.4592522,37.5859362 15.29,36.65 C15.07,36.65 14.6,37.34 14.67,37.43 C14.74,37.52 17.2,39.68 17.2,39.68 C15.731493,39.6661961 14.2678574,39.5087799 12.83,39.21 C11.61,38.8 11.52,38.15 11.61,37.74 C11.7,37.33 15.26,26 15.48,25.61 C16.6096143,25.8540177 17.7649593,25.9581331 18.92,25.92 C21.05,25.92 22.55,25.73 22.55,25.73 C22.1345831,26.757131 21.849041,27.8321129 21.7,28.93 Z M26.39,29.27 C25.5936471,29.5302309 24.7570457,29.6453906 23.92,29.61 C23.8236856,28.2455843 24.1747519,26.8869577 24.92,25.74 C24.97,25.66 27.48,25.43 27.48,25.43 C27.48,25.43 26.55,29.15 26.39,29.27 Z M38.64,17.27 C38.075367,16.3557963 37.4365499,15.4895469 36.73,14.68 C36.51,14.68 36.17,14.9 36.17,15.12 C36.17,15.34 38.23,18.12 38.11,18.4 C37.99,18.68 37.52,19.84 37.33,19.87 C37.14,19.9 35.17,16.27 35,16.21 C34.83,16.15 34.41,16.21 34.38,16.4 C34.35,16.59 36.6,20.4 36.6,20.4 C36.6,20.4 35.6,21.18 35.51,21.12 C35.42,21.06 33.26,17.12 33.07,17.12 C32.88,17.12 32.35,17.37 32.38,17.5 C32.41,17.63 34.82,21.44 34.69,21.56 C34.56,21.68 33.53,22.25 33.47,22.12 C33.41,21.99 31.03,18.12 30.85,18.12 C30.67,18.12 30.13,18.53 30.16,18.62 C30.19,18.71 32.6,22.34 32.41,22.46 C32.22,22.58 31.47,22.87 31.41,22.74 C31.35,22.61 29.14,19.61 29,19.61 C28.86,19.61 28.19,19.99 28.22,20.14 C28.25,20.29 30.38,22.95 30.22,23.05 C29.9143675,23.1467843 29.599229,23.2104825 29.28,23.24 C28.6447151,22.2496599 27.9466179,21.3010493 27.19,20.4 C27,20.4 26.5,20.59 26.5,20.68 C26.5,20.77 28.19,23.24 28.09,23.34 C27.7112693,23.4503056 27.3228188,23.5239772 26.93,23.56 C26.4390167,22.6655765 25.8807411,21.8097768 25.26,21 C25.07,21 24.26,21.28 24.35,21.41 C24.44,21.54 25.85,23.63 25.66,23.72 C22.8170917,24.1479432 19.9329846,24.2318811 17.07,23.97 C12.57,23.6 8.63,21.97 7.07,20.66 C5.51,19.35 5,18.08 6.26,15.9 C8.28785944,12.9235896 10.7061247,10.2328911 13.45,7.9 C16.6143715,5.21728214 20.472783,3.48394365 24.58,2.9 C29.24,2.34 32.7,2.99 35.3,5.59 C37.9,8.19 38.93,12.75 39.02,14.31 C39.0561728,15.3108137 38.9277991,16.3107773 38.64,17.27 Z M45,16.93 C44.91,17.02 41.06,17.06 41.06,17.06 C41.1761733,14.4504 40.7611172,11.8443918 39.84,9.4 C39.1438359,7.64401158 38.1264616,6.03316894 36.84,4.65 C37,4.49 40,2.43 40,2.65 C40.2060069,5.48853301 40.903013,8.26979045 42.06,10.87 C43.92,15 45.14,16.83 45,16.93 Z M44.19,10.8 C43.3729339,9.46971067 42.851164,7.97942671 42.66,6.43 C43.1543493,6.27198866 43.6805346,6.24103658 44.19,6.34 C44.32,6.47 44.41,7 44.94,8.22 C45.47,9.44 45.63,9.88 45.63,9.88 L44.19,10.8 Z M50.19,11.96 C50.19,12.15 49.28,13.59 49.19,13.49 C47.7881708,11.770548 46.7075792,9.81261077 46,7.71 C45.5234665,6.07520014 45.1888921,4.40232815 45,2.71 C45,2.49 46.41,2.62 46.47,2.71 C46.7486667,4.30386176 47.1566822,5.87238011 47.69,7.4 C48.4130756,9.00424225 49.2729168,10.5432576 50.26,12 L50.19,11.96 Z M49.1,7.96 C48.4486689,7.31362742 48.1377728,6.39944504 48.26,5.49 C48.26,5.33 49.51,5.37 49.51,5.37 C49.5581033,5.72811454 49.6881389,6.07031342 49.89,6.37 L50.33,7 C50.33,7 49.33,8.05 49.17,7.93 L49.1,7.96 Z M54.1,5.71 C53.9847397,6.32036446 53.5140772,6.80173131 52.9064586,6.93068633 C52.29884,7.05964135 51.6732341,6.81093577 51.32,6.3 C50.32,5.14 50.38,3.24 52.32,3.39 C52.9153877,3.31998623 53.5054681,3.5578465 53.8858587,4.0211946 C54.2662493,4.48454269 54.3846307,5.10964929 54.2,5.68 L54.1,5.71 Z M20.76,28.74 C20.85,28.74 21.01,28.49 21.04,28.18 C21.07,27.87 20.13,27.18 20.04,27.09 C19.95,27 19.59,27.62 19.67,27.68 C19.75,27.74 20.67,28.71 20.76,28.74 Z M18.3,32.08 C19.0508386,32.8950604 19.8668748,33.6475527 20.74,34.33 C20.93,34.33 20.74,33.33 20.74,33.14 C20.74,32.95 18.55,30.78 18.55,31 C18.55,31.22 18.17,31.86 18.3,32.08 Z M13.42,10.74 C14.0177815,11.9983275 14.7062632,13.2115259 15.48,14.37 C15.64,14.56 16.01,14.21 16.11,14.03 C15.58233,12.7740199 14.9778538,11.5517089 14.3,10.37 C13.9758507,10.4009145 13.6688496,10.5299945 13.42,10.74 Z M16.76,8.3 C16.57,8.3 15.85,8.59 15.85,8.71 C15.85,8.83 18.41,13.62 18.54,13.71 C18.8490438,13.7309418 19.1376563,13.5545675 19.26,13.27 C18.5866331,11.5375919 17.7495065,9.87338417 16.76,8.3 Z M19.85,6.49 C19.4414057,6.46582854 19.039526,6.6021806 18.73,6.87 C18.61,7.21 20.92,11.31 21.14,11.53 C21.36,11.75 22.14,11.37 22.2,11.16 C21.5915712,9.52312063 20.80696,7.95725134 19.86,6.49 L19.85,6.49 Z M22,6.8 C22,6.8 23.25,10.24 23.44,10.39 C23.63,10.54 24.22,10.17 24.32,9.95 C23.9406848,8.75913017 23.4484479,7.60722886 22.85,6.51 C22.7,6.4 22.17,6.68 22,6.8 Z M31.5,4.46 C30.523258,4.08624032 29.4858051,3.89637965 28.44,3.9 C28.22,3.99 28.19,4.84 28.35,5.02 C28.51,5.2 29.63,5.15 30.76,5.46 C31.6112602,5.74664035 32.4458872,6.08049115 33.26,6.46 C33.39,6.46 33.64,5.71 33.6,5.46 C33.56,5.21 32.89,4.9 31.48,4.46 L31.5,4.46 Z" id="Shape" fill="#1D1D1B"></path>
        </g>
    </g>
</svg>