<?xml version="1.0" encoding="UTF-8"?>
<svg width="55px" height="56px" viewBox="0 0 55 56" version="1.1" xmlns="http://www.w3.org/2000/svg" xmlns:xlink="http://www.w3.org/1999/xlink">
    <!-- Generator: Sketch 48.2 (47327) - http://www.bohemiancoding.com/sketch -->
    <title>Group 2</title>
    <desc>Created with Sketch.</desc>
    <defs></defs>
    <g id="Page-1" stroke="none" stroke-width="1" fill="none" fill-rule="evenodd">
        <g id="Group-2" fill="#454968">
            <path d="M12.5,15.2727273 C13.8775,15.2727273 15,14.1298182 15,12.7272727 C15,11.3247273 13.8775,10.1818182 12.5,10.1818182 C11.1225,10.1818182 10,11.3247273 10,12.7272727 C10,14.1298182 11.1225,15.2727273 12.5,15.2727273 Z M12.5,7.63636364 C15.2575,7.63636364 17.5,9.91963636 17.5,12.7272727 C17.5,15.5349091 15.2575,17.8181818 12.5,17.8181818 C9.7425,17.8181818 7.5,15.5349091 7.5,12.7272727 C7.5,9.91963636 9.7425,7.63636364 12.5,7.63636364 Z" id="Fill-177"></path>
            <path d="M10,45.8181818 L15,45.8181818 L15,22.9090909 L10,22.9090909 L10,45.8181818 Z M16.25,20.3636364 L8.75,20.3636364 C8.06,20.3636364 7.5,20.9338182 7.5,21.6363636 L7.5,47.0909091 C7.5,47.7934545 8.06,48.3636364 8.75,48.3636364 L16.25,48.3636364 C16.94,48.3636364 17.5,47.7934545 17.5,47.0909091 L17.5,21.6363636 C17.5,20.9338182 16.94,20.3636364 16.25,20.3636364 Z" id="Fill-179"></path>
            <path d="M45,45.8181818 L40,45.8181818 L40,33.0909091 C40,27.8167273 36.86,25.4545455 33.75,25.4545455 C30.64,25.4545455 27.5,27.8167273 27.5,33.0909091 L27.5,45.8181818 L22.5,45.8181818 L22.5,22.9090909 L27.5,22.9090909 L27.5,25.4570909 C27.5,25.9890909 27.825,26.4650909 28.315,26.6509091 C28.8025,26.8367273 29.3575,26.6941818 29.695,26.2894545 C31.555,24.0978182 33.15,22.9090909 36.25,22.9090909 C41.6475,22.9090909 45,26.8112727 45,33.0909091 L45,45.8181818 Z M36.25,20.3636364 C33.54,20.3636364 31.625,21.1425455 30,22.4356364 L30,21.6363636 C30,20.9338182 29.44,20.3636364 28.75,20.3636364 L21.25,20.3636364 C20.56,20.3636364 20,20.9338182 20,21.6363636 L20,47.0909091 C20,47.7934545 20.56,48.3636364 21.25,48.3636364 L28.75,48.3636364 C29.44,48.3636364 30,47.7934545 30,47.0909091 L30,33.0909091 C30,29.904 31.4025,28 33.75,28 C36.0975,28 37.5,29.904 37.5,33.0909091 L37.5,47.0909091 C37.5,47.7934545 38.06,48.3636364 38.75,48.3636364 L46.25,48.3636364 C46.94,48.3636364 47.5,47.7934545 47.5,47.0909091 L47.5,33.0909091 C47.5,25.3578182 43.0825,20.3636364 36.25,20.3636364 Z" id="Fill-181"></path>
            <path d="M52,50.5 C52,51.8775 50.89995,53 49.55,53 L5.45,53 C4.10005,53 3,51.8775 3,50.5 L3,5.5 C3,4.1225 4.10005,3 5.45,3 L49.55,3 C50.89995,3 52,4.1225 52,5.5 L52,50.5 Z M50,0 L5,0 C2.2425,0 0,2.28327273 0,5.09090909 L0,50.9090909 C0,53.7167273 2.2425,56 5,56 L50,56 C52.7575,56 55,53.7167273 55,50.9090909 L55,5.09090909 C55,2.28327273 52.7575,0 50,0 Z" id="Fill-182"></path>
        </g>
    </g>
</svg>