<?xml version="1.0" encoding="UTF-8"?>
<svg width="57px" height="52px" viewBox="0 0 57 52" version="1.1" xmlns="http://www.w3.org/2000/svg" xmlns:xlink="http://www.w3.org/1999/xlink">
    <!-- Generator: Sketch 48.2 (47327) - http://www.bohemiancoding.com/sketch -->
    <title>linked_in</title>
    <desc>Created with Sketch.</desc>
    <defs></defs>
    <g id="Artboard-2" stroke="none" stroke-width="1" fill="none" fill-rule="evenodd" transform="translate(-222.000000, -194.000000)">
        <g id="linked_in" transform="translate(222.000000, 194.000000)" fill-rule="nonzero">
            <path d="M5.104,15.526 C6.781,16.604 9.975,16.644 12.05,16.484 C14.126,16.324 17.36,13.769 17.559,9.298 C17.759,4.827 14.565,2.471 14.565,2.471 C10.733,-0.803 5.463,1.074 4.345,1.752 C3.227,2.431 0.233,5.145 1.071,8.858 C1.91,12.572 3.101,14.239 5.104,15.526 Z M16.402,19.199 C15.204,18.75 9.006,18.6 6.881,18.57 C4.756,18.54 2.34,18.486 2.03,18.989 C1.79,19.378 1.91,28.001 1.79,33.66 C1.67,39.319 1.311,47.942 1.491,48.271 C1.671,48.6 5.114,51.056 5.383,51.265 C5.652,51.474 6.341,51.564 8.168,51.534 C9.994,51.504 15.953,51.804 16.671,51.624 C17.389,51.444 18.198,51.175 18.438,50.666 C18.678,50.157 18.737,47.552 18.857,41.654 C18.977,35.756 19.845,27.911 19.695,24.797 C19.546,21.684 17.599,19.648 16.402,19.199 Z M55.924,29.379 C55.655,25.636 53.589,22.762 50.684,20.906 C47.779,19.05 42.869,18.541 39.546,19.229 C36.223,19.918 32.719,22.972 32.6,22.942 C32.481,22.912 32.57,20.367 32.48,19.738 C32.39,19.109 31.252,19.199 28.408,19.169 C25.564,19.139 21.722,19.186 21.671,19.409 C21.521,20.068 21.791,33.182 21.821,37.913 C21.851,42.644 21.611,47.824 21.821,48.422 C22.031,49.021 23.947,51.236 24.665,51.236 C25.384,51.236 32.33,51.116 33.498,50.967 C34.666,50.817 34.696,49.709 34.696,48.182 C34.696,46.655 34.666,35.128 35.175,31.505 C35.684,27.882 38.558,26.535 40.894,27.134 C43.229,27.733 43.619,30.338 44.098,33.512 C44.577,36.686 43.679,45.698 43.649,46.686 C43.619,47.674 43.769,50.548 44.308,50.758 C44.847,50.968 53.021,50.788 54.219,50.728 C55.417,50.668 55.836,50.518 56.015,49.71 C56.194,48.901 56.194,33.122 55.924,29.379 Z" id="linked_x5F_in" fill="#CFE4E4"></path>
            <path d="M5.104,15.526 C6.781,16.604 9.975,16.644 12.05,16.484 C14.126,16.324 17.36,13.769 17.559,9.298 C17.759,4.827 14.565,2.471 14.565,2.471 C10.733,-0.803 5.463,1.074 4.345,1.752 C3.227,2.431 0.233,5.145 1.071,8.858 C1.91,12.572 3.101,14.239 5.104,15.526 Z M3.617,3.899 C4.44,2.741 6.192,1.534 9.575,2.043 C12.958,2.552 13.916,4.019 14.815,5.426 C15.714,6.833 15.653,8.091 15.653,8.091 C15.653,8.091 13.467,4.318 13.138,4.378 C12.809,4.438 12.33,5.067 12.569,5.456 C12.809,5.845 15.294,9.169 15.204,9.408 C15.114,9.648 15.024,10.336 14.905,10.157 C14.785,9.977 12.809,6.444 12.54,6.504 C12.271,6.564 11.911,6.983 12.091,7.462 C12.271,7.941 14.426,10.845 14.337,10.965 C14.248,11.085 13.858,11.624 13.738,11.444 C13.618,11.264 11.971,8.001 11.642,8.091 C11.313,8.181 11.043,8.54 11.253,9.079 C11.463,9.618 13.229,11.953 13.109,12.103 C12.989,12.253 12.66,12.582 12.51,12.492 C12.36,12.402 10.654,9.648 10.384,9.678 C10.115,9.708 9.576,10.277 9.875,10.636 C10.174,10.995 11.701,12.941 11.522,13.031 C11.343,13.121 10.205,13.33 10.025,13.271 C9.845,13.211 9.007,11.325 8.738,11.325 C8.469,11.325 7.9,11.744 7.989,12.104 C8.079,12.463 9.127,13.361 8.827,13.481 C8.528,13.601 5.444,13.152 4.066,12.163 C2.688,11.174 1.192,7.312 3.617,3.899 Z M5.683,10.845 C5.923,10.605 5.893,10.516 5.893,10.216 C5.893,9.916 5.085,9.348 4.935,8.869 C4.785,8.39 4.905,6.983 5.594,6.264 C6.283,5.545 6.462,5.066 5.893,4.827 C5.324,4.587 4.097,5.336 3.827,6.923 C3.558,8.51 3.827,9.887 4.306,10.486 C4.785,11.085 5.436,11.092 5.683,10.845 Z M8.647,21.923 C8.048,21.743 4.815,21.743 4.425,21.803 C4.036,21.863 3.916,26.294 3.976,26.773 C4.036,27.252 3.976,28.001 4.365,28.031 C4.365,28.031 5.024,28.121 5.203,28.061 C5.383,28.001 5.502,23.6 5.592,23.27 C5.682,22.94 8.886,23.21 9.035,23.06 C9.186,22.912 9.246,22.103 8.647,21.923 Z M16.402,19.199 C15.204,18.75 9.006,18.6 6.881,18.57 C4.756,18.54 2.34,18.486 2.03,18.989 C1.79,19.378 1.91,28.001 1.79,33.66 C1.67,39.319 1.311,47.942 1.491,48.271 C1.671,48.6 5.114,51.056 5.383,51.265 C5.652,51.474 6.341,51.564 8.168,51.534 C9.994,51.504 15.953,51.804 16.671,51.624 C17.389,51.444 18.198,51.175 18.438,50.666 C18.678,50.157 18.737,47.552 18.857,41.654 C18.977,35.756 19.845,27.911 19.695,24.797 C19.546,21.684 17.599,19.648 16.402,19.199 Z M16.462,26.594 C16.282,26.534 14.606,23.75 14.306,24.079 C14.007,24.408 13.917,24.708 14.276,25.247 C14.635,25.786 16.342,28.391 16.372,28.69 C16.402,28.989 16.462,30.456 16.342,30.456 C16.222,30.456 14.186,27.192 13.947,27.312 C13.707,27.432 13.468,27.971 13.528,28.15 C13.588,28.33 16.193,31.743 16.253,32.342 C16.313,32.941 16.253,33.809 16.133,33.659 C16.013,33.509 14.097,29.707 13.768,29.886 C13.439,30.066 13.139,30.754 13.409,31.203 C13.679,31.652 15.984,34.916 16.044,35.095 C16.104,35.275 16.044,36.712 15.894,36.622 C15.744,36.532 13.768,32.849 13.469,32.879 C13.17,32.909 12.87,33.657 12.99,34.077 C13.11,34.496 15.924,38.179 15.864,38.598 C15.804,39.017 15.834,40.604 15.684,40.514 C15.534,40.424 13.199,36.173 12.989,36.113 C12.779,36.053 12.36,36.862 12.48,37.191 C12.6,37.52 15.564,42.401 15.594,42.82 C15.624,43.239 15.594,45.545 15.384,45.425 C15.174,45.305 12.51,40.036 12.061,40.006 C11.612,39.976 11.552,40.904 11.642,41.174 C11.732,41.444 15.145,46.743 15.235,47.043 C15.325,47.343 15.235,47.642 14.906,47.792 C14.577,47.942 14.427,47.912 14.397,47.822 C14.367,47.732 11.762,43.151 11.343,43.001 C10.924,42.851 10.624,43.48 10.654,43.63 C10.684,43.78 13.828,47.912 13.528,48.181 C13.229,48.45 12.39,48.48 12.181,48.271 C11.972,48.062 9.367,43.54 9.067,43.54 C8.768,43.54 8.169,44.318 8.378,44.528 C8.588,44.738 11.133,48.361 10.893,48.361 C10.653,48.361 9.815,48.63 9.606,48.451 C9.396,48.271 7.39,44.888 7.061,44.918 C6.732,44.948 6.432,45.337 6.462,45.427 C6.492,45.517 8.498,48.241 8.258,48.301 C8.018,48.361 7.18,48.361 7.03,48.271 C6.88,48.181 5.593,45.696 5.353,45.636 C5.113,45.576 4.604,46.085 4.604,46.235 C4.604,46.385 6.191,48.211 5.832,48.301 C5.473,48.391 3.646,48.211 3.527,48.151 C3.407,48.091 2.778,47.432 2.749,46.864 C2.719,46.295 2.929,20.515 3.198,20.007 C3.288,19.837 8.528,20.067 11.252,20.276 C13.976,20.485 15.773,20.126 16.162,20.605 C16.551,21.084 16.671,23.479 16.521,23.33 C16.371,23.18 15.323,21.114 14.964,21.204 C14.605,21.294 14.335,22.012 14.515,22.402 C14.695,22.791 16.431,25.276 16.521,25.576 C16.611,25.876 16.641,26.654 16.462,26.594 Z M55.924,29.379 C55.655,25.636 53.589,22.762 50.684,20.906 C47.779,19.05 42.869,18.541 39.546,19.229 C36.223,19.918 32.719,22.972 32.6,22.942 C32.481,22.912 32.57,20.367 32.48,19.738 C32.39,19.109 31.252,19.199 28.408,19.169 C25.564,19.139 21.722,19.186 21.671,19.409 C21.521,20.068 21.791,33.182 21.821,37.913 C21.851,42.644 21.611,47.824 21.821,48.422 C22.031,49.021 23.947,51.236 24.665,51.236 C25.384,51.236 32.33,51.116 33.498,50.967 C34.666,50.817 34.696,49.709 34.696,48.182 C34.696,46.655 34.666,35.128 35.175,31.505 C35.684,27.882 38.558,26.535 40.894,27.134 C43.229,27.733 43.619,30.338 44.098,33.512 C44.577,36.686 43.679,45.698 43.649,46.686 C43.619,47.674 43.769,50.548 44.308,50.758 C44.847,50.968 53.021,50.788 54.219,50.728 C55.417,50.668 55.836,50.518 56.015,49.71 C56.194,48.901 56.194,33.122 55.924,29.379 Z M51.533,27.243 C51.633,27.403 54.347,31.754 54.347,32.113 C54.347,32.472 54.307,33.351 54.207,33.251 C54.107,33.151 52.331,29.818 51.991,29.818 C51.652,29.818 51.213,30.517 51.352,30.796 C51.492,31.075 54.047,34.948 54.067,35.247 C54.087,35.546 54.127,37.363 54.027,37.203 C53.927,37.043 51.692,33.071 51.472,33.071 C51.252,33.071 51.013,33.75 51.013,34.069 C51.013,34.388 53.867,38.78 53.887,38.919 C53.907,39.059 53.887,41.813 53.647,41.773 C53.407,41.733 52.569,40.336 51.831,38.759 C51.092,37.182 50.993,36.723 50.633,36.803 C50.274,36.883 50.393,38.08 50.473,38.38 C50.553,38.679 53.307,43.29 53.347,43.53 C53.387,43.77 53.427,45.825 53.187,45.646 C52.947,45.466 50.512,40.197 50.213,40.157 C49.914,40.117 49.534,40.995 49.614,41.155 C49.694,41.315 52.668,46.305 52.748,47.023 C52.828,47.742 52.748,48.141 52.528,48.141 C52.308,48.141 52.209,48.001 52.109,47.802 C52.009,47.602 49.315,43.011 49.175,42.991 C49.035,42.971 48.616,43.829 48.776,44.089 C48.936,44.349 51.371,47.961 51.231,48.001 C51.091,48.041 50.073,48.041 49.953,47.961 C49.833,47.881 47.777,44.747 47.638,44.747 C47.498,44.747 46.959,45.426 47.059,45.605 C47.159,45.785 48.796,47.86 48.596,47.92 C48.396,47.98 47.618,48 47.498,47.88 C47.378,47.76 46.181,45.584 45.881,45.604 C45.582,45.624 45.322,46.243 45.382,46.362 C45.442,46.481 46.6,48.019 46.28,48.099 C45.961,48.179 44.963,48.239 44.963,48.119 C44.963,47.999 45.482,44.167 45.522,40.893 C45.562,37.619 45.322,34.126 44.963,31.891 C44.604,29.655 44.364,27.52 42.787,26.641 C41.21,25.763 38.495,25.323 36.399,26.621 C34.303,27.919 33.545,29.336 33.225,29.795 C32.906,30.254 32.866,30.793 32.866,30.793 C32.866,30.793 31.768,28.837 31.349,29.376 C30.93,29.915 30.89,30.254 31.05,30.394 C31.21,30.534 32.387,31.532 32.427,31.951 C32.467,32.37 32.567,34.426 32.467,34.426 C32.367,34.426 30.97,31.671 30.651,31.831 C30.332,31.991 30.252,33.029 30.292,33.148 C30.332,33.268 32.088,35.763 32.108,36.082 C32.128,36.401 32.108,37.879 32.028,37.819 C31.948,37.759 30.052,34.366 29.872,34.446 C29.692,34.526 29.313,35.165 29.353,35.404 C29.393,35.644 32.148,39.755 32.167,39.955 C32.187,40.155 32.167,42.43 31.987,42.43 C31.807,42.43 29.592,37.919 29.432,37.919 C29.272,37.919 28.733,38.777 28.793,39.037 C28.853,39.296 31.867,43.907 31.947,44.227 C32.027,44.546 32.047,46.962 31.947,46.962 C31.847,46.962 28.773,40.654 28.574,40.654 C28.374,40.654 27.816,41.472 27.855,41.552 C27.895,41.632 31.169,47.301 31.169,47.56 C31.169,47.82 31.089,47.879 31.089,47.879 C31.089,47.879 30.849,47.959 30.79,47.859 C30.73,47.759 28.135,43.528 27.896,43.468 C27.657,43.408 27.038,44.087 27.177,44.286 C27.317,44.486 29.872,47.779 29.772,47.919 C29.672,48.059 28.514,47.999 28.395,47.919 C28.276,47.839 26.399,44.486 26.179,44.526 C25.959,44.566 25.421,45.344 25.46,45.444 C25.5,45.544 27.296,47.979 27.276,48.039 C27.256,48.099 26.258,48.159 26.158,48.059 C26.058,47.959 24.501,45.504 24.122,45.464 C23.743,45.424 23.503,46.262 23.623,46.362 C23.743,46.462 25.08,48.218 24.841,48.218 C24.601,48.218 22.845,48.338 22.805,47.899 C22.765,47.46 23.144,38.917 23.124,36.082 C23.104,33.248 22.825,21.111 22.964,20.453 C22.993,20.315 28.573,20.433 29.511,20.413 C30.449,20.393 31.048,20.433 31.128,20.553 C31.208,20.673 31.088,25.224 31.407,25.384 C31.726,25.544 32.585,24.685 32.844,24.466 C33.103,24.246 34.361,23.109 37.215,21.771 C40.069,20.434 43.962,20.154 45.938,20.593 C47.914,21.032 50.05,21.651 51.467,23.547 C52.884,25.443 53.882,27.06 54.142,28.078 C54.402,29.096 54.402,29.994 54.262,29.954 C54.122,29.914 52.466,25.822 52.006,25.922 C51.553,26.026 51.433,27.083 51.533,27.243 Z M29.017,21.794 C28.698,21.594 25.244,21.654 25.005,21.654 C24.765,21.654 24.626,22.073 24.666,22.233 C24.666,22.233 24.586,22.712 24.746,22.932 C24.906,23.152 27.7,23.052 28,23.052 C28.299,23.052 28.339,24.529 28.379,24.829 C28.419,25.128 29.397,24.909 29.537,24.889 C29.677,24.869 29.677,24.41 29.677,23.751 C29.676,23.091 29.336,21.993 29.017,21.794 Z M40.495,23.49 C40.196,23.67 40.116,24.368 40.635,24.588 C41.154,24.808 43.429,25.307 44.627,26.265 C45.825,27.223 45.865,29.978 45.885,30.257 C45.905,30.536 46.703,30.756 47.063,30.357 C47.422,29.958 47.263,28.002 45.965,25.746 C44.666,23.49 40.718,23.357 40.495,23.49 Z" id="linked_x5F_in" fill="#000000"></path>
        </g>
    </g>
</svg>