<?xml version="1.0" encoding="UTF-8"?>
<svg width="97px" height="96px" viewBox="0 0 97 96" version="1.1" xmlns="http://www.w3.org/2000/svg" xmlns:xlink="http://www.w3.org/1999/xlink">
    <!-- Generator: Sketch 48.2 (47327) - http://www.bohemiancoding.com/sketch -->
    <title>setting</title>
    <desc>Created with Sketch.</desc>
    <defs>
        <path d="M58.2131469,22.5363514 C61.3731771,23.6532618 64.2632067,25.3417455 66.759016,27.4775829 L72.4259598,24.2057714 C73.382545,23.6534866 74.6057259,23.9812369 75.1580106,24.9378222 L82.1580106,37.0621778 C82.7102954,38.0187631 82.382545,39.2419439 81.4259598,39.7942286 L75.7629509,43.0637683 C76.0586179,44.6641595 76.2131469,46.3140337 76.2131469,48 C76.2131469,49.6859663 76.0586179,51.3358405 75.7629509,52.9362317 L81.4259598,56.2057714 C82.382545,56.7580561 82.7102954,57.9812369 82.1580106,58.9378222 L75.1580106,71.0621778 C74.6057259,72.0187631 73.382545,72.3465134 72.4259598,71.7942286 L66.759016,68.5224171 C64.2632067,70.6582545 61.3731771,72.3467382 58.2131469,73.4636486 L58.2131469,80 C58.2131469,81.1045695 57.3177164,82 56.2131469,82 L42.2131469,82 C41.1085774,82 40.2131469,81.1045695 40.2131469,80 L40.2131469,73.4636486 C37.0531167,72.3467382 34.1630871,70.6582545 31.6672777,68.5224171 L26.000334,71.7942286 C25.0437487,72.3465134 23.8205679,72.0187631 23.2682831,71.0621778 L16.2682831,58.9378222 C15.7159984,57.9812369 16.0437487,56.7580561 17.000334,56.2057714 L22.6633428,52.9362317 C22.3676758,51.3358405 22.2131469,49.6859663 22.2131469,48 C22.2131469,46.3140337 22.3676758,44.6641595 22.6633428,43.0637683 L17.000334,39.7942286 C16.0437487,39.2419439 15.7159984,38.0187631 16.2682831,37.0621778 L23.2682831,24.9378222 C23.8205679,23.9812369 25.0437487,23.6534866 26.000334,24.2057714 L31.6672777,27.4775829 C34.1630871,25.3417455 37.0531167,23.6532618 40.2131469,22.5363514 L40.2131469,16 C40.2131469,14.8954305 41.1085774,14 42.2131469,14 L56.2131469,14 C57.3177164,14 58.2131469,14.8954305 58.2131469,16 L58.2131469,22.5363514 Z M49,53 C51.7614237,53 54,50.7614237 54,48 C54,45.2385763 51.7614237,43 49,43 C46.2385763,43 44,45.2385763 44,48 C44,50.7614237 46.2385763,53 49,53 Z" id="path-1"></path>
    </defs>
    <g id="Page-1" stroke="none" stroke-width="1" fill="none" fill-rule="evenodd">
        <g id="setting">
            <g id="Group-12" transform="translate(46.000000, 0.000000)" fill="#454968">
                <rect id="Rectangle-34" x="0" y="0" width="5" height="11" rx="2.5"></rect>
                <rect id="Rectangle-34" x="0" y="85" width="5" height="11" rx="2.5"></rect>
            </g>
            <g id="Group-12" transform="translate(48.500000, 48.000000) rotate(-330.000000) translate(-48.500000, -48.000000) translate(46.000000, 0.000000)" fill="#454968">
                <rect id="Rectangle-34" x="0" y="0" width="5" height="15" rx="2.5"></rect>
                <rect id="Rectangle-34" x="0" y="81" width="5" height="15" rx="2.5"></rect>
            </g>
            <g id="Group-12" transform="translate(48.500000, 48.000000) rotate(-270.000000) translate(-48.500000, -48.000000) translate(46.000000, 0.000000)" fill="#454968">
                <rect id="Rectangle-34" x="0" y="0" width="5" height="15" rx="2.5"></rect>
                <rect id="Rectangle-34" x="0" y="81" width="5" height="15" rx="2.5"></rect>
            </g>
            <g id="Group-12" transform="translate(48.500000, 48.000000) rotate(-30.000000) translate(-48.500000, -48.000000) translate(46.000000, 0.000000)" fill="#454968">
                <rect id="Rectangle-34" x="0" y="0" width="5" height="15" rx="2.5"></rect>
                <rect id="Rectangle-34" x="0" y="81" width="5" height="15" rx="2.5"></rect>
            </g>
            <g id="Group-11" transform="translate(48.500000, 48.000000) rotate(-240.000000) translate(-48.500000, -48.000000) translate(46.000000, 0.000000)" fill="#454968">
                <rect id="Rectangle-34" x="0" y="0" width="5" height="11" rx="2.5"></rect>
                <rect id="Rectangle-34" x="0" y="85" width="5" height="11" rx="2.5"></rect>
            </g>
            <g id="Group-11" transform="translate(48.500000, 48.000000) rotate(-300.000000) translate(-48.500000, -48.000000) translate(46.000000, 0.000000)" fill="#454968">
                <rect id="Rectangle-34" x="0" y="0" width="5" height="11" rx="2.5"></rect>
                <rect id="Rectangle-34" x="0" y="85" width="5" height="11" rx="2.5"></rect>
            </g>
            <g id="Combined-Shape">
                <use fill="#FFFFFF" fill-rule="evenodd" xlink:href="#path-1"></use>
                <path stroke="#454968" stroke-width="5" d="M55.7131469,16.5 L42.7131469,16.5 L42.7131469,24.3042918 L41.0462621,24.8934511 C38.2063808,25.8972051 35.579504,27.4200802 33.2927518,29.3770128 L31.9489776,30.5269737 L25.1833467,26.6208349 L18.6833467,37.8791651 L25.442529,41.7815809 L25.1217406,43.5179493 C24.8506952,44.9850681 24.7131469,46.4831179 24.7131469,48 C24.7131469,49.5168821 24.8506952,51.0149319 25.1217406,52.4820507 L25.442529,54.2184191 L18.6833467,58.1208349 L25.1833467,69.3791651 L31.9489776,65.4730263 L33.2927518,66.6229872 C35.579504,68.5799198 38.2063808,70.1027949 41.0462621,71.1065489 L42.7131469,71.6957082 L42.7131469,79.5 L55.7131469,79.5 L55.7131469,71.6957082 L57.3800317,71.1065489 C60.219913,70.1027949 62.8467898,68.5799198 65.133542,66.6229872 L66.4773162,65.4730263 L73.2429471,69.3791651 L79.7429471,58.1208349 L72.9837648,54.2184191 L73.3045531,52.4820507 C73.5755985,51.0149319 73.7131469,49.5168821 73.7131469,48 C73.7131469,46.4831179 73.5755985,44.9850681 73.3045531,43.5179493 L72.9837648,41.7815809 L79.7429471,37.8791651 L73.2429471,26.6208349 L66.4773162,30.5269737 L65.133542,29.3770128 C62.8467898,27.4200802 60.219913,25.8972051 57.3800317,24.8934511 L55.7131469,24.3042918 L55.7131469,16.5 Z M49,55.5 C44.8578644,55.5 41.5,52.1421356 41.5,48 C41.5,43.8578644 44.8578644,40.5 49,40.5 C53.1421356,40.5 56.5,43.8578644 56.5,48 C56.5,52.1421356 53.1421356,55.5 49,55.5 Z"></path>
            </g>
        </g>
    </g>
</svg>