<?xml version="1.0" encoding="UTF-8"?>
<svg width="93px" height="94px" viewBox="0 0 93 94" version="1.1" xmlns="http://www.w3.org/2000/svg" xmlns:xlink="http://www.w3.org/1999/xlink">
    <!-- Generator: Sketch 48.2 (47327) - http://www.bohemiancoding.com/sketch -->
    <title>contribute</title>
    <desc>Created with Sketch.</desc>
    <defs>
        <rect id="path-1" x="0" y="0" width="76" height="88" rx="3"></rect>
        <path d="M93,35.6803302 L93,83 C93,89.0751322 88.0751322,94 82,94 L23,94 C16.9248678,94 12,89.0751322 12,83 L12,47.3410598 L54.0088522,47.3410598 L60.9277254,35.6803302 L93,35.6803302 Z" id="path-2"></path>
    </defs>
    <g id="Page-1" stroke="none" stroke-width="1" fill="none" fill-rule="evenodd">
        <g id="contribute">
            <g id="Group-9">
                <g id="Rectangle-30">
                    <use fill="#FFFFFF" fill-rule="evenodd" xlink:href="#path-1"></use>
                    <rect stroke="#454968" stroke-width="5" x="2.5" y="2.5" width="71" height="83" rx="3"></rect>
                </g>
                <rect id="Rectangle-29" fill="#454968" x="26" y="13" width="23" height="5" rx="2.5"></rect>
                <rect id="Rectangle-29" fill="#454968" x="15" y="22" width="46" height="5" rx="2.5"></rect>
                <rect id="Rectangle-29" fill="#454968" x="15" y="31" width="46" height="5" rx="2.5"></rect>
            </g>
            <g id="Rectangle-28">
                <use fill="#408385" fill-rule="evenodd" xlink:href="#path-2"></use>
                <path stroke="#454968" stroke-width="5" d="M90.5,38.1803302 L62.35131,38.1803302 L55.4324368,49.8410598 L14.5,49.8410598 L14.5,83 C14.5,87.6944204 18.3055796,91.5 23,91.5 L82,91.5 C86.6944204,91.5 90.5,87.6944204 90.5,83 L90.5,38.1803302 Z"></path>
            </g>
            <rect id="Rectangle-29" fill="#454968" x="65" y="76" width="16" height="6" rx="3"></rect>
        </g>
    </g>
</svg>