<?xml version="1.0" encoding="UTF-8"?>
<svg width="52px" height="39px" viewBox="0 0 52 39" version="1.1" xmlns="http://www.w3.org/2000/svg" xmlns:xlink="http://www.w3.org/1999/xlink">
    <!-- Generator: Sketch 48.2 (47327) - http://www.bohemiancoding.com/sketch -->
    <title>space-cockpit</title>
    <desc>Created with Sketch.</desc>
    <defs></defs>
    <g id="Artboard-2" stroke="none" stroke-width="1" fill="none" fill-rule="evenodd" transform="translate(-70.000000, -276.000000)">
        <g id="space-cockpit" transform="translate(70.000000, 276.000000)">
            <path d="M10.3628571,34.1064286 C10.195101,34.0001755 10.1025037,33.8076584 10.124216,33.6102745 C10.1459282,33.4128905 10.2781588,33.2451045 10.465,33.1778571 C10.7714286,33.0571429 11.1521429,33.085 11.2264286,33.4842857 C11.2519134,33.7092829 11.1512592,33.9299988 10.9646665,34.0582812 C10.7780739,34.1865636 10.5359511,34.2015069 10.335,34.0971429 L10.3628571,34.1064286 Z M14.2257143,33.215 C14.0579581,33.1087469 13.9653609,32.9162298 13.9870731,32.7188459 C14.0087853,32.521462 14.1410159,32.3536759 14.3278571,32.2864286 C14.6342857,32.1657143 15.015,32.1935714 15.0892857,32.5928571 C15.1186954,32.8194295 15.0196303,33.0435506 14.8322746,33.1743093 C14.644919,33.3050679 14.4003823,33.3207522 14.1978571,33.215 L14.2257143,33.215 Z M18.4878571,32.11 C18.320101,32.0037469 18.2275037,31.8112298 18.249216,31.6138459 C18.2709282,31.416462 18.4031588,31.2486759 18.59,31.1814286 C18.8964286,31.0607143 19.2771429,31.0885714 19.3514286,31.4878571 C19.3656649,31.7009197 19.2679738,31.9060314 19.0935729,32.0292494 C18.9191721,32.1524674 18.6932088,32.1760246 18.4971429,32.0914286 L18.4878571,32.11 Z" id="Shape" fill="#BDFFC7" fill-rule="nonzero"></path>
            <path d="M15.9342857,30.2528571 C15.7665296,30.1466041 15.6739323,29.954087 15.6956445,29.756703 C15.7173568,29.5593191 15.8495874,29.3915331 16.0364286,29.3242857 C16.3428571,29.2035714 16.7235714,29.2314286 16.7978571,29.6307143 C16.8064831,29.8341799 16.7134771,30.0286403 16.5496693,30.1496347 C16.3858615,30.2706291 16.1726511,30.3023513 15.9807143,30.2342857 L15.9342857,30.2528571 Z" id="Path" fill="#CEBDFF"></path>
            <path d="M14.2442857,29.9835714 C14.0771429,29.1107143 13.2507143,29.055 12.5821429,29.3057143 C12.1890592,29.4613325 11.9140892,29.8213557 11.8674024,30.2415368 C11.8207156,30.6617178 12.0099496,31.0733192 12.3592857,31.3114286 C12.7910146,31.507279 13.2941696,31.4598892 13.6817381,31.186873 C14.0693066,30.9138568 14.2833398,30.4560352 14.2442857,29.9835714 Z" id="Path" fill="#BDD9FF"></path>
            <path d="M34.7935714,28.9992857 C35.0257143,28.9992857 38.74,29.2685714 38.8142857,29.5378571 C38.8885714,29.8071429 38.5821429,30.3921429 38.5821429,30.3921429 C38.5821429,30.3921429 34.8678571,29.9278571 34.7564286,29.8907143 C34.645,29.8535714 34.5707143,29.0085714 34.8028571,28.9714286 L34.7935714,28.9992857 Z" id="Path" fill="#FFBDBD"></path>
            <path d="M16.8907143,25.5635714 C17.4385714,25.35 18.0978571,25.4057143 18.2371429,26.1114286 C18.2548008,26.4864801 18.0758858,26.8436628 17.7649446,27.0541169 C17.4540033,27.2645711 17.0559108,27.2979239 16.7142857,27.1421429 C16.4325027,26.9500928 16.2786564,26.6190442 16.3135472,26.2798281 C16.348438,25.9406121 16.5664516,25.6478119 16.8814286,25.5171429 L16.8907143,25.5635714 Z" id="Path" fill="#FFBDBD"></path>
            <path d="M18.0885714,18.07 C18.2464286,18.3392857 19.6764286,20.735 19.4442857,20.7814286 C19.0329475,20.8046864 18.6206239,20.8046864 18.2092857,20.7814286 C18.1607775,19.6780165 17.8419071,18.603423 17.2807143,17.6521429 C16.3521429,16.2221429 14.2628571,12.3128571 14.2628571,12.3128571 C15.4209032,10.5845027 17.297901,9.47195487 19.37,9.28571429 C22.7407143,9.12785714 25.5264286,10.6785714 26.455,13.8542857 C26.9606928,16.00956 26.8415121,18.2643311 26.1114286,20.3542857 C26.1114286,20.3542857 21.8585714,20.5492857 21.3571429,20.5864286 L20.4285714,20.6607143 C19.9158125,19.6144512 19.3293347,18.6059577 18.6735714,17.6428571 C18.4414286,17.6428571 17.9307143,17.7542857 18.0885714,18.0235714 L18.0885714,18.07 Z" id="Path" fill="#FEFFBD"></path>
            <path d="M32.6671429,7.92071429 C34.1342857,8.97 32.3978571,10.7807143 32.1285714,10.9385714 C31.9506604,11.0263093 31.7638867,11.094793 31.5714286,11.1428571 C31.5714286,11.1428571 30.4107143,11.1428571 29.6028571,8.97928571 C29.6214286,9.00714286 31.2092857,6.88071429 32.6764286,7.93 L32.6671429,7.92071429 Z" id="Path" fill="#FFEABD"></path>
            <path d="M51.6378571,17.3271429 C51.1735714,12.22 49.2142857,2.70214286 45.5,1.11428571 C41.7857143,-0.473571429 37.8392857,1.30928571 34.0135714,1.73642857 C29.8594041,2.1840468 25.6691674,2.1840468 21.515,1.73642857 C15.8692857,1.27214286 10.4928571,-0.185714286 7.93928571,0.807857143 C6.70428571,1.27214286 4.53142857,3.66785714 3.52857143,5.525 C2.52571429,7.38214286 -0.0928571429,16.1292857 0.102142857,23.6321429 C0.313266613,28.8123257 2.00510416,33.8233874 4.97714286,38.0714286 C5.74785714,39 8.385,38.5357143 9.46214286,38.1921429 C10.5392857,37.8485714 20.995,34.1714286 26.8728571,34.1342857 C32.7507143,34.0971429 47.1435714,38.4335714 47.4221429,38.4335714 C47.7007143,38.4335714 49.2792857,36.5764286 50.7092857,32.3235714 C52.1392857,28.0707143 52.1021429,22.4342857 51.6378571,17.3271429 Z M44.8592857,2.78571429 C45.5197422,3.33770798 46.0709194,4.00856939 46.4842857,4.76357143 C46.4842857,4.88428571 39.2135714,17.42 38.6657143,19.0821429 C38.2407369,20.5611945 38.3224489,22.139871 38.8978571,23.5671429 C39.325,24.6535714 39.9471429,26.6221429 39.9471429,26.6221429 C39.8357143,26.4271429 36.66,21.8214286 36.5021429,21.0507143 C36.3442857,20.28 40.1421429,11.3007143 41.5721429,8.71 C43.0021429,6.11928571 44.5714286,2.70214286 44.8592857,2.78571429 Z M11.4307143,1.55071429 C13.8264286,1.67142857 19.3978571,3.40785714 26.6778571,3.29642857 C31.3344664,3.24867335 35.9846891,2.9386585 40.6064286,2.36785714 C41.4790035,2.2733111 42.3568393,2.23608838 43.2342857,2.25642857 C43.2342857,2.25642857 39.2135714,10.4185714 37.8207143,13.2878571 C36.7918618,15.2091536 35.9012716,17.2013449 35.1557143,19.2492857 C35.0814286,19.8714286 35.0442857,20.8 35.0442857,20.8 C33.5933424,20.5194339 32.1205113,20.3671792 30.6428571,20.345 C28.4421429,20.345 26.8542857,20.345 26.8542857,20.345 C26.8542857,20.345 29.8535714,14.8571429 25.7492857,10.6692857 C21.645,6.48142857 16.7142857,8.73785714 15.4607143,9.43428571 C14.6816944,9.92266952 14.0419945,10.6039499 13.6035714,11.4121429 C13.6035714,11.4121429 8.69142857,2.43285714 8.65428571,2.23785714 C8.60785714,2.23785714 9.035,1.38357143 11.4307143,1.50428571 L11.4307143,1.55071429 Z M18.0885714,18.07 C18.2464286,18.3392857 19.6764286,20.735 19.4442857,20.7814286 C19.0329475,20.8046864 18.6206239,20.8046864 18.2092857,20.7814286 C18.1607775,19.6780165 17.8419071,18.603423 17.2807143,17.6521429 C16.3521429,16.2221429 14.2628571,12.3128571 14.2628571,12.3128571 C15.4209032,10.5845027 17.297901,9.47195487 19.37,9.28571429 C22.7407143,9.12785714 25.5264286,10.6785714 26.455,13.8542857 C26.9606928,16.00956 26.8415121,18.2643311 26.1114286,20.3542857 C26.1114286,20.3542857 21.8585714,20.5492857 21.3571429,20.5864286 L20.4285714,20.6607143 C19.9158125,19.6144512 19.3293347,18.6059577 18.6735714,17.6428571 C18.4414286,17.6428571 17.9307143,17.7542857 18.0885714,18.0235714 L18.0885714,18.07 Z M7.37285714,2.93428571 C7.37285714,2.93428571 16.8907143,20.3078571 16.7142857,20.735 C15.2932277,22.4875352 13.7411471,24.1296365 12.0714286,25.6471429 C11.9971429,25.4521429 14.6621429,20.5028571 14.6621429,20.2707143 C13.2397492,17.0059013 11.5306763,13.8736369 9.555,10.9107143 C6.96428571,7.12214286 5.84071429,5.92428571 5.84071429,5.57142857 C5.84071429,5.21857143 7.06642857,2.86 7.37285714,2.93428571 Z M11.9414286,21.97 C11.5367357,21.3571936 11.2968732,20.6503987 11.245,19.9178571 C11.2202632,19.1047167 11.339727,18.2936207 11.5978571,17.5221429 C12.136702,18.215172 12.5917622,18.9694499 12.9535714,19.7692857 C12.87,20.0385714 11.9414286,21.97 11.9414286,21.97 Z M4.51285714,33.5771429 C2.60892832,29.8424738 1.65228654,25.6970261 1.72714286,21.5057143 C2.08,15.47 4.16928571,8.07857143 5.135,7.30785714 C5.27428571,7.19642857 10.9385714,16.5192857 10.9385714,16.5192857 C10.3835483,17.6468835 10.2076713,18.9236198 10.4371429,20.1592857 C10.6123522,21.2611115 10.9801039,22.3235053 11.5235714,23.2978571 C11.5235714,23.2978571 6.83428571,30.4014286 6.09142857,31.5714286 C5.34857143,32.7414286 4.64285714,33.735 4.51285714,33.5771429 Z M27.9221429,32.5742857 C20.995,32.5742857 11.0964286,35.945 10.2792857,36.2142857 C9.46214286,36.4835714 7.26142857,37.1428571 6.955,36.985 C6.64857143,36.8271429 5.86857143,36.0564286 6.02642857,35.7871429 C6.18428571,35.5178571 9.74071429,30.6057143 12.1828571,27.82 C13.9738787,25.8074321 15.8741235,23.8947877 17.875,22.0907143 C18.0328571,22.0907143 22.0164286,21.6635714 27.0028571,21.6635714 C31.9892857,21.6635714 34.9328571,22.2857143 35.2021429,22.4342857 C35.4714286,22.5828571 45.2492857,35.7035714 44.98,35.9357143 C44.7107143,36.1678571 34.84,32.6114286 27.9128571,32.5742857 L27.9221429,32.5742857 Z M50.05,21.2364286 C49.7903221,25.5692085 49.1281842,29.8684418 48.0721429,34.0785714 C48.0721429,34.0785714 44.1628571,29.5192857 42.3892857,26.9285714 C40.6157143,24.3378571 39.4085714,21.8214286 40.1885714,19.8064286 C40.8107143,18.1814286 47.3107143,6.03571429 47.5057143,6.305 C49.6038432,10.9865967 50.479275,16.1241672 50.05,21.2364286 Z M7.71642857,13.65 C7.605,12.9535714 6.73214286,12.1457143 5.93357143,12.5264286 C5.54909518,12.7727328 5.30121201,13.184002 5.26299183,13.6390042 C5.22477165,14.0940063 5.40057207,14.540865 5.73857143,14.8478571 C6.5,15.5442857 7.83714286,14.3464286 7.71642857,13.65 Z M6.86214286,17.8657143 C6.24,18.6364286 6.28642857,19.9921429 7.32642857,20.15 C7.74424345,20.243194 8.18052041,20.1133741 8.47941315,19.8069144 C8.77830589,19.5004548 8.89718,19.0610691 8.79357143,18.6457143 C8.53357143,17.9121429 7.25214286,17.3921429 6.87142857,17.8657143 L6.86214286,17.8657143 Z M6.78785714,25.22 C6.78785714,24.2914286 5.37642857,23.6692857 4.81,24.1335714 C4.39374477,24.4017023 4.15250489,24.8718323 4.17742214,25.3663439 C4.20233939,25.8608555 4.48961486,26.3043549 4.93071429,26.5292857 C5.35420829,26.6370481 5.80365073,26.5541248 6.1608056,26.3023306 C6.51796047,26.0505365 6.74706831,25.6550818 6.78785714,25.22 Z M5.32071429,20.2707143 C5.51571429,19.6485714 4.59642857,19.0078571 4.19714286,19.1842857 C3.34285714,19.5742857 3.65857143,20.3078571 4.00214286,20.6514286 C4.21303747,20.8285693 4.49831876,20.8890085 4.76292831,20.8126071 C5.02753787,20.7362058 5.23669788,20.5330054 5.32071429,20.2707143 Z M15.9621429,5.75714286 C16.1942857,5.135 15.3028571,4.745 15.0335714,4.82857143 C14.7642857,4.91214286 14.2257143,5.45071429 14.5321429,5.75714286 C14.8385714,6.06357143 15.73,6.37928571 15.9621429,5.75714286 Z M24.3192857,7.96714286 C24.6257143,8.32 25.5171429,8.50571429 25.7492857,7.89285714 C25.9814286,7.28 25.09,6.88071429 24.8207143,6.96428571 C24.5514286,7.04785714 24.05,7.61428571 24.3564286,7.96714286 L24.3192857,7.96714286 Z M37.3192857,5.25571429 C37.5514286,4.63357143 36.66,4.24357143 36.3907143,4.32714286 C36.1214286,4.41071429 35.5828571,4.94928571 35.8892857,5.25571429 C36.1957143,5.56214286 37.1428571,5.87785714 37.3564286,5.25571429 L37.3192857,5.25571429 Z M37.3192857,8.46857143 C37.6257143,8.82142857 38.5171429,9.00714286 38.7492857,8.39428571 C38.9814286,7.78142857 38.09,7.38214286 37.8207143,7.46571429 C37.5514286,7.54928571 37.0871429,8.11571429 37.3935714,8.46857143 L37.3192857,8.46857143 Z M31.7478571,15.8971429 C31.98,15.275 31.0885714,14.885 30.8192857,14.9685714 C30.55,15.0521429 30.0114286,15.5907143 30.3178571,15.8971429 C30.6242857,16.2035714 31.5714286,16.4728571 31.8221429,15.86 L31.7478571,15.8971429 Z M34.1435714,14.6621429 C33.8,14.82 33.3357143,15.2842857 33.6421429,15.5907143 C33.9485714,15.8971429 34.84,16.1292857 35.0721429,15.5164286 C35.3042857,14.9035714 34.4964286,14.5042857 34.2271429,14.6157143 L34.1435714,14.6621429 Z M47.4964286,18.4507143 C47.7285714,17.8285714 46.8371429,17.4385714 46.5678571,17.5221429 C46.2985714,17.6057143 45.76,18.1442857 46.0664286,18.4507143 C46.3728571,18.7571429 47.3571429,19.0264286 47.5707143,18.4135714 L47.4964286,18.4507143 Z M43.7821429,16.1664286 C43.4385714,16.3242857 42.9742857,16.7885714 43.2807143,17.095 C43.5871429,17.4014286 44.4785714,17.6335714 44.7107143,17.0207143 C44.9428571,16.4078571 44.1628571,16.0085714 43.8935714,16.1292857 L43.7821429,16.1664286 Z M42.8535714,20.4192857 C42.51,20.5771429 42.0457143,21.0414286 42.3521429,21.3478571 C42.6585714,21.6542857 43.55,21.8864286 43.7821429,21.2735714 C44.0142857,20.6607143 43.2342857,20.2614286 42.965,20.4285714 L42.8535714,20.4192857 Z M31.9428571,17.9121429 C31.5992857,18.07 31.135,18.5342857 31.4414286,18.8407143 C31.7478571,19.1471429 32.6392857,19.3792857 32.8714286,18.7664286 C33.1035714,18.1535714 32.2121429,17.7914286 31.9428571,17.9121429 Z M18.9428571,6.65785714 C19.4814286,6.96428571 20.605,6.85285714 20.6885714,5.99857143 C20.7721429,5.14428571 19.9921429,4.85642857 19.37,4.95857143 C18.9889419,5.01179736 18.6801797,5.29451255 18.5936633,5.66941682 C18.507147,6.04432108 18.6607996,6.43374737 18.98,6.64857143 L18.9428571,6.65785714 Z M22.4992857,6.02642857 C23.14,6.38857143 24.4585714,6.25857143 24.5514286,5.25571429 C24.6442857,4.25285714 23.7342857,3.90928571 23.0007143,4.03 C22.5712734,4.11817568 22.2323379,4.44807624 22.1325943,4.87497865 C22.0328508,5.30188105 22.1905177,5.74781021 22.5364286,6.01714286 L22.4992857,6.02642857 Z M23.2142857,4.64285714 C23.4928571,4.64285714 23.8364286,4.72642857 23.8085714,5.10714286 C23.7807143,5.48785714 23.27,5.54357143 23.0285714,5.40428571 C22.8929199,5.30149445 22.8312373,5.1279804 22.8715668,4.96262953 C22.9118963,4.79727866 23.0465407,4.67164926 23.2142857,4.64285714 Z M46.1592857,12.6007143 C45.7144896,12.6714259 45.3548998,13.0009106 45.2456661,13.4378451 C45.1364325,13.8747796 45.298666,14.3347202 45.6578571,14.6064286 C46.2985714,14.9685714 47.6171429,14.8385714 47.71,13.8357143 C47.8028571,12.8328571 46.9021429,12.5264286 46.1685714,12.6378571 L46.1592857,12.6007143 Z M46.1592857,14.0307143 C46.0233065,13.9266433 45.9626198,13.7514251 46.0051015,13.5855443 C46.0475831,13.4196635 46.1850215,13.2951846 46.3542857,13.2692857 C46.6328571,13.2692857 46.9764286,13.3528571 46.9485714,13.7335714 C46.9207143,14.1142857 46.4285714,14.2071429 46.1685714,14.0678571 L46.1592857,14.0307143 Z M47.4035714,25.8978571 C47.4964286,24.895 46.5864286,24.5514286 45.8528571,24.6721429 C45.408061,24.7428544 45.0484712,25.0723392 44.9392376,25.5092737 C44.8300039,25.9462082 44.9922374,26.4061487 45.3514286,26.6778571 C46.0014286,27.0771429 47.3571429,26.9285714 47.4128571,25.935 L47.4035714,25.8978571 Z M45.8528571,26.1021429 C45.7168779,25.9980718 45.6561912,25.8228536 45.6986729,25.6569728 C45.7411546,25.4910921 45.8785929,25.3666132 46.0478571,25.3407143 C46.3264286,25.3407143 46.67,25.4242857 46.6421429,25.805 C46.6142857,26.1857143 46.1035714,26.2785714 45.8621429,26.1392857 L45.8528571,26.1021429 Z M21.3014286,19.7228571 C20.9661972,18.724815 20.5241076,17.7659164 19.9828571,16.8628571 C19.8714286,16.705 19.2214286,16.9742857 19.2864286,17.095 C19.3514286,17.2157143 20.4842857,19.76 20.6421429,19.955 C20.8,20.15 21.1807143,19.9178571 21.3014286,19.7228571 Z M21.2271429,17.4385714 C21.2271429,17.4385714 21.9235714,19.76 21.9978571,19.8714286 C22.0721429,19.9828571 22.4992857,19.8714286 22.6942857,19.76 C22.8892857,19.6485714 21.9607143,17.3642857 21.9235714,17.2435714 C21.8864286,17.1228571 21.2271429,17.4478571 21.2271429,17.4478571 L21.2271429,17.4385714 Z M22.9264286,18.2928571 C23.465,19.4907143 25.285,19.3421429 25.9071429,17.8657143 C26.1819623,17.2978483 26.1032738,16.6222394 25.7053017,16.1327338 C25.3073297,15.6432282 24.6620042,15.4282998 24.05,15.5814286 C22.62,15.7857143 22.3878571,17.095 22.9264286,18.2928571 Z M24.1428571,16.1385714 C24.7080628,16.0652381 25.2438747,16.409841 25.4115929,16.9545481 C25.5793111,17.4992552 25.330131,18.0855613 24.8215655,18.3428478 C24.313,18.6001343 23.6930375,18.4535331 23.3535714,17.9957143 C23.01,17.1692857 23.2142857,16.2685714 24.1428571,16.1385714 Z M22.0071429,13.8728571 C23.3164286,13.7985714 23.8642857,12.0157143 22.6757143,10.9385714 C22.2475237,10.4878606 21.599711,10.3209488 21.0070362,10.5086292 C20.4143613,10.6963096 19.9807065,11.2056861 19.89,11.8207143 C19.5835714,13.26 20.7257143,13.9285714 22.035,13.8728571 L22.0071429,13.8728571 Z M20.4285714,11.9321429 C20.4990266,11.5291091 20.7864132,11.1979933 21.1755247,11.071532 C21.5646362,10.9450708 21.9917762,11.0439655 22.2857143,11.3285714 C23.075,12.0807143 22.7221429,13.2785714 21.8307143,13.3342857 C20.9392857,13.39 20.2335714,12.9164286 20.4285714,11.9321429 Z M29.1478571,11.635 C29.6127671,12.2359705 30.3868354,12.5085298 31.1257143,12.3314286 C31.1257143,12.3314286 33.3357143,13.9285714 34.4592857,13 C35.5828571,12.0714286 33.7628571,10.14 33.7628571,10.14 C33.9584975,9.44342331 33.8890232,8.69905571 33.5678571,8.05071429 C33.2690829,7.43931797 32.6598506,7.04028861 31.98,7.01071429 C31.98,7.01071429 29.8907143,5.15357143 28.8042857,6.15642857 C27.7178571,7.15928571 28.6092857,9.1 28.6092857,9.1 C28.4027601,9.99293061 28.6185003,10.9312295 29.1942857,11.6442857 L29.1478571,11.635 Z M33.5957143,10.9385714 C33.5957143,10.9385714 34.2921429,11.8671429 33.9021429,12.1735714 C33.5121429,12.48 32.3142857,11.83 32.3142857,11.83 C32.5932461,11.7491563 32.8546389,11.6168852 33.085,11.44 C33.3098841,11.3265021 33.5017575,11.157014 33.6421429,10.9478571 L33.5957143,10.9385714 Z M32.6671429,7.92071429 C34.1342857,8.97 32.3978571,10.7807143 32.1285714,10.9385714 C31.9506604,11.0263093 31.7638867,11.094793 31.5714286,11.1428571 C31.5714286,11.1428571 30.4107143,11.1428571 29.6028571,8.97928571 C29.6214286,9.00714286 31.2092857,6.88071429 32.6764286,7.93 L32.6671429,7.92071429 Z M29.4914286,6.64857143 C29.9585725,6.43327175 30.5128221,6.58159208 30.81,7.00142857 C30.4885923,7.13118496 30.1780783,7.28644195 29.8814286,7.46571429 C29.5630105,7.67761362 29.309185,7.97320797 29.1478571,8.32 C29.1478571,8.32 28.6557143,7.00142857 29.5007143,6.64857143 L29.4914286,6.64857143 Z M45.9457143,29.1292857 C45.8053629,29.248505 45.6749335,29.3789343 45.5557143,29.5192857 C46.1678764,30.1866799 46.8289986,30.8074519 47.5335714,31.3764286 L47.8028571,30.9492857 C47.8028571,30.9492857 46.1035714,29.0085714 45.9457143,29.1292857 Z M46.7164286,28.1264286 C46.5214286,28.1264286 46.3264286,28.7114286 46.3264286,28.7114286 C46.3264286,28.7114286 47.9514286,30.1042857 48.0721429,30.1785714 C48.1928571,30.2528571 48.3414286,29.9464286 48.3785714,29.7142857 C48.4157143,29.4821429 46.9114286,28.1635714 46.7164286,28.1264286 Z M48.4992857,28.8228571 C48.6303194,28.6121825 48.7098508,28.3735885 48.7314286,28.1264286 C48.7314286,27.8942857 48.0721429,27.43 47.9607143,27.43 C47.8492857,27.43 47.6171429,27.8942857 47.6171429,27.8942857 L48.4992857,28.8228571 Z M25.2107143,22.4714286 C20.8,24.1707143 20.6421429,28.3492857 22.5828571,31.0607143 C24.5235714,33.7721429 32.2121429,32.6857143 32.2121429,27.8571429 C32.2121429,23.0285714 27.9964286,21.3571429 25.2107143,22.4714286 Z M23.3535714,30.3921429 C21.7657143,28.1728571 21.8957143,24.7371429 25.5171429,23.335 C27.8014286,22.4064286 31.265,23.7157143 31.265,27.7178571 C31.265,31.72 24.9228571,32.6207143 23.335,30.3921429 L23.3535714,30.3921429 Z M25.675,25.0714286 C25.6684225,24.8619452 25.5519876,24.6714153 25.3685714,24.57 C25.0621429,24.4121429 24.2821429,24.765 23.6321429,25.7307143 C23.2576803,26.1852953 23.0775136,26.7691687 23.1307143,27.3557143 C23.2787429,27.4263764 23.434578,27.4793603 23.595,27.5135714 C23.6457966,27.0152829 23.8179633,26.5370421 24.0964286,26.1207143 C24.4671394,25.5799863 25.032923,25.2039066 25.675,25.0714286 Z M24.9785714,26 C24.4066437,26.595208 24.0279465,27.3493655 23.8921429,28.1635714 C23.923028,28.9445146 24.3272161,29.6630712 24.9785714,30.095 C25.2107143,30.1692857 25.48,29.9 25.6007143,29.7514286 C25.7214286,29.6028571 25.5264286,29.64 25.1735714,29.3614286 C24.8207143,29.0828571 24.5978571,28.665 24.7835714,27.5785714 C24.8652528,27.0161735 25.2101573,26.5264091 25.7121429,26.26 C25.7492857,26.1114286 25.1457143,25.8607143 24.9785714,26 Z M29.2314286,26.3528571 C28.9992857,26.3528571 28.9621429,26.7057143 28.9621429,26.7057143 C29.4635237,27.2741333 29.6260789,28.065706 29.3892857,28.7857143 C28.9621429,30.0671429 26.91,30.0671429 26.7614286,30.0671429 C26.6128571,30.0671429 26.6871429,30.5685714 26.6871429,30.5685714 C26.9939686,30.6198762 27.3046344,30.6447294 27.6157143,30.6428571 C28.7549861,30.6198198 29.7525846,29.872555 30.095,28.7857143 C30.4852664,27.8601044 30.1122854,26.7892877 29.2314286,26.3064286 L29.2314286,26.3528571 Z M27.7271429,28.4421429 C27.8890592,28.2533037 27.9684388,28.0073955 27.9474923,27.7595278 C27.9265457,27.5116602 27.8070246,27.2825604 27.6157143,27.1235714 C27.6157143,27.1235714 28.3492857,24.7278571 28.3864286,24.4957143 C28.4235714,24.2635714 28.0428571,24.2264286 27.7271429,24.2635714 C27.4114286,24.3007143 26.8728571,26.9285714 26.8728571,26.9285714 C26.3714286,26.8542857 25.7492857,27.625 25.9442857,28.21 C26.0972805,28.5451576 26.41618,28.7743558 26.7826237,28.8125271 C27.1490674,28.8506983 27.5083576,28.6921448 27.7271429,28.3957143 L27.7271429,28.4421429 Z M16.315,27.7457143 C16.914164,28.0059935 17.6060164,27.9323345 18.1369486,27.5517379 C18.6678808,27.1711414 18.9598058,26.5395836 18.9057143,25.8885714 C18.6735714,24.6907143 17.5407143,24.5885714 16.6214286,24.96 C16.0831435,25.1701138 15.7050947,25.6605603 15.6389342,26.2345999 C15.5727737,26.8086395 15.8293405,27.3722282 16.3057143,27.6992857 L16.315,27.7457143 Z M16.8907143,25.5635714 C17.4385714,25.35 18.0978571,25.4057143 18.2371429,26.1114286 C18.2548008,26.4864801 18.0758858,26.8436628 17.7649446,27.0541169 C17.4540033,27.2645711 17.0559108,27.2979239 16.7142857,27.1421429 C16.4325027,26.9500928 16.2786564,26.6190442 16.3135472,26.2798281 C16.348438,25.9406121 16.5664516,25.6478119 16.8814286,25.5171429 L16.8907143,25.5635714 Z M35.0442857,26.91 C35.3946106,27.0754323 35.8067905,27.0399855 36.1237267,26.8171697 C36.4406629,26.594354 36.6135251,26.2184985 36.5764286,25.8328571 C36.4371429,25.1271429 35.7685714,25.0714286 35.23,25.285 C34.9339949,25.4194923 34.7298911,25.699005 34.691903,26.0219046 C34.6539148,26.3448041 34.7875759,26.6640539 35.0442857,26.8635714 L35.0442857,26.91 Z M34.5242857,23.9385714 C34.385,23.2328571 33.7164286,23.1771429 33.1778571,23.3907143 C32.8604328,23.5173781 32.6382433,23.8081687 32.5994372,24.1477214 C32.5606312,24.4872741 32.7114819,24.8206978 32.9921429,25.0157143 C33.3480627,25.1813892 33.7659335,25.1402988 34.0827657,24.9084703 C34.399598,24.6766419 34.565208,24.2907951 34.515,23.9014286 L34.5242857,23.9385714 Z M14.2442857,29.9835714 C14.0771429,29.1107143 13.2507143,29.055 12.5821429,29.3057143 C12.1890592,29.4613325 11.9140892,29.8213557 11.8674024,30.2415368 C11.8207156,30.6617178 12.0099496,31.0733192 12.3592857,31.3114286 C12.7910146,31.507279 13.2941696,31.4598892 13.6817381,31.186873 C14.0693066,30.9138568 14.2833398,30.4560352 14.2442857,29.9835714 Z M12.7307143,30.7728571 C12.5629581,30.6666041 12.4703609,30.474087 12.4920731,30.276703 C12.5137853,30.0793191 12.6460159,29.9115331 12.8328571,29.8442857 C13.1392857,29.7235714 13.52,29.7514286 13.5942857,30.1507143 C13.6174188,30.3694661 13.5215412,30.5838371 13.3430631,30.7124181 C13.164585,30.8409991 12.9308856,30.8640653 12.7307143,30.7728571 Z M15.7857143,28.7857143 C15.3926306,28.9413325 15.1176606,29.3013557 15.0709738,29.7215368 C15.024287,30.1417178 15.213521,30.5533192 15.5628571,30.7914286 C15.9918269,30.9739658 16.4848999,30.9199053 16.8641277,30.6487575 C17.2433555,30.3776096 17.4539847,29.928523 17.42,29.4635714 C17.3271429,28.5721429 16.5007143,28.4978571 15.7857143,28.7857143 Z M15.9342857,30.2528571 C15.7665296,30.1466041 15.6739323,29.954087 15.6956445,29.756703 C15.7173568,29.5593191 15.8495874,29.3915331 16.0364286,29.3242857 C16.3428571,29.2035714 16.7235714,29.2314286 16.7978571,29.6307143 C16.8064831,29.8341799 16.7134771,30.0286403 16.5496693,30.1496347 C16.3858615,30.2706291 16.1726511,30.3023513 15.9807143,30.2342857 L15.9342857,30.2528571 Z M10.2142857,32.6392857 C9.82120206,32.7949039 9.54623204,33.1549271 9.49954525,33.5751082 C9.45285846,33.9952893 9.64209243,34.4068907 9.99142857,34.645 C10.4203983,34.8275372 10.9134713,34.7734768 11.2926991,34.5023289 C11.6719269,34.231181 11.8825561,33.7820944 11.8485714,33.3171429 C11.6721429,32.435 10.8457143,32.37 10.2142857,32.6392857 Z M10.3628571,34.1064286 C10.195101,34.0001755 10.1025037,33.8076584 10.124216,33.6102745 C10.1459282,33.4128905 10.2781588,33.2451045 10.465,33.1778571 C10.7714286,33.0571429 11.1521429,33.085 11.2264286,33.4842857 C11.2519134,33.7092829 11.1512592,33.9299988 10.9646665,34.0582812 C10.7780739,34.1865636 10.5359511,34.2015069 10.335,34.0971429 L10.3628571,34.1064286 Z M14.0771429,31.7478571 C13.6840592,31.9034754 13.4090892,32.2634986 13.3624024,32.6836796 C13.3157156,33.1038607 13.5049496,33.5154621 13.8542857,33.7535714 C14.2832555,33.9361086 14.7763284,33.8820482 15.1555562,33.6109003 C15.534784,33.3397525 15.7454133,32.8906658 15.7114286,32.4257143 C15.5442857,31.5714286 14.7178571,31.4785714 14.0492857,31.7478571 L14.0771429,31.7478571 Z M14.2257143,33.215 C14.0579581,33.1087469 13.9653609,32.9162298 13.9870731,32.7188459 C14.0087853,32.521462 14.1410159,32.3536759 14.3278571,32.2864286 C14.6342857,32.1657143 15.015,32.1935714 15.0892857,32.5928571 C15.1186954,32.8194295 15.0196303,33.0435506 14.8322746,33.1743093 C14.644919,33.3050679 14.4003823,33.3207522 14.1978571,33.215 L14.2257143,33.215 Z M18.3392857,30.6428571 C17.9462021,30.7984754 17.671232,31.1584986 17.6245452,31.5786796 C17.5778585,31.9988607 17.7670924,32.4104621 18.1164286,32.6485714 C18.5453983,32.8311086 19.0384713,32.7770482 19.4176991,32.5059003 C19.7969269,32.2347525 20.0075561,31.7856658 19.9735714,31.3207143 C19.8342857,30.4292857 19.0171429,30.355 18.3392857,30.6428571 Z M18.4878571,32.11 C18.320101,32.0037469 18.2275037,31.8112298 18.249216,31.6138459 C18.2709282,31.416462 18.4031588,31.2486759 18.59,31.1814286 C18.8964286,31.0607143 19.2771429,31.0885714 19.3514286,31.4878571 C19.3656649,31.7009197 19.2679738,31.9060314 19.0935729,32.0292494 C18.9191721,32.1524674 18.6932088,32.1760246 18.4971429,32.0914286 L18.4878571,32.11 Z M34.0228571,30.4292857 C34.0228571,30.7357143 35.6478571,30.6614286 35.6478571,30.6614286 C35.6478571,30.6614286 35.7221429,31.6921429 35.6478571,31.7107143 C34.5614286,31.8314286 34.4871429,32.6392857 35.7221429,32.9457143 C36.9571429,33.2521429 37.8485714,32.8342857 37.8857143,32.37 C37.9228571,31.9057143 36.9571429,31.7107143 36.9571429,31.7107143 C36.9571429,31.7107143 37.0778571,31.0514286 37.0778571,30.94 C37.0778571,30.8285714 39.0092857,31.0978571 39.2414286,31.0607143 C39.4735714,31.0235714 39.6314286,29.2035714 39.6314286,28.9342857 C39.6314286,28.665 34.3664286,28.1635714 34.06,28.1635714 C33.7535714,28.1635714 34.0321429,30.095 34.0321429,30.4014286 L34.0228571,30.4292857 Z M34.7935714,28.9992857 C35.0257143,28.9992857 38.74,29.2685714 38.8142857,29.5378571 C38.8885714,29.8071429 38.5821429,30.3921429 38.5821429,30.3921429 C38.5821429,30.3921429 34.8678571,29.9278571 34.7564286,29.8907143 C34.645,29.8535714 34.5707143,29.0085714 34.8028571,28.9714286 L34.7935714,28.9992857 Z" id="Shape" fill="#1D1D1B" fill-rule="nonzero"></path>
        </g>
    </g>
</svg>