<?xml version="1.0" encoding="UTF-8"?>
<svg width="285px" height="259px" viewBox="0 0 285 259" version="1.1" xmlns="http://www.w3.org/2000/svg" xmlns:xlink="http://www.w3.org/1999/xlink">
    <!-- Generator: Sketch 48.2 (47327) - http://www.bohemiancoding.com/sketch -->
    <title>team</title>
    <desc>Created with Sketch.</desc>
    <defs></defs>
    <g id="Artboard-2" stroke="none" stroke-width="1" fill="none" fill-rule="evenodd" transform="translate(-82.000000, -52.000000)">
        <g id="team" transform="translate(75.000000, 52.000000)">
            <g id="alien-2" transform="translate(149.000000, 175.000000)" fill-rule="nonzero">
                <path d="M9.165,45.555 C9.165,45.93 9.66,47.925 8.85,48.675 C8.04,49.425 6.855,49.425 6.6,48.93 C6.345,48.435 6.165,47.175 6.6,47.115 C7.035,47.055 7.47,46.8 7.47,46.62 C7.47,46.44 7.35,45.555 7.35,45.555 C7.35,45.555 5.85,46.05 5.1,45.24 C4.35,44.43 3.72,42.12 4.5,41.565 C5.17518839,41.0623889 6.08636714,41.0150549 6.81,41.445 C7.125,41.82 7.995,41.07 7.995,41.07 L7.185,39.765 C7.185,39.765 7.5,38.265 8.685,38.835 C9.87,39.405 10.185,41.205 10.38,41.145 C10.575,41.085 14.13,39.645 14.31,40.08 C14.49,40.515 15.12,43.71 15.12,43.71 C15.12,43.71 9.165,45.18 9.165,45.555 Z M74.85,2.625 C76.98,1.935 80.595,2.31 81.42,7.245 C82.245,12.18 79.17,14.055 76.11,13.44 C73.3680594,12.9440758 71.4834534,10.4028126 71.805,7.635 C71.91,4.875 73.095,3.18 74.85,2.625 Z M71.295,12.255 C71.49,12.51 73.11,13.755 72.915,14.01 C72.72,14.265 69.48,18.51 69.48,18.51 C68.9190572,17.4336011 68.4182871,16.3268992 67.98,15.195 C68.04,15 71.28,12.24 71.28,12.24 L71.295,12.255 Z M8.55,12.885 C6.42,13.695 3.555,13.575 2.37,11.76 C1.185,9.945 0.78,4.365 8.22,3 C10.815,2.52 13.035,3.63 13.41,6 C13.785,8.37 10.665,12 8.535,12.87 L8.55,12.885 Z M69.54,37.62 C67.7756638,36.7292492 65.9628252,35.9380102 64.11,35.25 C63.99,35.445 63.42,36.195 64.11,36.375 C65.9211138,37.2275997 67.6572432,38.2311427 69.3,39.375 C69.3,39.63 68.805,43.44 68.805,43.44 C68.805,43.44 64.68,41.13 64.5,41.19 C64.32,41.25 64.065,42.06 64.32,42.135 C64.575,42.21 68.64,44.64 68.565,45.015 C68.49,45.39 63,62.625 62.79,62.685 C61.6802262,62.2857743 60.593544,61.8250611 59.535,61.305 C59.535,61.305 59.04,62.175 59.28,62.31 C59.52,62.445 62.475,63.63 62.28,63.93 C62.085,64.23 61.725,65.43 61.725,65.43 C60.6148975,64.7786907 59.4444589,64.2361699 58.23,63.81 C58.05,64.005 57.735,64.44 58.05,64.68 C59.2281096,65.1635944 60.3797286,65.7093617 61.5,66.315 C61.5,66.57 61.5,67.56 61.32,67.56 C60.0915548,66.9666079 58.8293913,66.445715 57.54,66 C57.225,66.12 56.85,66.75 57.225,67.005 C57.6,67.26 60.915,68.625 60.855,69 C60.7139499,69.4572138 60.5280458,69.8993639 60.3,70.32 C59.2126094,69.6115122 58.0857884,68.9654682 56.925,68.385 C56.745,68.385 56.49,69.33 56.67,69.45 C57.7194469,70.0149052 58.7225743,70.6619223 59.67,71.385 C59.67,71.58 55.665,71.82 55.605,72.33 C55.5034949,72.7844004 55.5034949,73.2555996 55.605,73.71 C55.725,73.965 60.105,73.71 62.85,74.085 C65.595,74.46 66.795,74.4 66.915,75.09 C67.035,75.78 67.35,80.025 66.915,80.16 C66.48,80.295 58.35,80.16 56.295,80.04 C54.24,79.92 53.115,79.545 53.115,79.17 C53.115,78.795 52.995,67.545 52.68,67.17 C52.365,66.795 47.805,66.24 44.115,66.42 C41.818558,66.5549402 39.5592133,67.0615197 37.425,67.92 C36.8280884,67.3608689 36.1802771,66.8586896 35.49,66.42 C35.235,66.42 34.62,66.855 34.8,67.17 C34.98,67.485 36.675,68.865 36.675,69.045 C36.6508798,69.2972834 36.6107995,69.5477852 36.555,69.795 C35.1365039,68.7351841 33.6311717,67.7968603 32.055,66.99 C31.8,67.185 31.5,67.935 31.8,68.115 C33.4380414,69.1785264 35.0062541,70.3459179 36.495,71.61 C36.495,71.925 36.615,73.425 36.615,73.425 C36.615,73.425 32.685,70.8 32.43,71.175 C32.175,71.55 32.115,72.36 32.31,72.495 C32.505,72.63 36.495,74.37 36.555,74.805 C36.710551,76.6767739 36.710551,78.5582261 36.555,80.43 C36.3,80.745 20.625,81.93 20.43,81.3 C20.235,80.67 20.25,76.05 20.685,75.735 C21.12,75.42 30.375,74.235 30.495,73.92 C30.615,73.605 30.615,72.795 30.315,72.735 C30.015,72.675 28.26,72.735 28.185,72.615 C28.11,72.495 19.875,51.435 18.06,43.8 C16.245,36.165 15.54,25.935 21,18.75 C26.46,11.565 28.935,10.62 33.435,8.565 C37.095,6.885 46.44,5.685 52.935,6.69 C59.43,7.695 66,15.495 67.5,21 C68.4576374,24.7327908 69.1246333,28.5341657 69.495,32.37 C69.495,32.37 64.065,29.115 63.81,29.37 C63.555,29.625 63.495,30.495 63.69,30.615 C63.885,30.735 69.375,33.12 69.51,33.615 C69.645,34.11 69.54,37.62 69.54,37.62 Z M85.095,46.5 C84.4281946,47.2508398 83.6236881,47.8669492 82.725,48.315 C82.47,48.315 82.35,49.065 82.605,49.26 C82.86,49.455 84.225,49.89 83.925,50.445 C83.5836202,51.0746408 82.9773465,51.5175281 82.2737137,51.6512765 C81.5700809,51.7850249 80.8435915,51.5954727 80.295,51.135 C78.48,49.635 77.925,45.63 77.865,45.33 C77.7200781,44.8202175 77.4639315,44.3489077 77.115,43.95 C76.935,43.95 71.865,42.45 71.865,42.27 C71.865,42.09 72.3,39.9 72.3,39.9 C72.555,40.02 77.67,42.21 77.865,42.27 C78.06,42.33 80.865,40.95 82.365,41.4 C83.865,41.85 83.49,42.645 83.37,43.02 C83.25,43.395 82.815,44.145 83.115,44.4 C83.415,44.655 83.43,44.835 83.61,44.835 C83.79,44.835 84.42,43.905 84.93,44.205 C85.5551418,44.8192707 85.6258401,45.8026195 85.095,46.5 Z" id="Shape" fill-opacity="0.373952672" fill="#7EB5B7"></path>
                <path d="M12.24,12.63 C12.435,12.315 13.56,10.815 13.56,10.815 C15.6751804,12.5635163 17.6604152,14.4635264 19.5,16.5 C19.2238984,17.1976408 18.8446764,17.8499027 18.375,18.435 C18.375,18.435 12,12.93 12.225,12.615 L12.24,12.63 Z" id="Shape" fill="#CFE4E4"></path>
                <path d="M12.345,41.565 C12.09,41.76 12.66,42.57 12.66,42.57 C13.062536,42.5805408 13.4637507,42.5195968 13.845,42.39 C14.16,42.21 13.845,41.325 13.725,41.145 C13.2510651,41.2342766 12.7883145,41.3751137 12.345,41.565 Z M29.655,20.43 C29.97,20.55 30.525,19.305 35.655,15.81 C38.6508466,13.7840652 42.2293381,12.7985307 45.84,13.005 C46.035,12.885 46.035,11.505 45.525,11.505 C38.951606,11.5187069 32.7588176,14.5901525 28.77,19.815 C28.605,20.055 29.355,20.31 29.655,20.43 Z M64.275,18.93 C64.59,19.125 64.59,18.555 64.59,18.24 C63.6749916,17.3707688 62.5554277,16.7464958 61.335,16.425 C61.02,16.68 61.155,17.175 61.335,17.43 C62.2896652,17.9699019 63.2765142,18.4508029 64.29,18.87 L64.275,18.93 Z M66.9,23.175 C66.525,22.305 62.4,20.61 62.4,20.61 C62.4,20.61 62.22,21.48 62.4,21.795 C63.9065334,22.7335072 65.498658,23.5270582 67.155,24.165 C67.41,24.18 67.29,24 66.915,23.115 L66.9,23.175 Z M67.71,27.87 C66.2514596,26.8758734 64.7050124,26.017294 63.09,25.305 C62.9888339,25.6518027 62.9284265,26.0092132 62.91,26.37 C64.4664513,27.2373541 66.0744477,28.0087916 67.725,28.68 C68.28,28.875 67.845,28.245 67.725,27.81 L67.71,27.87 Z M84.465,42.87 C84.465,42.87 84.9,41.745 83.4,40.5 C81.9,39.255 77.715,40.755 77.52,40.755 C77.325,40.755 72,38.37 72,38.37 C72.2641139,35.5880451 72.3192685,32.7902026 72.165,30 C72.0711233,26.7496519 71.2942908,23.5554394 69.885,20.625 L73.92,14.625 C75.2231891,15.0506468 76.5841102,15.273251 77.955,15.285 C79.275,15.105 82.545,14.16 82.83,9.48 C83.115,4.8 81.705,-1.215 74.4,0.765 C67.095,2.745 70.5,11.025 70.5,11.025 L66.975,13.65 C66.975,13.65 65.385,10.5 60,7.095 C54.615,3.69 46.815,2.775 36.975,5.22 C30.6804482,6.96264982 24.9575849,10.336345 20.385,15 L14.04,9.375 C14.04,9.375 16.035,5.625 14.04,2.88 C12.045,0.135 3.66,0.615 1.095,5.565 C-1.47,10.515 1.53,13.755 4.785,14.565 C6.94674012,14.9538935 9.17403545,14.4565363 10.965,13.185 L17.595,20.115 C15.80752,22.4102863 14.6262619,25.1184109 14.16,27.99 C13.4665577,31.4630655 13.5330808,35.0450769 14.355,38.49 L10.98,39.735 C10.8373944,38.7035286 10.0303658,37.8903861 9,37.74 C7.125,37.245 5.88,39.735 5.88,39.735 C5.44133752,39.6999283 4.99991053,39.7405193 4.575,39.855 C4.08,40.05 3.195,40.92 2.895,43.11 C2.86648412,44.5888426 3.62629048,45.9713474 4.89,46.74 C4.57897822,47.8016212 4.76066164,48.9467773 5.385,49.86 C6.45,51.36 8.64,50.67 9.885,49.86 C11.13,49.05 10.635,46.545 10.635,46.545 L15.57,44.925 C15.57,44.925 17.07,49.425 19.14,55.305 C21.21,61.185 25.5,72.87 25.5,72.87 C23.0914795,73.0721845 20.7178972,73.5761298 18.435,74.37 C16.5,75.375 17.505,82.305 17.505,82.935 C17.505,83.565 18.51,83.625 24.375,83.565 C30.24,83.505 39.375,82.755 39.63,82.065 C39.885,81.375 39.51,70.935 39.63,70.44 C39.75,69.945 41.505,69.255 44.01,68.94 C46.0027154,68.6985948 48.0172846,68.6985948 50.01,68.94 C50.385,69.135 50.445,79.635 50.385,80.445 C50.325,81.255 51.885,82.44 57.135,82.44 C62.385,82.44 69.135,81.885 69.765,81.435 C70.395,80.985 70.395,76.44 69.765,73.62 C69.135,70.8 63.27,70.74 63.27,70.74 C63.27,70.74 64.275,67.305 65.955,61.995 C67.635,56.685 71.52,43.74 71.52,43.74 L76.275,45.24 C76.3445299,46.0223145 76.49022,46.7959793 76.71,47.55 C77.2902162,49.5316983 78.5015965,51.2697656 80.16,52.5 C81.9623403,53.2302458 84.028201,52.5437444 85.035,50.88 C85.452596,50.0340065 85.1199107,49.0093355 84.285,48.57 C85.6004938,48.0293305 86.5463606,46.8512449 86.79,45.45 C87.405,42.81 84.48,42.75 84.48,42.75 L84.465,42.87 Z M9.165,45.555 C9.165,45.93 9.66,47.925 8.85,48.675 C8.04,49.425 6.855,49.425 6.6,48.93 C6.345,48.435 6.165,47.175 6.6,47.115 C7.035,47.055 7.47,46.8 7.47,46.62 C7.47,46.44 7.35,45.555 7.35,45.555 C7.35,45.555 5.85,46.05 5.1,45.24 C4.35,44.43 3.72,42.12 4.5,41.565 C5.17518839,41.0623889 6.08636714,41.0150549 6.81,41.445 C7.125,41.82 7.995,41.07 7.995,41.07 L7.185,39.765 C7.185,39.765 7.5,38.265 8.685,38.835 C9.87,39.405 10.185,41.205 10.38,41.145 C10.575,41.085 14.13,39.645 14.31,40.08 C14.49,40.515 15.12,43.71 15.12,43.71 C15.12,43.71 9.165,45.18 9.165,45.555 Z M74.85,2.625 C76.98,1.935 80.595,2.31 81.42,7.245 C82.245,12.18 79.17,14.055 76.11,13.44 C73.3680594,12.9440758 71.4834534,10.4028126 71.805,7.635 C71.91,4.875 73.095,3.18 74.85,2.625 Z M71.295,12.255 C71.49,12.51 73.11,13.755 72.915,14.01 C72.72,14.265 69.48,18.51 69.48,18.51 C68.9190572,17.4336011 68.4182871,16.3268992 67.98,15.195 C68.04,15 71.28,12.24 71.28,12.24 L71.295,12.255 Z M8.55,12.885 C6.42,13.695 3.555,13.575 2.37,11.76 C1.185,9.945 0.78,4.365 8.22,3 C10.815,2.52 13.035,3.63 13.41,6 C13.785,8.37 10.665,12 8.535,12.87 L8.55,12.885 Z M12.24,12.63 C12.435,12.315 13.56,10.815 13.56,10.815 C15.6751804,12.5635163 17.6604152,14.4635264 19.5,16.5 C19.2238984,17.1976408 18.8446764,17.8499027 18.375,18.435 C18.375,18.435 12,12.93 12.225,12.615 L12.24,12.63 Z M69.54,37.62 C67.7756638,36.7292492 65.9628252,35.9380102 64.11,35.25 C63.99,35.445 63.42,36.195 64.11,36.375 C65.9211138,37.2275997 67.6572432,38.2311427 69.3,39.375 C69.3,39.63 68.805,43.44 68.805,43.44 C68.805,43.44 64.68,41.13 64.5,41.19 C64.32,41.25 64.065,42.06 64.32,42.135 C64.575,42.21 68.64,44.64 68.565,45.015 C68.49,45.39 63,62.625 62.79,62.685 C61.6802262,62.2857743 60.593544,61.8250611 59.535,61.305 C59.535,61.305 59.04,62.175 59.28,62.31 C59.52,62.445 62.475,63.63 62.28,63.93 C62.085,64.23 61.725,65.43 61.725,65.43 C60.6148975,64.7786907 59.4444589,64.2361699 58.23,63.81 C58.05,64.005 57.735,64.44 58.05,64.68 C59.2281096,65.1635944 60.3797286,65.7093617 61.5,66.315 C61.5,66.57 61.5,67.56 61.32,67.56 C60.0915548,66.9666079 58.8293913,66.445715 57.54,66 C57.225,66.12 56.85,66.75 57.225,67.005 C57.6,67.26 60.915,68.625 60.855,69 C60.7139499,69.4572138 60.5280458,69.8993639 60.3,70.32 C59.2126094,69.6115122 58.0857884,68.9654682 56.925,68.385 C56.745,68.385 56.49,69.33 56.67,69.45 C57.7194469,70.0149052 58.7225743,70.6619223 59.67,71.385 C59.67,71.58 55.665,71.82 55.605,72.33 C55.5034949,72.7844004 55.5034949,73.2555996 55.605,73.71 C55.725,73.965 60.105,73.71 62.85,74.085 C65.595,74.46 66.795,74.4 66.915,75.09 C67.035,75.78 67.35,80.025 66.915,80.16 C66.48,80.295 58.35,80.16 56.295,80.04 C54.24,79.92 53.115,79.545 53.115,79.17 C53.115,78.795 52.995,67.545 52.68,67.17 C52.365,66.795 47.805,66.24 44.115,66.42 C41.818558,66.5549402 39.5592133,67.0615197 37.425,67.92 C36.8280884,67.3608689 36.1802771,66.8586896 35.49,66.42 C35.235,66.42 34.62,66.855 34.8,67.17 C34.98,67.485 36.675,68.865 36.675,69.045 C36.6508798,69.2972834 36.6107995,69.5477852 36.555,69.795 C35.1365039,68.7351841 33.6311717,67.7968603 32.055,66.99 C31.8,67.185 31.5,67.935 31.8,68.115 C33.4380414,69.1785264 35.0062541,70.3459179 36.495,71.61 C36.495,71.925 36.615,73.425 36.615,73.425 C36.615,73.425 32.685,70.8 32.43,71.175 C32.175,71.55 32.115,72.36 32.31,72.495 C32.505,72.63 36.495,74.37 36.555,74.805 C36.710551,76.6767739 36.710551,78.5582261 36.555,80.43 C36.3,80.745 20.625,81.93 20.43,81.3 C20.235,80.67 20.25,76.05 20.685,75.735 C21.12,75.42 30.375,74.235 30.495,73.92 C30.615,73.605 30.615,72.795 30.315,72.735 C30.015,72.675 28.26,72.735 28.185,72.615 C28.11,72.495 19.875,51.435 18.06,43.8 C16.245,36.165 15.54,25.935 21,18.75 C26.46,11.565 28.935,10.62 33.435,8.565 C37.095,6.885 46.44,5.685 52.935,6.69 C59.43,7.695 66,15.495 67.5,21 C68.4576374,24.7327908 69.1246333,28.5341657 69.495,32.37 C69.495,32.37 64.065,29.115 63.81,29.37 C63.555,29.625 63.495,30.495 63.69,30.615 C63.885,30.735 69.375,33.12 69.51,33.615 C69.645,34.11 69.54,37.62 69.54,37.62 Z M85.095,46.5 C84.4281946,47.2508398 83.6236881,47.8669492 82.725,48.315 C82.47,48.315 82.35,49.065 82.605,49.26 C82.86,49.455 84.225,49.89 83.925,50.445 C83.5836202,51.0746408 82.9773465,51.5175281 82.2737137,51.6512765 C81.5700809,51.7850249 80.8435915,51.5954727 80.295,51.135 C78.48,49.635 77.925,45.63 77.865,45.33 C77.7200781,44.8202175 77.4639315,44.3489077 77.115,43.95 C76.935,43.95 71.865,42.45 71.865,42.27 C71.865,42.09 72.3,39.9 72.3,39.9 C72.555,40.02 77.67,42.21 77.865,42.27 C78.06,42.33 80.865,40.95 82.365,41.4 C83.865,41.85 83.49,42.645 83.37,43.02 C83.25,43.395 82.815,44.145 83.115,44.4 C83.415,44.655 83.43,44.835 83.61,44.835 C83.79,44.835 84.42,43.905 84.93,44.205 C85.5551418,44.8192707 85.6258401,45.8026195 85.095,46.5 Z M60.285,46.62 C59.79,46.5 57.48,49.5 53.655,51.375 C49.83,53.25 44.655,52.575 44.34,52.62 C43.71,52.74 44.22,55.62 44.595,55.935 C44.97,56.25 49.665,56.13 54.405,54 C57.3270832,52.707859 59.7602431,50.5164386 61.35,47.745 C61.5,47.49 60.78,46.74 60.285,46.62 Z M58.29,28.185 C55.17,21.555 47.1,20.01 41.535,21.255 C24.165,25.125 27.405,43.2 31.905,47.505 C36.405,51.81 46.095,52.005 53.34,47.82 C60.585,43.635 61.41,34.815 58.29,28.185 Z M33.585,45.9 C29.7,42.18 26.895,26.58 41.895,23.235 C46.695,22.17 53.655,23.505 56.355,29.235 C59.055,34.965 58.35,42.615 52.095,46.17 C45.84,49.725 37.5,49.62 33.585,45.9 Z M42.69,31.5 C40.9815522,31.8126318 39.5658168,33.0054344 38.9678189,34.6360574 C38.3698211,36.2666804 38.678735,38.0919631 39.78,39.435 C41.145,40.74 44.07,40.77 46.26,39.525 C47.9519655,38.2692458 48.5460438,36.0075952 47.6896215,34.0824441 C46.8331991,32.157293 44.7556096,31.08416 42.69,31.5 Z M44.475,36.195 C44.22,36.075 42.72,33.69 43.845,33.195 C44.701843,32.9665103 45.6147111,33.2322821 46.215,33.885 C46.845,34.5 44.73,36.24 44.475,36.12 L44.475,36.195 Z" id="Shape" fill="#1D1D1B"></path>
            </g>
            <g id="alien-1" transform="translate(33.000000, 177.000000)" fill-rule="nonzero">
                <path d="M7.28679245,11.21 C6.72830189,11.21 4.96226415,12.71 3.13584906,11.405 C1.30943396,10.1 2.50188679,6.275 6.15471698,5.405 C7.92075472,4.97 10.3660377,5.225 11.1207547,6.905 C11.8754717,8.585 9.80754717,9.53 9.73207547,9.905 C9.65660377,10.28 20.2981132,18.245 24.2226415,21.02 L21.9132075,23.42 C19.0150943,20.825 7.76981132,11.27 7.27169811,11.225 L7.28679245,11.21 Z M69.9433962,32.345 C69.9644971,39.5407114 68.8385991,46.6943346 66.6075472,53.54 C64.9169811,58.04 62.3962264,63.23 62.0792453,64.04 C61.8247934,64.6497711 61.6129699,65.276258 61.445283,65.915 C60.2662154,66.7895521 59.1924689,67.7961895 58.245283,68.915 C57.5509434,69.98 57.3698113,69.92 57.6113208,70.295 C57.8528302,70.67 59,71.795 59.3773585,71.48 C59.754717,71.165 62.7132075,67.475 66.2301887,67.985 C69.7471698,68.495 72.5849057,73.49 72.2679245,73.865 C71.9509434,74.24 69.2490566,73.865 68.0566038,74.18 C66.8641509,74.495 65.354717,75.56 64.2226415,75.245 C63.090566,74.93 60.8264151,72.62 56.6754717,72.74 C52.5245283,72.86 49.8226415,74.87 46.6830189,74.99 C44.2622869,75.0958272 41.8425139,74.7602948 39.5433962,74 C39.2867925,73.745 39.6641509,72.065 40.4943396,71.87 C41.3245283,71.675 47.0301887,73.625 49.5509434,73.055 C52.0716981,72.485 53.5207547,70.43 53.1433962,70.055 C52.8755922,69.7966319 52.5003698,69.6797599 52.1320755,69.74 C50.3774691,70.172005 48.5432856,70.172005 46.7886792,69.74 C44.4037736,68.99 43.3320755,68.435 41.0075472,69.11 C38.6830189,69.785 36.9169811,72.98 35.6037736,73.61 C33.7844056,75.0853558 31.4720346,75.8245464 29.1283019,75.68 C25.0981132,75.56 23.5283019,74.375 21.8377358,74.435 C20.1471698,74.495 17.309434,76.19 15.1660377,76.37 C13.0226415,76.55 10.8339623,76.745 10.8339623,76.115 C10.8339623,75.485 12.7207547,69.8 16.690566,69.305 C20.6603774,68.81 22.5471698,69.935 25.6264151,68.99 C27.6269596,68.3707306 29.5835365,67.6190496 31.4830189,66.74 C31.9207547,66.56 31.4830189,65.555 31.4830189,65.555 C30.8387539,65.0661254 30.0101119,64.8849635 29.2188679,65.06 C27.878911,65.3550335 26.5582371,65.7307261 25.2641509,66.185 C25.2641509,66.185 18.7886792,54.935 16.4037736,46.505 C14.0188679,38.075 13.9584906,31.505 14.8943396,27.575 C15.2355653,25.5912417 15.9914405,23.7005895 17.1132075,22.025 C17.1132075,22.025 21.2943396,25.88 21.6415094,25.985 C22.3962264,26.225 27.3018868,20.72 26.6377358,20.225 L22.109434,16.73 C22.109434,16.73 24.690566,12.05 34.9396226,9.98 C45.1886792,7.91 51.8603774,9.98 59.6641509,13.79 C67.4679245,17.6 69.8528302,24.965 69.9433962,32.345 Z M65.0075472,13.655 C64.2993794,13.093619 63.6473079,12.4657159 63.0603774,11.78 C63.2566038,11.66 67.4679245,7.715 67.4679245,7.715 C67.4679245,7.715 65.0830189,4.715 68.1018868,2.72 C71.1207547,0.725 75.090566,2.6 76.6603774,5.405 C78.2301887,8.21 76.2226415,10.835 74.3962264,10.655 C72.5698113,10.475 70.5018868,9.035 69.7471698,9.35 C68.9924528,9.665 65.3245283,13.715 65.0075472,13.655 Z" id="Shape" fill="#E2F0D0"></path>
                <path d="M31.5584906,21.35 C30.8965648,23.3374239 29.6177033,25.065175 27.9056604,26.285 C25.9237763,27.4188439 23.5140343,27.536066 21.4301887,26.6 C21.1735849,26.6 20.7962264,28.1 21.1132075,28.415 C21.4301887,28.73 21.8075472,28.79 23.8150943,28.91 C25.9552523,29.1454727 28.0978233,28.4882513 29.7320755,27.095 C32.1169811,25.34 33.0075472,22.16 32.7509434,21.725 C32.4955395,21.3317994 31.9950269,21.1743993 31.5584906,21.35 Z M20.2377358,35.285 C20.2377358,34.79 19.3471698,34.295 19.045283,34.73 C18.3656191,36.2267469 18.2166304,37.9082565 18.6226415,39.5 C18.879236,41.3047028 19.5226596,43.0336465 20.509434,44.57 C20.9471698,44.825 21.7622642,44.39 22.0188679,43.94 C22.2754717,43.49 21.7018868,43.445 20.6301887,40.625 C19.9710091,38.9226988 19.834438,37.0644129 20.2377358,35.285 Z M41.3698113,31.73 C41.6264151,31.415 41.2490566,30.86 40.9320755,30.665 C40.6150943,30.47 39.4226415,30.545 37.4150943,32.165 C36.2623953,32.9956864 35.4567054,34.2180187 35.1509434,35.6 C35.4679245,35.795 35.9056604,36.41 36.2226415,36.35 C36.5396226,36.29 36.5245283,35 37.8377358,33.5 C39.1509434,32 41.1132075,32 41.3698113,31.715 L41.3698113,31.73 Z M52.7509434,27.8 C54.0486385,28.0113138 55.3028873,28.4318504 56.4641509,29.045 C57.56618,29.8909745 58.3093466,31.1164926 58.5471698,32.48 C58.9395131,32.3714758 59.3046,32.1824083 59.6188679,31.925 C59.8754717,31.61 59.6188679,29.99 57.354717,28.115 C56.1073608,27.0159982 54.4933349,26.4171946 52.8264151,26.435 C52.4339623,26.66 52.4943396,27.725 52.7509434,27.785 L52.7509434,27.8 Z M46.2754717,46.85 C48.1018868,46.85 48.7358491,45.035 48.4188679,42.35 C48.1018868,39.665 45.7924528,38.195 44.1320755,38.9 C42.5402537,39.5648001 41.7411183,41.3434129 42.3056604,42.965 C42.6226415,44.465 44.4490566,46.91 46.2754717,46.85 Z M44.7660377,40.715 C45.6867925,40.325 46.8943396,41.12 47.0603774,42.56 C47.2264151,44 46.8943396,44.945 45.9132075,44.975 C44.9320755,45.005 43.9509434,43.7 43.7849057,42.89 C43.4634025,42.0369575 43.8583678,41.081882 44.690566,40.7 L44.7660377,40.715 Z M53.0679245,46.715 C55.5607719,45.5494426 57.1704246,43.0773452 57.2188679,40.34 C57.2188679,36.47 55.5433962,35.09 53.7622642,36.275 C51.9811321,37.46 50.3207547,42.59 50.3207547,44.66 C50.221662,45.3507191 50.5044253,46.0409645 51.0608036,46.4665117 C51.6171818,46.892059 52.361008,46.9870033 53.0075472,46.715 L53.0679245,46.715 Z M52.8716981,41 C53.5056604,39.005 54.0037736,37.88 54.6377358,37.685 C55.2716981,37.49 56.4037736,39.875 55.2113208,42.38 C54.0188679,44.885 52.7660377,45.125 52.4490566,44.945 C52.1320755,44.765 52.2528302,42.965 52.8716981,41 Z M45.7018868,55.85 C43.6339623,55.67 43.6339623,54.725 42.3660377,53.42 C41.0981132,52.115 40.3584906,51.065 39.2264151,51.29 C35.3320755,52.1 36.0867925,55.415 40.7358491,57.17 C45.3849057,58.925 48.1018868,57.365 48.5396226,57.05 C48.9773585,56.735 48.8566038,56.495 48.7358491,56.045 C48.6150943,55.595 47.7849057,56 45.7018868,55.85 Z M63.6943396,44.9 C64.4317909,45.5451152 65.3185841,45.9986244 66.2754717,46.22 C66.6528302,46.22 66.5924528,46.1 66.7735849,45.59 C66.954717,45.08 64.9169811,43.64 64.5698113,43.835 C64.2226415,44.03 63.4981132,44.465 63.6943396,44.9 Z M61.2490566,47.405 C60.8731796,47.7958375 60.5941046,48.268327 60.4339623,48.785 C61.7117733,49.4442305 63.0649448,49.9478688 64.4641509,50.285 C64.7811321,50.285 65.0981132,49.655 65.0981132,49.1 C65.0981132,48.545 61.445283,47.255 61.2339623,47.405 L61.2490566,47.405 Z M59.8603774,51.275 C59.3750154,51.4159374 59.0270364,51.8392493 58.9849057,52.34 C58.9849057,52.835 63.5132075,54.71 63.890566,54.71 C64.2679245,54.71 64.2075472,54.395 64.3283019,54.02 C64.4490566,53.645 60.4188679,51.185 59.8603774,51.275 Z M57.6566038,54.77 C57.4754717,54.965 57.0226415,55.52 57.1584906,55.895 C58.7584082,56.9349066 60.4695081,57.795171 62.2603774,58.46 C62.5773585,58.46 62.7584906,58.145 62.7584906,57.77 C62.7584906,57.395 58.0641509,54.38 57.6566038,54.785 L57.6566038,54.77 Z M55.709434,57.89 C55.2753898,58.2934599 54.9708414,58.8152616 54.8339623,59.39 C56.7751899,60.4912182 58.7928724,61.4536527 60.8716981,62.27 C61.1138908,62.0893092 61.27187,61.8186337 61.309434,61.52 C61.309434,61.1 56.0716981,57.785 55.709434,57.905 L55.709434,57.89 Z M53.6264151,62 C53.2490566,62 52.8113208,63.32 52.9924528,63.815 C53.1735849,64.31 58.3962264,66.005 58.8490566,66.005 C59.3018868,66.005 59.2264151,65.75 59.3471698,65.45 C59.4679245,65.15 53.6264151,62 53.6264151,62 Z M52.1169811,65.495 C51.7086918,65.8044761 51.3865882,66.2123333 51.1811321,66.68 C52.329867,67.2882677 53.5324044,67.7903776 54.7735849,68.18 C55.090566,68.3 55.0301887,68.18 55.2113208,67.685 C55.3924528,67.19 52.6150943,65.33 52.1773585,65.465 L52.1169811,65.495 Z M75.6490566,12.275 C78.9849057,11.525 80.1773585,7.655 77.5358491,3.77 C76.4429891,2.03380734 74.6952646,0.80553756 72.683842,0.360095383 C70.6724193,-0.0853467936 68.5652546,0.289233601 66.8339623,1.4 C63.2566038,3.53 65.5207547,7.4 65.5207547,7.4 L61.2490566,11.21 C61.2490566,11.21 59.6188679,10.28 57.7924528,9.455 C55.9660377,8.63 42.5773585,3.83 33.6415094,6.89 C28.3421517,8.69009972 23.5077424,11.6299798 19.4830189,15.5 L11.6792453,10.1 C11.6792453,10.1 14.2,8.045 12.9320755,5.6 C11.6641509,3.155 7.52830189,2.795 3.8754717,4.355 C0.222641509,5.915 -0.652830189,10.355 1.79245283,12.665 C3.12679374,13.9930136 5.23754141,14.1524024 6.75849057,13.04 L14.9396226,19.91 C10.9849057,25.91 9.85283019,36.41 13.4301887,47.165 C17.0075472,57.92 23.4981132,66.86 23.2415094,66.92 C21.2421239,66.6394377 19.2199039,66.5540305 17.2037736,66.665 C14.1796107,67.2974625 11.4941389,69.0107599 9.65660377,71.48 C7.58867925,74.045 7.58867925,77.915 8.46415094,78.425 C9.33962264,78.935 12.1773585,78.8 14.0037736,78.68 C15.8301887,78.56 19.7245283,77.615 22.6226415,77.375 C25.5207547,77.135 25.8377358,78.56 29.5358491,78.875 C33.2339623,79.19 36.5245283,76.505 37.0830189,76.445 C39.1436349,77.2960296 41.3315939,77.8028558 43.5584906,77.945 C47.709434,78.14 51.7396226,75.755 53.6867925,75.515 C55.6339623,75.275 56.8264151,75.515 60.4792453,77.015 C64.1320755,78.515 67.5886792,76.76 68.6,76.385 C70.0145157,76.2043539 71.4516569,76.3323252 72.8113208,76.76 C74.4829654,76.9325054 76.1175688,76.1920604 77.0830189,74.825 C77.8377358,73.325 77.0830189,73.325 76.2075472,73.07 C75.3320755,72.815 74.6981132,70.505 71.9962264,67.445 C69.2943396,64.385 63.9056604,65.465 63.9056604,65.465 C63.9056604,65.465 66.5471698,60.275 68.9320755,54.845 C71.999235,46.821131 73.1815055,38.2070448 72.3886792,29.66 C71.5132075,19.79 65.9132075,15.155 65.9132075,15.155 L69.7924528,11.15 C71.5063793,12.3082695 73.624226,12.7150885 75.6490566,12.275 Z M7.28679245,11.21 C6.72830189,11.21 4.96226415,12.71 3.13584906,11.405 C1.30943396,10.1 2.50188679,6.275 6.15471698,5.405 C7.92075472,4.97 10.3660377,5.225 11.1207547,6.905 C11.8754717,8.585 9.80754717,9.53 9.73207547,9.905 C9.65660377,10.28 20.2981132,18.245 24.2226415,21.02 L21.9132075,23.42 C19.0150943,20.825 7.76981132,11.27 7.27169811,11.225 L7.28679245,11.21 Z M69.9433962,32.345 C69.9644971,39.5407114 68.8385991,46.6943346 66.6075472,53.54 C64.9169811,58.04 62.3962264,63.23 62.0792453,64.04 C61.8247934,64.6497711 61.6129699,65.276258 61.445283,65.915 C60.2662154,66.7895521 59.1924689,67.7961895 58.245283,68.915 C57.5509434,69.98 57.3698113,69.92 57.6113208,70.295 C57.8528302,70.67 59,71.795 59.3773585,71.48 C59.754717,71.165 62.7132075,67.475 66.2301887,67.985 C69.7471698,68.495 72.5849057,73.49 72.2679245,73.865 C71.9509434,74.24 69.2490566,73.865 68.0566038,74.18 C66.8641509,74.495 65.354717,75.56 64.2226415,75.245 C63.090566,74.93 60.8264151,72.62 56.6754717,72.74 C52.5245283,72.86 49.8226415,74.87 46.6830189,74.99 C44.2622869,75.0958272 41.8425139,74.7602948 39.5433962,74 C39.2867925,73.745 39.6641509,72.065 40.4943396,71.87 C41.3245283,71.675 47.0301887,73.625 49.5509434,73.055 C52.0716981,72.485 53.5207547,70.43 53.1433962,70.055 C52.8755922,69.7966319 52.5003698,69.6797599 52.1320755,69.74 C50.3774691,70.172005 48.5432856,70.172005 46.7886792,69.74 C44.4037736,68.99 43.3320755,68.435 41.0075472,69.11 C38.6830189,69.785 36.9169811,72.98 35.6037736,73.61 C33.7844056,75.0853558 31.4720346,75.8245464 29.1283019,75.68 C25.0981132,75.56 23.5283019,74.375 21.8377358,74.435 C20.1471698,74.495 17.309434,76.19 15.1660377,76.37 C13.0226415,76.55 10.8339623,76.745 10.8339623,76.115 C10.8339623,75.485 12.7207547,69.8 16.690566,69.305 C20.6603774,68.81 22.5471698,69.935 25.6264151,68.99 C27.6269596,68.3707306 29.5835365,67.6190496 31.4830189,66.74 C31.9207547,66.56 31.4830189,65.555 31.4830189,65.555 C30.8387539,65.0661254 30.0101119,64.8849635 29.2188679,65.06 C27.878911,65.3550335 26.5582371,65.7307261 25.2641509,66.185 C25.2641509,66.185 18.7886792,54.935 16.4037736,46.505 C14.0188679,38.075 13.9584906,31.505 14.8943396,27.575 C15.2355653,25.5912417 15.9914405,23.7005895 17.1132075,22.025 C17.1132075,22.025 21.2943396,25.88 21.6415094,25.985 C22.3962264,26.225 27.3018868,20.72 26.6377358,20.225 L22.109434,16.73 C22.109434,16.73 24.690566,12.05 34.9396226,9.98 C45.1886792,7.91 51.8603774,9.98 59.6641509,13.79 C67.4679245,17.6 69.8528302,24.965 69.9433962,32.345 Z M65.0075472,13.655 C64.2993794,13.093619 63.6473079,12.4657159 63.0603774,11.78 C63.2566038,11.66 67.4679245,7.715 67.4679245,7.715 C67.4679245,7.715 65.0830189,4.715 68.1018868,2.72 C71.1207547,0.725 75.090566,2.6 76.6603774,5.405 C78.2301887,8.21 76.2226415,10.835 74.3962264,10.655 C72.5698113,10.475 70.5018868,9.035 69.7471698,9.35 C68.9924528,9.665 65.3245283,13.715 65.0075472,13.655 Z" id="Shape" fill="#1D1D1B"></path>
            </g>
            <g id="stars" transform="translate(64.000000, 100.000000)">
                <path d="M4.58,7.71 C4.33,7.59 4.08,5.42 3.71,5.38 C3.34,5.34 2.71,7.38 2.71,7.38 C2.71,7.38 0.79,7.55 0.71,7.92 C0.63,8.29 2.42,9.13 2.42,9.25 C2.42,9.37 1.42,10.38 1.67,10.79 C1.92,11.2 3.38,10.33 3.55,10.33 C3.72,10.33 5.22,11.79 5.55,11.62 C5.88,11.45 5.09,9.62 5.05,9.5 C5.01,9.38 6.43,8.5 6.43,8.25 C6.43,8 4.83,7.84 4.58,7.71 Z M21.37,40.88 C21.7155983,41.6888433 21.9932247,42.5250674 22.2,43.38 C22.03,43.38 19.2,42.13 18.91,42.3 C18.2835615,42.6291054 17.6082733,42.8553269 16.91,42.97 C16.79,42.85 17.45,40.35 17.41,40.14 C17.37,39.93 15,38 15,37.84 C15,37.68 17,37.97 17.17,37.76 C17.34,37.55 19.17,34.18 19.38,34.22 C19.59,34.26 20.59,37.43 20.71,37.47 C20.83,37.51 23.5,37.72 23.54,38.01 C23.58,38.3 21.29,40.55 21.37,40.88 Z" id="Shape" fill="#FEFF9B" fill-rule="nonzero"></path>
                <path d="M16.58,10.8 C16.29,10.63 14.9,12.46 14.87,12.59 C14.84,12.72 15.37,13.09 15.54,13.09 C16.0434102,12.6169812 16.4897752,12.0867129 16.87,11.51 C17,11.26 16.87,11 16.58,10.8 Z M18.58,18.72 C18.71,18.72 18.79,18.55 18.87,18.35 C18.2412782,17.2971356 17.5325221,16.2941788 16.75,15.35 C16.63,15.6 16.08,15.64 16.13,15.89 C16.8727287,16.9035944 17.7061663,17.8474877 18.62,18.71 L18.58,18.72 Z M19.58,16.55 C19.1047292,15.6991032 18.5009526,14.9266739 17.79,14.26 C17.54,14.26 17.06,14.48 17.12,14.59 C17.29,14.88 19.33,17.09 19.33,17.09 C19.4828023,16.9399313 19.596161,16.7544351 19.66,16.55 L19.58,16.55 Z M20.21,15.05 C20.42,15.05 20.5,14.84 20.59,14.55 C20.68,14.26 19.72,13.01 19.51,12.93 C19.3,12.85 18.64,13.2 18.72,13.31 C18.8,13.42 20.08,15.09 20.29,15 L20.21,15.05 Z M18.75,38.8 C18.63,38.88 18.21,39.09 18.21,39.22 C18.672174,39.9245405 19.1869757,40.5931142 19.75,41.22 C19.88,41.3 20.04,41.01 20.08,40.76 C19.7889824,40.0153407 19.334469,39.3455316 18.75,38.8 Z M19.75,37.8 C19.63,37.88 19.21,38.09 19.21,38.22 C19.6722051,38.9245184 20.1870051,39.5930898 20.75,40.22 C20.88,40.3 21.04,40.01 21.08,39.76 C20.805927,39.0047803 20.3649769,38.3211368 19.79,37.76 L19.75,37.8 Z M3,36.17 C3.13,36.05 4.38,36.92 4.67,36.71 C4.96,36.5 4.46,35.25 4.46,35.13 C4.46,35.01 5.84,34.21 5.75,34.01 C5.66,33.81 3.96,33.64 3.96,33.64 C3.96,33.64 3.21,31.22 2.88,31.22 C2.55,31.22 1.88,33.22 1.88,33.39 C1.88,33.39 0.17,33.56 0.17,33.89 C0.17,34.22 1.63,34.64 1.63,34.81 C1.63,34.98 1.26,36.94 1.26,36.94 C1.4692866,37.0663358 1.69464944,37.1638809 1.93,37.23 C2.16,37.3 2.83,36.3 3,36.17 Z M12.63,2.38 C12.8,1.13 11.98,-0.2 10.55,0.09 C8.68,0.47 8.18,2.38 9.01,3.17 C9.84,3.96 12.41,3.63 12.58,2.38 L12.63,2.38 Z M10.54,1 C11.25,0.86 11.65,1.51 11.54,2.13 C11.43,2.75 10.16,2.91 9.75,2.52 C9.34,2.13 9.61,1.15 10.54,1 Z M35.33,11.13 C35.46,11.3 36.91,9.84 37.12,9.67 C37.33,9.5 38.7,10.3 38.95,10.13 C39.2,9.96 38.45,8.38 38.37,8.21 C38.29,8.04 39.5,7.08 39.5,6.79 C39.5,6.5 37.88,6.62 37.71,6.46 C37.54,6.3 36.71,3.92 36.29,3.96 C35.87,4 35.61,7.32 35.5,7.38 C35.13,7.59 33.21,8.63 33.29,8.88 C33.37,9.13 35,9.17 35.12,9.26 C35.24,9.35 35.2,11 35.33,11.13 Z M30.33,20.35 C30.9368555,20.3314161 31.4964454,20.0178178 31.8290779,19.5099059 C32.1617104,19.001994 32.2255138,18.3637042 32,17.8 C31.2,16.06 29.22,16.02 28.64,17.02 C28.06,18.02 29,20.48 30.3,20.35 L30.33,20.35 Z M29.57,17.65 C29.85,17.16 30.83,17.18 31.23,18.04 C31.3430437,18.3242139 31.3074434,18.6460252 31.1350112,18.8986584 C30.962579,19.1512917 30.6758652,19.301708 30.37,19.3 C29.72,19.37 29.25,18.15 29.54,17.65 L29.57,17.65 Z M47.23,2.65 C47.4,1.4 46.58,0.07 45.15,0.36 C43.28,0.74 42.78,2.65 43.61,3.44 C44.44,4.23 47,3.88 47.2,2.63 L47.23,2.65 Z M45.23,1.24 C45.94,1.1 46.34,1.75 46.23,2.37 C46.12,2.99 44.85,3.15 44.44,2.76 C44.03,2.37 44.24,1.4 45.16,1.22 L45.23,1.24 Z M32.91,41.46 C32.3897071,42.2390279 31.9980429,43.0966375 31.75,44 C31.75,44 29.75,45 29.75,45.21 C29.75,45.42 31.54,45.59 31.58,45.84 C31.62,46.09 31.21,47.38 31.46,47.67 C31.71,47.96 32.67,46.8 32.88,46.67 C33.09,46.54 34.46,47.46 34.67,47.34 C34.88,47.22 34.3,45.8 34.3,45.63 C34.3,45.46 36.12,44.59 36,44.3 C35.88,44.01 34,44.01 33.88,43.93 C33.76,43.85 33.29,41.26 32.91,41.46 Z M47.91,22.79 C47.7,21.92 41.91,21.42 41.91,21.42 C41.91,21.42 39.91,17.21 38.7,17.3 C37.49,17.39 35,21.92 34.87,22.09 C34.87,22.09 29.54,23.47 29.54,24.38 C29.54,25.29 33.62,28 33.62,28 C33.62,28 33,34.46 34,35 C35,35.54 39.5,31.17 39.71,31.17 C39.92,31.17 45.59,34.46 45.88,34.17 C46.17,33.88 45.17,28.17 45.13,28.05 C45.09,27.93 48.12,23.67 47.91,22.8 L47.91,22.79 Z M43.29,30.79 C42.2570078,30.2030756 41.2556227,29.5621891 40.29,28.87 C40.3490004,28.6688043 40.3759968,28.4595824 40.37,28.25 C39.7819914,27.4579391 39.1115689,26.7305307 38.37,26.08 C38.2,26.08 37.7,26.41 37.87,26.54 C38.4549959,27.2297198 38.958334,27.984727 39.37,28.79 C39.29,28.92 35.66,32.29 35.45,32 C35.24,31.71 36.03,27.33 35.87,27 C35.71,26.67 32.87,24.92 32.58,24.67 C32.29,24.42 36,23.84 36.16,23.59 C36.32,23.34 38.41,20.05 38.66,20.09 C38.91,20.13 40.37,23.22 40.58,23.26 C40.79,23.3 45.58,23.68 45.58,23.93 C45.58,24.18 43.08,27.76 43.08,28.01 C43.2251625,28.9193724 43.2953985,29.8391302 43.29,30.76 L43.29,30.79 Z M27.84,28.51 C25.93,28.64 25.19,30.51 25.92,31.37 C26.65,32.23 29.29,32.26 29.62,31.04 C29.8439923,30.4604574 29.7638164,29.8073419 29.4062989,29.299185 C29.0487814,28.7910281 28.4611405,28.4949432 27.84,28.51 Z M28.65,30.64 C28.49,31.24 27.18,31.24 26.82,30.8 C26.46,30.36 26.82,29.45 27.77,29.39 C28.0767956,29.3828895 28.3669377,29.5292182 28.5435937,29.78015 C28.7202497,30.0310818 28.7601582,30.353575 28.65,30.64 Z M22.83,25.92 C23.83,24.92 22.83,17.92 22.83,17.79 C22.83,17.66 28.37,11.79 27.83,10.96 C27.29,10.13 21.25,9.59 21.04,9.46 C20.83,9.33 19.17,2.83 18.04,2.83 C16.91,2.83 13.62,9.62 13.46,9.83 C13.46,9.83 8.46,9.12 7.92,9.96 C7.38,10.8 11.84,15.96 11.84,15.96 C11.84,15.96 8,23.3 9.08,24.59 C10.16,25.88 15.91,21.92 16.5,22.09 C17.09,22.26 21.79,26.88 22.83,25.92 Z M11.2,22.42 C11.08,22.13 14.2,15.71 14.03,15.42 C13.86,15.13 11,11.26 11,11 C11,10.74 13.54,11.38 14.29,11.17 C15.04,10.96 15.67,9.75 15.96,9.17 C16.25,8.59 17.5,6 17.79,6 C18.08,6 19.33,10.75 19.79,11.08 C20.25,11.41 25.41,12.08 25.46,12.25 C25.51,12.42 21.2,16.8 21.16,17 C21.12,17.2 21.41,23.42 21.24,23.33 C21.07,23.24 17.87,20.33 16.7,20.25 C15.53,20.17 11.33,22.71 11.2,22.42 Z M26.37,36.88 C26.16,36.17 22.12,35.88 22.12,35.88 C22.12,35.88 20.91,31.26 19.7,31.34 C18.49,31.42 16.24,35.76 16.08,36.17 C16.08,36.17 11.66,35.88 11.33,36.71 C11,37.54 15.33,40.96 15.33,41.29 C15.33,41.62 13.25,46 14,46.84 C14.75,47.68 18.71,44.38 19.08,44.34 C19.45,44.3 24.08,46.42 24.83,45.76 C25.58,45.1 23.25,41.3 23.29,41 C23.33,40.7 26.58,37.59 26.37,36.88 Z M21.37,40.88 C21.7155983,41.6888433 21.9932247,42.5250674 22.2,43.38 C22.03,43.38 19.2,42.13 18.91,42.3 C18.2835615,42.6291054 17.6082733,42.8553269 16.91,42.97 C16.79,42.85 17.45,40.35 17.41,40.14 C17.37,39.93 15,38 15,37.84 C15,37.68 17,37.97 17.17,37.76 C17.34,37.55 19.17,34.18 19.38,34.22 C19.59,34.26 20.59,37.43 20.71,37.47 C20.83,37.51 23.5,37.72 23.54,38.01 C23.58,38.3 21.29,40.55 21.37,40.88 Z M2.49,44.88 C1.64,46.59 2.86,48.16 3.99,47.98 C5.12,47.8 6.46,45.52 5.57,44.63 C5.19184522,44.1397934 4.59456691,43.869877 3.97675291,43.9099948 C3.35893891,43.9501126 2.80158326,44.2950052 2.49,44.83 L2.49,44.88 Z M3.95,46.88 C3.39,46.97 2.79,46.19 3.21,45.35 C3.3606108,45.0840666 3.6334506,44.9102852 3.93812358,44.8862321 C4.24279657,44.8621789 4.5395256,44.9909944 4.73,45.23 C5.17,45.65 4.51,46.78 4,46.87 L3.95,46.88 Z M40.25,25.13 C40.08,25.05 39.54,25.46 39.54,25.46 C39.71,25.54 41.37,28.63 41.37,28.63 C41.37,28.63 41.91,28.46 42,28.21 C41.5494333,27.1133762 40.9613937,26.0784266 40.25,25.13 Z M41.63,24.84 C41.71,25.09 42.17,26.55 42.26,26.67 C42.35,26.79 42.68,26.42 42.84,26.3 C43,26.18 42.47,25.09 42.3,24.88 C42.13,24.67 41.54,24.6 41.62,24.84 L41.63,24.84 Z" id="Shape" fill="#1D1D1B" fill-rule="nonzero"></path>
                <path d="M4.58,7.71 C4.33,7.59 4.08,5.42 3.71,5.38 C3.34,5.34 2.71,7.38 2.71,7.38 C2.71,7.38 0.79,7.55 0.71,7.92 C0.63,8.29 2.42,9.13 2.42,9.25 C2.42,9.37 1.42,10.38 1.67,10.79 C1.92,11.2 3.38,10.33 3.55,10.33 C3.72,10.33 5.22,11.79 5.55,11.62 C5.88,11.45 5.09,9.62 5.05,9.5 C5.01,9.38 6.43,8.5 6.43,8.25 C6.43,8 4.83,7.84 4.58,7.71 Z" id="Path" fill="#FEFF9B"></path>
            </g>
            <g id="stars" transform="translate(170.000000, 124.000000)" fill="#1D1D1B" fill-rule="nonzero">
                <path d="M16.58,10.8 C16.29,10.63 14.9,12.46 14.87,12.59 C14.84,12.72 15.37,13.09 15.54,13.09 C16.0434102,12.6169812 16.4897752,12.0867129 16.87,11.51 C17,11.26 16.87,11 16.58,10.8 Z M18.58,18.72 C18.71,18.72 18.79,18.55 18.87,18.35 C18.2412782,17.2971356 17.5325221,16.2941788 16.75,15.35 C16.63,15.6 16.08,15.64 16.13,15.89 C16.8727287,16.9035944 17.7061663,17.8474877 18.62,18.71 L18.58,18.72 Z M19.58,16.55 C19.1047292,15.6991032 18.5009526,14.9266739 17.79,14.26 C17.54,14.26 17.06,14.48 17.12,14.59 C17.29,14.88 19.33,17.09 19.33,17.09 C19.4828023,16.9399313 19.596161,16.7544351 19.66,16.55 L19.58,16.55 Z M20.21,15.05 C20.42,15.05 20.5,14.84 20.59,14.55 C20.68,14.26 19.72,13.01 19.51,12.93 C19.3,12.85 18.64,13.2 18.72,13.31 C18.8,13.42 20.08,15.09 20.29,15 L20.21,15.05 Z M18.75,38.8 C18.63,38.88 18.21,39.09 18.21,39.22 C18.672174,39.9245405 19.1869757,40.5931142 19.75,41.22 C19.88,41.3 20.04,41.01 20.08,40.76 C19.7889824,40.0153407 19.334469,39.3455316 18.75,38.8 Z M19.75,37.8 C19.63,37.88 19.21,38.09 19.21,38.22 C19.6722051,38.9245184 20.1870051,39.5930898 20.75,40.22 C20.88,40.3 21.04,40.01 21.08,39.76 C20.805927,39.0047803 20.3649769,38.3211368 19.79,37.76 L19.75,37.8 Z M3,36.17 C3.13,36.05 4.38,36.92 4.67,36.71 C4.96,36.5 4.46,35.25 4.46,35.13 C4.46,35.01 5.84,34.21 5.75,34.01 C5.66,33.81 3.96,33.64 3.96,33.64 C3.96,33.64 3.21,31.22 2.88,31.22 C2.55,31.22 1.88,33.22 1.88,33.39 C1.88,33.39 0.17,33.56 0.17,33.89 C0.17,34.22 1.63,34.64 1.63,34.81 C1.63,34.98 1.26,36.94 1.26,36.94 C1.4692866,37.0663358 1.69464944,37.1638809 1.93,37.23 C2.16,37.3 2.83,36.3 3,36.17 Z M12.63,2.38 C12.8,1.13 11.98,-0.2 10.55,0.09 C8.68,0.47 8.18,2.38 9.01,3.17 C9.84,3.96 12.41,3.63 12.58,2.38 L12.63,2.38 Z M10.54,1 C11.25,0.86 11.65,1.51 11.54,2.13 C11.43,2.75 10.16,2.91 9.75,2.52 C9.34,2.13 9.61,1.15 10.54,1 Z M35.33,11.13 C35.46,11.3 36.91,9.84 37.12,9.67 C37.33,9.5 38.7,10.3 38.95,10.13 C39.2,9.96 38.45,8.38 38.37,8.21 C38.29,8.04 39.5,7.08 39.5,6.79 C39.5,6.5 37.88,6.62 37.71,6.46 C37.54,6.3 36.71,3.92 36.29,3.96 C35.87,4 35.61,7.32 35.5,7.38 C35.13,7.59 33.21,8.63 33.29,8.88 C33.37,9.13 35,9.17 35.12,9.26 C35.24,9.35 35.2,11 35.33,11.13 Z M30.33,20.35 C30.9368555,20.3314161 31.4964454,20.0178178 31.8290779,19.5099059 C32.1617104,19.001994 32.2255138,18.3637042 32,17.8 C31.2,16.06 29.22,16.02 28.64,17.02 C28.06,18.02 29,20.48 30.3,20.35 L30.33,20.35 Z M29.57,17.65 C29.85,17.16 30.83,17.18 31.23,18.04 C31.3430437,18.3242139 31.3074434,18.6460252 31.1350112,18.8986584 C30.962579,19.1512917 30.6758652,19.301708 30.37,19.3 C29.72,19.37 29.25,18.15 29.54,17.65 L29.57,17.65 Z M47.23,2.65 C47.4,1.4 46.58,0.07 45.15,0.36 C43.28,0.74 42.78,2.65 43.61,3.44 C44.44,4.23 47,3.88 47.2,2.63 L47.23,2.65 Z M45.23,1.24 C45.94,1.1 46.34,1.75 46.23,2.37 C46.12,2.99 44.85,3.15 44.44,2.76 C44.03,2.37 44.24,1.4 45.16,1.22 L45.23,1.24 Z M32.91,41.46 C32.3897071,42.2390279 31.9980429,43.0966375 31.75,44 C31.75,44 29.75,45 29.75,45.21 C29.75,45.42 31.54,45.59 31.58,45.84 C31.62,46.09 31.21,47.38 31.46,47.67 C31.71,47.96 32.67,46.8 32.88,46.67 C33.09,46.54 34.46,47.46 34.67,47.34 C34.88,47.22 34.3,45.8 34.3,45.63 C34.3,45.46 36.12,44.59 36,44.3 C35.88,44.01 34,44.01 33.88,43.93 C33.76,43.85 33.29,41.26 32.91,41.46 Z M47.91,22.79 C47.7,21.92 41.91,21.42 41.91,21.42 C41.91,21.42 39.91,17.21 38.7,17.3 C37.49,17.39 35,21.92 34.87,22.09 C34.87,22.09 29.54,23.47 29.54,24.38 C29.54,25.29 33.62,28 33.62,28 C33.62,28 33,34.46 34,35 C35,35.54 39.5,31.17 39.71,31.17 C39.92,31.17 45.59,34.46 45.88,34.17 C46.17,33.88 45.17,28.17 45.13,28.05 C45.09,27.93 48.12,23.67 47.91,22.8 L47.91,22.79 Z M43.29,30.79 C42.2570078,30.2030756 41.2556227,29.5621891 40.29,28.87 C40.3490004,28.6688043 40.3759968,28.4595824 40.37,28.25 C39.7819914,27.4579391 39.1115689,26.7305307 38.37,26.08 C38.2,26.08 37.7,26.41 37.87,26.54 C38.4549959,27.2297198 38.958334,27.984727 39.37,28.79 C39.29,28.92 35.66,32.29 35.45,32 C35.24,31.71 36.03,27.33 35.87,27 C35.71,26.67 32.87,24.92 32.58,24.67 C32.29,24.42 36,23.84 36.16,23.59 C36.32,23.34 38.41,20.05 38.66,20.09 C38.91,20.13 40.37,23.22 40.58,23.26 C40.79,23.3 45.58,23.68 45.58,23.93 C45.58,24.18 43.08,27.76 43.08,28.01 C43.2251625,28.9193724 43.2953985,29.8391302 43.29,30.76 L43.29,30.79 Z M27.84,28.51 C25.93,28.64 25.19,30.51 25.92,31.37 C26.65,32.23 29.29,32.26 29.62,31.04 C29.8439923,30.4604574 29.7638164,29.8073419 29.4062989,29.299185 C29.0487814,28.7910281 28.4611405,28.4949432 27.84,28.51 Z M28.65,30.64 C28.49,31.24 27.18,31.24 26.82,30.8 C26.46,30.36 26.82,29.45 27.77,29.39 C28.0767956,29.3828895 28.3669377,29.5292182 28.5435937,29.78015 C28.7202497,30.0310818 28.7601582,30.353575 28.65,30.64 Z M22.83,25.92 C23.83,24.92 22.83,17.92 22.83,17.79 C22.83,17.66 28.37,11.79 27.83,10.96 C27.29,10.13 21.25,9.59 21.04,9.46 C20.83,9.33 19.17,2.83 18.04,2.83 C16.91,2.83 13.62,9.62 13.46,9.83 C13.46,9.83 8.46,9.12 7.92,9.96 C7.38,10.8 11.84,15.96 11.84,15.96 C11.84,15.96 8,23.3 9.08,24.59 C10.16,25.88 15.91,21.92 16.5,22.09 C17.09,22.26 21.79,26.88 22.83,25.92 Z M11.2,22.42 C11.08,22.13 14.2,15.71 14.03,15.42 C13.86,15.13 11,11.26 11,11 C11,10.74 13.54,11.38 14.29,11.17 C15.04,10.96 15.67,9.75 15.96,9.17 C16.25,8.59 17.5,6 17.79,6 C18.08,6 19.33,10.75 19.79,11.08 C20.25,11.41 25.41,12.08 25.46,12.25 C25.51,12.42 21.2,16.8 21.16,17 C21.12,17.2 21.41,23.42 21.24,23.33 C21.07,23.24 17.87,20.33 16.7,20.25 C15.53,20.17 11.33,22.71 11.2,22.42 Z M4.58,7.71 C4.33,7.59 4.08,5.42 3.71,5.38 C3.34,5.34 2.71,7.38 2.71,7.38 C2.71,7.38 0.79,7.55 0.71,7.92 C0.63,8.29 2.42,9.13 2.42,9.25 C2.42,9.37 1.42,10.38 1.67,10.79 C1.92,11.2 3.38,10.33 3.55,10.33 C3.72,10.33 5.22,11.79 5.55,11.62 C5.88,11.45 5.09,9.62 5.05,9.5 C5.01,9.38 6.43,8.5 6.43,8.25 C6.43,8 4.83,7.84 4.58,7.71 Z M26.37,36.88 C26.16,36.17 22.12,35.88 22.12,35.88 C22.12,35.88 20.91,31.26 19.7,31.34 C18.49,31.42 16.24,35.76 16.08,36.17 C16.08,36.17 11.66,35.88 11.33,36.71 C11,37.54 15.33,40.96 15.33,41.29 C15.33,41.62 13.25,46 14,46.84 C14.75,47.68 18.71,44.38 19.08,44.34 C19.45,44.3 24.08,46.42 24.83,45.76 C25.58,45.1 23.25,41.3 23.29,41 C23.33,40.7 26.58,37.59 26.37,36.88 Z M21.37,40.88 C21.7155983,41.6888433 21.9932247,42.5250674 22.2,43.38 C22.03,43.38 19.2,42.13 18.91,42.3 C18.2835615,42.6291054 17.6082733,42.8553269 16.91,42.97 C16.79,42.85 17.45,40.35 17.41,40.14 C17.37,39.93 15,38 15,37.84 C15,37.68 17,37.97 17.17,37.76 C17.34,37.55 19.17,34.18 19.38,34.22 C19.59,34.26 20.59,37.43 20.71,37.47 C20.83,37.51 23.5,37.72 23.54,38.01 C23.58,38.3 21.29,40.55 21.37,40.88 Z M2.49,44.88 C1.64,46.59 2.86,48.16 3.99,47.98 C5.12,47.8 6.46,45.52 5.57,44.63 C5.19184522,44.1397934 4.59456691,43.869877 3.97675291,43.9099948 C3.35893891,43.9501126 2.80158326,44.2950052 2.49,44.83 L2.49,44.88 Z M3.95,46.88 C3.39,46.97 2.79,46.19 3.21,45.35 C3.3606108,45.0840666 3.6334506,44.9102852 3.93812358,44.8862321 C4.24279657,44.8621789 4.5395256,44.9909944 4.73,45.23 C5.17,45.65 4.51,46.78 4,46.87 L3.95,46.88 Z M40.25,25.13 C40.08,25.05 39.54,25.46 39.54,25.46 C39.71,25.54 41.37,28.63 41.37,28.63 C41.37,28.63 41.91,28.46 42,28.21 C41.5494333,27.1133762 40.9613937,26.0784266 40.25,25.13 Z M41.63,24.84 C41.71,25.09 42.17,26.55 42.26,26.67 C42.35,26.79 42.68,26.42 42.84,26.3 C43,26.18 42.47,25.09 42.3,24.88 C42.13,24.67 41.54,24.6 41.62,24.84 L41.63,24.84 Z" id="Shape"></path>
            </g>
            <g id="stars" transform="translate(170.000000, 124.000000)" fill-rule="nonzero">
                <path d="M35.33,11.13 C35.46,11.3 36.91,9.84 37.12,9.67 C37.33,9.5 38.7,10.3 38.95,10.13 C39.2,9.96 38.45,8.38 38.37,8.21 C38.29,8.04 39.5,7.08 39.5,6.79 C39.5,6.5 37.88,6.62 37.71,6.46 C37.54,6.3 36.71,3.92 36.29,3.96 C35.87,4 35.61,7.32 35.5,7.38 C35.13,7.59 33.21,8.63 33.29,8.88 C33.37,9.13 35,9.17 35.12,9.26 C35.24,9.35 35.2,11 35.33,11.13 Z M29.57,17.65 C29.85,17.16 30.83,17.18 31.23,18.04 C31.3430437,18.3242139 31.3074434,18.6460252 31.1350112,18.8986584 C30.962579,19.1512917 30.6758652,19.301708 30.37,19.3 C29.72,19.37 29.25,18.15 29.54,17.65 L29.57,17.65 Z M32.91,41.46 C32.3897071,42.2390279 31.9980429,43.0966375 31.75,44 C31.75,44 29.75,45 29.75,45.21 C29.75,45.42 31.54,45.59 31.58,45.84 C31.62,46.09 31.21,47.38 31.46,47.67 C31.71,47.96 32.67,46.8 32.88,46.67 C33.09,46.54 34.46,47.46 34.67,47.34 C34.88,47.22 34.3,45.8 34.3,45.63 C34.3,45.46 36.12,44.59 36,44.3 C35.88,44.01 34,44.01 33.88,43.93 C33.76,43.85 33.29,41.26 32.91,41.46 Z M47.91,22.79 C47.7,21.92 41.91,21.42 41.91,21.42 C41.91,21.42 39.91,17.21 38.7,17.3 C37.49,17.39 35,21.92 34.87,22.09 C34.87,22.09 29.54,23.47 29.54,24.38 C29.54,25.29 33.62,28 33.62,28 C33.62,28 33,34.46 34,35 C35,35.54 39.5,31.17 39.71,31.17 C39.92,31.17 45.59,34.46 45.88,34.17 C46.17,33.88 45.17,28.17 45.13,28.05 C45.09,27.93 48.12,23.67 47.91,22.8 L47.91,22.79 Z M43.29,30.79 C42.2570078,30.2030756 41.2556227,29.5621891 40.29,28.87 C40.3490004,28.6688043 40.3759968,28.4595824 40.37,28.25 C39.7819914,27.4579391 39.1115689,26.7305307 38.37,26.08 C38.2,26.08 37.7,26.41 37.87,26.54 C38.4549959,27.2297198 38.958334,27.984727 39.37,28.79 C39.29,28.92 35.66,32.29 35.45,32 C35.24,31.71 36.03,27.33 35.87,27 C35.71,26.67 32.87,24.92 32.58,24.67 C32.29,24.42 36,23.84 36.16,23.59 C36.32,23.34 38.41,20.05 38.66,20.09 C38.91,20.13 40.37,23.22 40.58,23.26 C40.79,23.3 45.58,23.68 45.58,23.93 C45.58,24.18 43.08,27.76 43.08,28.01 C43.2251625,28.9193724 43.2953985,29.8391302 43.29,30.76 L43.29,30.79 Z M11.2,22.42 C11.08,22.13 14.2,15.71 14.03,15.42 C13.86,15.13 11,11.26 11,11 C11,10.74 13.54,11.38 14.29,11.17 C15.04,10.96 15.67,9.75 15.96,9.17 C16.25,8.59 17.5,6 17.79,6 C18.08,6 19.33,10.75 19.79,11.08 C20.25,11.41 25.41,12.08 25.46,12.25 C25.51,12.42 21.2,16.8 21.16,17 C21.12,17.2 21.41,23.42 21.24,23.33 C21.07,23.24 17.87,20.33 16.7,20.25 C15.53,20.17 11.33,22.71 11.2,22.42 Z M4.58,7.71 C4.33,7.59 4.08,5.42 3.71,5.38 C3.34,5.34 2.71,7.38 2.71,7.38 C2.71,7.38 0.79,7.55 0.71,7.92 C0.63,8.29 2.42,9.13 2.42,9.25 C2.42,9.37 1.42,10.38 1.67,10.79 C1.92,11.2 3.38,10.33 3.55,10.33 C3.72,10.33 5.22,11.79 5.55,11.62 C5.88,11.45 5.09,9.62 5.05,9.5 C5.01,9.38 6.43,8.5 6.43,8.25 C6.43,8 4.83,7.84 4.58,7.71 Z" id="Shape" fill="#FEFF9B"></path>
                <path d="M16.58,10.8 C16.29,10.63 14.9,12.46 14.87,12.59 C14.84,12.72 15.37,13.09 15.54,13.09 C16.0434102,12.6169812 16.4897752,12.0867129 16.87,11.51 C17,11.26 16.87,11 16.58,10.8 Z M18.58,18.72 C18.71,18.72 18.79,18.55 18.87,18.35 C18.2412782,17.2971356 17.5325221,16.2941788 16.75,15.35 C16.63,15.6 16.08,15.64 16.13,15.89 C16.8727287,16.9035944 17.7061663,17.8474877 18.62,18.71 L18.58,18.72 Z M19.58,16.55 C19.1047292,15.6991032 18.5009526,14.9266739 17.79,14.26 C17.54,14.26 17.06,14.48 17.12,14.59 C17.29,14.88 19.33,17.09 19.33,17.09 C19.4828023,16.9399313 19.596161,16.7544351 19.66,16.55 L19.58,16.55 Z M20.21,15.05 C20.42,15.05 20.5,14.84 20.59,14.55 C20.68,14.26 19.72,13.01 19.51,12.93 C19.3,12.85 18.64,13.2 18.72,13.31 C18.8,13.42 20.08,15.09 20.29,15 L20.21,15.05 Z M18.75,38.8 C18.63,38.88 18.21,39.09 18.21,39.22 C18.672174,39.9245405 19.1869757,40.5931142 19.75,41.22 C19.88,41.3 20.04,41.01 20.08,40.76 C19.7889824,40.0153407 19.334469,39.3455316 18.75,38.8 Z M19.75,37.8 C19.63,37.88 19.21,38.09 19.21,38.22 C19.6722051,38.9245184 20.1870051,39.5930898 20.75,40.22 C20.88,40.3 21.04,40.01 21.08,39.76 C20.805927,39.0047803 20.3649769,38.3211368 19.79,37.76 L19.75,37.8 Z M3,36.17 C3.13,36.05 4.38,36.92 4.67,36.71 C4.96,36.5 4.46,35.25 4.46,35.13 C4.46,35.01 5.84,34.21 5.75,34.01 C5.66,33.81 3.96,33.64 3.96,33.64 C3.96,33.64 3.21,31.22 2.88,31.22 C2.55,31.22 1.88,33.22 1.88,33.39 C1.88,33.39 0.17,33.56 0.17,33.89 C0.17,34.22 1.63,34.64 1.63,34.81 C1.63,34.98 1.26,36.94 1.26,36.94 C1.4692866,37.0663358 1.69464944,37.1638809 1.93,37.23 C2.16,37.3 2.83,36.3 3,36.17 Z M12.63,2.38 C12.8,1.13 11.98,-0.2 10.55,0.09 C8.68,0.47 8.18,2.38 9.01,3.17 C9.84,3.96 12.41,3.63 12.58,2.38 L12.63,2.38 Z M10.54,1 C11.25,0.86 11.65,1.51 11.54,2.13 C11.43,2.75 10.16,2.91 9.75,2.52 C9.34,2.13 9.61,1.15 10.54,1 Z M35.33,11.13 C35.46,11.3 36.91,9.84 37.12,9.67 C37.33,9.5 38.7,10.3 38.95,10.13 C39.2,9.96 38.45,8.38 38.37,8.21 C38.29,8.04 39.5,7.08 39.5,6.79 C39.5,6.5 37.88,6.62 37.71,6.46 C37.54,6.3 36.71,3.92 36.29,3.96 C35.87,4 35.61,7.32 35.5,7.38 C35.13,7.59 33.21,8.63 33.29,8.88 C33.37,9.13 35,9.17 35.12,9.26 C35.24,9.35 35.2,11 35.33,11.13 Z M30.33,20.35 C30.9368555,20.3314161 31.4964454,20.0178178 31.8290779,19.5099059 C32.1617104,19.001994 32.2255138,18.3637042 32,17.8 C31.2,16.06 29.22,16.02 28.64,17.02 C28.06,18.02 29,20.48 30.3,20.35 L30.33,20.35 Z M29.57,17.65 C29.85,17.16 30.83,17.18 31.23,18.04 C31.3430437,18.3242139 31.3074434,18.6460252 31.1350112,18.8986584 C30.962579,19.1512917 30.6758652,19.301708 30.37,19.3 C29.72,19.37 29.25,18.15 29.54,17.65 L29.57,17.65 Z M47.23,2.65 C47.4,1.4 46.58,0.07 45.15,0.36 C43.28,0.74 42.78,2.65 43.61,3.44 C44.44,4.23 47,3.88 47.2,2.63 L47.23,2.65 Z M45.23,1.24 C45.94,1.1 46.34,1.75 46.23,2.37 C46.12,2.99 44.85,3.15 44.44,2.76 C44.03,2.37 44.24,1.4 45.16,1.22 L45.23,1.24 Z M32.91,41.46 C32.3897071,42.2390279 31.9980429,43.0966375 31.75,44 C31.75,44 29.75,45 29.75,45.21 C29.75,45.42 31.54,45.59 31.58,45.84 C31.62,46.09 31.21,47.38 31.46,47.67 C31.71,47.96 32.67,46.8 32.88,46.67 C33.09,46.54 34.46,47.46 34.67,47.34 C34.88,47.22 34.3,45.8 34.3,45.63 C34.3,45.46 36.12,44.59 36,44.3 C35.88,44.01 34,44.01 33.88,43.93 C33.76,43.85 33.29,41.26 32.91,41.46 Z M47.91,22.79 C47.7,21.92 41.91,21.42 41.91,21.42 C41.91,21.42 39.91,17.21 38.7,17.3 C37.49,17.39 35,21.92 34.87,22.09 C34.87,22.09 29.54,23.47 29.54,24.38 C29.54,25.29 33.62,28 33.62,28 C33.62,28 33,34.46 34,35 C35,35.54 39.5,31.17 39.71,31.17 C39.92,31.17 45.59,34.46 45.88,34.17 C46.17,33.88 45.17,28.17 45.13,28.05 C45.09,27.93 48.12,23.67 47.91,22.8 L47.91,22.79 Z M43.29,30.79 C42.2570078,30.2030756 41.2556227,29.5621891 40.29,28.87 C40.3490004,28.6688043 40.3759968,28.4595824 40.37,28.25 C39.7819914,27.4579391 39.1115689,26.7305307 38.37,26.08 C38.2,26.08 37.7,26.41 37.87,26.54 C38.4549959,27.2297198 38.958334,27.984727 39.37,28.79 C39.29,28.92 35.66,32.29 35.45,32 C35.24,31.71 36.03,27.33 35.87,27 C35.71,26.67 32.87,24.92 32.58,24.67 C32.29,24.42 36,23.84 36.16,23.59 C36.32,23.34 38.41,20.05 38.66,20.09 C38.91,20.13 40.37,23.22 40.58,23.26 C40.79,23.3 45.58,23.68 45.58,23.93 C45.58,24.18 43.08,27.76 43.08,28.01 C43.2251625,28.9193724 43.2953985,29.8391302 43.29,30.76 L43.29,30.79 Z M27.84,28.51 C25.93,28.64 25.19,30.51 25.92,31.37 C26.65,32.23 29.29,32.26 29.62,31.04 C29.8439923,30.4604574 29.7638164,29.8073419 29.4062989,29.299185 C29.0487814,28.7910281 28.4611405,28.4949432 27.84,28.51 Z M28.65,30.64 C28.49,31.24 27.18,31.24 26.82,30.8 C26.46,30.36 26.82,29.45 27.77,29.39 C28.0767956,29.3828895 28.3669377,29.5292182 28.5435937,29.78015 C28.7202497,30.0310818 28.7601582,30.353575 28.65,30.64 Z M22.83,25.92 C23.83,24.92 22.83,17.92 22.83,17.79 C22.83,17.66 28.37,11.79 27.83,10.96 C27.29,10.13 21.25,9.59 21.04,9.46 C20.83,9.33 19.17,2.83 18.04,2.83 C16.91,2.83 13.62,9.62 13.46,9.83 C13.46,9.83 8.46,9.12 7.92,9.96 C7.38,10.8 11.84,15.96 11.84,15.96 C11.84,15.96 8,23.3 9.08,24.59 C10.16,25.88 15.91,21.92 16.5,22.09 C17.09,22.26 21.79,26.88 22.83,25.92 Z M11.2,22.42 C11.08,22.13 14.2,15.71 14.03,15.42 C13.86,15.13 11,11.26 11,11 C11,10.74 13.54,11.38 14.29,11.17 C15.04,10.96 15.67,9.75 15.96,9.17 C16.25,8.59 17.5,6 17.79,6 C18.08,6 19.33,10.75 19.79,11.08 C20.25,11.41 25.41,12.08 25.46,12.25 C25.51,12.42 21.2,16.8 21.16,17 C21.12,17.2 21.41,23.42 21.24,23.33 C21.07,23.24 17.87,20.33 16.7,20.25 C15.53,20.17 11.33,22.71 11.2,22.42 Z M4.58,7.71 C4.33,7.59 4.08,5.42 3.71,5.38 C3.34,5.34 2.71,7.38 2.71,7.38 C2.71,7.38 0.79,7.55 0.71,7.92 C0.63,8.29 2.42,9.13 2.42,9.25 C2.42,9.37 1.42,10.38 1.67,10.79 C1.92,11.2 3.38,10.33 3.55,10.33 C3.72,10.33 5.22,11.79 5.55,11.62 C5.88,11.45 5.09,9.62 5.05,9.5 C5.01,9.38 6.43,8.5 6.43,8.25 C6.43,8 4.83,7.84 4.58,7.71 Z M26.37,36.88 C26.16,36.17 22.12,35.88 22.12,35.88 C22.12,35.88 20.91,31.26 19.7,31.34 C18.49,31.42 16.24,35.76 16.08,36.17 C16.08,36.17 11.66,35.88 11.33,36.71 C11,37.54 15.33,40.96 15.33,41.29 C15.33,41.62 13.25,46 14,46.84 C14.75,47.68 18.71,44.38 19.08,44.34 C19.45,44.3 24.08,46.42 24.83,45.76 C25.58,45.1 23.25,41.3 23.29,41 C23.33,40.7 26.58,37.59 26.37,36.88 Z M21.37,40.88 C21.7155983,41.6888433 21.9932247,42.5250674 22.2,43.38 C22.03,43.38 19.2,42.13 18.91,42.3 C18.2835615,42.6291054 17.6082733,42.8553269 16.91,42.97 C16.79,42.85 17.45,40.35 17.41,40.14 C17.37,39.93 15,38 15,37.84 C15,37.68 17,37.97 17.17,37.76 C17.34,37.55 19.17,34.18 19.38,34.22 C19.59,34.26 20.59,37.43 20.71,37.47 C20.83,37.51 23.5,37.72 23.54,38.01 C23.58,38.3 21.29,40.55 21.37,40.88 Z M2.49,44.88 C1.64,46.59 2.86,48.16 3.99,47.98 C5.12,47.8 6.46,45.52 5.57,44.63 C5.19184522,44.1397934 4.59456691,43.869877 3.97675291,43.9099948 C3.35893891,43.9501126 2.80158326,44.2950052 2.49,44.83 L2.49,44.88 Z M3.95,46.88 C3.39,46.97 2.79,46.19 3.21,45.35 C3.3606108,45.0840666 3.6334506,44.9102852 3.93812358,44.8862321 C4.24279657,44.8621789 4.5395256,44.9909944 4.73,45.23 C5.17,45.65 4.51,46.78 4,46.87 L3.95,46.88 Z M40.25,25.13 C40.08,25.05 39.54,25.46 39.54,25.46 C39.71,25.54 41.37,28.63 41.37,28.63 C41.37,28.63 41.91,28.46 42,28.21 C41.5494333,27.1133762 40.9613937,26.0784266 40.25,25.13 Z M41.63,24.84 C41.71,25.09 42.17,26.55 42.26,26.67 C42.35,26.79 42.68,26.42 42.84,26.3 C43,26.18 42.47,25.09 42.3,24.88 C42.13,24.67 41.54,24.6 41.62,24.84 L41.63,24.84 Z" id="Shape" fill="#1D1D1B"></path>
            </g>
            <g id="good-idea_15" transform="translate(33.024916, 90.643661) rotate(31.000000) translate(-33.024916, -90.643661) translate(14.024916, 58.143661)" fill-rule="nonzero">
                <path d="M33.651,36.277 C33.075,36.321 32.941,37.554 32.941,37.554 C32.941,37.554 33.564,37.686 34.274,37.906 C34.984,38.126 37.6281517,44.2830134 36.494,40.636 C35.3598483,36.9889866 32.1368818,34.2588946 31.4708818,36.9888946 C30.8048818,39.7188946 32.012,39.007 32.501,35.75 C32.988,32.492 32.544,28.662 32.011,23.29 C31.479,17.92 30.858,14.09 28.016,8.895 C25.176,3.7 22.554,-0.065 19.626,0.002 C10.078,0.222 5.327,19.637 4.44,24.7 C3.553,29.763 5.107,37.07 5.107,37.07 C5.107,37.07 4.13,36.94 3.819,37.07 C3.507,37.203 1.865,37.82 0.932,39.58 C-2.11608292e-13,41.34 -0.355,45.567 0.444,49.266 C1.244,52.964 3.064,54.769 4.794,56.442 C6.526,58.115 8.08,57.542 8.434,57.455 C8.79,57.367 8.79,56.839 8.257,55.65 C7.724,54.46 7.369,52.876 8.435,51.203 C9.501,49.53 11.72,49.353 11.72,49.353 L11.9,48.606 L12.21,48.562 C12.21,48.562 12.787,51.512 13.276,52.612 C13.764,53.712 16.029,53.669 16.029,53.669 C16.029,53.669 15.362,54.901 15.319,56.706 C15.274,58.511 15.806,58.951 17.271,60.14 C18.736,61.33 18.869,62.74 18.869,63.267 C18.869,63.795 19.889,64.103 20.245,63.971 C20.6,63.841 20.6,62.431 20.778,61.815 C20.955,61.199 21.708,60.495 23.396,57.941 C25.083,55.388 23.263,53.494 23.263,53.494 C23.263,53.494 25.393,53.406 25.838,52.702 C26.282,51.999 26.104,48.036 26.104,47.86 C26.104,47.684 27.702,47.244 27.702,47.244 C27.702,47.244 29.345,48.434 30.012,50.414 C30.677,52.394 29.832,55.081 29.832,55.477 C29.832,55.873 31.342,56.269 31.742,56.137 C32.142,56.005 34.495,53.363 36.27,49.753 C38.044,46.143 38.133,44.866 37.91,41.123 C37.691,37.378 34.228,36.233 33.651,36.277 Z" id="Shape" fill="#F0D0D0"></path>
                <path d="M37.913,41.12 C37.691,37.378 34.228,36.233 33.651,36.277 C33.075,36.321 32.941,37.554 32.941,37.554 C32.941,37.554 33.564,37.686 34.274,37.906 C34.984,38.126 35.694,38.654 36.494,40.636 C37.294,42.616 36.672,44.95 36.006,47.68 C35.34,50.41 31.611,54.46 31.478,54.46 C31.345,54.46 31.434,53.27 31.434,52.92 C31.434,52.57 31.256,50.85 30.634,48.825 C30.014,46.8 28.282,46.315 28.282,46.315 C28.282,46.315 29.038,45.127 29.615,44.467 C30.192,43.807 32.012,39.007 32.501,35.75 C32.988,32.492 32.544,28.662 32.011,23.29 C31.479,17.92 30.858,14.09 28.016,8.895 C25.176,3.7 22.554,-0.065 19.626,0.002 C10.078,0.222 5.327,19.637 4.44,24.7 C3.553,29.763 5.107,37.07 5.107,37.07 C5.107,37.07 4.13,36.94 3.819,37.07 C3.507,37.203 1.865,37.82 0.932,39.58 C-4.33652897e-13,41.34 -0.355,45.567 0.444,49.266 C1.244,52.964 3.064,54.769 4.794,56.442 C6.526,58.115 8.08,57.542 8.434,57.455 C8.79,57.367 8.79,56.839 8.257,55.65 C7.724,54.46 7.369,52.876 8.435,51.203 C9.501,49.53 11.72,49.353 11.72,49.353 L11.9,48.606 L12.21,48.562 C12.21,48.562 12.787,51.512 13.276,52.612 C13.764,53.712 16.029,53.669 16.029,53.669 C16.029,53.669 15.362,54.901 15.319,56.706 C15.274,58.511 15.806,58.951 17.271,60.14 C18.736,61.33 18.869,62.74 18.869,63.267 C18.869,63.795 19.889,64.103 20.245,63.971 C20.6,63.841 20.6,62.431 20.778,61.815 C20.955,61.199 21.708,60.495 23.396,57.941 C25.083,55.388 23.263,53.494 23.263,53.494 C23.263,53.494 25.393,53.406 25.838,52.702 C26.282,51.999 26.104,48.036 26.104,47.86 C26.104,47.684 27.702,47.244 27.702,47.244 C27.702,47.244 29.345,48.434 30.012,50.414 C30.677,52.394 29.832,55.081 29.832,55.477 C29.832,55.873 31.342,56.269 31.742,56.137 C32.142,56.005 34.495,53.363 36.27,49.753 C38.044,46.143 38.133,44.866 37.91,41.123 L37.913,41.12 Z M8.433,49.265 C7.857,49.573 7.635,49.661 7.635,49.661 C7.635,49.661 6.569,47.637 6.125,47.681 C5.682,47.725 5.195,48.297 5.371,48.429 C5.551,48.561 6.971,50.629 6.971,50.629 C6.971,50.629 6.215,51.555 6.304,52.919 C6.394,54.284 6.926,55.913 6.926,55.913 C6.926,55.913 6.526,56.485 4.796,54.503 C3.064,52.523 1.376,49.397 1.421,44.51 C1.465,39.622 3.685,37.245 5.551,38.61 C5.551,38.61 6.305,41.912 7.237,43.145 C8.169,44.378 8.257,44.73 8.257,44.73 C8.257,44.73 8.125,45.346 8.391,46.007 C8.657,46.667 10.034,48.384 10.034,48.384 C10.034,48.384 9.012,48.957 8.434,49.264 L8.433,49.265 Z M22.596,56.969 C21.708,58.201 20.332,59.699 20.021,60.182 L19.711,60.666 C19.711,60.666 18.511,59.126 17.758,58.641 C17.003,58.157 16.47,57.276 16.47,56.791 C16.47,56.308 16.824,54.371 17.135,53.841 C17.249,53.648 21.841,53.491 22.107,53.666 C22.374,53.843 23.484,55.736 22.597,56.968 L22.596,56.969 Z M23.973,51.069 C23.529,51.245 20.023,51.597 17.846,51.597 C15.669,51.597 15.671,51.729 15.449,51.509 C15.226,51.289 14.294,48.735 14.427,48.427 C14.427,48.427 16.337,48.867 19.355,48.603 C22.375,48.339 24.017,47.766 24.15,48.031 C24.283,48.296 24.416,50.893 23.973,51.069 Z M25.571,36.365 C25.571,36.365 24.951,36.541 24.951,36.893 C24.951,37.245 27.836,42.088 27.836,42.088 C27.836,42.088 27.348,43.408 26.948,43.848 C26.548,44.288 24.418,38.478 24.24,38.388 C24.06,38.301 23.573,38.741 23.53,38.918 C23.485,39.093 26.415,44.464 26.415,44.464 L26.06,45.212 C26.06,45.212 25.616,45.256 25.35,45.256 C25.084,45.256 23.44,41.074 23.397,40.853 C23.353,40.633 22.597,40.897 22.331,41.161 C22.065,41.425 24.285,45.608 24.285,45.608 C24.285,45.608 23.53,45.828 23.219,45.828 C22.909,45.828 21.665,42.438 21.665,42.306 C21.665,42.174 20.955,42.438 20.688,42.658 C20.422,42.878 22.02,46.048 22.02,46.048 C22.02,46.048 21.486,46.312 20.91,46.224 C20.332,46.136 19.8,43.406 19.71,43.186 C19.62,42.966 19.044,43.318 18.822,43.45 C18.6,43.582 19.888,46.4 19.888,46.4 C19.888,46.4 19.622,46.576 16.78,46.62 C13.94,46.664 12.074,46.356 12.074,46.356 C12.074,46.356 10.698,45.211 9.41,42.438 C8.123,39.664 6.657,35.702 6.79,28.482 C6.923,21.262 7.857,18.796 10.61,12.589 C13.36,6.384 17.134,2.554 19.22,2.42 C21.307,2.29 24.28,6.207 27.122,12.547 C29.962,18.887 29.742,24.83 29.742,24.83 L28.942,24.434 C28.942,24.434 28.498,24.918 28.454,25.094 C28.41,25.27 30.274,27.912 30.274,27.912 C30.274,27.912 30.318,30.906 30.23,31.17 C30.14,31.434 28.32,27.34 28.32,27.34 C28.32,27.34 27.833,27.648 27.877,28.176 C27.92,28.704 30.407,32.666 30.407,32.666 C30.407,32.666 30.317,35 30.185,35.486 C30.053,35.972 27.299,29.938 27.299,29.938 C27.299,29.938 26.677,30.334 26.633,30.642 C26.589,30.95 30.007,36.452 30.007,36.452 C30.007,36.452 29.697,37.906 29.563,38.214 C29.43,38.522 26.81,33.634 26.766,33.327 C26.721,33.019 26.01,33.283 25.876,33.723 C25.744,34.163 29.118,39.313 29.118,39.313 C29.118,39.313 28.496,40.987 28.318,41.163 C28.142,41.341 25.568,36.366 25.568,36.366 L25.571,36.365 Z M34.961,44.608 C35.427,44.078 35.261,43.154 35.128,41.965 C34.995,40.775 33.963,39.985 33.796,39.951 C33.796,39.951 33.096,40.413 33.03,40.611 C32.962,40.809 33.062,41.371 33.96,42.493 C34.86,43.616 34.294,44.969 34.294,44.969 C34.294,44.969 34.494,45.137 34.96,44.609 L34.961,44.608 Z M4.661,39.952 C4.095,39.985 3.329,40.777 3.229,41.372 C3.129,41.966 2.729,43.552 3.129,43.98 C3.529,44.41 3.629,44.08 3.795,43.914 C3.962,43.749 4.061,42.164 4.361,41.636 C4.661,41.108 4.761,41.339 5.193,41.009 C5.625,40.679 5.105,39.927 4.661,39.953 L4.661,39.952 Z M6.891,45.4 C6.393,45.63 6.126,45.895 6.159,46.16 C6.192,46.423 7.591,48.7 7.857,48.966 C8.123,49.23 8.49,48.966 8.857,48.504 C9.223,48.041 7.229,45.244 6.892,45.4 L6.891,45.4 Z M10.388,27.206 C10.521,26.81 9.356,26.579 9.188,26.876 C9.02,27.173 8.888,28.89 9.422,32.126 C9.956,35.362 11.022,37.77 11.322,37.904 C11.687,38.069 12.42,37.508 12.52,37.376 C12.62,37.244 11.82,35.89 11.088,33.81 C10.356,31.73 10.256,27.603 10.388,27.206 Z M15.716,8.881 C16.249,8.518 16.682,7.361 18.113,6.371 C19.544,5.381 19.811,6.537 20.078,6.701 C20.344,6.867 20.378,6.966 20.978,6.571 C21.576,6.174 21.11,5.348 20.211,4.721 C19.311,4.094 18.013,4.325 16.815,5.546 C15.617,6.767 14.496,8.29 14.45,8.52 C14.383,8.85 15.182,9.246 15.715,8.883 L15.716,8.881 Z M18.879,15.848 C19.479,15.418 18.743,14.636 18.179,14.692 C17.514,14.758 17.447,15.749 17.879,16.046 C18.313,16.343 18.279,16.276 18.879,15.848 Z M14.284,19.876 C14.784,19.909 15.449,19.678 15.384,18.918 C15.316,18.158 14.558,17.852 14.184,18.158 C13.219,18.952 13.784,19.843 14.284,19.876 Z M14.95,22.946 C14.383,22.616 13.79,23.016 13.784,23.343 C13.751,24.796 14.684,24.928 15.216,24.598 C15.748,24.268 15.516,23.278 14.949,22.948 L14.95,22.946 Z M24.54,22.946 C23.94,23.211 23.673,23.938 24.04,24.103 C24.406,24.268 24.84,24.235 25.14,23.773 C25.438,23.31 24.91,22.783 24.54,22.947 L24.54,22.946 Z M26.303,17.796 C24.838,14.066 21.945,12.921 19.078,12.976 C13.85,13.074 10.888,18.226 11.486,22.022 C12.084,25.818 13.316,27.272 16.181,28.792 C19.046,30.31 22.641,29.848 25.171,27.107 C27.701,24.366 27.769,21.527 26.304,17.795 L26.303,17.796 Z M25.703,21.626 C25.538,24.268 25.371,25.093 24.573,25.819 C23.773,26.546 22.973,26.909 22.973,26.909 C22.973,26.909 23.007,25.919 22.143,25.853 C21.276,25.787 21.01,26.546 21.21,26.943 C21.41,27.339 21.743,27.503 21.743,27.503 C21.743,27.503 21.243,28.131 20.311,28.23 C19.379,28.329 18.647,28.165 18.647,28.165 C18.647,28.165 19.38,27.868 19.413,27.24 C19.446,26.613 19.013,26.382 18.447,26.315 C17.881,26.249 17.515,27.041 17.714,27.372 C17.914,27.702 17.98,28.065 17.98,28.065 C17.98,28.065 16.048,27.207 15.016,26.415 C13.984,25.622 13.351,24.465 12.986,22.385 C12.619,20.305 12.952,18.425 13.916,17.202 C14.883,15.98 16.481,14.296 19.011,14.329 C20.911,14.353 21.709,14.394 23.008,15.781 C24.308,17.168 24.273,17.498 24.273,17.498 C24.273,17.498 23.84,17.002 23.341,17.464 L22.841,17.928 C22.841,17.928 21.476,16.442 18.911,16.838 C16.346,17.234 15.416,18.885 15.316,20.668 C15.216,22.451 15.383,23.938 16.648,24.828 C17.913,25.72 19.678,26.182 21.21,25.588 C22.74,24.993 23.573,24.002 23.84,22.648 C24.105,21.294 24.172,20.865 23.972,20.403 C23.772,19.941 23.472,19.213 23.472,19.213 C23.472,19.213 24.472,19.247 24.872,18.488 C24.872,18.488 25.87,18.985 25.704,21.626 L25.703,21.626 Z M22.341,22.551 C21.411,24.071 20.278,24.895 18.446,24.037 C16.616,23.177 15.249,20.965 17.946,18.324 C18.446,17.836 20.378,17.894 21.51,18.754 C22.64,19.611 23.273,21.031 22.34,22.55 L22.341,22.551 Z M20.178,22.188 C19.812,22.056 19.578,22.254 19.246,22.221 C18.913,22.188 18.913,21.825 18.846,21.594 C18.779,21.364 18.333,20.814 18.113,20.901 C17.347,21.198 17.413,22.123 18.046,22.816 C18.679,23.509 19.346,23.576 19.844,23.344 C20.342,23.112 20.544,22.32 20.178,22.188 Z" id="Shape" fill="#000000"></path>
            </g>
            <g id="moon-waning-gibbous" transform="translate(150.000000, 48.000000)" fill-rule="nonzero">
                <path d="M38.27753,41.0965307 C38.1007873,41.5208497 37.8202502,41.8949145 37.4612098,42.1850019 C37.4612098,42.1850019 37.3402735,41.4060959 36.2014564,41.5658715 C35.3060851,41.6778991 34.5153564,42.1990046 34.0649147,42.973894 C33.9036663,43.4132769 34.7300645,45.1308646 34.4075676,45.5303036 C33.374763,46.861644 31.9420488,47.8337045 30.3158886,48.3064046 C28.3573633,48.5891401 26.3729649,48.6527844 24.4000867,48.4961382 C23.5535324,48.4062644 22.7976804,48.3763065 22.7976804,48.3763065 C22.0903427,46.8941842 21.1890005,45.5108719 20.1169251,44.2620847 C18.9982641,43.3134171 17.2648435,43.4831787 16.4787574,43.4831787 C15.4560061,43.6122805 14.4258943,43.6756575 13.394881,43.6729122 C10.4130914,41.1205253 8.00907271,37.9728024 6.34026206,34.4358853 C3.96400855,29.7164664 3.42583389,24.2949999 4.82855799,19.2072734 C6.24955981,14.0545103 10.9660765,9.22129838 14.4026838,6.66488877 C18.2633107,4.19351453 22.5248316,2.39975561 27.0002177,1.36233604 C27.1917002,1.36233604 30.4368249,4.63773584 31.222911,5.10707667 C32.0089972,5.5764175 32.2307138,5.88598272 32.2307138,6.48514122 C32.0442161,7.4723126 31.979914,8.47833628 32.0392312,9.48093373 C32.0890269,9.86377454 32.1733477,10.2414234 32.2911819,10.6093489 C31.6866639,11.2282287 31.3471964,12.0548323 31.3438474,12.9161091 C31.3438474,14.4140054 31.6865003,15.2228694 32.7346151,15.352687 C33.5597579,15.3940537 34.3559478,15.0458929 34.8812349,14.4140054 C35.1951926,14.0710504 35.4321985,13.6660347 35.5766188,13.2256744 C35.5766188,13.2256744 37.148791,14.3540895 37.2798053,15.1030377 C37.4108197,15.8519858 36.4634851,19.5368106 37.2798053,20.2258429 C38.0961255,20.9148751 40.7466467,22.971986 40.8071148,23.750892 C40.7807657,24.5420753 40.6555146,25.3269689 40.4342278,26.0876102 C39.4974435,26.1233452 38.6334411,26.5977269 38.1062036,27.365815 C37.3215229,28.4312162 36.8726718,29.7029272 36.8162161,31.0206819 C36.8162161,31.9294056 36.5340313,32.8281433 37.3503515,34.0164744 C38.1666717,35.2048054 38.5496368,35.2946792 38.8922897,35.4844127 C39.2349426,35.6741462 39.738844,35.8938377 39.738844,35.8938377 C39.104125,36.6406737 38.5438611,37.4466393 38.0658915,38.3004577 C37.9550332,38.6899107 38.4589345,40.4873862 38.267452,41.0965307 L38.27753,41.0965307 Z" id="Shape" fill="#FEFFBD"></path>
                <path d="M19.1045718,13.8148469 C13.9446219,14.563795 12.3926057,18.6181009 13.4407206,21.3043282 C14.413768,24.0506356 17.2168606,25.7263456 20.1224525,25.2987182 C21.6287277,25.092867 22.9746213,24.2595118 23.8216124,23.0082593 C24.6686035,21.7570068 24.9360868,20.2069344 24.5567845,18.7479186 C23.7303863,15.5224486 21.6240786,13.4553518 19.1045718,13.8148469 Z M20.1728427,23.4313408 C18.5704364,23.6809902 16.2021,23.4313408 15.4160139,21.0247209 C14.6299278,18.6181009 15.4160139,15.6922102 19.0743377,15.4725187 C20.5255736,15.382645 22.3496965,16.1915089 22.8233638,18.9076942 C23.2970311,21.6238794 21.785327,23.1816915 20.1728427,23.4313408 Z M6.47680381,20.5154361 C6.69852041,20.3956044 6.69852041,19.2671893 7.70632312,16.990387 C8.31577462,15.5887051 9.25584448,14.3524349 10.4475465,13.38545 C10.4475465,13.38545 9.95372317,12.5666 9.72192855,12.6365018 C8.71412583,12.9161091 8.01874196,14.4140054 6.85976884,16.4112004 C6.13220767,17.6296506 5.69127773,18.9949709 5.56978137,20.4055904 C5.58993742,20.5154361 6.25508721,20.5953239 6.47680381,20.5154361 Z M9.75216263,29.1932484 C9.81263079,28.1946509 9.20794916,26.6368388 7.67608904,27.1061797 C4.81392933,27.9849455 5.88220021,30.2317898 7.17218768,30.7910044 C7.73838202,31.0049916 8.37355173,30.9392586 8.88290282,30.6139645 C9.39225391,30.2886704 9.71500051,29.7426358 9.75216263,29.1433186 L9.75216263,29.1932484 Z M8.74435991,29.0734167 C8.7171761,29.3782612 8.53696312,29.6490736 8.26489656,29.7939234 C7.99283001,29.9387732 7.66545542,29.9382032 7.39390428,29.7924069 C6.7690666,29.5127996 6.38610157,28.7938094 7.67608904,28.0149034 C8.24045856,27.6454223 8.93584243,28.2945107 8.774594,29.0135009 L8.74435991,29.0734167 Z M40.0769463,30.95078 C39.5916681,30.5194184 39.3073028,29.9089211 39.2908601,29.2631503 C39.3815624,28.6739777 40.9940467,25.0191109 40.3893651,23.0818317 C39.7846835,21.1445526 38.8171929,21.0846367 37.4264251,20.0860392 C36.0356574,19.0874417 37.0535381,16.181523 37.0535381,14.7535285 C37.0535381,13.3255341 34.6348116,11.5280586 32.8006107,10.4196154 C30.9664097,9.31117216 32.0447586,7.1741735 31.792808,5.67627725 C31.5408573,4.17838099 28.456981,2.15122806 27.5801926,1.54208359 C26.7034043,0.93293911 25.5645872,-0.135560217 24.7785011,0.014229408 C21.9364974,0.543486084 14.2570408,2.74040059 10.628951,5.76615102 C7.00086122,8.79190146 2.87894812,13.4453658 1.30677589,18.158746 C-0.26539634,22.8721262 -0.708829533,27.0862077 1.61919473,33.9166146 C3.947219,40.7470215 8.67381372,45.2806542 15.1338291,48.7358016 C19.348212,50.8978812 24.1912966,51.5370214 28.829868,50.543263 C29.5554859,50.3834874 29.7469685,49.9840484 31.7323398,48.3563345 C33.7177111,46.7286206 37.4365032,43.363347 37.9706386,42.3048336 C38.3815752,41.1753813 38.3815752,39.9391947 37.9706386,38.8097424 C37.6884538,38.1906119 39.1396897,36.8724632 40.4296772,34.9052261 C41.2976768,33.6609467 41.1629106,31.9834096 40.1071803,30.8908642 L40.0769463,30.95078 Z M30.8555514,11.7277781 C31.3830931,12.0086651 31.8796064,12.3433441 32.3370214,12.7263756 C32.2051154,13.1963751 31.9555212,13.6257405 31.6114035,13.9746225 C31.1679703,14.2841877 30.6036008,14.6336968 30.2911819,14.1943139 C29.9787631,13.754931 30.2206357,11.8176519 30.8555514,11.7277781 Z M19.5177709,48.3064046 C18.0998207,48.1655542 16.749391,47.6365399 15.6175744,46.7785505 C13.7934515,45.5303036 13.0980676,44.971089 13.1887699,44.7813554 C14.4725599,44.2261846 15.9460788,44.3077107 17.1595126,45.0010469 C18.5099682,46.0595602 19.8906579,48.2365028 19.5177709,48.3064046 Z M34.8262941,42.5944269 C34.5401305,43.1301532 34.1806416,43.6241361 33.7580232,44.0623652 C33.4456044,44.3419725 33.284356,44.7214396 33.1634196,44.5017481 C32.9669381,44.0144242 32.9455879,43.4749674 33.1029515,42.973894 C33.4728975,42.5330196 34.0385256,42.3013621 34.6146556,42.3547635 C34.7557479,42.4845812 34.8867623,42.3747355 34.8162161,42.5944269 L34.8262941,42.5944269 Z M36.27753,41.0965307 C36.1007873,41.5208497 35.8202502,41.8949145 35.4612098,42.1850019 C35.4612098,42.1850019 35.3402735,41.4060959 34.2014564,41.5658715 C33.3060851,41.6778991 32.5153564,42.1990046 32.0649147,42.973894 C31.9036663,43.4132769 32.7300645,45.1308646 32.4075676,45.5303036 C31.374763,46.861644 29.9420488,47.8337045 28.3158886,48.3064046 C26.3573633,48.5891401 24.3729649,48.6527844 22.4000867,48.4961382 C21.5535324,48.4062644 20.7976804,48.3763065 20.7976804,48.3763065 C20.0903427,46.8941842 19.1890005,45.5108719 18.1169251,44.2620847 C16.9982641,43.3134171 15.2648435,43.4831787 14.4787574,43.4831787 C13.4560061,43.6122805 12.4258943,43.6756575 11.394881,43.6729122 C8.41309141,41.1205253 6.00907271,37.9728024 4.34026206,34.4358853 C1.96400855,29.7164664 1.42583389,24.2949999 2.82855799,19.2072734 C4.24955981,14.0545103 8.96607651,9.22129838 12.4026838,6.66488877 C16.2633107,4.19351453 20.5248316,2.39975561 25.0002177,1.36233604 C25.1917002,1.36233604 28.4368249,4.63773584 29.222911,5.10707667 C30.0089972,5.5764175 30.2307138,5.88598272 30.2307138,6.48514122 C30.0442161,7.4723126 29.979914,8.47833628 30.0392312,9.48093373 C30.0890269,9.86377454 30.1733477,10.2414234 30.2911819,10.6093489 C29.6866639,11.2282287 29.3471964,12.0548323 29.3438474,12.9161091 C29.3438474,14.4140054 29.6865003,15.2228694 30.7346151,15.352687 C31.5597579,15.3940537 32.3559478,15.0458929 32.8812349,14.4140054 C33.1951926,14.0710504 33.4321985,13.6660347 33.5766188,13.2256744 C33.5766188,13.2256744 35.148791,14.3540895 35.2798053,15.1030377 C35.4108197,15.8519858 34.4634851,19.5368106 35.2798053,20.2258429 C36.0961255,20.9148751 38.7466467,22.971986 38.8071148,23.750892 C38.7807657,24.5420753 38.6555146,25.3269689 38.4342278,26.0876102 C37.4974435,26.1233452 36.6334411,26.5977269 36.1062036,27.365815 C35.3215229,28.4312162 34.8726718,29.7029272 34.8162161,31.0206819 C34.8162161,31.9294056 34.5340313,32.8281433 35.3503515,34.0164744 C36.1666717,35.2048054 36.5496368,35.2946792 36.8922897,35.4844127 C37.2349426,35.6741462 37.738844,35.8938377 37.738844,35.8938377 C37.104125,36.6406737 36.5438611,37.4466393 36.0658915,38.3004577 C35.9550332,38.6899107 36.4589345,40.4873862 36.267452,41.0965307 L36.27753,41.0965307 Z M38.8272709,34.1962219 C38.6055543,34.6056469 38.5148521,35.0050859 38.2629014,35.0050859 C37.1804002,34.8309169 36.2779582,34.0895723 35.904643,33.0678067 C35.4309758,31.5399526 35.3402735,28.5441601 37.7287659,27.0163059 C37.9404045,26.8765022 38.1721991,27.2959132 38.0411848,27.6753802 C37.9101704,28.0548473 37.0938502,28.953585 37.4465812,30.0120984 C37.7993121,31.0706117 38.7970368,31.9194196 38.8978171,32.7582415 C38.9985974,33.5970634 39.0389095,33.7867969 38.8171929,34.1962219 L38.8272709,34.1962219 Z M13.0980676,34.6955207 C13.601742,35.7593872 14.2237135,36.7642085 14.9524246,37.6913132 C15.1136731,37.781187 15.1136731,37.6913132 15.2950775,37.4716217 C15.476482,37.2519303 13.974856,34.4758292 13.7229053,34.2860957 C13.7229053,34.2860957 13.1786919,34.4958012 13.0879896,34.6955207 L13.0980676,34.6955207 Z M11.8383142,35.2846932 C11.5850135,35.2519294 11.3281526,35.3084882 11.1126963,35.4444688 C11.7378309,36.7948307 12.4761121,38.0908884 13.3197842,39.3190271 C13.4104865,39.4089009 13.601969,39.1592515 13.7632174,39.0094619 C13.2714701,37.6954049 12.6217988,36.4448112 11.8282362,35.2846932 L11.8383142,35.2846932 Z M8.97615454,36.0935572 C9.71112179,37.4407619 10.575087,38.7148406 11.5561295,39.8982137 C11.8080802,40.0280313 11.8383142,39.778382 11.8987824,39.6186064 C11.4081589,38.3372578 10.8185254,37.0953137 10.1351277,35.9038236 C9.97387922,35.7839919 8.96607651,35.8938377 8.96607651,36.1035431 L8.97615454,36.0935572 Z" id="Shape" fill="#1D1D1B"></path>
            </g>
            <g id="stars" transform="translate(101.000000, 0.000000)" fill-rule="nonzero">
                <path d="M45.23,1.24 C45.94,1.1 46.34,1.75 46.23,2.37 C46.12,2.99 44.85,3.15 44.44,2.76 C44.03,2.37 44.24,1.4 45.16,1.22 L45.23,1.24 Z M32.91,41.46 C32.3897071,42.2390279 31.9980429,43.0966375 31.75,44 C31.75,44 29.75,45 29.75,45.21 C29.75,45.42 31.54,45.59 31.58,45.84 C31.62,46.09 31.21,47.38 31.46,47.67 C31.71,47.96 32.67,46.8 32.88,46.67 C33.09,46.54 34.46,47.46 34.67,47.34 C34.88,47.22 34.3,45.8 34.3,45.63 C34.3,45.46 36.12,44.59 36,44.3 C35.88,44.01 34,44.01 33.88,43.93 C33.76,43.85 33.29,41.26 32.91,41.46 Z M28.65,30.64 C28.49,31.24 27.18,31.24 26.82,30.8 C26.46,30.36 26.82,29.45 27.77,29.39 C28.0767956,29.3828895 28.3669377,29.5292182 28.5435937,29.78015 C28.7202497,30.0310818 28.7601582,30.353575 28.65,30.64 Z M11.2,22.42 C11.08,22.13 14.2,15.71 14.03,15.42 C13.86,15.13 11,11.26 11,11 C11,10.74 13.54,11.38 14.29,11.17 C15.04,10.96 15.67,9.75 15.96,9.17 C16.25,8.59 17.5,6 17.79,6 C18.08,6 19.33,10.75 19.79,11.08 C20.25,11.41 25.41,12.08 25.46,12.25 C25.51,12.42 21.2,16.8 21.16,17 C21.12,17.2 21.41,23.42 21.24,23.33 C21.07,23.24 17.87,20.33 16.7,20.25 C15.53,20.17 11.33,22.71 11.2,22.42 Z M2.49,44.88 C1.64,46.59 2.86,48.16 3.99,47.98 C5.12,47.8 6.46,45.52 5.57,44.63 C5.19184522,44.1397934 4.59456691,43.869877 3.97675291,43.9099948 C3.35893891,43.9501126 2.80158326,44.2950052 2.49,44.83 L2.49,44.88 Z M3.95,46.88 C3.39,46.97 2.79,46.19 3.21,45.35 C3.3606108,45.0840666 3.6334506,44.9102852 3.93812358,44.8862321 C4.24279657,44.8621789 4.5395256,44.9909944 4.73,45.23 C5.17,45.65 4.51,46.78 4,46.87 L3.95,46.88 Z M40.25,25.13 C40.08,25.05 39.54,25.46 39.54,25.46 C39.71,25.54 41.37,28.63 41.37,28.63 C41.37,28.63 41.91,28.46 42,28.21 C41.5494333,27.1133762 40.9613937,26.0784266 40.25,25.13 Z M43.29,30.79 C42.2570078,30.2030756 41.2556227,29.5621891 40.29,28.87 C40.3490004,28.6688043 40.3759968,28.4595824 40.37,28.25 C39.7819914,27.4579391 39.1115689,26.7305307 38.37,26.08 C38.2,26.08 37.7,26.41 37.87,26.54 C38.4549959,27.2297198 38.958334,27.984727 39.37,28.79 C39.29,28.92 35.66,32.29 35.45,32 C35.24,31.71 36.03,27.33 35.87,27 C35.71,26.67 32.87,24.92 32.58,24.67 C32.29,24.42 36,23.84 36.16,23.59 C36.32,23.34 38.41,20.05 38.66,20.09 C38.91,20.13 40.37,23.22 40.58,23.26 C40.79,23.3 45.58,23.68 45.58,23.93 C45.58,24.18 43.08,27.76 43.08,28.01 C43.2251625,28.9193724 43.2953985,29.8391302 43.29,30.76 L43.29,30.79 Z" id="Shape" fill="#FEFF9B"></path>
                <path d="M16.58,10.8 C16.29,10.63 14.9,12.46 14.87,12.59 C14.84,12.72 15.37,13.09 15.54,13.09 C16.0434102,12.6169812 16.4897752,12.0867129 16.87,11.51 C17,11.26 16.87,11 16.58,10.8 Z M18.58,18.72 C18.71,18.72 18.79,18.55 18.87,18.35 C18.2412782,17.2971356 17.5325221,16.2941788 16.75,15.35 C16.63,15.6 16.08,15.64 16.13,15.89 C16.8727287,16.9035944 17.7061663,17.8474877 18.62,18.71 L18.58,18.72 Z M19.58,16.55 C19.1047292,15.6991032 18.5009526,14.9266739 17.79,14.26 C17.54,14.26 17.06,14.48 17.12,14.59 C17.29,14.88 19.33,17.09 19.33,17.09 C19.4828023,16.9399313 19.596161,16.7544351 19.66,16.55 L19.58,16.55 Z M20.21,15.05 C20.42,15.05 20.5,14.84 20.59,14.55 C20.68,14.26 19.72,13.01 19.51,12.93 C19.3,12.85 18.64,13.2 18.72,13.31 C18.8,13.42 20.08,15.09 20.29,15 L20.21,15.05 Z M18.75,38.8 C18.63,38.88 18.21,39.09 18.21,39.22 C18.672174,39.9245405 19.1869757,40.5931142 19.75,41.22 C19.88,41.3 20.04,41.01 20.08,40.76 C19.7889824,40.0153407 19.334469,39.3455316 18.75,38.8 Z M19.75,37.8 C19.63,37.88 19.21,38.09 19.21,38.22 C19.6722051,38.9245184 20.1870051,39.5930898 20.75,40.22 C20.88,40.3 21.04,40.01 21.08,39.76 C20.805927,39.0047803 20.3649769,38.3211368 19.79,37.76 L19.75,37.8 Z M3,36.17 C3.13,36.05 4.38,36.92 4.67,36.71 C4.96,36.5 4.46,35.25 4.46,35.13 C4.46,35.01 5.84,34.21 5.75,34.01 C5.66,33.81 3.96,33.64 3.96,33.64 C3.96,33.64 3.21,31.22 2.88,31.22 C2.55,31.22 1.88,33.22 1.88,33.39 C1.88,33.39 0.17,33.56 0.17,33.89 C0.17,34.22 1.63,34.64 1.63,34.81 C1.63,34.98 1.26,36.94 1.26,36.94 C1.4692866,37.0663358 1.69464944,37.1638809 1.93,37.23 C2.16,37.3 2.83,36.3 3,36.17 Z M12.63,2.38 C12.8,1.13 11.98,-0.2 10.55,0.09 C8.68,0.47 8.18,2.38 9.01,3.17 C9.84,3.96 12.41,3.63 12.58,2.38 L12.63,2.38 Z M10.54,1 C11.25,0.86 11.65,1.51 11.54,2.13 C11.43,2.75 10.16,2.91 9.75,2.52 C9.34,2.13 9.61,1.15 10.54,1 Z M35.33,11.13 C35.46,11.3 36.91,9.84 37.12,9.67 C37.33,9.5 38.7,10.3 38.95,10.13 C39.2,9.96 38.45,8.38 38.37,8.21 C38.29,8.04 39.5,7.08 39.5,6.79 C39.5,6.5 37.88,6.62 37.71,6.46 C37.54,6.3 36.71,3.92 36.29,3.96 C35.87,4 35.61,7.32 35.5,7.38 C35.13,7.59 33.21,8.63 33.29,8.88 C33.37,9.13 35,9.17 35.12,9.26 C35.24,9.35 35.2,11 35.33,11.13 Z M30.33,20.35 C30.9368555,20.3314161 31.4964454,20.0178178 31.8290779,19.5099059 C32.1617104,19.001994 32.2255138,18.3637042 32,17.8 C31.2,16.06 29.22,16.02 28.64,17.02 C28.06,18.02 29,20.48 30.3,20.35 L30.33,20.35 Z M29.57,17.65 C29.85,17.16 30.83,17.18 31.23,18.04 C31.3430437,18.3242139 31.3074434,18.6460252 31.1350112,18.8986584 C30.962579,19.1512917 30.6758652,19.301708 30.37,19.3 C29.72,19.37 29.25,18.15 29.54,17.65 L29.57,17.65 Z M47.23,2.65 C47.4,1.4 46.58,0.07 45.15,0.36 C43.28,0.74 42.78,2.65 43.61,3.44 C44.44,4.23 47,3.88 47.2,2.63 L47.23,2.65 Z M45.23,1.24 C45.94,1.1 46.34,1.75 46.23,2.37 C46.12,2.99 44.85,3.15 44.44,2.76 C44.03,2.37 44.24,1.4 45.16,1.22 L45.23,1.24 Z M32.91,41.46 C32.3897071,42.2390279 31.9980429,43.0966375 31.75,44 C31.75,44 29.75,45 29.75,45.21 C29.75,45.42 31.54,45.59 31.58,45.84 C31.62,46.09 31.21,47.38 31.46,47.67 C31.71,47.96 32.67,46.8 32.88,46.67 C33.09,46.54 34.46,47.46 34.67,47.34 C34.88,47.22 34.3,45.8 34.3,45.63 C34.3,45.46 36.12,44.59 36,44.3 C35.88,44.01 34,44.01 33.88,43.93 C33.76,43.85 33.29,41.26 32.91,41.46 Z M47.91,22.79 C47.7,21.92 41.91,21.42 41.91,21.42 C41.91,21.42 39.91,17.21 38.7,17.3 C37.49,17.39 35,21.92 34.87,22.09 C34.87,22.09 29.54,23.47 29.54,24.38 C29.54,25.29 33.62,28 33.62,28 C33.62,28 33,34.46 34,35 C35,35.54 39.5,31.17 39.71,31.17 C39.92,31.17 45.59,34.46 45.88,34.17 C46.17,33.88 45.17,28.17 45.13,28.05 C45.09,27.93 48.12,23.67 47.91,22.8 L47.91,22.79 Z M27.84,28.51 C25.93,28.64 25.19,30.51 25.92,31.37 C26.65,32.23 29.29,32.26 29.62,31.04 C29.8439923,30.4604574 29.7638164,29.8073419 29.4062989,29.299185 C29.0487814,28.7910281 28.4611405,28.4949432 27.84,28.51 Z M28.65,30.64 C28.49,31.24 27.18,31.24 26.82,30.8 C26.46,30.36 26.82,29.45 27.77,29.39 C28.0767956,29.3828895 28.3669377,29.5292182 28.5435937,29.78015 C28.7202497,30.0310818 28.7601582,30.353575 28.65,30.64 Z M22.83,25.92 C23.83,24.92 22.83,17.92 22.83,17.79 C22.83,17.66 28.37,11.79 27.83,10.96 C27.29,10.13 21.25,9.59 21.04,9.46 C20.83,9.33 19.17,2.83 18.04,2.83 C16.91,2.83 13.62,9.62 13.46,9.83 C13.46,9.83 8.46,9.12 7.92,9.96 C7.38,10.8 11.84,15.96 11.84,15.96 C11.84,15.96 8,23.3 9.08,24.59 C10.16,25.88 15.91,21.92 16.5,22.09 C17.09,22.26 21.79,26.88 22.83,25.92 Z M11.2,22.42 C11.08,22.13 14.2,15.71 14.03,15.42 C13.86,15.13 11,11.26 11,11 C11,10.74 13.54,11.38 14.29,11.17 C15.04,10.96 15.67,9.75 15.96,9.17 C16.25,8.59 17.5,6 17.79,6 C18.08,6 19.33,10.75 19.79,11.08 C20.25,11.41 25.41,12.08 25.46,12.25 C25.51,12.42 21.2,16.8 21.16,17 C21.12,17.2 21.41,23.42 21.24,23.33 C21.07,23.24 17.87,20.33 16.7,20.25 C15.53,20.17 11.33,22.71 11.2,22.42 Z M4.58,7.71 C4.33,7.59 4.08,5.42 3.71,5.38 C3.34,5.34 2.71,7.38 2.71,7.38 C2.71,7.38 0.79,7.55 0.71,7.92 C0.63,8.29 2.42,9.13 2.42,9.25 C2.42,9.37 1.42,10.38 1.67,10.79 C1.92,11.2 3.38,10.33 3.55,10.33 C3.72,10.33 5.22,11.79 5.55,11.62 C5.88,11.45 5.09,9.62 5.05,9.5 C5.01,9.38 6.43,8.5 6.43,8.25 C6.43,8 4.83,7.84 4.58,7.71 Z M26.37,36.88 C26.16,36.17 22.12,35.88 22.12,35.88 C22.12,35.88 20.91,31.26 19.7,31.34 C18.49,31.42 16.24,35.76 16.08,36.17 C16.08,36.17 11.66,35.88 11.33,36.71 C11,37.54 15.33,40.96 15.33,41.29 C15.33,41.62 13.25,46 14,46.84 C14.75,47.68 18.71,44.38 19.08,44.34 C19.45,44.3 24.08,46.42 24.83,45.76 C25.58,45.1 23.25,41.3 23.29,41 C23.33,40.7 26.58,37.59 26.37,36.88 Z M21.37,40.88 C21.7155983,41.6888433 21.9932247,42.5250674 22.2,43.38 C22.03,43.38 19.2,42.13 18.91,42.3 C18.2835615,42.6291054 17.6082733,42.8553269 16.91,42.97 C16.79,42.85 17.45,40.35 17.41,40.14 C17.37,39.93 15,38 15,37.84 C15,37.68 17,37.97 17.17,37.76 C17.34,37.55 19.17,34.18 19.38,34.22 C19.59,34.26 20.59,37.43 20.71,37.47 C20.83,37.51 23.5,37.72 23.54,38.01 C23.58,38.3 21.29,40.55 21.37,40.88 Z M2.49,44.88 C1.64,46.59 2.86,48.16 3.99,47.98 C5.12,47.8 6.46,45.52 5.57,44.63 C5.19184522,44.1397934 4.59456691,43.869877 3.97675291,43.9099948 C3.35893891,43.9501126 2.80158326,44.2950052 2.49,44.83 L2.49,44.88 Z M3.95,46.88 C3.39,46.97 2.79,46.19 3.21,45.35 C3.3606108,45.0840666 3.6334506,44.9102852 3.93812358,44.8862321 C4.24279657,44.8621789 4.5395256,44.9909944 4.73,45.23 C5.17,45.65 4.51,46.78 4,46.87 L3.95,46.88 Z M40.25,25.13 C40.08,25.05 39.54,25.46 39.54,25.46 C39.71,25.54 41.37,28.63 41.37,28.63 C41.37,28.63 41.91,28.46 42,28.21 C41.5494333,27.1133762 40.9613937,26.0784266 40.25,25.13 Z M43.29,30.79 C42.2570078,30.2030756 41.2556227,29.5621891 40.29,28.87 C40.3490004,28.6688043 40.3759968,28.4595824 40.37,28.25 C39.7819914,27.4579391 39.1115689,26.7305307 38.37,26.08 C38.2,26.08 37.7,26.41 37.87,26.54 C38.4549959,27.2297198 38.958334,27.984727 39.37,28.79 C39.29,28.92 35.66,32.29 35.45,32 C35.24,31.71 36.03,27.33 35.87,27 C35.71,26.67 32.87,24.92 32.58,24.67 C32.29,24.42 36,23.84 36.16,23.59 C36.32,23.34 38.41,20.05 38.66,20.09 C38.91,20.13 40.37,23.22 40.58,23.26 C40.79,23.3 45.58,23.68 45.58,23.93 C45.58,24.18 43.08,27.76 43.08,28.01 C43.2251625,28.9193724 43.2953985,29.8391302 43.29,30.76 L43.29,30.79 Z" id="Shape" fill="#1D1D1B"></path>
            </g>
            <g id="atom" transform="translate(236.000000, 71.000000)">
                <path d="M35.93,14.61 C36.14,14.69 36.56,14.03 36.56,13.86 C36.56,13.69 35.64,13.15 35.44,12.4 C35.24,11.65 36.02,11.19 36.15,11.07 C36.28,10.95 35.55,10.45 35.44,10.53 C34.8468179,10.9705696 34.5039173,11.6712796 34.52,12.41 C34.6978731,13.2940462 35.2010495,14.0791443 35.93,14.61 Z M26.59,25.86 C25.8679056,25.9257477 25.2053458,26.2878022 24.76,26.86 C24.3802089,27.457856 24.1789907,28.1517119 24.18,28.86 C24.410276,29.0210858 24.6901312,29.0954777 24.97,29.07 C25.18,29.07 25.1,27.99 25.6,27.49 C26.1,26.99 26.85,26.87 26.93,26.74 C27.01,26.61 26.89,25.83 26.59,25.86 Z M25.59,23.53 C22.42,25.11 21.59,27.28 21.67,30.82 C21.75,34.36 30.5,36.7 32.67,30.61 C35.17,23.49 27.55,22.52 25.55,23.52 L25.59,23.53 Z M29.76,28.2 C29.89,28.33 31.26,29.37 31.26,29.62 C31.1608874,30.02349 31.0201321,30.4155939 30.84,30.79 C30.2165429,30.0814804 29.5485196,29.4134571 28.84,28.79 C28.67,28.79 28.22,29.25 28.22,29.25 L30.43,31.54 L29.72,32.04 C29.72,32.04 27.51,29.5 27.39,29.5 C27.27,29.5 26.81,29.67 26.89,29.83 C27.6471649,30.6831052 28.3517965,31.5814269 29,32.52 C28.8203699,32.6419382 28.6253286,32.7394588 28.42,32.81 C28.42,32.81 26.21,30.39 26.09,30.39 C25.97,30.39 25.3,30.72 25.42,30.89 C25.54,31.06 27.22,33 27.22,33 C25.9044598,32.8775095 24.6986531,32.214859 23.89,31.17 C22.68,29.46 23.02,26.46 26.27,24.88 C27.53,24.27 29.48,25.13 30.39,25.76 C31.3,26.39 31.39,28.64 31.39,28.64 C31.39,28.64 30.27,27.56 30.1,27.64 C29.93,27.72 29.59,28.07 29.72,28.19 L29.76,28.2 Z M55,15.15 C56.21,10.23 54.54,8.36 50,8.28 C47.0289442,8.33296119 44.1192244,9.13433791 41.54,10.61 C41.54,10.61 41.62,10.74 40.25,9.07 C39.2474194,8.03984101 37.8566481,7.4806275 36.42,7.53 C36.428907,6.17448907 36.131506,4.83447538 35.55,3.61 C34.55,1.32 28.55,-1.39 24.63,0.94 C20.71,3.27 19.05,10.82 18.88,10.77 C9.8,8.4 3.26,10.15 1.51,14.07 C-0.24,17.99 3.3,21.28 3.3,21.28 C2.41430468,22.6796046 2.51472199,24.4871161 3.55,25.78 C5.3,28.2 8.55,27.49 8.55,27.49 L11,30.36 C11,30.36 4.17,37.36 2.42,40.36 C0.67,43.36 -0.45,47.82 2.63,49.28 C4.62455859,50.1161739 6.87923425,50.0726053 8.84,49.16 C8.84,49.16 12.38,53.16 15.63,51.08 C17.4896135,49.9686244 18.3486683,47.7301258 17.71,45.66 L18.71,45.2 C18.71,45.2 20.46,54.66 26.71,55.91 C32.96,57.16 35.25,45.66 35.25,45.66 C38.0251135,46.5947671 40.8664118,47.3201339 43.75,47.83 C49.93,49 52.14,44.07 50.84,38 C49.8801181,34.1518973 47.7401218,30.7006287 44.72,28.13 C44.72,28.13 53.76,20.07 55,15.15 Z M8.84,24.9 C8.84,24.9 7.84,22.9 7.63,22.9 C7.42,22.9 7.05,23.15 7.13,23.32 C7.54367466,23.9282905 7.90497149,24.570596 8.21,25.24 C7.9914868,25.3979998 7.75266907,25.5258177 7.5,25.62 C7.22204848,24.9940376 6.88731533,24.3948653 6.5,23.83 C6.33,23.83 5.79,24 5.92,24.16 C6.22920236,24.650973 6.46818589,25.1827955 6.63,25.74 C5.8186366,25.4546869 5.22794973,24.7489311 5.09,23.9 C5.01,22.73 5.26,21.61 6.51,21.23 C7.96,20.79 9.43,21.81 9.51,22.77 C9.45573387,23.522516 9.22629534,24.2519251 8.84,24.9 Z M15.22,49 C14.8402318,48.2931811 14.3949448,47.6235765 13.89,47 C13.68,47 13.18,47.33 13.35,47.5 C13.52,47.67 14.81,49.33 14.68,49.5 C14.55,49.67 13.97,49.75 13.97,49.75 C13.5369481,48.9037114 13.035269,48.0943359 12.47,47.33 C12.26,47.33 11.68,47.41 11.8,47.62 C12.2216883,48.3526869 12.5828868,49.1185615 12.88,49.91 C12.76,49.91 10.88,49.54 10.88,47.83 C10.88,46.12 11.34,45.21 12.59,44.66 C13.84,44.11 15.13,44.45 15.47,45.95 C15.6390244,46.9717448 15.5531496,48.019417 15.22,49 Z M17.22,44.08 C17.22,44.08 16.35,42.21 13.43,42.71 C11.529833,43.115589 9.89286858,44.3123919 8.93,46 C8.62951604,46.5707122 8.433114,47.1903946 8.35,47.83 C8.35,47.83 5.02,48.83 3.64,47.29 C2.26,45.75 3.18,41.92 5.43,38.75 C7.5118399,36.1283124 9.82806853,33.7016278 12.35,31.5 C13.3079668,32.3293256 14.3093824,33.1070917 15.35,33.83 C16.73,34.75 17.27,35.04 17.27,35.04 C17.2239738,36.7106232 17.3075577,38.3823003 17.52,40.04 C17.85,41.83 18.06,43.67 18.06,43.67 L17.22,44.08 Z M16.89,30.21 C17.02,31.54 17.06,32.46 17.06,32.46 C17.06,32.46 15.73,31.59 15.23,31.21 C14.8586273,30.8871853 14.5233361,30.5250708 14.23,30.13 C14.9835737,29.1698509 15.9010401,28.3505636 16.94,27.71 C16.8475986,28.5467881 16.8308641,29.3902053 16.89,30.23 L16.89,30.21 Z M17.39,20.09 C17.14,23.69 17,25 17,25 C15.3790587,26.1272082 13.9219044,27.4733092 12.67,29 C11.5920604,28.4242287 10.6744557,27.5891054 10,26.57 C10,26.57 12.33,23.78 11,21.2 C9.67,18.62 7.21,19.37 6.38,19.58 C5.78588751,19.7555401 5.2225446,20.0220316 4.71,20.37 C4.71,20.37 1.84,16.7 4.21,14.45 C6.58,12.2 10.79,11.53 14.42,11.91 C18.05,12.29 18.5,12.91 18.5,12.91 C17.9636031,15.2813785 17.592709,17.6871779 17.39,20.11 L17.39,20.09 Z M35.3,9.36 C37.23,8.72 40.3,10.36 39.3,13.44 C38.9352461,14.6369965 37.9266487,15.5259723 36.6933226,15.7375205 C35.4599964,15.9490687 34.2128016,15.4470213 33.47,14.44 C32.8931066,13.5508623 32.7652689,12.4430807 33.1244836,11.4459163 C33.4836983,10.448752 34.2886181,9.67698342 35.3,9.36 Z M37.93,24.74 C38.8512046,25.2833598 39.7303393,25.8950771 40.56,26.57 C41.73,27.45 42.02,27.74 41.98,27.9 C41.0177161,28.9778026 39.9746963,29.9807063 38.86,30.9 C38.1671064,31.461636 37.4277853,31.9634377 36.65,32.4 C36.65,32.4 37.32,29.57 37.65,27.86 C37.8085401,26.8235297 37.9020562,25.778153 37.93,24.73 L37.93,24.74 Z M36,17.61 L35.89,21 L30.56,17.54 L32.44,16.29 C32.9237069,16.7119793 33.4746579,17.0499861 34.07,17.29 C34.6978192,17.4752227 35.3459979,17.5826928 36,17.61 Z M24.55,3.4 C26.63,1.48 29.68,1.23 32.47,3.28 C35.26,5.33 34.68,7.61 34.68,7.61 C34.68,7.61 31.89,8.61 31.47,10.78 C31.2146876,12.0772356 31.2419738,13.4142611 31.55,14.7 L29,16.15 C27.5889166,15.1368741 26.1123597,14.2182018 24.58,13.4 C22.33,12.23 20.96,11.69 20.96,11.69 C20.96,11.69 22.47,5.32 24.55,3.4 Z M19.59,18 C19.7521894,16.5765036 20.0297693,15.1685382 20.42,13.79 C21.7657934,14.249248 23.0649538,14.8352095 24.3,15.54 C25.325666,15.9900845 26.2583051,16.6276705 27.05,17.42 C27.05,17.42 24.59,19.09 22.51,20.71 C20.43,22.33 19,23.36 19,23.36 C19,23.36 19.26,20.61 19.59,18 Z M19.8,40.21 C19.7186606,39.3652869 19.7186606,38.5147131 19.8,37.67 L22.43,39.59 C23.51,40.38 24.35,40.97 24.35,40.97 C24.35,40.97 22.52,41.89 21.6,42.3 C21.2069517,42.4905428 20.8029029,42.6575051 20.39,42.8 C20.39,42.8 20,41 19.8,40.19 L19.8,40.21 Z M29.63,53.21 C27.17,54.84 24.84,53.92 23.26,50.79 C22.1642857,48.7796262 21.3787457,46.6151771 20.93,44.37 C21.8122077,43.9035158 22.7321231,43.5121336 23.68,43.2 C24.5112799,42.8587721 25.3167248,42.4577207 26.09,42 C27.2551377,42.9630268 28.5779345,43.7174608 30,44.23 L33.17,45.44 C33.17,45.44 32.09,51.53 29.64,53.15 L29.63,53.21 Z M33.63,41.04 C33.38,42.46 33.17,43.21 33.17,43.21 L30.17,42.21 C29.4114054,41.8781216 28.7095466,41.4293369 28.09,40.88 C29.174264,40.3428691 30.2200914,39.7314109 31.22,39.05 C32.76,38.05 34.1,37.05 34.1,37.05 C34.1,37.05 33.93,39.57 33.68,41 L33.63,41.04 Z M34.38,34.5 C34.38,34.5 26.76,40.13 26.38,39.96 C26,39.79 19.09,34.69 19,34.48 C18.91,34.27 18.75,25.86 19,25.61 C19.25,25.36 27.46,19.61 28.71,18.99 C31.1870077,20.3759759 33.5810726,21.9052391 35.88,23.57 C35.89,23.86 34.43,34.44 34.43,34.44 L34.38,34.5 Z M48.67,38.67 C49.34,43.42 49.8,45.21 46.46,45.67 C43.12,46.13 35.46,43.8 35.46,43.8 C35.8339002,41.982664 36.1109576,40.1467418 36.29,38.3 C36.42,36.3 36.54,34.93 36.54,34.93 C36.54,34.93 39.22,33 40.8,31.65 C42.38,30.3 43.3,29.44 43.3,29.44 C43.3,29.44 48.05,33.86 48.72,38.61 L48.67,38.67 Z M43.67,26.67 C42.5513417,25.6938258 41.3831262,24.7759422 40.17,23.92 L38,22.4 L38.38,17.28 C39.3873877,16.7322632 40.2482628,15.9502731 40.89,15 C41.2732854,14.2154554 41.5137096,13.3688912 41.6,12.5 C41.6,12.5 50.6,8.04 52.81,10.83 C55.02,13.62 47.44,23.16 45.94,24.62 C44.44,26.08 43.76,26.61 43.76,26.61 L43.67,26.67 Z" id="Shape" fill="#1D1D1B" fill-rule="nonzero"></path>
                <path d="M29.76,28.2 C29.89,28.33 31.26,29.37 31.26,29.62 C31.1608874,30.02349 31.0201321,30.4155939 30.84,30.79 C30.2165429,30.0814804 29.5485196,29.4134571 28.84,28.79 C28.67,28.79 28.22,29.25 28.22,29.25 L30.43,31.54 L29.72,32.04 C29.72,32.04 27.51,29.5 27.39,29.5 C27.27,29.5 26.81,29.67 26.89,29.83 C27.6471649,30.6831052 28.3517965,31.5814269 29,32.52 C28.8203699,32.6419382 28.6253286,32.7394588 28.42,32.81 C28.42,32.81 26.21,30.39 26.09,30.39 C25.97,30.39 25.3,30.72 25.42,30.89 C25.54,31.06 27.22,33 27.22,33 C25.9044598,32.8775095 24.6986531,32.214859 23.89,31.17 C22.68,29.46 23.02,26.46 26.27,24.88 C27.53,24.27 29.48,25.13 30.39,25.76 C31.3,26.39 31.39,28.64 31.39,28.64 C31.39,28.64 30.27,27.56 30.1,27.64 C29.93,27.72 29.59,28.07 29.72,28.19 L29.76,28.2 Z" id="Path" fill="#E2F0D0"></path>
                <path d="M8.84,24.9 C8.84,24.9 7.84,22.9 7.63,22.9 C7.42,22.9 7.05,23.15 7.13,23.32 C7.54367466,23.9282905 7.90497149,24.570596 8.21,25.24 C7.9914868,25.3979998 7.75266907,25.5258177 7.5,25.62 C7.22204848,24.9940376 6.88731533,24.3948653 6.5,23.83 C6.33,23.83 5.79,24 5.92,24.16 C6.22920236,24.650973 6.46818589,25.1827955 6.63,25.74 C5.8186366,25.4546869 5.22794973,24.7489311 5.09,23.9 C5.01,22.73 5.26,21.61 6.51,21.23 C7.96,20.79 9.43,21.81 9.51,22.77 C9.45573387,23.522516 9.22629534,24.2519251 8.84,24.9 Z" id="Path" fill="#E2F0D0"></path>
                <path d="M15.22,49 C14.8402318,48.2931811 14.3949448,47.6235765 13.89,47 C13.68,47 13.18,47.33 13.35,47.5 C13.52,47.67 14.81,49.33 14.68,49.5 C14.55,49.67 13.97,49.75 13.97,49.75 C13.5369481,48.9037114 13.035269,48.0943359 12.47,47.33 C12.26,47.33 11.68,47.41 11.8,47.62 C12.2216883,48.3526869 12.5828868,49.1185615 12.88,49.91 C12.76,49.91 10.88,49.54 10.88,47.83 C10.88,46.12 11.34,45.21 12.59,44.66 C13.84,44.11 15.13,44.45 15.47,45.95 C15.6390244,46.9717448 15.5531496,48.019417 15.22,49 Z" id="Path" fill="#CFE4E4"></path>
            </g>
        </g>
    </g>
</svg>