<?xml version="1.0" encoding="UTF-8"?>
<svg width="376px" height="226px" viewBox="0 0 376 226" version="1.1" xmlns="http://www.w3.org/2000/svg" xmlns:xlink="http://www.w3.org/1999/xlink">
    <!-- Generator: Sketch 48.2 (47327) - http://www.bohemiancoding.com/sketch -->
    <title>team</title>
    <desc>Created with Sketch.</desc>
    <defs>
        <polygon id="path-1" points="6 26 45 26 36.7621158 52 14.6872897 52"></polygon>
        <rect id="path-2" x="4.89913705" y="1.76367944" width="15.4697665" height="47"></rect>
        <rect id="path-3" x="38.3418998" y="2.04412411" width="15.4697665" height="47"></rect>
        <polygon id="path-4" points="16.3338747 -0.502115584 25.0122025 6.03747342 23.8353661 33.8993248 30.4141939 39.4174458 26.4612002 44.6632457 16.079637 36.8401767"></polygon>
        <polygon id="path-5" points="51.4356658 -0.268041075 60.1139935 6.27154792 58.9371571 34.1333993 65.515985 39.6515203 61.5629913 44.8973202 51.1814281 37.0742512"></polygon>
        <polygon id="path-6" points="25.783234 -2.36788391 34.4615617 4.17170509 34.4883553 30.4362854 41.0671832 35.9544065 37.1141895 41.2002063 26.7326262 33.3771373"></polygon>
        <polygon id="path-7" points="40.8293223 -1.96856616 49.5076501 4.57102284 50.1362587 30.0369677 56.7150866 35.5550887 52.7620929 40.8008886 42.3805297 32.9778196"></polygon>
        <rect id="path-8" x="36" y="81" width="9" height="9"></rect>
        <path d="M34,88 L47,88 L47,96.8994778 L44.1923922,98.0361447 C44.0834342,106.369384 43.9833013,110.540321 43.8919934,110.548956 C43.8328793,110.554546 41.578959,110.554546 37.1302323,110.548956 L37.1302323,98.0361447 L34,96.3892456 L34,88 Z" id="path-9"></path>
        <rect id="path-10" x="0" y="64" width="79" height="19"></rect>
        <path d="M27,0 L52,0 C63.5979797,-2.13051432e-15 73,9.40202025 73,21 L73,68 L6,68 L6,21 C6,9.40202025 15.4020203,2.13051432e-15 27,0 Z" id="path-11"></path>
        <path d="M25.5,0 L25.5,0 C36.8218374,-2.07978778e-15 46,9.17816263 46,20.5 L46,51.5 L5,51.5 L5,20.5 C5,9.17816263 14.1781626,2.07978778e-15 25.5,0 Z" id="path-12"></path>
        <rect id="path-13" x="5.01255109" y="8.65943165" width="16.0393804" height="63.5947718" rx="8.01969021"></rect>
        <rect id="path-14" x="19.3472937" y="9.80667518" width="16.0393804" height="63.5947718" rx="8.01969021"></rect>
        <path d="M18.5477956,0.309484961 C22.8287405,0.926176703 25.8114003,4.98327266 25.2097527,9.37126241 L18.7499199,56.4846921 C18.1482723,60.8726819 14.1901491,63.929923 9.90920416,63.3132312 C5.62825927,62.6965395 2.64559947,58.6394435 3.24724704,54.2514538 L9.70707991,7.13802406 C10.3087275,2.75003431 14.2668507,-0.307206781 18.5477956,0.309484961 Z" id="path-15"></path>
        <path d="M33.1905854,1.32820555 C37.4715303,1.9448973 40.4541901,6.00199325 39.8525426,10.389983 L33.3927097,57.5034127 C32.7910621,61.8914025 28.8329389,64.9486436 24.551994,64.3319518 C20.2710491,63.7152601 17.2883893,59.6581641 17.8900369,55.2701744 L24.3498697,8.15674465 C24.9515173,3.7687549 28.9096406,0.711513811 33.1905854,1.32820555 Z" id="path-16"></path>
        <polygon id="path-17" points="251 16 272 16 272 79 264.367153 79"></polygon>
        <polygon id="path-18" points="24 16 45 16 45 79 37.3671535 79"></polygon>
        <rect id="path-19" x="0" y="0" width="296" height="19"></rect>
        <rect id="path-20" x="0" y="0" width="45" height="38"></rect>
        <rect id="path-21" x="0" y="35" width="49" height="8"></rect>
        <polygon id="path-22" points="16.3338747 -0.502115584 25.0122025 6.03747342 23.8353661 33.8993248 30.4141939 39.4174458 26.4612002 44.6632457 16.079637 36.8401767"></polygon>
        <polygon id="path-23" points="51.4356658 -0.268041075 60.1139935 6.27154792 58.9371571 34.1333993 65.515985 39.6515203 61.5629913 44.8973202 51.1814281 37.0742512"></polygon>
        <polygon id="path-24" points="25.783234 -2.36788391 34.4615617 4.17170509 34.4883553 30.4362854 41.0671832 35.9544065 37.1141895 41.2002063 26.7326262 33.3771373"></polygon>
        <polygon id="path-25" points="40.8293223 -1.96856616 49.5076501 4.57102284 50.1362587 30.0369677 56.7150866 35.5550887 52.7620929 40.8008886 42.3805297 32.9778196"></polygon>
        <rect id="path-26" x="36" y="74" width="9" height="9"></rect>
        <path d="M34,81 L47,81 L47,89.8994778 L44.1923922,91.0361447 C44.0834342,99.369384 43.9833013,103.540321 43.8919934,103.548956 C43.8328793,103.554546 41.578959,103.554546 37.1302323,103.548956 L37.1302323,91.0361447 L34,89.3892456 L34,81 Z" id="path-27"></path>
        <rect id="path-28" x="3" y="57" width="76" height="19"></rect>
        <path d="M29,0 L52,0 C63.5979797,-2.13051432e-15 73,9.40202025 73,21 L73,73 L8,73 L8,21 C8,9.40202025 17.4020203,2.13051432e-15 29,0 Z" id="path-29"></path>
        <path d="M12.1680368,5.39083022 C17.8317767,5.47014832 22.1090976,5.33987161 24.9999998,5.00000009 C32.0316765,4.17331466 37.3727588,-1.11350267 38.5152195,0.471923388 C39.27686,1.52887409 38.7717868,8.58914997 37,21.652751 L36.9999994,24.0000007 C36.9999994,30.6274174 31.6274167,36.0000003 25,36.0000007 L11.9999977,36.0000031 C5.37258072,36.0000035 -2.55256138e-06,30.6274207 -2.88271171e-06,24.0000037 C-2.88271173e-06,24.0000033 -2.88271173e-06,24.0000029 -2.88271171e-06,24.0000025 L-5.84910165e-07,17.3896523 C-2.24222142e-07,10.7622357 5.37258276,5.38965326 11.9999994,5.38965362 C12.0560139,5.38965363 12.1120278,5.39004583 12.1680368,5.39083022 Z" id="path-30"></path>
        <rect id="path-31" x="0" y="0" width="61" height="37"></rect>
    </defs>
    <g id="Page-1" stroke="none" stroke-width="1" fill="none" fill-rule="evenodd">
        <g id="team">
            <g id="Background" fill="#A5C1A3">
                <rect id="Rectangle-27" x="109" y="52" width="267" height="71" rx="35.5"></rect>
                <rect id="Rectangle-27" x="0" y="0" width="267" height="71" rx="35.5"></rect>
                <rect id="Rectangle-27" x="0" y="106" width="267" height="71" rx="35.5"></rect>
                <rect id="Rectangle-27" x="44" y="155" width="267" height="71" rx="35.5"></rect>
            </g>
            <g id="plant" transform="translate(68.000000, 91.000000)">
                <polygon id="Triangle" stroke="#39455A" stroke-width="2" fill="#C5E2A1" transform="translate(31.419022, 15.075876) rotate(-345.000000) translate(-31.419022, -15.075876) " points="31.4190216 1.07587584 37.4190216 29.0758758 25.4190216 29.0758758"></polygon>
                <polygon id="Triangle" stroke="#39455A" stroke-width="2" fill="#C5E2A1" transform="translate(18.419022, 15.075876) scale(-1, 1) rotate(-345.000000) translate(-18.419022, -15.075876) " points="18.4190216 1.07587584 24.4190216 29.0758758 12.4190216 29.0758758"></polygon>
                <polygon id="Triangle" stroke="#39455A" stroke-width="2" fill="#C5E2A1" transform="translate(38.213492, 19.892558) rotate(-330.000000) translate(-38.213492, -19.892558) " points="38.2134923 5.89255845 44.2134923 33.8925584 32.2134923 33.8925584"></polygon>
                <polygon id="Triangle" stroke="#39455A" stroke-width="2" fill="#C5E2A1" transform="translate(12.196152, 20.124356) scale(-1, 1) rotate(-330.000000) translate(-12.196152, -20.124356) " points="12.1961524 6.12435565 18.1961524 34.1243557 6.19615242 34.1243557"></polygon>
                <polygon id="Triangle" stroke="#39455A" stroke-width="2" fill="#C5E2A1" points="24 0 30 28 18 28"></polygon>
                <g id="Rectangle-26">
                    <use fill="#FFFFFF" fill-rule="evenodd" xlink:href="#path-1"></use>
                    <path stroke="#39455A" stroke-width="3" d="M8.08270526,27.5 L15.7676153,50.5 L35.6638871,50.5 L42.9512463,27.5 L8.08270526,27.5 Z"></path>
                </g>
            </g>
            <g id="legs" transform="translate(120.000000, 155.000000)">
                <g id="Rectangle-15" transform="translate(12.634020, 25.263679) rotate(-349.000000) translate(-12.634020, -25.263679) ">
                    <use fill="#F9D016" fill-rule="evenodd" xlink:href="#path-2"></use>
                    <rect stroke="#39455A" stroke-width="3" x="6.39913705" y="3.26367944" width="12.4697665" height="44"></rect>
                </g>
                <g id="Rectangle-15" transform="translate(46.076783, 25.544124) scale(-1, 1) rotate(-349.000000) translate(-46.076783, -25.544124) ">
                    <use fill="#F9D016" fill-rule="evenodd" xlink:href="#path-3"></use>
                    <rect stroke="#39455A" stroke-width="3" x="39.8418998" y="3.54412411" width="12.4697665" height="44"></rect>
                </g>
            </g>
            <g id="girlchair" transform="translate(219.000000, 87.000000)">
                <g id="legs" transform="translate(0.000000, 93.000000)">
                    <g id="Rectangle-17" transform="translate(23.246915, 22.080565) rotate(-307.000000) translate(-23.246915, -22.080565) ">
                        <use fill="#FFFFFF" fill-rule="evenodd" xlink:href="#path-4"></use>
                        <path stroke="#39455A" stroke-width="3" d="M17.8135309,2.49108876 L17.5847373,36.0961476 L26.1659695,42.5625699 L28.3594228,39.651759 L22.305534,34.5739409 L23.4802918,6.76129945 L17.8135309,2.49108876 Z"></path>
                    </g>
                    <g id="Rectangle-17" transform="translate(58.348707, 22.314640) scale(-1, 1) rotate(-307.000000) translate(-58.348707, -22.314640) ">
                        <use fill="#FFFFFF" fill-rule="evenodd" xlink:href="#path-5"></use>
                        <path stroke="#39455A" stroke-width="3" d="M52.9153219,2.72516327 L52.6865284,36.3302221 L61.2677605,42.7966444 L63.4612138,39.8858335 L57.4073251,34.8080154 L58.5820829,6.99537396 L52.9153219,2.72516327 Z"></path>
                    </g>
                    <g id="Rectangle-17" transform="translate(33.425209, 19.416161) rotate(-307.000000) translate(-33.425209, -19.416161) ">
                        <use fill="#FFFFFF" fill-rule="evenodd" xlink:href="#path-6"></use>
                        <path stroke="#39455A" stroke-width="3" d="M27.3653128,0.702501471 L28.2128968,32.6143977 L36.8189587,39.0995305 L39.012412,36.1887196 L32.9890689,31.1365223 L32.9623244,4.92015227 L27.3653128,0.702501471 Z"></path>
                    </g>
                    <g id="Rectangle-17" transform="translate(48.772204, 19.416161) scale(-1, 1) rotate(-307.000000) translate(-48.772204, -19.416161) ">
                        <use fill="#FFFFFF" fill-rule="evenodd" xlink:href="#path-7"></use>
                        <path stroke="#39455A" stroke-width="3" d="M42.4690154,1.14523466 L43.8477122,32.2052175 L52.4668621,38.7002128 L54.6603154,35.7894019 L48.6534274,30.7510065 L48.0259951,5.33271921 L42.4690154,1.14523466 Z"></path>
                    </g>
                </g>
                <g id="Rectangle-16">
                    <use fill="#FFFFFF" fill-rule="evenodd" xlink:href="#path-8"></use>
                    <rect stroke="#39455A" stroke-width="2" x="37" y="82" width="7" height="7"></rect>
                </g>
                <g id="Rectangle-16">
                    <use fill="#FFFFFF" fill-rule="evenodd" xlink:href="#path-9"></use>
                    <path stroke="#39455A" stroke-width="2" d="M35,89 L35,95.7854125 L38.1302323,97.4323116 L38.1302323,109.550133 C40.2785131,109.552497 42.0095281,109.553324 42.9702908,109.553514 C42.9915909,109.044001 43.0134875,108.322268 43.0358621,107.390277 C43.0858229,105.309207 43.1380424,102.186352 43.1924777,98.0230707 L43.2011657,97.3586007 L46,96.2254857 L46,89 L35,89 Z"></path>
                </g>
                <g id="Rectangle-13">
                    <use fill="#408385" fill-rule="evenodd" xlink:href="#path-10"></use>
                    <rect stroke="#39455A" stroke-width="3" x="1.5" y="65.5" width="76" height="16"></rect>
                </g>
                <g id="Rectangle-12">
                    <use fill="#FFFFFF" fill-rule="evenodd" xlink:href="#path-11"></use>
                    <path stroke="#39455A" stroke-width="3" d="M7.5,66.5 L71.5,66.5 L71.5,21 C71.5,10.2304474 62.7695526,1.5 52,1.5 L27,1.5 C16.2304474,1.5 7.5,10.2304474 7.5,21 L7.5,66.5 Z"></path>
                </g>
            </g>
            <g id="girl" transform="translate(232.000000, 46.000000)">
                <rect id="Rectangle-24" fill="#FFFFFF" x="0" y="86" width="21" height="8"></rect>
                <g id="Rectangle-22">
                    <use fill="#F9D016" fill-rule="evenodd" xlink:href="#path-12"></use>
                    <path stroke="#39455A" stroke-width="3" d="M6.5,50 L44.5,50 L44.5,20.5 C44.5,10.0065898 35.9934102,1.5 25.5,1.5 C15.0065898,1.5 6.5,10.0065898 6.5,20.5 L6.5,50 Z"></path>
                </g>
                <path d="M27.181289,41.1541215 C27.8524055,40.995739 29.9514945,39.9225328 32.021856,39.0630414 C34.2470321,38.1392802 35.4880695,37.7801357 36.6267091,35.0976687 C37.4861049,33.0730592 38.3610155,30.9704759 38.3610155,28.6060812 C38.3610155,21.4263795 32.5407172,15.6060812 25.3610155,15.6060812 C21.8706197,15.6060812 18.6627707,17.1186531 16.2329025,19.4111344 C14.7157922,20.842466 12.9125924,24.3504701 12.6676021,24.9276311 C12.4007184,25.5563697 12.4991065,25.324582 11.9738303,26.5620551 C15.3109582,29.3942765 26.2190433,41.38121 27.181289,41.1541215 Z" id="Oval-13" stroke="#39455A" stroke-width="3" fill="#FFFFFF" transform="translate(25.167423, 28.381693) rotate(-203.000000) translate(-25.167423, -28.381693) "></path>
                <polyline id="Path-8" stroke="#39455A" stroke-width="3" points="12 18.4660003 12 24.3078546 18.4228338 17.0972714 38 25.0019221 38 18.3568737"></polyline>
                <path d="M20.2269764,40.838228 L20.2269764,50.3777513 L7.19355049,50.3777513 C2.52655791,51.3427418 0.193061627,53.5558251 0.193061627,57.0170012 C0.193061627,60.4781774 0.19304438,72.2650069 0.193009886,92.3774898 C0.914778817,89.3363079 2.00848402,87.4545283 3.47412551,86.7321512 C4.93976699,86.0097741 6.17957532,85.6485855 7.19355049,85.6485855 L49.8741638,85.6485855 L49.8741638,57.0170012 C48.8982469,52.5908346 47.0818601,50.3777513 44.4250033,50.3777513 C41.7681465,50.3777513 36.6101232,50.3777513 28.9509334,50.3777513 L28.9509334,40.838228 C27.7709314,41.4025048 26.4651492,41.6846432 25.0335868,41.6846432 C23.6020245,41.6846432 21.999821,41.4025048 20.2269764,40.838228 Z" id="Path-9" stroke="#39455A" stroke-width="3" fill="#C5E2A1"></path>
                <rect id="Rectangle-23" fill="#39455A" x="6" y="61" width="3" height="25" rx="1.5"></rect>
            </g>
            <g id="legs" transform="translate(254.975202, 176.446979) rotate(3.000000) translate(-254.975202, -176.446979) translate(234.975202, 138.946979)">
                <g id="Rectangle-25" transform="translate(13.032241, 40.456818) rotate(-352.000000) translate(-13.032241, -40.456818) ">
                    <use fill="#408385" fill-rule="evenodd" xlink:href="#path-13"></use>
                    <rect stroke="#39455A" stroke-width="3" x="6.51255109" y="10.1594317" width="13.0393804" height="60.5947718" rx="6.51969021"></rect>
                </g>
                <g id="Rectangle-25" transform="translate(27.366984, 41.604061) rotate(-352.000000) translate(-27.366984, -41.604061) ">
                    <use fill="#408385" fill-rule="evenodd" xlink:href="#path-14"></use>
                    <rect stroke="#39455A" stroke-width="3" x="20.8472937" y="11.3066752" width="13.0393804" height="60.5947718" rx="6.51969021"></rect>
                </g>
                <g id="Rectangle-25">
                    <use fill="#FFFFFF" fill-rule="evenodd" xlink:href="#path-15"></use>
                    <path stroke="#39455A" stroke-width="2" d="M18.4052124,1.29926778 C14.6789208,0.762476645 11.2247924,3.43043378 10.6978105,7.27386546 L4.23797763,54.3872952 C3.71028653,58.235899 6.32013361,61.7858848 10.0517874,62.3234484 C13.778079,62.8602395 17.2322073,60.1922824 17.7591893,56.3488507 L24.2190221,9.23542102 C24.7467132,5.38681718 22.1368662,1.83683136 18.4052124,1.29926778 Z"></path>
                </g>
                <g id="Rectangle-25">
                    <use fill="#FFFFFF" fill-rule="evenodd" xlink:href="#path-16"></use>
                    <path stroke="#39455A" stroke-width="2" d="M33.0480022,2.31798837 C29.3217106,1.78119724 25.8675823,4.44915437 25.3406003,8.29258605 L18.8807675,55.4060158 C18.3530764,59.2546196 20.9629234,62.8046054 24.6945772,63.342169 C28.4208688,63.8789601 31.8749972,61.211003 32.4019791,57.3675713 L38.861812,10.2541416 C39.3895031,6.40553778 36.779656,2.85555195 33.0480022,2.31798837 Z"></path>
                </g>
            </g>
            <g id="table" transform="translate(49.000000, 139.000000)">
                <g id="Rectangle-19">
                    <use fill="#C5E2A1" fill-rule="evenodd" xlink:href="#path-17"></use>
                    <path stroke="#39455A" stroke-width="3" d="M252.851658,17.5 L265.582281,77.5 L270.5,77.5 L270.5,17.5 L252.851658,17.5 Z"></path>
                </g>
                <g id="Rectangle-19" transform="translate(34.500000, 47.500000) scale(-1, 1) translate(-34.500000, -47.500000) ">
                    <use fill="#C5E2A1" fill-rule="evenodd" xlink:href="#path-18"></use>
                    <path stroke="#39455A" stroke-width="3" d="M25.8516582,17.5 L38.5822806,77.5 L43.5,77.5 L43.5,17.5 L25.8516582,17.5 Z"></path>
                </g>
                <g id="Rectangle-18">
                    <use fill="#0076FF" fill-rule="evenodd" xlink:href="#path-19"></use>
                    <rect stroke="#39455A" stroke-width="3" x="1.5" y="1.5" width="293" height="16"></rect>
                </g>
            </g>
            <g id="guy-laptop" transform="translate(161.000000, 99.000000)">
                <g id="Rectangle-21">
                    <use fill="#C5E2A1" fill-rule="evenodd" xlink:href="#path-20"></use>
                    <rect stroke="#39455A" stroke-width="3" x="1.5" y="1.5" width="42" height="35"></rect>
                </g>
                <g id="Rectangle-21">
                    <use fill="#FFFFFF" fill-rule="evenodd" xlink:href="#path-21"></use>
                    <rect stroke="#39455A" stroke-width="3" x="1.5" y="36.5" width="46" height="5"></rect>
                </g>
            </g>
            <g id="chair" transform="translate(149.500000, 158.000000) scale(-1, 1) translate(-149.500000, -158.000000) translate(109.000000, 94.000000)">
                <g id="legs" transform="translate(0.000000, 86.000000)">
                    <g id="Rectangle-17" transform="translate(23.246915, 22.080565) rotate(-307.000000) translate(-23.246915, -22.080565) ">
                        <use fill="#FFFFFF" fill-rule="evenodd" xlink:href="#path-22"></use>
                        <path stroke="#39455A" stroke-width="3" d="M17.8135309,2.49108876 L17.5847373,36.0961476 L26.1659695,42.5625699 L28.3594228,39.651759 L22.305534,34.5739409 L23.4802918,6.76129945 L17.8135309,2.49108876 Z"></path>
                    </g>
                    <g id="Rectangle-17" transform="translate(58.348707, 22.314640) scale(-1, 1) rotate(-307.000000) translate(-58.348707, -22.314640) ">
                        <use fill="#FFFFFF" fill-rule="evenodd" xlink:href="#path-23"></use>
                        <path stroke="#39455A" stroke-width="3" d="M52.9153219,2.72516327 L52.6865284,36.3302221 L61.2677605,42.7966444 L63.4612138,39.8858335 L57.4073251,34.8080154 L58.5820829,6.99537396 L52.9153219,2.72516327 Z"></path>
                    </g>
                    <g id="Rectangle-17" transform="translate(33.425209, 19.416161) rotate(-307.000000) translate(-33.425209, -19.416161) ">
                        <use fill="#FFFFFF" fill-rule="evenodd" xlink:href="#path-24"></use>
                        <path stroke="#39455A" stroke-width="3" d="M27.3653128,0.702501471 L28.2128968,32.6143977 L36.8189587,39.0995305 L39.012412,36.1887196 L32.9890689,31.1365223 L32.9623244,4.92015227 L27.3653128,0.702501471 Z"></path>
                    </g>
                    <g id="Rectangle-17" transform="translate(48.772204, 19.416161) scale(-1, 1) rotate(-307.000000) translate(-48.772204, -19.416161) ">
                        <use fill="#FFFFFF" fill-rule="evenodd" xlink:href="#path-25"></use>
                        <path stroke="#39455A" stroke-width="3" d="M42.4690154,1.14523466 L43.8477122,32.2052175 L52.4668621,38.7002128 L54.6603154,35.7894019 L48.6534274,30.7510065 L48.0259951,5.33271921 L42.4690154,1.14523466 Z"></path>
                    </g>
                </g>
                <g id="Rectangle-16">
                    <use fill="#FFFFFF" fill-rule="evenodd" xlink:href="#path-26"></use>
                    <rect stroke="#39455A" stroke-width="2" x="37" y="75" width="7" height="7"></rect>
                </g>
                <g id="Rectangle-16">
                    <use fill="#FFFFFF" fill-rule="evenodd" xlink:href="#path-27"></use>
                    <path stroke="#39455A" stroke-width="2" d="M35,82 L35,88.7854125 L38.1302323,90.4323116 L38.1302323,102.550133 C40.2785131,102.552497 42.0095281,102.553324 42.9702908,102.553514 C42.9915909,102.044001 43.0134875,101.322268 43.0358621,100.390277 C43.0858229,98.3092071 43.1380424,95.1863517 43.1924777,91.0230707 L43.2011657,90.3586007 L46,89.2254857 L46,82 L35,82 Z"></path>
                </g>
                <g id="Rectangle-13">
                    <use fill="#408385" fill-rule="evenodd" xlink:href="#path-28"></use>
                    <rect stroke="#39455A" stroke-width="3" x="4.5" y="58.5" width="73" height="16"></rect>
                </g>
                <g id="Rectangle-12">
                    <use fill="#FFFFFF" fill-rule="evenodd" xlink:href="#path-29"></use>
                    <path stroke="#39455A" stroke-width="3" d="M9.5,71.5 L71.5,71.5 L71.5,21 C71.5,10.2304474 62.7695526,1.5 52,1.5 L29,1.5 C18.2304474,1.5 9.5,10.2304474 9.5,21 L9.5,71.5 Z"></path>
                </g>
            </g>
            <g id="head" transform="translate(133.000000, 53.000000)">
                <circle id="Oval-11" stroke="#39455A" stroke-width="3" fill="#FFFFFF" cx="17.5" cy="27.5" r="14.5"></circle>
                <g id="Rectangle-14">
                    <use fill="#408385" fill-rule="evenodd" xlink:href="#path-30"></use>
                    <path stroke="#39455A" stroke-width="3" d="M37.396525,1.81397109 C37.2804548,1.85805763 37.1474144,1.91306806 36.9981697,1.97954152 C36.4538366,2.22198687 33.7117268,3.65486676 33.0196536,3.99124519 C30.2370504,5.34371432 27.7809061,6.18339105 25.1751424,6.48974002 C22.2061171,6.83879617 17.8707411,6.97084109 12.147032,6.89068314 C12.0735181,6.88982522 12.0735181,6.88982522 11.9999993,6.88965362 C6.20100981,6.88965331 1.49999973,11.5906629 1.49999942,17.3896528 L1.49999712,24.0000037 C1.49999741,29.7989935 6.20100777,34.5000034 11.9999974,34.5000031 L24.9999999,34.5000007 C30.7989896,34.5000004 35.4999994,29.7989903 35.4999994,24.0000003 L35.5,21.6527506 L35.5136087,21.4511551 C36.9640357,10.7569792 37.5494767,3.68603111 37.396525,1.81397109 Z"></path>
                </g>
            </g>
            <g id="girl-laptop" transform="translate(250.000000, 105.000000)">
                <g id="Rectangle-20">
                    <use fill="#FFFFFF" fill-rule="evenodd" xlink:href="#path-31"></use>
                    <rect stroke="#39455A" stroke-width="3" x="1.5" y="1.5" width="58" height="34"></rect>
                </g>
                <circle id="Oval-12" stroke="#39455A" stroke-width="3" fill="#F9D016" cx="31" cy="20" r="6"></circle>
            </g>
        </g>
    </g>
</svg>