<?xml version="1.0" encoding="UTF-8"?>
<svg width="41px" height="42px" viewBox="0 0 41 42" version="1.1" xmlns="http://www.w3.org/2000/svg" xmlns:xlink="http://www.w3.org/1999/xlink">
    <!-- Generator: Sketch 48.2 (47327) - http://www.bohemiancoding.com/sketch -->
    <title>good-idea_30</title>
    <desc>Created with Sketch.</desc>
    <defs></defs>
    <g id="Artboard-2" stroke="none" stroke-width="1" fill="none" fill-rule="evenodd" transform="translate(-73.000000, -124.000000)">
        <g id="good-idea_30" transform="translate(73.000000, 124.000000)" fill-rule="nonzero">
            <path d="M38.724,19.0524923 C38.6367692,18.9659077 38.7530769,18.3546462 38.8112308,17.8015385 C38.8693846,17.2484308 38.8984615,16.5790154 38.3737846,14.6289231 C37.8484615,12.6788308 36.0980308,11.1939692 35.3110154,10.9032 C34.524,10.6124308 32.9764615,10.3500923 32.3645538,10.6124308 C31.7507077,10.8741231 31.5762462,11.6895692 31.6053231,11.8931077 C31.6344,12.0966462 32.3645538,11.8931077 31.3714154,10.9342154 C30.3782769,9.97532308 31.8385846,7.49990769 31.2260308,5.37535385 C30.6134769,3.24950769 27.6075692,0.543415385 24.9828923,0.106615385 C22.3582154,-0.330184615 19.9364308,0.746307692 19.8485538,0.950492308 C19.7606769,1.15467692 19.4983385,4.58833846 19.2069231,6.0732 C18.9155077,7.55806154 17.5437231,10.5852923 16.5228,11.8659692 C15.5018769,13.1466462 14.0719385,13.5252923 12.9347077,13.8742154 C11.7974769,14.2231385 9.69618462,15.0683077 9.69618462,15.0683077 C7.18716923,11.4007385 3.80326154,13.3799077 2.28609231,15.3888 C0.768923077,17.3976923 0.155076923,20.0449846 0.00969230769,25.5166154 C-0.135692308,30.9882462 1.35175385,34.0762154 2.46055385,35.7064615 C3.56935385,37.3367077 5.40701538,38.7336923 7.42043077,38.5883077 C9.43384615,38.4429231 10.5413538,37.2204 10.5413538,37.2204 C10.5413538,37.2204 12.4087385,37.8904615 14.7723692,37.9776923 C17.1353538,38.0649231 19.2650769,36.9005538 19.2650769,36.9005538 C19.2650769,36.9005538 19.9067077,37.3373538 20.8404,37.7147077 C21.7740923,38.094 23.2324615,38.1812308 23.2324615,38.1812308 C23.2324615,38.1812308 23.6699077,38.9088 24.108,39.3746769 C24.5454462,39.8399077 25.6251692,40.7716615 27.3465231,41.2084615 C29.0678769,41.6452615 31.2266769,41.1212308 34.4064,39.6363692 C37.5861231,38.1515077 37.8781846,35.9390769 38.6367692,33.7848 C39.3953538,31.6305231 38.4325846,31.2816 38.2865538,31.0483385 C38.1405231,30.8150769 38.4907385,30.1450154 39.4237846,27.9338769 C40.3574769,25.7195077 40.0072615,23.4198462 39.9491077,21.5860615 C39.8909538,19.7516308 38.8118769,19.1403692 38.724,19.0524923 Z" id="Shape" fill="#CFE4E4"></path>
            <path d="M39.9491077,21.5854154 C39.8909538,19.7516308 38.8118769,19.1403692 38.724,19.0524923 C38.6367692,18.9659077 38.7530769,18.3546462 38.8112308,17.8015385 C38.8693846,17.2484308 38.8984615,16.5790154 38.3737846,14.6289231 C37.8484615,12.6788308 36.0980308,11.1939692 35.3110154,10.9032 C34.524,10.6124308 32.9764615,10.3500923 32.3645538,10.6124308 C31.7507077,10.8741231 31.5762462,11.6895692 31.6053231,11.8931077 C31.6344,12.0966462 31.9555385,12.1548 32.9473846,12.2420308 C33.9392308,12.3292615 34.5517846,12.6794769 35.8066154,14.0473846 C37.0601538,15.4152923 36.9735692,17.4526154 36.8275385,18.5013231 C36.6815077,19.5493846 35.7775385,21.3831692 34.8438462,22.3136308 C33.9101538,23.2460308 31.9264615,23.6531077 31.6053231,23.9445231 C31.2841846,24.2352923 31.7513538,24.9053538 32.2178769,24.9344308 C32.6850462,24.9628615 33.8817231,24.8465538 35.3400923,24.1189846 C36.7991077,23.3914154 37.5867692,21.5576308 37.9072615,21.6157846 C38.2284,21.6739385 38.1696,25.0210154 37.5861231,27.7865538 C37.0026462,30.5520923 35.4861231,31.6292308 34.3185231,32.4440308 C33.1522154,33.2581846 32.6559692,32.7348 32.2185231,32.7929538 C31.7810769,32.8511077 31.6932,33.6962769 31.8101538,33.8707385 C31.9271077,34.0452 32.5105846,34.4522769 34.2312923,34.2493846 C35.952,34.0464923 36.7112308,33.1140923 36.7984615,33.1431692 C36.8856923,33.1722462 36.4482462,34.5401538 35.8647692,35.6760923 C35.2812923,36.8120308 34.4936308,37.5092308 33.4436308,38.1204923 C32.3936308,38.7317538 30.5262462,39.4302462 28.8624,39.4884 C27.1985538,39.5465538 26.4716308,38.9934462 25.3040308,37.6255385 C24.1364308,36.2576308 24.9240923,34.5408 25.5075692,34.2784615 C26.0910462,34.0161231 26.8496308,34.4529231 27.4040308,34.2784615 C27.9584308,34.104 27.9584308,33.1722462 27.7833231,32.7936 C27.6082154,32.4149538 26.9368615,32.1539077 25.9159385,31.4838462 C24.8950154,30.8144308 24.6320308,29.9699077 24.5448,28.8643385 C24.4575692,27.7594154 25.3912615,26.0122154 26.0619692,25.6917231 C26.7326769,25.3712308 27.2870769,25.9824923 27.6082154,25.9824923 C27.9293538,25.9824923 28.3383692,25.6044923 28.3383692,25.0223077 C28.3383692,24.4401231 27.7542462,24.1784308 27.1126154,23.8288615 C26.4703385,23.4799385 25.5941538,23.1012923 25.5075692,20.5980923 C25.4203385,18.0948923 28.2214154,16.1150769 28.4540308,15.9696923 C28.6866462,15.8243077 28.5412615,15.4463077 28.5121846,15.2421231 C28.4831077,15.0379385 30.5249538,13.0878462 31.3714154,10.9342154 C32.2178769,8.78058462 31.8385846,7.49990769 31.2260308,5.37535385 C30.6134769,3.24950769 27.6075692,0.543415385 24.9828923,0.106615385 C22.3582154,-0.330184615 19.9364308,0.746307692 19.8485538,0.950492308 C19.7606769,1.15467692 19.4983385,4.58833846 19.2069231,6.0732 C18.9155077,7.55806154 17.5437231,10.5852923 16.5228,11.8659692 C15.5018769,13.1466462 14.0719385,13.5252923 12.9347077,13.8742154 C11.7974769,14.2231385 9.69618462,15.0683077 9.69618462,15.0683077 C7.18716923,11.4007385 3.80326154,13.3799077 2.28609231,15.3888 C0.768923077,17.3976923 0.155076923,20.0449846 0.00969230769,25.5166154 C-0.135692308,30.9882462 1.35175385,34.0762154 2.46055385,35.7064615 C3.56935385,37.3367077 5.40701538,38.7336923 7.42043077,38.5883077 C9.43384615,38.4429231 10.5413538,37.2204 10.5413538,37.2204 C10.5413538,37.2204 12.4087385,37.8904615 14.7723692,37.9776923 C17.1353538,38.0649231 19.2650769,36.9005538 19.2650769,36.9005538 C19.2650769,36.9005538 19.9067077,37.3373538 20.8404,37.7147077 C21.7740923,38.094 23.2324615,38.1812308 23.2324615,38.1812308 C23.2324615,38.1812308 23.6699077,38.9088 24.108,39.3746769 C24.5454462,39.8399077 25.6251692,40.7716615 27.3465231,41.2084615 C29.0678769,41.6452615 31.2266769,41.1212308 34.4064,39.6363692 C37.5861231,38.1515077 37.8781846,35.9390769 38.6367692,33.7848 C39.3953538,31.6305231 38.4325846,31.2816 38.2865538,31.0483385 C38.1405231,30.8150769 38.4907385,30.1450154 39.4237846,27.9338769 C40.3574769,25.7195077 40.0072615,23.4198462 39.9491077,21.5860615 L39.9491077,21.5854154 Z M23.7280615,32.0363077 C24.2533846,32.6469231 24.2824615,32.8795385 24.2824615,32.8795385 C24.2824615,32.8795385 23.0573538,33.5773846 22.7943692,34.4225538 C22.5320308,35.2664308 22.5320308,36.3726462 22.5320308,36.3726462 C22.5320308,36.3726462 21.4238769,36.0237231 20.8694769,35.2677231 C20.3150769,34.5104308 20.3150769,34.2190154 19.9067077,34.1608615 C19.4983385,34.1027077 19.2062769,33.8991692 18.5937231,34.5097846 C17.9811692,35.1216923 17.9230154,35.238 17.5146462,35.5584923 C17.1056308,35.8789846 16.9008,35.8492615 16.9008,35.8492615 C16.9008,35.8492615 18.2144308,34.5104308 18.0102462,34.3062462 C17.8060615,34.1027077 17.3098154,34.0445538 17.1637846,34.2190154 C17.0184,34.3934769 16.0847077,35.9655692 15.8805231,36.0237231 C15.6763385,36.0818769 14.2470462,36.3144923 14.2470462,36.1981846 C14.2470462,36.0818769 16.4349231,33.6652615 16.3767692,33.4617231 C16.3186154,33.2581846 15.9102462,32.9086154 15.5884615,33.0830769 C15.2679692,33.2575385 13.6344923,35.9933538 13.4012308,35.9933538 C13.1673231,35.9933538 11.9712923,35.9061231 12.0585231,35.6444308 C12.1457538,35.3827385 14.5675385,32.6165538 14.3633538,32.3251385 C14.1585231,32.0343692 13.4005846,32.2960615 13.3127077,32.3542154 C13.2248308,32.4123692 11.4750462,35.2360615 11.1829846,35.2360615 C10.8909231,35.2360615 9.84092308,34.7411077 9.9876,34.3921846 C10.1329846,34.0432615 12.5832,31.3358769 12.5250462,31.0735385 C12.4668923,30.8118462 11.9124923,30.6083077 11.8246154,30.6367385 C11.7380308,30.6658154 9.66646154,33.8093538 9.34532308,33.7802769 C9.02418462,33.7505538 8.20809231,33.1974462 8.44070769,32.6443385 C8.67332308,32.0912308 11.1248308,29.9369538 10.9788,29.6171077 C10.8327692,29.2972615 10.3087385,28.9774154 10.1627077,29.0937231 C10.0166769,29.2100308 8.03298462,32.004 7.85787692,31.8876923 C7.68341538,31.7713846 6.69092308,30.492 6.54489231,28.2498462 C6.39886154,26.0076923 6.69092308,25.1644615 6.54489231,24.5822769 C6.39886154,24.0000923 6.10744615,23.9710154 5.52396923,23.9425846 C4.94113846,23.9141538 4.79510769,24.5835692 4.79510769,25.3408615 C4.79510769,26.0968615 4.41581538,29.7069231 5.64156923,32.2689231 C6.86732308,34.8309231 8.85036923,36.1697538 8.85036923,36.1697538 C8.85036923,36.1697538 7.8876,37.1887385 6.54553846,36.6931385 C5.20283077,36.1988308 3.51055385,34.1615077 2.54778462,30.5805231 C1.58501538,26.9995385 1.90615385,22.6328308 2.31516923,20.5670769 C2.72224615,18.4993846 3.948,16.1719385 4.5024,15.5012308 C5.0568,14.8305231 7.12836923,13.8716308 8.14929231,15.9968308 C8.14929231,15.9968308 6.31163077,18.4716 6.25283077,19.3154769 C6.19467692,20.1593538 6.13652308,20.538 6.6612,20.8003385 C7.18587692,21.0626769 7.53609231,21.0626769 8.06076923,19.782 C8.58544615,18.5013231 9.51978462,17.3072308 10.3946769,16.7838462 C11.2702154,16.2604615 12.3202154,16.0562769 14.7122769,15.0372923 C17.1043385,14.0189538 18.1259077,13.5834462 19.3800923,11.0208 C20.6342769,8.45815385 21.0135692,7.38295385 21.3637846,5.34433846 C21.714,3.30636923 21.7721538,2.37461538 21.7721538,2.37461538 C21.7721538,2.37461538 23.6098154,1.29747692 25.6232308,1.99596923 C27.636,2.69381538 29.1531692,4.96504615 29.6203385,6.65344615 C30.0868615,8.34184615 29.6784923,10.2047077 29.5040308,10.5833538 C29.3282769,10.962 29.1240923,11.5732615 29.1240923,11.5732615 C29.1240923,11.5732615 29.3864308,10.0593231 28.9780615,9.09849231 C28.5696923,8.13830769 28.4818154,8.022 28.2479077,8.022 C28.0152923,8.022 27.4608923,8.19646154 27.636,8.63326154 C27.8111077,9.07006154 28.1916923,10.3798154 28.1916923,10.962 C28.1916923,11.5441846 28.4824615,12.1263692 28.308,12.4759385 C28.1335385,12.8255077 27.8117538,12.9127385 27.8117538,12.9127385 C27.8117538,12.9127385 27.6954462,10.0308923 26.9071385,10.0599692 C26.1188308,10.0890462 26.0904,10.7293846 26.2364308,10.9626462 C26.3824615,11.1959077 26.7617538,12.3305538 26.7908308,13.1169231 C26.8199077,13.902 26.9368615,14.3381538 26.7908308,14.3678769 C26.6448,14.3976 26.5000615,13.0872 26.0904,12.6504 C25.6820308,12.2136 25.5069231,12.1851692 25.3602462,12.4177846 C25.2148615,12.6504 26.0025231,13.6403077 26.0025231,13.9317231 C26.0025231,14.2224923 26.0606769,14.6308615 25.9734462,14.7180923 C25.8862154,14.8053231 25.2148615,15.2414769 25.2148615,15.5904 C25.2148615,15.9393231 25.2439385,16.3767692 25.2439385,16.3767692 C25.2439385,16.3767692 23.9904,17.5411385 23.6395385,19.7238462 C23.2886769,21.9065538 24.6313846,24.2365846 24.6313846,24.2365846 C24.6313846,24.2365846 22.6767692,26.3624308 22.5598154,28.1955692 C22.4448,30.0280615 23.2033846,31.4250462 23.7280615,32.0363077 Z M23.2906154,6.62307692 C23.9322462,6.56492308 24.2533846,4.35313846 24.1073538,4.09144615 C23.9606769,3.82975385 23.1665538,3.98806154 23.1445846,4.09144615 C22.9688308,4.87716923 22.7355692,5.838 22.5604615,6.30387692 C22.3853538,6.76975385 22.6483385,6.68187692 23.2906154,6.62372308 L23.2906154,6.62307692 Z M14.3058462,17.0455385 C12.9340615,17.3944615 12.4675385,17.1902769 12.0585231,17.4235385 C11.6501538,17.6561538 10.3074462,19.4912308 10.3656,19.8401538 C10.4237538,20.1890769 10.8954462,20.1974769 11.0666769,20.16 C11.3290154,20.1018462 12.2620615,18.7339385 12.5256923,18.5297538 C12.7880308,18.3262154 13.2261231,18.3552923 14.1300923,18.2389846 C15.0347077,18.1226769 16.7263385,16.9583077 17.1056308,16.5505846 C17.4849231,16.1435077 17.5721538,15.8527385 17.3679692,15.8811692 C17.1637846,15.9096 15.6750462,16.6953231 14.3052,17.0442462 L14.3058462,17.0455385 Z M29.0963077,23.1 C29.2423385,22.9836923 29.6216308,22.4590154 29.7379385,21.1783385 C29.8542462,19.8976615 29.2455692,17.9559692 29.1253846,17.9475692 C28.7170154,17.9184923 28.3668,18.2092615 28.3370769,18.3843692 C28.3086462,18.5588308 28.3086462,18.5879077 28.6879385,19.6068923 C29.0672308,20.6258769 28.8042462,22.0519385 28.8042462,22.5178154 C28.8042462,22.9830462 28.9502769,23.2156615 29.0963077,23.0993538 L29.0963077,23.1 Z M29.5925538,27.6405231 C28.3674462,27.5532923 28.8624,28.1936308 29.0090769,28.5432 C29.1551077,28.8921231 29.1253846,29.1247385 29.2132615,30.4060615 C29.3011385,31.6867385 28.8643385,32.3270769 29.2132615,32.3270769 C29.5621846,32.3270769 29.7689538,31.8321231 29.9434154,30.4642154 C30.1178769,29.0963077 29.9466462,27.6663692 29.5932,27.6405231 L29.5925538,27.6405231 Z M29.3295692,38.0610462 C29.5634769,37.6539692 29.5925538,36.8385231 29.4762462,36.5761846 C29.3599385,36.3144923 28.9218462,36.1691077 28.7460923,36.3144923 C28.7460923,36.3144923 28.4844,38.2943077 28.6879385,38.5566462 C28.8914769,38.8189846 29.0969538,38.4694154 29.3302154,38.0616923 L29.3295692,38.0610462 Z" id="Shape" fill="#000000"></path>
        </g>
    </g>
</svg>