<?xml version="1.0" encoding="UTF-8"?>
<svg width="55px" height="45px" viewBox="0 0 55 45" version="1.1" xmlns="http://www.w3.org/2000/svg" xmlns:xlink="http://www.w3.org/1999/xlink">
    <!-- Generator: Sketch 48.2 (47327) - http://www.bohemiancoding.com/sketch -->
    <title>twitter_1_</title>
    <desc>Created with Sketch.</desc>
    <defs></defs>
    <g id="Artboard-2" stroke="none" stroke-width="1" fill="none" fill-rule="evenodd" transform="translate(-336.000000, -85.000000)">
        <g id="twitter_1_" transform="translate(336.000000, 85.000000)" fill-rule="nonzero">
            <path d="M52.873,10.288 C52.873,10.288 53.592,9.05 53.671,8.332 C53.751,7.613 53.751,6.775 53.392,6.456 C53.033,6.137 51.596,6.656 50.438,7.015 C49.28,7.374 46.965,7.734 46.965,7.734 C46.965,7.734 45.528,3.462 43.212,1.786 C40.897,0.109 37.823,0.069 35.228,0.668 C32.633,1.267 29.439,2.944 27.962,4.7 C26.485,6.456 25.207,9.97 24.768,11.367 C24.329,12.764 23.451,15.2 22.453,15.399 C21.455,15.599 19.579,14.88 17.982,13.882 C16.385,12.884 12.233,9.491 10.157,7.574 C8.081,5.657 5.127,2.344 4.169,2.544 C3.211,2.744 2.093,6.217 2.093,8.692 C2.093,11.167 4.289,13.563 4.289,13.563 C3.411,16.797 3.93,19.072 4.768,20.749 C5.606,22.426 7.443,23.543 7.443,23.543 C7.203,24.661 7.323,26.018 7.722,27.216 C8.121,28.414 10.197,29.931 10.197,29.931 C10.197,29.931 8.959,30.929 7.003,31.488 C5.047,32.047 1.334,31.448 0.935,31.528 C0.536,31.608 0.895,36.598 0.895,37.317 C0.895,38.036 1.414,38.595 2.053,39.074 C2.692,39.553 7.842,42.148 15.067,44.024 C22.292,45.9 27.962,44.264 32.273,42.387 C36.585,40.511 41.216,34.762 44.21,30.131 C47.204,25.5 49.2,18.833 49.2,18.833 C49.2,18.833 50.318,18.234 51.915,17.036 C53.512,15.838 54.111,13.802 54.151,12.565 C54.19,11.326 52.873,10.288 52.873,10.288 Z" id="twitter" fill="#C3EDFE"></path>
            <path d="M52.873,10.288 C52.873,10.288 53.592,9.05 53.671,8.332 C53.751,7.613 53.751,6.775 53.392,6.456 C53.033,6.137 51.596,6.656 50.438,7.015 C49.28,7.374 46.965,7.734 46.965,7.734 C46.965,7.734 45.528,3.462 43.212,1.786 C40.897,0.109 37.823,0.069 35.228,0.668 C32.633,1.267 29.439,2.944 27.962,4.7 C26.485,6.456 25.207,9.97 24.768,11.367 C24.329,12.764 23.451,15.2 22.453,15.399 C21.455,15.599 19.579,14.88 17.982,13.882 C16.385,12.884 12.233,9.491 10.157,7.574 C8.081,5.657 5.127,2.344 4.169,2.544 C3.211,2.744 2.093,6.217 2.093,8.692 C2.093,11.167 4.289,13.563 4.289,13.563 C3.411,16.797 3.93,19.072 4.768,20.749 C5.606,22.426 7.443,23.543 7.443,23.543 C7.203,24.661 7.323,26.018 7.722,27.216 C8.121,28.414 10.197,29.931 10.197,29.931 C10.197,29.931 8.959,30.929 7.003,31.488 C5.047,32.047 1.334,31.448 0.935,31.528 C0.536,31.608 0.895,36.598 0.895,37.317 C0.895,38.036 1.414,38.595 2.053,39.074 C2.692,39.553 7.842,42.148 15.067,44.024 C22.292,45.9 27.962,44.264 32.273,42.387 C36.585,40.511 41.216,34.762 44.21,30.131 C47.204,25.5 49.2,18.833 49.2,18.833 C49.2,18.833 50.318,18.234 51.915,17.036 C53.512,15.838 54.111,13.802 54.151,12.565 C54.19,11.326 52.873,10.288 52.873,10.288 Z M49.28,12.962 C49.759,12.962 51.795,11.804 52.035,12.004 C52.275,12.204 51.436,13.761 49.959,14.639 C48.482,15.517 47.364,15.956 47.085,15.877 C46.806,15.797 45.787,13.801 45.608,13.831 C45.428,13.861 44.949,14.25 45.069,14.52 C45.189,14.789 46.357,16.346 46.237,16.586 C46.117,16.826 46.057,16.945 45.878,16.796 C45.698,16.646 44.591,14.281 44.291,14.221 C43.992,14.161 43.572,14.82 43.752,15.119 C43.932,15.418 45.399,17.335 45.369,17.634 C45.339,17.933 45.01,19.311 44.89,19.101 C44.77,18.891 42.944,15.508 42.764,15.538 C42.584,15.568 42.165,16.346 42.255,16.586 C42.345,16.826 44.471,19.939 44.471,20.209 C44.471,20.478 43.842,21.826 43.633,21.586 C43.423,21.346 41.567,17.364 41.387,17.364 C41.207,17.364 40.698,18.023 40.728,18.202 C40.758,18.382 43.123,22.364 43.183,22.663 C43.243,22.962 42.674,24.669 42.464,24.549 C42.254,24.429 40.338,19.609 40.099,19.579 C39.86,19.549 39.5,20.268 39.59,20.567 C39.68,20.866 41.925,25.148 41.955,25.507 C41.985,25.866 41.596,26.495 41.476,26.405 C41.356,26.315 38.931,20.297 38.721,20.327 C38.511,20.357 38.152,20.956 38.362,21.644 C38.572,22.333 41.027,26.824 41.057,27.183 C41.087,27.542 40.458,28.381 40.368,28.231 C40.278,28.081 37.703,22.362 37.464,22.422 C37.224,22.482 36.895,23.38 37.105,23.74 C37.315,24.099 39.949,28.74 39.949,28.89 C39.949,29.04 39.26,30.118 39.081,30.028 C38.901,29.938 36.686,24.638 36.446,24.668 C36.206,24.698 35.757,25.237 36.027,25.836 C36.296,26.435 38.632,30.417 38.542,30.687 C38.452,30.956 37.823,31.855 37.704,31.645 C37.585,31.435 35.219,26.016 34.949,26.016 C34.679,26.016 34.021,26.615 34.26,27.094 C34.5,27.573 37.164,32.304 37.045,32.424 C36.925,32.544 35.997,33.771 35.847,33.682 C35.697,33.592 33.152,28.113 32.883,28.203 C32.613,28.293 32.224,28.712 32.434,29.101 C32.644,29.49 35.278,34.131 35.219,34.281 C35.159,34.431 34.5,35.03 34.321,34.82 C34.142,34.61 31.686,29.7 31.417,29.7 C31.148,29.7 30.579,30.479 30.758,30.778 C30.938,31.077 33.812,35.539 33.692,35.748 C33.572,35.957 32.674,36.736 32.554,36.586 C32.434,36.436 30.219,31.915 29.769,31.945 C29.32,31.975 28.991,32.664 29.2,32.903 C29.41,33.143 31.655,36.945 31.655,36.945 C31.655,36.945 30.577,37.604 30.397,37.394 C30.217,37.184 28.391,33.023 28.211,33.023 C28.031,33.023 27.253,33.502 27.582,33.981 C27.911,34.46 29.738,37.634 29.558,37.784 C29.378,37.934 28.809,38.203 28.63,37.994 C28.45,37.784 26.594,33.623 26.414,33.623 C26.234,33.623 25.516,33.922 25.695,34.222 C25.875,34.521 27.791,38.414 27.701,38.474 C27.611,38.534 26.414,38.893 26.264,38.744 C26.114,38.594 24.497,35.121 24.228,35.121 C23.959,35.121 23.689,35.54 23.749,35.75 C23.809,35.96 25.516,38.954 25.426,39.014 C25.336,39.074 24.168,39.254 24.049,39.164 C23.93,39.074 22.402,35.481 22.163,35.421 C21.923,35.361 21.385,35.84 21.504,36.17 C21.623,36.5 23.001,39.164 22.851,39.224 C22.701,39.284 21.683,39.344 21.534,39.134 C21.385,38.924 20.157,36.02 19.887,35.96 C19.618,35.9 19.138,36.05 19.318,36.499 C19.498,36.948 20.905,39.493 20.695,39.493 C20.485,39.493 19.348,39.493 19.228,39.403 C19.108,39.313 17.881,36.349 17.671,36.289 C17.461,36.229 16.773,36.169 16.893,36.559 C17.013,36.948 18.33,39.224 18.091,39.224 C17.851,39.224 16.624,38.984 16.414,38.775 C16.204,38.565 15.097,35.841 14.857,35.811 C14.617,35.781 14.108,36.051 14.168,36.41 C14.228,36.769 15.306,38.716 15.036,38.656 C14.767,38.596 13.539,38.387 13.509,38.237 C13.479,38.087 12.281,35.572 12.072,35.452 C11.862,35.332 11.144,35.482 11.323,35.811 C11.503,36.14 12.281,37.817 12.161,37.817 C12.041,37.817 9.227,36.979 6.891,35.781 C4.556,34.583 2.46,32.727 2.729,32.667 C2.998,32.607 6.023,32.847 8.089,32.068 C10.155,31.289 12.221,30.481 12.341,30.241 C12.461,30.001 12.101,29.463 12.012,29.433 C11.922,29.403 9.407,28.625 8.868,26.798 C8.329,24.971 8.748,22.996 8.419,22.756 C8.09,22.516 6.413,21.798 5.575,19.193 C4.737,16.588 5.665,13.055 5.485,12.816 C5.305,12.576 5.016,12.087 4.726,12.167 C4.425,12.25 3.449,10.211 3.409,8.295 C3.369,6.379 4.207,3.824 4.407,3.824 C4.607,3.824 9.956,9.014 12.791,11.409 C15.625,13.804 18.939,16.279 20.895,16.599 C22.851,16.918 23.65,16.998 24.568,15.122 C25.486,13.246 26.484,8.655 27.882,6.539 C29.279,4.423 32.154,2.028 35.866,1.429 C39.579,0.83 42.373,1.868 43.85,3.944 C45.327,6.02 45.407,8.735 45.766,8.974 C46.125,9.214 47.722,9.134 49.638,8.455 C51.554,7.776 52.233,7.617 52.353,7.617 C52.473,7.617 51.914,8.855 50.676,9.893 C49.438,10.931 48.56,11.65 48.56,12.129 C48.561,12.603 48.801,12.962 49.28,12.962 Z M5.845,9.459 C5.276,9.01 5.516,7.932 5.665,7.154 C5.815,6.375 4.587,6.555 4.378,7.423 C4.168,8.291 4.408,9.489 5.097,10.088 C5.786,10.687 6.431,10.652 6.624,10.507 C6.863,10.328 6.414,9.908 5.845,9.459 Z M22.642,17.993 C22.193,17.933 21.085,18.532 19.917,17.933 C18.749,17.334 17.612,15.927 17.103,16.107 C16.746,16.233 16.384,16.706 17.253,17.514 C18.121,18.322 19.738,19.011 21.056,19.011 C22.372,19.011 23.091,18.052 22.642,17.993 Z M30.846,7.423 C30.547,7.333 29.289,8.172 28.69,9.22 C28.091,10.268 27.193,12.274 27.882,12.663 C28.344,12.924 28.571,12.603 28.93,11.465 C29.289,10.327 29.978,9.01 30.367,8.531 C30.756,8.052 31.145,7.513 30.846,7.423 Z" id="twitter" fill="#000000"></path>
        </g>
    </g>
</svg>