<?xml version="1.0" encoding="UTF-8"?>
<svg width="61px" height="52px" viewBox="0 0 61 52" version="1.1" xmlns="http://www.w3.org/2000/svg" xmlns:xlink="http://www.w3.org/1999/xlink">
    <!-- Generator: Sketch 48.2 (47327) - http://www.bohemiancoding.com/sketch -->
    <title>Group 15</title>
    <desc>Created with Sketch.</desc>
    <defs></defs>
    <g id="Page-1" stroke="none" stroke-width="1" fill="none" fill-rule="evenodd">
        <g id="Group-2" fill="#1DA1F2">
            <g id="Group-15">
                <path d="M51.5254703,13.2256642 C51.154744,13.4772286 50.9514424,13.9174664 51.0016699,14.3673797 C51.8316185,21.8877055 48.7438268,30.6392456 42.9437532,37.2041102 C37.0264823,43.8995948 29.1646919,47.5932382 20.8101942,47.6004949 L20.7719257,47.6004949 C16.306467,47.6004949 12.1208469,46.8046804 8.09069273,45.181606 C12.8240311,44.6688015 17.3995118,42.8135137 20.4227254,40.0293725 C20.7814928,39.6955658 20.9082573,39.1730858 20.736049,38.711078 C20.5638406,38.2466514 20.1333197,37.9370336 19.6430042,37.9249391 C15.9453078,37.840278 12.3432827,35.7406824 10.0615218,32.4993712 C11.6807589,32.7388412 13.2402013,32.6058024 14.4145667,31.5850312 C14.775726,31.2705757 14.9192329,30.7722845 14.7805095,30.3126956 C14.6393943,29.8531067 14.2423584,29.5193001 13.7687854,29.4660845 C12.4533048,29.3161134 6.8924095,26.6795245 5.55540285,21.0435132 C6.98090546,21.8707732 8.68385489,22.506941 10.2863494,22.1779721 C10.7718814,22.0787977 11.1449995,21.6869377 11.2287119,21.1934843 C11.3100325,20.700031 11.0828131,20.2065776 10.6594676,19.9525943 C8.47098621,18.6415565 4.5556376,13.2571097 6.73694361,7.47354627 C10.2528645,11.4163352 17.8659095,17.8965387 30.3151395,18.5714087 C30.7050001,18.5859221 31.0565922,18.4286943 31.2981623,18.1384276 C31.5397323,17.845742 31.6306201,17.453882 31.5421241,17.0813731 C30.9585291,14.6286198 31.0542004,8.42416962 35.146541,5.96899735 C37.3732909,4.63135177 39.167128,4.06049398 41.1427407,4.06049398 C43.90525,4.06049398 46.0937313,5.03772511 48.4639882,7.32599404 C48.7318679,7.58239627 49.0930271,7.70334072 49.4613617,7.64770627 C50.6381189,7.47354627 52.2621395,6.93413404 53.7306942,6.34150625 C52.862477,7.51708627 51.8220514,8.49915518 51.0638562,8.80877296 C50.5304886,9.02647297 50.229124,9.59491187 50.3367542,10.1633508 C50.449168,10.7317897 50.9394835,11.1405819 51.5111196,11.1405819 L51.5159032,11.1405819 C52.2836655,11.138163 53.3623596,10.9591652 54.4554044,10.7076008 C53.3527925,11.8323841 52.2382216,12.7443053 51.5254703,13.2256642" id="Path"></path>
                <path d="M59.94013,6.67856627 C59.5591967,6.26109639 58.9467155,6.15483133 58.4487634,6.42049398 C58.0952174,6.61025301 57.4005741,6.85820482 56.5914019,7.10109639 C57.5648983,5.80314458 58.3541525,4.32808434 58.6927599,3.00736145 C58.8247172,2.49374699 58.6255364,1.94977108 58.1948078,1.64615663 C57.7615894,1.34507229 57.1914342,1.35013253 56.7656851,1.65627711 C56.0361852,2.18507229 52.6526004,3.70820482 50.4690803,4.20157831 C47.6954868,1.66892771 44.9393217,0.530373494 41.6005526,0.530373494 C39.0983431,0.530373494 36.7828656,1.25651807 34.0864547,2.88085542 C29.3882763,5.71459036 28.5766143,11.840012 28.922691,15.597241 C16.1726264,14.3625422 9.01954382,6.82278313 6.47500837,3.54121687 C6.22354253,3.2123012 5.8202013,3.05796386 5.41188054,3.0630241 C5.00107002,3.09338554 4.63009567,3.32615663 4.42344553,3.68796386 C1.38095793,8.98350602 2.62583829,14.4333855 4.96372361,18.1020602 C4.58279022,17.8363976 4.19189779,17.5378434 3.80349511,17.2114578 C3.43003101,16.900253 2.91465054,16.8294096 2.47894241,17.0419398 C2.04323429,17.2494096 1.76438109,17.6947108 1.76438109,18.1855542 C1.76438109,23.746759 4.96870313,27.7190482 8.09584259,29.9759157 C7.75225561,29.8823012 7.42111744,29.7810964 7.11487687,29.6824217 C6.64680186,29.5382048 6.13889067,29.6773614 5.81273201,30.0492892 C5.48906312,30.4212169 5.40690102,30.9525422 5.60608187,31.4054337 C7.60535973,35.9723012 11.5839974,39.3778434 16.0381793,40.5619398 C12.1641116,42.960494 6.83602367,44.1420602 1.90878721,43.550012 C1.3261832,43.4715783 0.765987037,43.8409759 0.581744744,44.4127831 C0.39501269,44.9820602 0.634029719,45.607 1.14692043,45.9055542 C7.20699802,49.4224217 13.5036029,51.1327831 20.3927708,51.1327831 L20.4375865,51.1327831 C29.8513718,51.1251928 38.6925121,46.9631446 45.3302141,39.4132651 C51.7363685,32.1290482 55.0975454,22.800494 54.4078817,14.3068795 C56.0561033,13.057 58.545864,10.7191687 60.0845362,8.20928916 C60.3833075,7.72350602 60.3235532,7.09603614 59.94013,6.67856627" id="Path"></path>
            </g>
        </g>
    </g>
</svg>