<?xml version="1.0" encoding="UTF-8"?>
<svg width="1957px" height="228px" viewBox="0 0 1957 228" version="1.1" xmlns="http://www.w3.org/2000/svg" xmlns:xlink="http://www.w3.org/1999/xlink">
    <!-- Generator: Sketch 48.2 (47327) - http://www.bohemiancoding.com/sketch -->
    <title>Group</title>
    <desc>Created with Sketch.</desc>
    <defs></defs>
    <g id="Greyscale-dark-bg" stroke="none" stroke-width="1" fill="none" fill-rule="evenodd" transform="translate(-347.000000, -209.000000)">
        <g id="Group" transform="translate(330.000000, 209.000000)">
            <path d="M433.631509,121.153538 C426.325768,110.499332 415.367156,104.106809 401.364486,104.106809 C381.88251,104.106809 368.488652,120.24032 368.488652,143.983979 C368.488652,168.032043 381.88251,183.861148 401.364486,183.861148 C415.671562,183.861148 426.934579,178.077437 433.631509,165.29239 L473.508678,188.12283 C460.419226,213.388518 433.631509,227.695594 398.624833,227.695594 C347.789052,227.695594 314,194.515354 314,144.288385 C314,93.1481976 348.093458,59.3591455 399.233645,59.3591455 C432.413885,59.3591455 458.59279,73.6662216 472.899866,98.3230975 L433.631509,121.153538 Z M570.309746,59.3591455 C624.493992,59.3591455 660.413885,92.8437917 660.413885,143.375167 C660.413885,194.210948 624.493992,227.695594 570.309746,227.695594 C516.125501,227.695594 480.510013,194.210948 480.510013,143.375167 C480.510013,92.8437917 516.125501,59.3591455 570.309746,59.3591455 Z M570.309746,103.193591 C549.305741,103.193591 534.998665,119.631509 534.998665,143.983979 C534.998665,168.640854 549.305741,185.078772 570.309746,185.078772 C591.618158,185.078772 605.925234,168.640854 605.925234,143.983979 C605.925234,119.631509 591.618158,103.193591 570.309746,103.193591 Z M800.136182,0 L854.320427,0 L854.320427,225.869159 L800.136182,225.869159 L800.136182,204.560748 C788.873164,219.781041 772.130841,228 751.431242,228 C705.161549,228 674.720961,193.906542 674.720961,142.766355 C674.720961,92.5393858 704.857143,59.3591455 750.213618,59.3591455 C771.522029,59.3591455 788.568758,67.88251 800.136182,82.7983979 L800.136182,0 Z M764.8251,185.383178 C785.829105,185.383178 800.136182,168.640854 800.136182,144.288385 C800.136182,119.631509 785.829105,103.193591 764.8251,103.193591 C743.516689,103.193591 729.209613,119.935915 729.209613,144.288385 C729.209613,168.640854 743.516689,185.383178 764.8251,185.383178 Z M969.690254,59.3591455 C1027.22296,59.3591455 1056.44593,98.0186916 1052.79306,157.986649 L938.336449,157.986649 C943.511348,176.555407 957.209613,186.905207 975.778371,186.905207 C989.781041,186.905207 1003.47931,181.121495 1014.43792,170.162884 L1042.74766,198.47263 C1026.00534,217.345794 1001.34846,227.695594 970.907877,227.695594 C917.028037,227.695594 883.847797,194.515354 883.847797,144.288385 C883.847797,93.1481976 918.245661,59.3591455 969.690254,59.3591455 Z M937.118825,129.068091 L1000.43525,129.068091 C1000.43525,110.194927 988.259012,97.4098798 969.99466,97.4098798 C952.339119,97.4098798 940.771696,110.194927 937.118825,129.068091 Z M1173.64219,97.4098798 C1161.16155,89.4953271 1145.02804,84.6248331 1130.11215,84.6248331 C1112.1522,84.6248331 1098.45394,91.0173565 1098.45394,106.23765 C1098.45394,142.461949 1187.94927,123.893191 1187.94927,181.425901 C1187.94927,212.779706 1159.94393,226.782377 1129.19893,226.782377 C1106.36849,226.782377 1082.92924,218.867824 1067.70895,204.256342 L1076.84112,186.905207 C1090.53939,199.690254 1111.23899,207.300401 1130.11215,207.300401 C1148.98531,207.300401 1164.20561,199.99466 1164.51001,183.861148 C1165.42323,144.897196 1075.6235,164.683578 1075.9279,108.064085 C1075.9279,77.623498 1102.41121,64.5340454 1131.63418,64.5340454 C1150.81175,64.5340454 1169.38051,70.317757 1182.77437,79.1455274 L1173.64219,97.4098798 Z M1303.01469,196.646195 L1309.71162,214.910547 C1298.4486,222.520694 1286.27236,226.782377 1273.48732,226.782377 C1250.04806,227.086782 1232.69693,213.084112 1232.69693,181.425901 L1232.69693,89.1909212 L1209.56208,89.1909212 L1209.56208,70.6221629 L1232.69693,70.6221629 L1232.69693,28.6141522 L1256.13618,28.6141522 L1256.13618,70.6221629 L1306.97196,70.6221629 L1306.97196,89.1909212 L1256.13618,89.1909212 L1256.13618,177.468625 C1256.13618,196.950601 1263.74633,204.865154 1277.44459,204.865154 C1285.66355,204.560748 1294.18692,201.821095 1303.01469,196.646195 Z M1369.37517,101.367156 C1380.02937,77.9279039 1399.81575,65.1428571 1426.90788,64.8384513 L1426.90788,87.9732977 C1393.11883,87.364486 1372.11482,108.368491 1369.37517,140.635514 L1369.37517,225.869159 L1345.63151,225.869159 L1345.63151,65.7516689 L1369.37517,65.7516689 L1369.37517,101.367156 Z M1573.93591,225.869159 L1550.80107,225.869159 L1550.80107,200.907877 C1538.01602,218.259012 1517.62083,226.782377 1492.05073,226.782377 C1458.87049,226.782377 1437.56208,205.778371 1437.56208,178.381842 C1437.56208,150.376502 1459.78371,132.720961 1497.53004,132.416555 L1550.19226,132.416555 L1550.19226,122.371162 C1550.19226,98.9319092 1535.58077,84.6248331 1507.27103,84.6248331 C1489.61549,84.6248331 1473.17757,91.3217623 1456.43525,103.193591 L1446.38985,86.4512684 C1467.08945,72.753004 1484.44059,64.8384513 1511.83712,64.8384513 C1551.40988,64.8384513 1573.3271,85.8424566 1573.63151,119.935915 L1573.93591,225.869159 Z M1496.61682,206.995995 C1523.70895,206.995995 1544.40854,193.602136 1550.49666,170.771696 L1550.49666,151.28972 L1500.5741,151.28972 C1473.78638,151.28972 1459.78371,159.508678 1459.78371,177.468625 C1459.78371,195.124166 1474.09079,206.995995 1496.61682,206.995995 Z M1712.74499,64.8384513 C1751.10013,64.8384513 1773.62617,88.2777036 1773.62617,127.241656 L1773.62617,225.869159 L1749.88251,225.869159 L1749.88251,133.329773 C1749.88251,104.715621 1732.83578,87.6688919 1704.52603,87.6688919 C1672.86782,87.9732977 1653.38585,108.977303 1650.64619,140.026702 L1650.64619,225.869159 L1626.90254,225.869159 L1626.90254,65.7516689 L1650.64619,65.7516689 L1650.64619,101.06275 C1661.90921,76.7102804 1683.52203,65.1428571 1712.74499,64.8384513 Z M1950.18158,0 L1973.92523,0 L1973.92523,225.869159 L1950.18158,225.869159 L1950.18158,191.471295 C1938.30975,213.99733 1916.39252,227.086782 1887.77837,227.086782 C1842.11749,227.086782 1810.45928,193.29773 1810.45928,145.506008 C1810.45928,97.7142857 1842.11749,64.5340454 1887.47397,64.5340454 C1916.08812,64.5340454 1938.30975,77.623498 1950.18158,100.453939 L1950.18158,0 Z M1892.34446,206.691589 C1926.13351,206.691589 1950.18158,181.425901 1950.18158,146.11482 C1950.18158,110.803738 1926.13351,85.2336449 1892.34446,85.2336449 C1858.251,85.2336449 1834.20294,110.803738 1834.20294,146.11482 C1834.20294,181.425901 1858.251,206.691589 1892.34446,206.691589 Z" id="codestrands" fill="#FFFFFF"></path>
            <g id="Group-2">
                <polygon id="Rectangle-4" fill="#B4B4B4" transform="translate(122.989875, 159.430399) scale(-1, 1) rotate(23.000000) translate(-122.989875, -159.430399) " points="-1.01785714 138.428571 229.742406 139.781518 246.997608 180.432226 16.6350531 180.016222"></polygon>
                <polygon id="Rectangle-4" fill="#AFAFAF" transform="translate(122.989875, 67.823256) scale(-1, 1) rotate(23.000000) translate(-122.989875, -67.823256) " points="-1.01785714 46.8214286 229.742406 48.174375 246.997608 88.825083 16.6350531 88.409079"></polygon>
                <polygon id="Rectangle-4" fill="#FFFFFF" transform="translate(122.989875, 159.430399) rotate(23.000000) translate(-122.989875, -159.430399) " points="-1.01785714 138.428571 229.742406 139.781518 246.997608 180.432226 16.6350531 180.016222"></polygon>
                <polygon id="Rectangle-4" fill="#E5E5E5" transform="translate(122.989875, 67.823256) rotate(23.000000) translate(-122.989875, -67.823256) " points="-1.01785714 46.8214286 229.742406 48.174375 246.997608 88.825083 16.6350531 88.409079"></polygon>
            </g>
        </g>
    </g>
</svg>