<?xml version="1.0" encoding="UTF-8"?>
<svg width="1432px" height="1535px" viewBox="0 0 1432 1535" version="1.1" xmlns="http://www.w3.org/2000/svg" xmlns:xlink="http://www.w3.org/1999/xlink">
    <!-- Generator: Sketch 48.2 (47327) - http://www.bohemiancoding.com/sketch -->
    <title>Group 2</title>
    <desc>Created with Sketch.</desc>
    <defs></defs>
    <g id="Artboard" stroke="none" stroke-width="1" fill="none" fill-rule="evenodd" transform="translate(-301.000000, -124.000000)">
        <g id="one">
            <g id="Group-2" transform="translate(191.000000, 124.000000)">
                <polygon id="Rectangle-4" fill="#39455A" transform="translate(826.000000, 1077.000000) scale(-1, 1) rotate(23.000000) translate(-826.000000, -1077.000000) " points="-11 935 1546.53465 944.147699 1663 1219 108.149714 1216.18727"></polygon>
                <polygon id="Rectangle-4" fill="#408385" transform="translate(826.000000, 458.000000) scale(-1, 1) rotate(23.000000) translate(-826.000000, -458.000000) " points="-11 316 1546.53465 325.147699 1663 600 108.149714 597.187265"></polygon>
                <polygon id="Rectangle-4" fill="#C5E2A1" transform="translate(826.000000, 1077.000000) rotate(23.000000) translate(-826.000000, -1077.000000) " points="-11 935 1546.53465 944.147699 1663 1219 108.149714 1216.18727"></polygon>
                <polygon id="Rectangle-4" fill="#A5C1A3" transform="translate(826.000000, 458.000000) rotate(23.000000) translate(-826.000000, -458.000000) " points="-11 316 1546.53465 325.147699 1663 600 108.149714 597.187265"></polygon>
            </g>
        </g>
    </g>
</svg>