<?xml version="1.0" encoding="UTF-8"?>
<svg width="2751px" height="643px" viewBox="0 0 2751 643" version="1.1" xmlns="http://www.w3.org/2000/svg" xmlns:xlink="http://www.w3.org/1999/xlink">
    <!-- Generator: Sketch 49 (51002) - http://www.bohemiancoding.com/sketch -->
    <title>Greyscale-dark-bg</title>
    <desc>Created with Sketch.</desc>
    <defs></defs>
    <g id="Greyscale-dark-bg" stroke="none" stroke-width="1" fill="none" fill-rule="evenodd">
        <path d="M763.631509,330.153538 C756.325768,319.499332 745.367156,313.106809 731.364486,313.106809 C711.88251,313.106809 698.488652,329.24032 698.488652,352.983979 C698.488652,377.032043 711.88251,392.861148 731.364486,392.861148 C745.671562,392.861148 756.934579,387.077437 763.631509,374.29239 L803.508678,397.12283 C790.419226,422.388518 763.631509,436.695594 728.624833,436.695594 C677.789052,436.695594 644,403.515354 644,353.288385 C644,302.148198 678.093458,268.359146 729.233645,268.359146 C762.413885,268.359146 788.59279,282.666222 802.899866,307.323097 L763.631509,330.153538 Z M900.309746,268.359146 C954.493992,268.359146 990.413885,301.843792 990.413885,352.375167 C990.413885,403.210948 954.493992,436.695594 900.309746,436.695594 C846.125501,436.695594 810.510013,403.210948 810.510013,352.375167 C810.510013,301.843792 846.125501,268.359146 900.309746,268.359146 Z M900.309746,312.193591 C879.305741,312.193591 864.998665,328.631509 864.998665,352.983979 C864.998665,377.640854 879.305741,394.078772 900.309746,394.078772 C921.618158,394.078772 935.925234,377.640854 935.925234,352.983979 C935.925234,328.631509 921.618158,312.193591 900.309746,312.193591 Z M1130.13618,209 L1184.32043,209 L1184.32043,434.869159 L1130.13618,434.869159 L1130.13618,413.560748 C1118.87316,428.781041 1102.13084,437 1081.43124,437 C1035.16155,437 1004.72096,402.906542 1004.72096,351.766355 C1004.72096,301.539386 1034.85714,268.359146 1080.21362,268.359146 C1101.52203,268.359146 1118.56876,276.88251 1130.13618,291.798398 L1130.13618,209 Z M1094.8251,394.383178 C1115.82911,394.383178 1130.13618,377.640854 1130.13618,353.288385 C1130.13618,328.631509 1115.82911,312.193591 1094.8251,312.193591 C1073.51669,312.193591 1059.20961,328.935915 1059.20961,353.288385 C1059.20961,377.640854 1073.51669,394.383178 1094.8251,394.383178 Z M1299.69025,268.359146 C1357.22296,268.359146 1386.44593,307.018692 1382.79306,366.986649 L1268.33645,366.986649 C1273.51135,385.555407 1287.20961,395.905207 1305.77837,395.905207 C1319.78104,395.905207 1333.47931,390.121495 1344.43792,379.162884 L1372.74766,407.47263 C1356.00534,426.345794 1331.34846,436.695594 1300.90788,436.695594 C1247.02804,436.695594 1213.8478,403.515354 1213.8478,353.288385 C1213.8478,302.148198 1248.24566,268.359146 1299.69025,268.359146 Z M1267.11883,338.068091 L1330.43525,338.068091 C1330.43525,319.194927 1318.25901,306.40988 1299.99466,306.40988 C1282.33912,306.40988 1270.7717,319.194927 1267.11883,338.068091 Z M1503.64219,306.40988 C1491.16155,298.495327 1475.02804,293.624833 1460.11215,293.624833 C1442.1522,293.624833 1428.45394,300.017356 1428.45394,315.23765 C1428.45394,351.461949 1517.94927,332.893191 1517.94927,390.425901 C1517.94927,421.779706 1489.94393,435.782377 1459.19893,435.782377 C1436.36849,435.782377 1412.92924,427.867824 1397.70895,413.256342 L1406.84112,395.905207 C1420.53939,408.690254 1441.23899,416.300401 1460.11215,416.300401 C1478.98531,416.300401 1494.20561,408.99466 1494.51001,392.861148 C1495.42323,353.897196 1405.6235,373.683578 1405.9279,317.064085 C1405.9279,286.623498 1432.41121,273.534045 1461.63418,273.534045 C1480.81175,273.534045 1499.38051,279.317757 1512.77437,288.145527 L1503.64219,306.40988 Z M1633.01469,405.646195 L1639.71162,423.910547 C1628.4486,431.520694 1616.27236,435.782377 1603.48732,435.782377 C1580.04806,436.086782 1562.69693,422.084112 1562.69693,390.425901 L1562.69693,298.190921 L1539.56208,298.190921 L1539.56208,279.622163 L1562.69693,279.622163 L1562.69693,237.614152 L1586.13618,237.614152 L1586.13618,279.622163 L1636.97196,279.622163 L1636.97196,298.190921 L1586.13618,298.190921 L1586.13618,386.468625 C1586.13618,405.950601 1593.74633,413.865154 1607.44459,413.865154 C1615.66355,413.560748 1624.18692,410.821095 1633.01469,405.646195 Z M1699.37517,310.367156 C1710.02937,286.927904 1729.81575,274.142857 1756.90788,273.838451 L1756.90788,296.973298 C1723.11883,296.364486 1702.11482,317.368491 1699.37517,349.635514 L1699.37517,434.869159 L1675.63151,434.869159 L1675.63151,274.751669 L1699.37517,274.751669 L1699.37517,310.367156 Z M1903.93591,434.869159 L1880.80107,434.869159 L1880.80107,409.907877 C1868.01602,427.259012 1847.62083,435.782377 1822.05073,435.782377 C1788.87049,435.782377 1767.56208,414.778371 1767.56208,387.381842 C1767.56208,359.376502 1789.78371,341.720961 1827.53004,341.416555 L1880.19226,341.416555 L1880.19226,331.371162 C1880.19226,307.931909 1865.58077,293.624833 1837.27103,293.624833 C1819.61549,293.624833 1803.17757,300.321762 1786.43525,312.193591 L1776.38985,295.451268 C1797.08945,281.753004 1814.44059,273.838451 1841.83712,273.838451 C1881.40988,273.838451 1903.3271,294.842457 1903.63151,328.935915 L1903.93591,434.869159 Z M1826.61682,415.995995 C1853.70895,415.995995 1874.40854,402.602136 1880.49666,379.771696 L1880.49666,360.28972 L1830.5741,360.28972 C1803.78638,360.28972 1789.78371,368.508678 1789.78371,386.468625 C1789.78371,404.124166 1804.09079,415.995995 1826.61682,415.995995 Z M2042.74499,273.838451 C2081.10013,273.838451 2103.62617,297.277704 2103.62617,336.241656 L2103.62617,434.869159 L2079.88251,434.869159 L2079.88251,342.329773 C2079.88251,313.715621 2062.83578,296.668892 2034.52603,296.668892 C2002.86782,296.973298 1983.38585,317.977303 1980.64619,349.026702 L1980.64619,434.869159 L1956.90254,434.869159 L1956.90254,274.751669 L1980.64619,274.751669 L1980.64619,310.06275 C1991.90921,285.71028 2013.52203,274.142857 2042.74499,273.838451 Z M2280.18158,209 L2303.92523,209 L2303.92523,434.869159 L2280.18158,434.869159 L2280.18158,400.471295 C2268.30975,422.99733 2246.39252,436.086782 2217.77837,436.086782 C2172.11749,436.086782 2140.45928,402.29773 2140.45928,354.506008 C2140.45928,306.714286 2172.11749,273.534045 2217.47397,273.534045 C2246.08812,273.534045 2268.30975,286.623498 2280.18158,309.453939 L2280.18158,209 Z M2222.34446,415.691589 C2256.13351,415.691589 2280.18158,390.425901 2280.18158,355.11482 C2280.18158,319.803738 2256.13351,294.233645 2222.34446,294.233645 C2188.251,294.233645 2164.20294,319.803738 2164.20294,355.11482 C2164.20294,390.425901 2188.251,415.691589 2222.34446,415.691589 Z" id="codestrands" fill="#FFFFFF"></path>
    </g>
</svg>